<?xml version="1.0" encoding="utf-8"?>
<!-- Generator: Adobe Illustrator 27.6.1, SVG Export Plug-In . SVG Version: 6.00 Build 0)  -->
<svg version="1.1" id="Layer_1" xmlns="http://www.w3.org/2000/svg" xmlns:xlink="http://www.w3.org/1999/xlink" x="0px" y="0px"
	 viewBox="0 0 77.4 65" enable-background="new 0 0 77.4 65" xml:space="preserve">
<g>
	<path fill="#F0EE9F" d="M51.344,16.862c-0.004,0.013-0.005,0.026-0.01,0.039c0.347,0.677,0.841,1.277,1.491,1.728
		c0.375,0.26,0.785,0.471,1.215,0.629C52.897,18.806,51.933,17.94,51.344,16.862z"/>
	<path fill="#F0EE9F" d="M50.391,7.849c-0.045,0.027-0.084,0.06-0.126,0.091c0.035-0.022,0.071-0.042,0.108-0.062
		C50.378,7.867,50.384,7.858,50.391,7.849z"/>
	<path fill="#F0EE9F" d="M76.39,17.081c-0.035-4.672-1.929-8.89-4.966-11.978c-0.054,0.158-0.142,0.308-0.289,0.415
		c-0.411,0.298-1.005,0.197-1.185-0.311c-0.08-0.226-0.061-0.472,0.036-0.679c0.004-0.01,0.008-0.019,0.014-0.029
		c0.081-0.159,0.216-0.283,0.382-0.363c-3.058-2.638-7.038-4.234-11.395-4.202c-9.54,0.071-17.216,7.861-17.146,17.401
		c0.009,1.249,0.155,2.464,0.415,3.635c0.105,0.035,0.21,0.07,0.315,0.104c0.037,0.012,0.066,0.04,0.09,0.072h5.688h0.357v0.357
		v0.482c2.117-1.06,3.995-1.219,4.525-1.241c0.724-0.174,1.448-0.347,2.173-0.521c-0.04-0.105-0.072-0.211-0.094-0.321
		c-0.105-0.011-0.211-0.011-0.316-0.028c-1.603-0.257-3.031-1.198-3.848-2.57c-0.059,0.105-0.106,0.216-0.182,0.312
		c-0.143,0.18-0.395-0.072-0.254-0.25c0.099-0.125,0.173-0.265,0.236-0.41c-0.102-0.208-0.193-0.422-0.266-0.646
		c-0.322-0.984-0.354-2.054-0.122-3.061c-0.575-0.085-1.059-0.495-1.227-1.058c-0.09-0.299-0.066-0.606,0.037-0.897
		c0.12-0.34,0.343-0.662,0.379-1.026c0.038-0.391-0.236-0.71-0.338-1.07c-0.089-0.312-0.046-0.631,0.096-0.92
		c0.332-0.676,1.071-0.95,1.739-1.174c0.011-0.004,0.022-0.006,0.033-0.007c0.197-0.062,0.396-0.116,0.597-0.161
		c0.017-0.074,0.029-0.149,0.048-0.215c0.077-0.281,0.225-0.525,0.455-0.707c0.391-0.308,0.9-0.335,1.325-0.132
		c0.167-0.823,1.132-1.359,1.926-0.999c0.245,0.111,0.476,0.29,0.753,0.306c0.207,0.012,0.411-0.065,0.595-0.151
		c0.364-0.172,0.709-0.424,1.112-0.496c0.396-0.071,0.757,0.081,1.007,0.391c0.123,0.153,0.216,0.337,0.316,0.514
		c0.502-0.334,1.156-0.419,1.726-0.157c0.68,0.312,1.065,1.075,0.991,1.804c0.681,0.008,1.177,0.634,1.041,1.299
		c0.044,0.015,0.085,0.034,0.125,0.055c0.41,0.125,0.756,0.449,0.838,0.883c0.039,0.204,0.004,0.399-0.06,0.583
		c0.12,0.111,0.224,0.238,0.285,0.394c0.192,0.492-0.005,1.039-0.415,1.349c-0.016,0.012-0.031,0.005-0.046,0.011
		c-0.009,0.083-0.02,0.166-0.032,0.245c-0.026,0.17-0.07,0.341-0.132,0.506c0.071,0.066,0.059,0.187-0.023,0.254
		c0.922,0.531,1.244,1.706,0.719,2.633l-0.449,0.79c0.608-0.122,1.33-0.124,2.239-0.004c2.111,0.278,4.744,2.451,4.719,9.145
		c-0.006,1.566-0.024,3.133-0.048,4.615C74.305,26.668,76.427,22.118,76.39,17.081z"/>
	<polygon fill="#F0EE9F" points="62.354,34.179 62.354,34.178 62.344,34.18 	"/>
	<path fill="#F0EE9F" d="M58.429,4.934l-0.01-0.028c-0.147-0.031-0.306-0.009-0.47,0.049c0.053,0,0.105-0.005,0.158,0
		C58.212,4.927,58.322,4.919,58.429,4.934z"/>
	<path fill="#F0EE9F" d="M70.302,4.687c-0.05,0.12-0.058,0.26-0.022,0.38c0.087,0.291,0.4,0.332,0.631,0.175
		c0.158-0.107,0.242-0.292,0.2-0.454c-0.097-0.094-0.203-0.179-0.302-0.27c-0.18-0.047-0.389-0.008-0.493,0.152
		C70.311,4.675,70.307,4.681,70.302,4.687z"/>
	<path fill="#F0EE9F" d="M62.742,34.1c0.109-0.023,0.218-0.048,0.326-0.074c-0.107,0.025-0.216,0.045-0.325,0.068
		C62.743,34.097,62.742,34.099,62.742,34.1z"/>
	<polygon fill="#F0EE9F" points="65.85,33.12 65.861,33.115 65.851,33.119 	"/>
	<path fill="#F0EE9F" d="M59.989,5.573c0.027-0.017,0.058-0.026,0.086-0.041c-0.038,0.009-0.071,0.033-0.109,0.045
		C59.974,5.577,59.981,5.574,59.989,5.573z"/>
	<path fill="#F0EE9F" d="M54.364,5.412c-0.005,0.004-0.008,0.01-0.013,0.015c0.004-0.003,0.007-0.007,0.012-0.01
		C54.363,5.415,54.364,5.414,54.364,5.412z"/>
	<path fill="#F0EE9F" d="M58.087,34.445c-0.003,0.002-0.006,0.004-0.009,0.007c0.203,0.012,0.408,0.021,0.613,0.026
		c0-0.004,0-0.008,0-0.013c-0.007,0-0.013-0.001-0.019-0.001C58.476,34.458,58.281,34.456,58.087,34.445z"/>
	<path fill="#F0EE9F" d="M66.903,32.632c0.032-0.016,0.064-0.032,0.095-0.048c-0.031,0.016-0.064,0.03-0.096,0.046
		C66.903,32.63,66.903,32.631,66.903,32.632z"/>
	<path fill="#F0EE9F" d="M66.592,32.782c-0.06,0.029-0.121,0.057-0.181,0.085c0.062-0.029,0.126-0.055,0.187-0.085
		c-0.001-0.001,0-0.002-0.001-0.003C66.595,32.78,66.593,32.781,66.592,32.782z"/>
	<path fill="#F0EE9F" d="M51.102,16.387c-0.002-0.003-0.003-0.007-0.004-0.01c0.001,0.004,0.002,0.008,0.004,0.012
		C51.102,16.388,51.102,16.388,51.102,16.387z"/>
	<path fill="#F0EE9F" d="M48.708,30.969c0.265,0.2,0.526,0.405,0.802,0.59c-0.277-0.186-0.536-0.395-0.802-0.596V30.969z"/>
	<path fill="#F0EE9F" d="M55.716,34.147c0.002-0.007,0.006-0.013,0.009-0.02c-0.255-0.051-0.508-0.108-0.758-0.17
		C55.217,34.02,55.461,34.097,55.716,34.147z"/>
	<rect x="6.617" y="42.049" fill="#F0EE9F" width="5.72" height="4.818"/>
	<path fill="#F0EE9F" d="M34.808,9.566c-1.272,0-2.304,1.031-2.304,2.304s1.032,2.304,2.304,2.304c1.273,0,2.304-1.032,2.304-2.304
		S36.081,9.566,34.808,9.566z"/>
	<path fill="#F0EE9F" d="M3.787,22.214c-0.552-0.29-0.848,0.731-0.249,0.759c0.397,0.018,0.619-0.441,0.348-0.69
		C3.859,22.258,3.826,22.235,3.787,22.214z"/>
</g>
<g>
	<path fill="#FFFFFF" d="M66.204,4.517h-0.056c-2.167,0.052-3.946,1.788-4.049,3.954c-0.051,1.138,0.368,2.212,1.18,3.024
		c0.632,0.632,0.98,1.433,0.98,2.256v1.35c0,1.073,0.873,1.946,1.946,1.946s1.946-0.873,1.946-1.946v-1.35
		c0-0.878,0.332-1.662,0.934-2.211c0.778-0.729,1.225-1.793,1.225-2.918C70.31,6.358,68.468,4.517,66.204,4.517z M67.498,14.347
		v0.753c0,0.713-0.58,1.294-1.293,1.294s-1.293-0.58-1.293-1.294v-0.753H67.498z M67.498,13.493l-0.011,0.202h-2.564l-0.011-0.201
		c-0.052-0.873-0.471-1.744-1.177-2.45c-0.679-0.74-1.037-1.667-0.983-2.545c0.057-1.807,1.547-3.27,3.389-3.329h0.064
		c1.904,0,3.453,1.549,3.453,3.453c0,0.948-0.37,1.81-1.041,2.425l-0.005,0.005C67.921,11.797,67.546,12.618,67.498,13.493z"/>
	<path fill="#FFFFFF" d="M66.204,6.676c-1.073,0-1.946,0.873-1.946,1.946c0,0.207,0.119,0.326,0.326,0.326
		c0.207,0,0.326-0.119,0.326-0.326c0-0.713,0.58-1.294,1.293-1.294c0.207,0,0.326-0.119,0.326-0.326
		C66.531,6.795,66.412,6.676,66.204,6.676z"/>
</g>
<g>
	<path fill="#52A5AE" d="M67.721,48.9c-31.1-4.5-42.9-42.1-43-42.5l0.5-0.1c0.1,0.4,11.8,37.7,42.6,42.1L67.721,48.9z"/>
</g>
<g>
	<path fill="#52A5AE" d="M61.621,49.2c-17.6,0-31.4-7.6-40.2-14.5c-10.5-8.2-16.3-17.1-16.4-17.1l0.4-0.3c0.1,0.1,5.8,8.9,16.3,17
		c9.7,7.5,25.5,16.1,46,14v0.5C65.721,49.1,63.621,49.2,61.621,49.2z"/>
</g>
<g>
	<g>
		<g>
			<path fill="#52A5AE" d="M5.921,16.3c-0.1-0.4-0.5-0.7-0.9-0.8s-0.8,0-1.1,0.3c-0.1,0-0.1,0.1-0.1,0.1c-0.2,0.5-0.2,1.1,0.2,1.5
				s0.9,0.5,1.4,0.2C5.821,17.3,6.021,16.8,5.921,16.3z M5.521,16.7c-0.1,0.4-0.5,0.7-0.9,0.5s-0.5-0.6-0.4-0.9l0.1-0.1
				c0.1-0.3,0.5-0.4,0.8-0.3C5.321,16.1,5.521,16.4,5.521,16.7z"/>
		</g>
	</g>
</g>
<g>
	<g>
		<g>
			<path fill="#52A5AE" d="M25.921,5.1c-0.1-0.4-0.5-0.7-0.9-0.8c-0.4-0.1-0.8,0-1.1,0.3c-0.1,0-0.1,0.1-0.1,0.1
				c-0.2,0.5-0.1,1.1,0.2,1.5c0.4,0.4,0.9,0.5,1.4,0.2C25.921,6.1,26.121,5.6,25.921,5.1z M25.521,5.5c-0.1,0.4-0.5,0.7-0.9,0.5
				s-0.5-0.6-0.4-0.9l0.1-0.1c0.1-0.3,0.5-0.4,0.8-0.3C25.321,4.9,25.621,5.2,25.521,5.5z"/>
		</g>
	</g>
</g>
<g>
	<g>
		<g>
			<path fill="#52A5AE" d="M69.921,48.1c-0.2-0.5-0.6-0.8-1-0.9c-0.5-0.1-0.9,0-1.2,0.4c-0.1,0-0.1,0.1-0.2,0.1
				c-0.3,0.6-0.2,1.2,0.3,1.7c0.4,0.4,1.1,0.5,1.6,0.2C69.821,49.2,70.121,48.6,69.921,48.1z M69.421,48.5c-0.1,0.4-0.6,0.8-1.1,0.6
				c-0.4-0.2-0.6-0.6-0.5-1.1l0.1-0.1c0.2-0.4,0.5-0.5,0.9-0.3C69.221,47.9,69.521,48.2,69.421,48.5z"/>
		</g>
	</g>
</g>
<g>
	<path fill="#1B1749" d="M54.669,42.8h-41c-0.1,0-0.2-0.1-0.2-0.2V18.7c0-0.1,0.1-0.2,0.2-0.2h41c0.1,0,0.2,0.1,0.2,0.2v23.8
		C54.969,42.7,54.769,42.8,54.669,42.8z M13.869,42.3h40.6V19h-40.6V42.3z"/>
</g>
<path fill="none" d="M26.5,61.711c0.008,0.024,0.016,0.047,0.025,0.071c-0.027-0.252-0.082-0.498-0.206-0.737
	c-0.005-0.009-0.012-0.016-0.017-0.025h-0.089C26.314,61.251,26.42,61.481,26.5,61.711z"/>
<path fill="none" d="M41.187,20.992c0.011,0.052,0.022,0.104,0.033,0.156h0.438C41.501,21.096,41.344,21.044,41.187,20.992z"/>
<path fill="none" d="M51.381,49.511c-0.48-0.96-0.744-1.982-1.084-3.002c-0.046-0.137-0.095-0.273-0.148-0.406
	c0.031,0.198,0.046,0.405,0.043,0.621C50.171,48.06,50.684,48.863,51.381,49.511z"/>
<path fill="none" d="M70.809,4.517c0.099,0.092,0.205,0.176,0.302,0.27c-0.019-0.071-0.055-0.14-0.133-0.194
	C70.928,4.559,70.87,4.533,70.809,4.517z"/>
<path fill="none" d="M62.338,34.182c-0.029,0.096-0.058,0.191-0.087,0.287c-0.003,0.022-0.01,0.043-0.014,0.065
	c0.037-0.119,0.083-0.234,0.117-0.355c-0.003,0.001-0.006,0.001-0.009,0.001C62.342,34.181,62.34,34.181,62.338,34.182z"/>
<path fill="none" d="M56.391,35.334c0.006,0.003,0.01,0.009,0.016,0.011c0.06,0.025,0.111,0.024,0.163,0.029
	c-0.005-0.008-0.015-0.01-0.019-0.019C56.503,35.364,56.445,35.343,56.391,35.334z"/>
<g>
	<path fill="#FFC5FF" d="M58.81,12.925c0.009-0.017,0.019-0.035,0.028-0.052c0.043-0.081,0.086-0.162,0.129-0.242
		c0.121-0.227,0.241-0.463,0.37-0.692c0.07-0.123,0.137-0.249,0.222-0.36c0.056-0.075,0.118-0.133,0.183-0.186
		c0.004-0.003,0.008-0.009,0.012-0.012c0.286-0.226,0.637-0.25,0.985-0.168c0.116,0.027,0.23,0.066,0.342,0.113
		c0.158,0.067,0.311,0.149,0.45,0.239c0.017,0.011,0.033,0.025,0.05,0.036c0.635,0.426,1.191,1.004,1.983,1.113
		c0.008,0.001,0.012-0.005,0.019-0.005c0.05,0.001,0.093-0.01,0.126-0.038c0.081-0.068,0.094-0.188,0.023-0.254
		c-0.021-0.019-0.038-0.042-0.075-0.048c-0.779-0.107-1.318-0.704-1.948-1.114c-0.102-0.066-0.212-0.127-0.326-0.184
		c-0.523-0.263-1.147-0.398-1.673-0.101c-0.035,0.02-0.057,0.055-0.089,0.079c-0.118,0.083-0.23,0.173-0.318,0.286
		c-0.107,0.137-0.198,0.288-0.281,0.44c-0.116,0.212-0.228,0.427-0.341,0.64c-0.064,0.121-0.13,0.242-0.194,0.363
		c-0.027,0.05-0.054,0.1-0.08,0.15c-0.013,0.024-0.025,0.047-0.038,0.07c-0.443,0.832-0.887,1.664-1.33,2.496
		c-0.506,0.949-1.011,1.898-1.517,2.847c-0.039,0.073-0.015,0.135,0.025,0.185c0.072,0.089,0.215,0.122,0.284-0.008
		c0.838-1.573,1.677-3.146,2.515-4.719C58.499,13.509,58.655,13.217,58.81,12.925z"/>
	<rect x="3.472" y="42.049" fill="#FFC5FF" width="1.373" height="4.818"/>
	<path fill="#FFC5FF" d="M73.288,37.5H60.65c-2.262,0-4.095,1.833-4.095,4.095c0,1.597,0.923,2.965,2.256,3.64
		c0.004,0.054,0.024,0.106,0.066,0.139c-0.251,0.898-0.737,1.723-1.409,2.382c-0.128,0.126,0.003,0.343,0.173,0.298
		c1.703-0.448,3.287-1.267,4.658-2.364h10.988c2.262,0,4.095-1.833,4.095-4.095S75.549,37.5,73.288,37.5z M65.213,43.279
		c-0.573-0.451-1.146-0.902-1.719-1.353c-0.098-0.077-0.047-0.222,0.036-0.28c0.542-0.38,1.084-0.76,1.626-1.14
		c0.188-0.132,0.366,0.177,0.18,0.308c-0.473,0.332-0.946,0.663-1.419,0.995c0.516,0.406,1.032,0.812,1.548,1.219
		C65.646,43.168,65.392,43.419,65.213,43.279z M69.801,41.774c-0.673,0.497-1.346,0.995-2.019,1.492
		c-0.185,0.137-0.362-0.173-0.18-0.308c0.59-0.436,1.181-0.873,1.771-1.309c-0.524-0.264-1.049-0.528-1.573-0.792
		c-0.205-0.103-0.024-0.411,0.18-0.308c0.607,0.306,1.214,0.611,1.821,0.917C69.932,41.532,69.9,41.701,69.801,41.774z"/>
	<path fill="#FFC5FF" d="M5.721,22.228c-0.164-0.012-0.298,0.088-0.357,0.236c-0.018,0.045-0.007,0.098,0.021,0.14
		c0.011,0.059,0.042,0.114,0.085,0.158c0.005,0.007,0.009,0.014,0.014,0.02c0.086,0.104,0.237,0.151,0.361,0.089
		c0.02-0.01,0.038-0.022,0.055-0.036c0.103-0.065,0.141-0.168,0.129-0.271C6.027,22.378,5.893,22.241,5.721,22.228z"/>
	<rect x="25.734" y="10.158" fill="#FFC5FF" width="3.422" height="3.422"/>
</g>
<g>
	<path fill="#F05C5E" d="M63.107,34.019c0.014-0.003,0.028-0.005,0.042-0.009c0,0,0-0.001,0-0.001c0-0.001,0-0.002,0.001-0.002
		c-0.012,0.003-0.022,0.007-0.034,0.01C63.112,34.017,63.11,34.018,63.107,34.019z"/>
	<polygon fill="#F05C5E" points="66.888,32.639 66.886,32.644 66.892,32.641 66.891,32.637 	"/>
	<path fill="#F05C5E" d="M58.691,34.464C58.691,34.464,58.691,34.464,58.691,34.464c-0.006,0-0.013-0.001-0.019-0.001
		C58.678,34.464,58.685,34.464,58.691,34.464z"/>
	<path fill="#F05C5E" d="M62.982,34.042c-0.077,0.018-0.158,0.025-0.235,0.042c-0.001,0.003-0.002,0.007-0.003,0.01
		c0,0.001,0,0.001,0,0.002c0.108-0.023,0.217-0.043,0.325-0.068c0.006-0.001,0.013-0.003,0.019-0.004
		c-0.002,0-0.004,0.001-0.006,0.001C63.048,34.032,63.014,34.034,62.982,34.042z"/>
	<path fill="#F05C5E" d="M66.218,16.09c-0.909-0.12-1.631-0.117-2.239,0.004c-0.883,0.177-1.519,0.615-2.102,1.328
		c-0.508,0.621-0.978,1.445-1.542,2.495c-0.248,0.461-0.58,1.418-0.952,2.647c-0.03,0.099-0.058,0.187-0.089,0.289
		c-0.013,0.003-0.025,0.007-0.038,0.01c-1.198,0.315-2.339,0.508-3.185,0.431c-2.264-0.205-2.637-1.575-2.687-2.218
		c-0.002-0.02-0.002-0.037-0.003-0.056c-0.009-0.169,0.003-0.278,0.003-0.278s-0.054,0-0.151,0.004
		c-0.531,0.022-2.408,0.181-4.525,1.241v8.976c0.265,0.201,0.525,0.41,0.802,0.596c0.116,0.078,0.24,0.144,0.358,0.219
		c0.371,0.236,0.746,0.467,1.136,0.675c0.168,0.089,0.344,0.165,0.514,0.249c0.353,0.173,0.706,0.345,1.072,0.495
		c0.204,0.083,0.415,0.151,0.622,0.227c0.345,0.126,0.691,0.251,1.046,0.355c0.233,0.068,0.471,0.121,0.708,0.179
		c0.251,0.062,0.503,0.119,0.758,0.17c0.09-0.273,0.235-0.534,0.394-0.753c0.18-0.247,0.393-0.466,0.609-0.68
		c0.863-0.854,1.976-1.448,3.173-1.662c0.511-0.414,1.163-0.625,1.838-0.452c0.223-0.154,0.473-0.27,0.746-0.333
		c0.884-0.203,1.748,0.26,2.351,0.88c0.159-0.057,0.333-0.089,0.525-0.089c0.748,0.001,1.336,0.537,1.496,1.224
		c0.017,0.072,0.025,0.145,0.032,0.219c0.002,0.006,0.006,0.01,0.008,0.016c0.013,0.04,0.013,0.078,0.004,0.113
		c0,0.006,0.002,0.011,0.002,0.017c0.031-0.016,0.064-0.03,0.096-0.046c1.423-0.73,2.731-1.653,3.889-2.732
		c0.024-1.482,0.043-3.049,0.048-4.615C70.962,18.542,68.329,16.368,66.218,16.09z"/>
	<path fill="#F05C5E" d="M62.338,34.18c0,0,0,0.001,0,0.001c0,0,0,0,0,0.001c0.002,0,0.004-0.001,0.006-0.001
		c0.003-0.001,0.006-0.001,0.009-0.002c0-0.001,0-0.001,0-0.002c0.002-0.008,0.005-0.016,0.007-0.025
		c-0.005,0.001-0.01,0.002-0.015,0.003C62.344,34.163,62.341,34.172,62.338,34.18z"/>
	<path fill="#F05C5E" d="M65.87,33.085c-0.005,0.01-0.011,0.018-0.016,0.028c-0.001,0.002-0.003,0.004-0.003,0.006
		c0.003-0.001,0.007-0.003,0.01-0.004c0.082-0.035,0.164-0.069,0.245-0.106c0.016-0.007,0.031-0.015,0.046-0.022
		c0.087-0.039,0.172-0.081,0.258-0.121c0.06-0.028,0.121-0.056,0.181-0.085c-0.022,0.011-0.046,0.018-0.067,0.028
		C66.311,32.911,66.087,32.992,65.87,33.085z"/>
	<path fill="#F05C5E" d="M13.188,46.867h3.185c0.07-0.219,0.136-0.416,0.198-0.583c0.242-0.663,0.572-1.233,0.953-1.732v-2.502
		h-4.336V46.867z"/>
	<polygon fill="#F05C5E" points="15.746,27.993 15.746,31.974 15.746,34.441 17.573,33.386 21.33,31.217 17.573,29.048 	"/>
	<polygon fill="#F05C5E" points="19.72,10.33 19.72,13.409 22.385,11.869 	"/>
	<path fill="#F05C5E" d="M39.718,31.14c0.155-0.169-0.097-0.422-0.252-0.252l-1.228,1.34c-0.155,0.169,0.097,0.422,0.252,0.252
		C38.899,32.033,39.308,31.587,39.718,31.14z"/>
	<path fill="#F05C5E" d="M41.114,33.718c-0.814-0.113-1.627-0.226-2.441-0.339c-0.224-0.031-0.321,0.312-0.095,0.344
		c0.814,0.113,1.627,0.226,2.441,0.339C41.243,34.093,41.341,33.75,41.114,33.718z"/>
	<path fill="#F05C5E" d="M38.714,34.893c-0.201-0.11-0.382,0.198-0.18,0.308c0.495,0.27,0.991,0.54,1.486,0.811
		c0.201,0.11,0.382-0.198,0.18-0.308C39.705,35.433,39.21,35.163,38.714,34.893z"/>
	<path fill="#F05C5E" d="M26.855,39.672c-0.261-0.385-0.499-0.786-0.738-1.185c-0.036-0.06-0.076-0.118-0.113-0.179
		c-0.025-0.041-0.052-0.081-0.077-0.122c-0.166-0.272-0.328-0.546-0.51-0.807c-0.421-0.604-0.985-1.167-1.75-1.252
		c-0.694-0.078-1.474,0.236-1.671,0.958c-0.015,0.055-0.005,0.102,0.02,0.138c0.073,0.111,0.279,0.123,0.324-0.043
		c0.033-0.12,0.101-0.211,0.172-0.299c0.287-0.356,0.826-0.472,1.269-0.376c0.421,0.091,0.752,0.362,1.033,0.685
		c0.214,0.246,0.402,0.521,0.563,0.784c0.085,0.139,0.17,0.278,0.255,0.418c0.006,0.011,0.013,0.021,0.02,0.032
		c0.056,0.092,0.112,0.184,0.168,0.276c0.292,0.478,0.586,0.953,0.906,1.414c0.488,0.703,1.009,1.383,1.56,2.036
		c0.419,0.497,0.862,0.972,1.315,1.436c0.225,0.231,0.448,0.463,0.681,0.686c0.166,0.159,0.418-0.093,0.252-0.252
		C29.159,42.703,27.922,41.248,26.855,39.672z"/>
	<path fill="#F05C5E" d="M42.573,21.076c-0.105-0.035-0.21-0.07-0.315-0.104c-0.39-0.129-0.781-0.259-1.171-0.388
		c-0.012-0.004-0.023-0.006-0.034-0.008c-0.113-0.074-0.314,0.022-0.277,0.197c0.027,0.125,0.054,0.25,0.08,0.375
		c0.013,0.059,0.025,0.119,0.038,0.178c0.013,0.059,0.025,0.119,0.038,0.178l0,0c0.057,0.265,0.113,0.53,0.17,0.795
		c0.031,0.144,0.202,0.156,0.298,0.079c0.336-0.27,0.672-0.539,1.008-0.809c0.027-0.021,0.053-0.043,0.08-0.064c0,0,0,0,0,0
		c0.054-0.044,0.109-0.087,0.163-0.131c0.017-0.013,0.022-0.031,0.031-0.047c0.031-0.058,0.02-0.125-0.019-0.178
		C42.639,21.116,42.61,21.088,42.573,21.076z M41.388,21.933c-0.031-0.143-0.061-0.286-0.092-0.429c0,0,0,0,0,0
		c-0.013-0.059-0.025-0.119-0.038-0.178c-0.013-0.059-0.025-0.119-0.038-0.178c-0.011-0.052-0.022-0.104-0.033-0.156
		c0.157,0.052,0.314,0.104,0.472,0.156c0.167,0.055,0.334,0.111,0.501,0.166c-0.005,0.004-0.01,0.008-0.015,0.012
		c-0.074,0.059-0.148,0.119-0.222,0.178c0,0,0,0,0,0C41.744,21.648,41.566,21.79,41.388,21.933z"/>
</g>
<g>
	<path fill="#52A5AE" d="M60.794,11.97c-0.18-0.086-0.375-0.077-0.544-0.004c-0.105,0.045-0.202,0.109-0.275,0.207
		c-0.017,0.024-0.027,0.047-0.032,0.069c-0.01,0.014-0.02,0.03-0.027,0.049c-0.039,0.11-0.031,0.223-0.005,0.332
		c0.028,0.118,0.083,0.229,0.168,0.316c0.062,0.064,0.134,0.118,0.218,0.151c0.265,0.106,0.533-0.015,0.687-0.235
		c0.026-0.036,0.056-0.069,0.074-0.111C61.185,12.456,61.088,12.11,60.794,11.97z M60.73,12.61c-0.08,0.173-0.23,0.184-0.343,0.115
		c-0.104-0.063-0.178-0.194-0.126-0.341c0.003-0.005,0.004-0.006,0.007-0.01c0.006-0.009,0.012-0.017,0.016-0.023
		c0.035-0.047,0.083-0.065,0.13-0.079c0.027-0.008,0.05-0.01,0.078-0.009c0.095,0.004,0.182,0.052,0.227,0.134
		c0.025,0.045,0.025,0.098,0.013,0.156C60.729,12.572,60.74,12.589,60.73,12.61z"/>
	<path fill="#52A5AE" d="M71.211,4.324c-0.169-0.13-0.38-0.189-0.584-0.178c-0.038-0.05-0.1-0.078-0.179-0.049
		c-0.025,0.009-0.041,0.028-0.065,0.039c-0.166,0.08-0.301,0.204-0.382,0.363c-0.006,0.01-0.011,0.019-0.014,0.029
		c-0.097,0.207-0.116,0.453-0.036,0.679c0.179,0.508,0.773,0.609,1.185,0.311c0.147-0.107,0.235-0.257,0.289-0.415
		C71.517,4.831,71.476,4.527,71.211,4.324z M70.911,5.242c-0.231,0.157-0.544,0.115-0.631-0.175c-0.036-0.12-0.028-0.26,0.022-0.38
		c0.005-0.006,0.009-0.012,0.013-0.018c0.105-0.16,0.313-0.199,0.493-0.152c0.061,0.016,0.12,0.042,0.169,0.076
		c0.077,0.054,0.114,0.122,0.133,0.194C71.153,4.95,71.068,5.135,70.911,5.242z"/>
	<path fill="#52A5AE" d="M21.109,58.657c0.134,0.006,0.269,0.024,0.403,0.057c0.056,0.014,0.091,0.047,0.11,0.087
		c0-0.016,0.019-0.026,0.023-0.042c-0.045-0.02-0.089-0.042-0.137-0.057C21.386,58.666,21.252,58.652,21.109,58.657z"/>
	<path fill="#52A5AE" d="M21.066,58.658c0.011,0,0.023-0.003,0.034-0.002c-0.005,0-0.008-0.002-0.013-0.001
		C21.081,58.655,21.074,58.658,21.066,58.658z"/>
	<path fill="#52A5AE" d="M23.513,38.793c0.303,0.084,0.59-0.119,0.685-0.402c0.096-0.284-0.032-0.592-0.312-0.706
		c-0.273-0.112-0.581-0.02-0.749,0.219c-0.02,0.028-0.03,0.056-0.032,0.083c-0.017,0.02-0.031,0.045-0.038,0.079
		C23.005,38.383,23.196,38.706,23.513,38.793z M23.415,38.117c0.011-0.01,0.021-0.021,0.03-0.034
		c0.137-0.195,0.483-0.067,0.419,0.178c-0.028,0.109-0.121,0.212-0.243,0.191c-0.127-0.022-0.236-0.163-0.21-0.292
		C23.415,38.145,23.416,38.131,23.415,38.117z"/>
	<path fill="#52A5AE" d="M17.573,33.386l-1.827,1.055v-2.467c-1.262,0.686-2.433,1.657-3.596,2.388
		c-0.582,0.365-1.195,0.686-1.85,0.897c-0.717,0.231-1.47,0.305-2.219,0.348c-1.314,0.075-2.672,0.056-3.894,0.612
		c-0.327,0.148-0.644,0.335-0.931,0.557v3.55h14.317V33.386z"/>
	<path fill="#52A5AE" d="M1.981,22.236c-0.192-0.252-0.618-0.166-0.66,0.217c-0.008,0.028-0.009,0.059,0,0.091
		c0.071,0.581,0.854,0.421,0.74-0.125C2.046,22.344,2.017,22.284,1.981,22.236z"/>
	<path fill="#52A5AE" d="M50.597,34.554c0.153-0.169,0.306-0.338,0.459-0.507c0.154-0.17-0.098-0.423-0.252-0.252
		c-0.166,0.183-0.331,0.366-0.497,0.549c-0.123-0.108-0.245-0.216-0.368-0.325c-0.172-0.151-0.425,0.1-0.252,0.252
		c0.089,0.079,0.179,0.158,0.268,0.236c-0.11,0.198-0.22,0.397-0.329,0.596c-0.095,0.172,0.14,0.371,0.28,0.216
		c0.143-0.159,0.287-0.317,0.43-0.476c0.19,0.167,0.379,0.335,0.569,0.502c0.148,0.131,0.384-0.034,0.28-0.216
		C51.044,34.883,50.84,34.685,50.597,34.554z"/>
	<path fill="#52A5AE" d="M37.378,48.131c-0.465-0.067-0.753-0.068-0.753-0.068s-0.013,0.017-0.034,0.041
		c-0.023,0.028-0.061,0.07-0.113,0.122c-0.493,0.501-2.337,1.963-6.612,1.285c-0.748-0.118-1.454-0.323-2.116-0.569
		c0.045-0.798,0.015-1.478-0.056-2.082c-0.221-1.862-0.888-2.881-1.411-3.364c-0.313-0.289-0.669-0.532-1.055-0.732
		c-0.416-0.216-0.866-0.379-1.338-0.486c-0.916-0.208-1.909-0.205-2.87,0.021c-1.323,0.31-2.579,1.053-3.497,2.253
		c-0.382,0.499-0.711,1.069-0.953,1.732c-0.061,0.167-0.127,0.364-0.198,0.583c-1.032,3.226-2.964,11.681-3.482,13.798v0h5.647v0
		c0.204-0.59,0.474-1.105,0.954-1.575c0.522-0.512,1.242-0.91,1.994-0.76c0.061,0.012,0.119,0.027,0.175,0.045
		c0.53-0.445,1.2-0.489,1.827-0.304c0.295,0.087,0.581,0.22,0.836,0.394c0.512-0.072,1.033-0.044,1.534,0.073
		c0.137,0.032,0.273,0.068,0.406,0.114c0.007,0,0.014,0.002,0.02,0.002c0.166-1.243,0.332-2.487,0.498-3.73
		c0.042-0.312,0.083-0.625,0.125-0.937c0.073-0.549,0.147-1.098,0.22-1.648c0.095-0.713,0.19-1.426,0.285-2.139
		c0.017-0.127,0.135-0.175,0.232-0.158c0.074,0.013,0.138,0.06,0.125,0.158c-0.105,0.787-0.21,1.574-0.315,2.361
		c-0.088,0.659-0.176,1.319-0.264,1.978c-0.175,1.315-0.351,2.629-0.526,3.944c0.068,0.042,0.102,0.124,0.067,0.212
		c0.851,0.057,1.698,0.189,2.513,0.443c0.759,0.237,1.613,0.53,2.216,1.069c0.144,0.128,0.272,0.285,0.369,0.458l0,0h6.981v0
		c0.078-0.132,0.132-0.274,0.198-0.412c0.448-0.939,0.62-1.998,0.403-3.028c-0.264-1.257-1.012-2.396-2.081-3.113
		c-0.127-0.085-0.089-0.251,0.007-0.314c0.166-0.299,0.332-0.597,0.498-0.896c0.111-0.201,0.419-0.021,0.308,0.18
		c-0.156,0.279-0.311,0.559-0.466,0.839c0.575,0.418,1.062,0.948,1.429,1.56c0.714,1.192,0.948,2.636,0.594,3.984
		c-0.075,0.285-0.182,0.559-0.303,0.827c-0.057,0.126-0.11,0.253-0.176,0.373v0h6.651h1.823v0c-0.883-2.428-2.555-6.598-4.404-9.032
		C41.293,49.007,38.651,48.314,37.378,48.131z"/>
</g>
<g>
	<path fill="#FFFFFF" d="M55.275,19.551c-0.004-0.332,0.069-0.669,0.244-0.979l0.026-0.046c-0.04-0.05-0.064-0.112-0.025-0.185
		c0.506-0.949,1.011-1.898,1.517-2.847c0.443-0.832,0.887-1.664,1.33-2.496c0.013-0.024,0.025-0.047,0.038-0.07
		c-0.405-0.132-0.705-0.53-0.68-0.957c-1.477,0.032-2.841-1.132-3.08-2.582c-0.895,0.34-1.714,0.843-2.43,1.473
		c-0.008,0.019-0.005,0.039-0.022,0.057c-0.742,0.76-1.2,1.746-1.365,2.791c-0.143,0.906-0.044,1.829,0.27,2.666
		c0.002,0.003,0.003,0.007,0.004,0.01c0.034-0.354-0.029-0.717-0.194-1.038c-0.104-0.204,0.202-0.386,0.307-0.182
		c0.275,0.536,0.3,1.141,0.129,1.695c0.589,1.079,1.553,1.944,2.696,2.396C54.438,19.404,54.854,19.499,55.275,19.551z
		 M51.468,13.21c0.018-0.324,0.195-0.604,0.472-0.747c0.351-0.313,0.846-0.444,1.317-0.321c0.147,0.038,0.178,0.249,0.045,0.326
		l-1.564,0.895C51.626,13.426,51.46,13.349,51.468,13.21z M53.232,14.309c-0.013,0.035-0.034,0.069-0.063,0.093
		c-0.002,0.01-0.003,0.021-0.005,0.031c-0.02,0.102-0.129,0.147-0.22,0.124c-0.037,0.004-0.075-0.002-0.107-0.022
		c-0.268-0.166-0.368-0.547-0.179-0.811c0.045-0.063,0.119-0.099,0.19-0.086c0.051,0,0.103,0.02,0.135,0.055
		C53.203,13.798,53.316,14.081,53.232,14.309z M53.346,17.804c-0.212,0.089-0.306-0.256-0.097-0.343
		c0.295-0.124,0.54-0.364,0.667-0.659c0.043-0.101,0.126-0.33,0.039-0.43c-0.108-0.124-0.224,0.082-0.275,0.167
		c-0.148,0.245-0.272,0.477-0.495,0.664c-0.224,0.189-0.489,0.315-0.776,0.373c-0.224,0.045-0.322-0.298-0.097-0.343
		c0.475-0.096,0.785-0.382,1.015-0.795c0.153-0.274,0.442-0.621,0.788-0.403c0.32,0.202,0.244,0.654,0.112,0.943
		C54.049,17.364,53.73,17.643,53.346,17.804z"/>
	<path fill="#FFFFFF" d="M59.256,22.863c0.013-0.003,0.025-0.007,0.038-0.01c0.031-0.103,0.059-0.19,0.089-0.289
		c-0.391,0.044-0.799-0.026-1.168-0.236l-1.967-1.116c-0.29-0.164-0.513-0.396-0.677-0.66c-0.729,0.175-1.457,0.35-2.186,0.524
		c0.049,0.643,0.422,2.013,2.687,2.218C56.917,23.371,58.058,23.178,59.256,22.863z"/>
	<path fill="#FFFFFF" d="M59.843,11.471c-0.026-0.028-0.054-0.055-0.081-0.083c-0.007,0.002-0.013,0.003-0.02,0.005
		c-0.064,0.053-0.126,0.111-0.183,0.186c-0.084,0.111-0.152,0.237-0.222,0.36c0.157-0.175,0.342-0.315,0.544-0.421
		C59.868,11.503,59.857,11.486,59.843,11.471z"/>
	<path fill="#FFFFFF" d="M66.595,32.776c-0.01-0.011-0.01-0.031-0.017-0.045c-0.013-0.026-0.032-0.047-0.031-0.082
		c0.002-0.048-0.01-0.091-0.014-0.138c-0.069-0.838-0.98-1.385-1.754-0.975c-0.078,0.041-0.147,0.093-0.213,0.15
		c-0.23,0.196-0.397,0.469-0.528,0.736c-0.18,0.366-0.323,0.75-0.428,1.144c-0.029,0.108-0.054,0.218-0.077,0.328
		c-0.001,0.005-0.002,0.01-0.004,0.015c0,0,0,0,0,0c0,0.002-0.001,0.003-0.001,0.005c-0.057,0.281-0.095,0.566-0.113,0.852
		c-0.022,0.352-0.026,0.817,0.273,1.064c0.256,0.212,0.636,0.132,0.891-0.039c0.317-0.212,0.47-0.587,0.554-0.946
		c0.121-0.514,0.134-1.048,0.279-1.547c0-0.001,0.001-0.003,0.002-0.004c0,0,0-0.001,0-0.001c0.002-0.007,0.005-0.013,0.007-0.02
		c0.06-0.199,0.14-0.394,0.26-0.578c0.125-0.193,0.414,0.017,0.289,0.209c-0.001,0.002-0.002,0.004-0.004,0.007
		c-0.036,0.056-0.067,0.115-0.096,0.174c0.218-0.093,0.442-0.173,0.655-0.275c0.022-0.011,0.046-0.018,0.067-0.028
		c0.002-0.001,0.003-0.001,0.005-0.002c0,0,0,0,0,0C66.596,32.779,66.596,32.777,66.595,32.776z"/>
	<path fill="#FFFFFF" d="M58.09,34.442c-0.001,0.001-0.002,0.001-0.003,0.002c0.194,0.011,0.39,0.014,0.585,0.019
		c0.006,0,0.013,0,0.019,0.001c0,0,0-0.001,0-0.001c-0.006-0.167-0.002-0.335,0.008-0.498c-0.218,0.137-0.419,0.297-0.605,0.474
		C58.092,34.44,58.091,34.441,58.09,34.442z"/>
	<path fill="#FFFFFF" d="M62.795,32.672c0.047-0.138,0.102-0.274,0.196-0.388c0.192-0.235,0.55-0.34,0.807-0.164
		c0.084-0.151,0.181-0.292,0.287-0.422c0.124-0.153,0.26-0.291,0.419-0.398c-0.65-0.63-1.59-0.995-2.436-0.507
		c-0.516,0.298-0.837,0.793-1.048,1.335c-0.113,0.291-0.204,0.591-0.256,0.891c-0.078,0.453-0.116,0.914-0.146,1.376
		c0,0.006-0.001,0.011-0.001,0.017v0c0,0.002,0,0.004,0,0.006c0,0.001,0,0.003,0,0.004c-0.028,0.43-0.016,1.064,0.468,1.255
		c0.461,0.181,0.842-0.295,0.997-0.665c0.064-0.154,0.107-0.318,0.157-0.479c0.004-0.022,0.011-0.043,0.014-0.065
		c0.029-0.096,0.058-0.191,0.087-0.287c0,0,0,0,0-0.001c0,0,0-0.001,0-0.001c0.003-0.008,0.005-0.017,0.008-0.025
		c0.005-0.001,0.01-0.002,0.015-0.003c0.05-0.18,0.098-0.36,0.15-0.537c0.004-0.013,0.008-0.027,0.012-0.04
		c0.073-0.249,0.144-0.498,0.219-0.747c0.013-0.044,0.03-0.087,0.045-0.131C62.789,32.689,62.792,32.681,62.795,32.672z"/>
	<path fill="#FFFFFF" d="M63.633,32.444c-0.281-0.239-0.477,0.244-0.54,0.446c-0.101,0.324-0.191,0.652-0.287,0.978
		c-0.021,0.07-0.04,0.143-0.06,0.216c0.077-0.017,0.158-0.024,0.235-0.042c0.032-0.007,0.067-0.01,0.099-0.018
		c0.002,0,0.004-0.001,0.006-0.001c0.006-0.001,0.013-0.003,0.019-0.004c0.003-0.001,0.006-0.002,0.009-0.003
		c0.012-0.003,0.022-0.007,0.034-0.01c0,0,0-0.001,0-0.001c0.074-0.417,0.189-0.829,0.342-1.224
		C63.535,32.669,63.582,32.556,63.633,32.444z"/>
	<path fill="#FFFFFF" d="M66.685,32.74c0.095,0.022,0.168-0.023,0.201-0.096c0.001-0.002,0.002-0.003,0.002-0.005
		c-0.046,0.023-0.092,0.046-0.139,0.069C66.728,32.718,66.706,32.729,66.685,32.74z"/>
	<path fill="#FFFFFF" d="M60.446,35.588c0.029,0.032,0.058,0.063,0.092,0.091c-0.026-0.034-0.054-0.067-0.077-0.104
		C60.457,35.581,60.45,35.582,60.446,35.588z"/>
	<path fill="#FFFFFF" d="M66.897,32.499c-0.002-0.006-0.006-0.01-0.008-0.016c0.004,0.043,0.012,0.085,0.013,0.129
		C66.91,32.577,66.91,32.539,66.897,32.499z"/>
	<path fill="#FFFFFF" d="M61.383,30.878c-0.429-0.034-0.856,0.122-1.204,0.378c-0.03,0.022-0.059,0.045-0.087,0.067
		c-0.019,0.016-0.038,0.031-0.056,0.048c-0.33,0.289-0.552,0.671-0.702,1.08c-0.04,0.108-0.077,0.217-0.107,0.328
		c-0.049,0.181-0.091,0.374-0.124,0.571c-0.023,0.138-0.041,0.278-0.053,0.418c-0.021,0.239-0.025,0.477-0.008,0.706c0,0,0,0,0,0
		c0,0.001,0,0.002,0,0.004c0,0.001,0,0.002,0,0.003c0.005,0.075,0.013,0.149,0.024,0.222c0.042,0.288,0.159,0.588,0.411,0.754
		c0.227,0.149,0.59,0.136,0.725-0.133c0.025-0.051,0.065-0.081,0.108-0.097c-0.068-0.25-0.079-0.515-0.065-0.781
		c0,0,0-0.001,0-0.001c0,0,0,0,0-0.001c0-0.009,0.002-0.017,0.002-0.026c0.015-0.263,0.049-0.528,0.075-0.779
		c0.049-0.491,0.13-0.982,0.284-1.451c0.009-0.026,0.012-0.054,0.021-0.08C60.785,31.656,61.042,31.219,61.383,30.878z"/>
	<path fill="#FFFFFF" d="M59.444,31.502c-0.543,0.149-1.062,0.378-1.538,0.682c-0.514,0.33-0.969,0.749-1.35,1.227
		c-0.032,0.04-0.073,0.073-0.104,0.115c-0.155,0.205-0.303,0.431-0.388,0.678c-0.001,0.003-0.003,0.006-0.004,0.009
		c-0.028,0.084-0.049,0.169-0.06,0.258c-0.042,0.336,0.067,0.712,0.393,0.863c0.054,0.009,0.112,0.031,0.16,0.022
		c0.004,0.009,0.014,0.011,0.019,0.019c0.27,0.025,0.463-0.177,0.62-0.41c0.129-0.192,0.265-0.375,0.418-0.548
		c0.001-0.001,0.001-0.001,0.002-0.002c0.001-0.001,0.002-0.002,0.003-0.003c0-0.001,0.001-0.001,0.001-0.002
		c0.053-0.06,0.109-0.12,0.167-0.177c0.281-0.28,0.603-0.517,0.952-0.704c0.032-0.306,0.096-0.609,0.179-0.905
		c0.056-0.198,0.115-0.396,0.202-0.583C59.204,31.851,59.315,31.669,59.444,31.502z"/>
	<path fill="#FFFFFF" d="M38.122,39.614c-0.111-0.314-0.189-0.635-0.249-0.961c0.23,1.69,0.389,2.703,1.853,2.951
		C38.978,41.137,38.422,40.461,38.122,39.614z"/>
	<path fill="#FFFFFF" d="M37.286,35.469c0.143,0.55,0.26,1.117,0.363,1.696c0.02,0.114,0.039,0.226,0.057,0.336
		c-0.036-0.285-0.073-0.569-0.121-0.85C37.517,36.248,37.416,35.853,37.286,35.469z"/>
	<path fill="#FFFFFF" d="M48.351,60.665v-0.002c-0.018,0.001-0.037,0.002-0.056,0.002H48.351z"/>
	<path fill="#FFFFFF" d="M43.144,23.775H0.361v36.889h12.53c0.518-2.117,2.45-10.571,3.482-13.798h-3.185v-4.818h4.336v2.502
		c0.918-1.201,2.174-1.943,3.497-2.253l-0.913-1.207c-0.645-0.853-0.476-2.068,0.377-2.712l1.501-1.135
		c-0.024-1.021,0.206-2.213,0.866-3.709c1.941-4.401,7.499-5.169,10.462-3.535c1.423,0.785,2.359,1.797,3.005,2.959
		c0.88,1.122,1.448,2.471,1.66,3.917c0.148,1.009,0.191,2.085,0.642,3.018c0.411,0.851,1.161,1.426,2.019,1.77
		c1.524,0.013,4.235,0.259,6.381,1.16c0.02,0.007,0.041,0.013,0.061,0.02c0.439,0.147,0.868,0.333,1.269,0.565v-12.71v-0.002v-0.002
		v-1.235v-5.687H46.17C46.17,23.775,43.144,23.775,43.144,23.775z M13.29,52.719H3.86c-0.225,0-0.225-0.357,0-0.357h9.43
		C13.515,52.363,13.515,52.719,13.29,52.719z M3.87,50.843h2.622c0.238,0,0.237,0.357,0,0.357H3.87
		C3.632,51.199,3.632,50.843,3.87,50.843z M13.284,51.22H8.029c-0.234,0-0.233-0.357,0-0.357h5.255
		C13.518,50.863,13.517,51.22,13.284,51.22z M13.287,49.323c0.23,0,0.229,0.357,0,0.357H3.864c-0.23,0-0.229-0.357,0-0.357H13.287z
		 M3.472,46.867v-4.818h1.373v4.818H3.472z M6.617,46.867v-4.818h5.72v4.818H6.617z M17.573,33.386v6.939H3.256v-3.55V26.009h14.317
		v3.039l3.757,2.169L17.573,33.386z"/>
	<path fill="#FFFFFF" d="M33.053,47.251c-0.313-0.117-0.62-0.248-0.93-0.37c-0.425-0.131-0.85-0.262-1.275-0.394
		c-0.072-0.022-0.136-0.093-0.131-0.172c0.089-1.366,0.177-2.732,0.266-4.098c-0.407,0.111-0.828,0.174-1.255,0.186
		c-0.23,0.006-0.229-0.35,0-0.357c0.434-0.012,0.865-0.081,1.28-0.203c0.123-0.036,0.244-0.077,0.364-0.122
		c0.52-0.196,1.009-0.475,1.44-0.827c1.394-1.138,2.026-2.941,1.763-4.68c-0.033-0.174-0.075-0.347-0.126-0.517
		c-0.003-0.02-0.011-0.039-0.014-0.059c-0.419-0.105-0.807-0.336-1.078-0.682c-0.14-0.179,0.111-0.432,0.252-0.252
		c0.19,0.242,0.444,0.404,0.718,0.51c-0.698-1.891-2.596-3.195-4.599-3.249c-0.006,0-0.008-0.006-0.014-0.006
		c-0.02,0.549-0.079,1.096-0.211,1.63c-0.488,1.971-1.717,3.745-3.384,4.899c0.239,0.399,0.477,0.8,0.738,1.185
		c1.067,1.576,2.304,3.031,3.679,4.346c0.166,0.159-0.086,0.411-0.252,0.252c-0.233-0.223-0.456-0.455-0.681-0.686
		c0.336,0.797,0.111,1.748-0.611,2.294l-1.297,0.981c0.072,0.604,0.102,1.285,0.056,2.082c0.662,0.246,1.369,0.45,2.116,0.569
		c4.275,0.678,6.119-0.784,6.612-1.285c-1.025-0.316-2.05-0.633-3.075-0.949C33.287,47.268,33.17,47.255,33.053,47.251z
		 M32.712,36.586c0.471,0.07,0.947,0.23,1.409,0.344c0.222,0.055,0.157,0.405-0.066,0.35c-0.307-0.075-0.615-0.151-0.922-0.226
		c-0.125-0.031-0.327-0.125-0.453-0.11c-0.193,0.022,0.019,0.204,0.098,0.264c0.406,0.31,0.924,0.43,1.427,0.371
		c0.228-0.027,0.254,0.329,0.026,0.356c-0.38,0.044-0.758-0.003-1.116-0.137c-0.295-0.111-0.696-0.313-0.833-0.616
		C32.14,36.865,32.364,36.534,32.712,36.586z M31.844,34.582c0.14,0.071,0.233,0.186,0.263,0.341
		c0.014,0.072,0.01,0.152-0.013,0.225c-0.011,0.049-0.031,0.096-0.064,0.139c-0.02,0.026-0.044,0.046-0.07,0.06
		c-0.034,0.026-0.07,0.041-0.119,0.042c-0.02,0-0.042-0.002-0.063-0.008c-0.038-0.001-0.075-0.013-0.103-0.039
		c-0.092-0.086-0.143-0.188-0.128-0.317c0.002-0.017,0.006-0.034,0.01-0.05c-0.027-0.086-0.025-0.181,0.016-0.273
		C31.617,34.607,31.74,34.529,31.844,34.582z M30.602,33.579c0.24-0.253,0.793-0.265,0.918,0.074
		c0.055,0.149,0.042,0.249-0.011,0.321c-0.142,0.192-0.566,0.187-0.726,0.413c-0.065,0.093-0.157,0.047-0.18-0.035
		c-0.058,0.001-0.113-0.016-0.157-0.066C30.288,34.105,30.443,33.747,30.602,33.579z"/>
	<path fill="#FFFFFF" d="M22.915,61.021c-0.014-0.059-0.024-0.119-0.039-0.178s-0.023-0.12-0.039-0.178v0
		c-0.04-0.143-0.082-0.286-0.128-0.427c-0.091-0.279-0.213-0.576-0.377-0.838c-0.16-0.256-0.361-0.477-0.615-0.611
		c-0.023-0.012-0.048-0.019-0.071-0.029c-0.004,0.016-0.023,0.025-0.023,0.042c-0.019-0.04-0.055-0.073-0.11-0.087
		c-0.133-0.033-0.268-0.052-0.403-0.057c-0.003,0-0.005-0.001-0.008-0.001c-0.012,0-0.023,0.002-0.034,0.002
		c-0.644,0.044-1.245,0.516-1.669,1.077c-0.095,0.125-0.18,0.253-0.255,0.383c-0.085,0.148-0.162,0.297-0.218,0.441
		c-0.013,0.035-0.026,0.07-0.037,0.106v0h1.851v0c-0.025-0.079-0.049-0.157-0.073-0.236c-0.015-0.049-0.004-0.089,0.014-0.123
		c0.063-0.12,0.277-0.142,0.33,0.028c0.034,0.111,0.069,0.221,0.103,0.331v0c0.018,0.059,0.037,0.119,0.056,0.178
		c0.018,0.059,0.037,0.119,0.056,0.178c0.284,0.918,0.564,1.837,0.858,2.752c0.116,0.36,0.432,1.05,0.93,0.779
		c0.442-0.24,0.357-0.862,0.304-1.273C23.219,62.522,23.096,61.764,22.915,61.021z"/>
	<path fill="#FFFFFF" d="M28.289,61.021c-0.025-0.06-0.051-0.12-0.079-0.178c-0.022-0.045-0.037-0.093-0.061-0.137l-0.023-0.041l0,0
		c-0.081-0.146-0.172-0.285-0.271-0.416c-0.43-0.57-1.02-0.999-1.683-1.242c-0.008,0-0.015,0-0.024,0
		c-0.053-0.001-0.094-0.021-0.122-0.05c-0.08-0.026-0.164-0.035-0.245-0.056c-0.345-0.086-0.7-0.136-1.063-0.118
		c0.277,0.259,0.52,0.557,0.742,0.873c0.043,0.06,0.091,0.116,0.131,0.178c0.021,0.011,0.036,0.028,0.056,0.04
		c0.352,0.196,0.643,0.466,0.853,0.792l0,0c0.035,0.055,0.053,0.12,0.084,0.178c0.031,0.058,0.058,0.118,0.084,0.178
		c0.121,0.276,0.211,0.566,0.232,0.877c0.031,0.462-0.033,0.962,0.172,1.393c0.18,0.377,0.552,0.642,0.965,0.425
		c0.823-0.432,0.584-1.804,0.334-2.507C28.349,61.144,28.315,61.084,28.289,61.021z"/>
	<path fill="#FFFFFF" d="M26.05,61.518c-0.065-0.166-0.148-0.331-0.225-0.497c-0.027-0.059-0.052-0.119-0.081-0.178
		c-0.029-0.059-0.05-0.12-0.081-0.178l0,0c-0.099-0.19-0.205-0.377-0.321-0.558c-0.038-0.06-0.077-0.119-0.117-0.177
		c-0.098-0.143-0.206-0.277-0.315-0.41c-0.174-0.212-0.358-0.415-0.562-0.591c-0.036-0.031-0.073-0.062-0.111-0.091
		c-0.09-0.07-0.186-0.135-0.287-0.193c-0.141-0.083-0.293-0.151-0.447-0.204c-0.496-0.173-1.037-0.181-1.48,0.109
		c0.298,0.195,0.52,0.49,0.697,0.816c0.008,0.015,0.02,0.027,0.028,0.042c0.015,0.007,0.029,0.016,0.043,0.028
		c0.291,0.244,0.549,0.52,0.79,0.81c0.115,0.138,0.234,0.273,0.336,0.42l0,0c0.04,0.057,0.071,0.12,0.11,0.178
		c0.038,0.058,0.073,0.119,0.11,0.178c0.197,0.324,0.375,0.659,0.513,1.014c0.183,0.473,0.254,0.984,0.449,1.451
		c0.162,0.39,0.525,0.803,0.997,0.721c0.53-0.091,0.449-0.795,0.381-1.177C26.384,62.514,26.241,62.007,26.05,61.518z"/>
	<path fill="#FFFFFF" d="M31.527,60.843c-0.037-0.062-0.077-0.122-0.124-0.178l0,0c-0.189-0.226-0.451-0.412-0.685-0.541
		c-1.088-0.605-2.357-0.941-3.612-1.064c0.035,0.023,0.07,0.046,0.104,0.07c0.484,0.334,0.887,0.776,1.182,1.282
		c0.218,0.074,0.432,0.159,0.642,0.254c0,0,0,0,0,0c0.115,0.052,0.222,0.121,0.334,0.178c0.112,0.058,0.225,0.115,0.334,0.178
		c0.064,0.037,0.133,0.065,0.196,0.105c0.321,0.2,0.604,0.458,0.929,0.651c0.303,0.179,0.655,0.179,0.789-0.189
		c0.074-0.202,0.057-0.391-0.007-0.566C31.586,60.96,31.561,60.9,31.527,60.843z"/>
	<path fill="#FFFFFF" d="M23.063,60.181c0.027,0.082,0.052,0.164,0.075,0.243s0.046,0.16,0.067,0.241v0h0.271l0,0
		C23.347,60.496,23.21,60.335,23.063,60.181z"/>
	<path fill="#FFFFFF" d="M8.103,27.569c-1.753,0-3.175,1.421-3.175,3.175c0,1.753,1.421,3.175,3.175,3.175s3.175-1.421,3.175-3.175
		C11.278,28.991,9.857,27.569,8.103,27.569z"/>
</g>
<g>
	<path fill="#FFC5FF" d="M37.289,42.2c-0.5,0-0.9-0.2-1.2-0.5s-0.5-0.8-0.5-1.2c0-0.9,0.8-1.7,1.7-1.7c0.1,0,0.2,0,0.3,0l1.4-1.4
		c-0.9-1.5-1-3.4-0.1-4.9l-5.1-4c-0.3,0.1-0.5,0.2-0.8,0.2c-0.5,0-1.1-0.2-1.4-0.6c-0.4-0.4-0.6-0.9-0.6-1.4c0-1.1,0.9-2,2-2l0,0
		c1.1,0,2,0.9,2,2c0,0.1,0,0.2,0,0.3l5.2,4.1c0.5-0.4,1.2-0.7,1.8-0.8v-1.6c-0.5-0.3-0.9-0.9-0.9-1.6c0-1.1,0.8-1.9,1.8-1.9
		c1.1,0,1.9,0.8,1.9,1.8c0,0.7-0.4,1.3-0.9,1.6v1.6c0.7,0.1,1.4,0.4,1.9,0.9c1,0.8,1.6,1.9,1.8,3.1s-0.2,2.5-0.9,3.5
		s-1.9,1.6-3.1,1.8c-1.2,0.2-2.3-0.1-3.3-0.8l-1.4,1.4c0,0.1,0,0.2,0,0.3C38.989,41.4,38.289,42.2,37.289,42.2L37.289,42.2z
		 M37.289,39.3c-0.6,0-1.2,0.5-1.2,1.2c0,0.3,0.1,0.6,0.3,0.8s0.5,0.3,0.8,0.3l0,0c0.6,0,1.2-0.5,1.2-1.2c0-0.1,0-0.2-0.1-0.3
		c0-0.1,0-0.2,0.1-0.3l1.6-1.6c0.1-0.1,0.3-0.1,0.4,0c0.9,0.7,2,1,3.1,0.8c1.1-0.1,2.1-0.7,2.8-1.6s1-2,0.8-3.1
		c-0.1-1.1-0.7-2.1-1.6-2.8c-0.6-0.4-1.2-0.7-1.9-0.8c-0.1,0-0.2-0.1-0.2-0.3v-2c0-0.1,0.1-0.2,0.2-0.3c0.4-0.2,0.7-0.7,0.7-1.2
		c0-0.7-0.6-1.3-1.3-1.3c-0.8,0-1.3,0.6-1.3,1.3c0,0.5,0.3,1,0.7,1.2c0.1,0,0.2,0.1,0.2,0.3v2c0,0.1-0.1,0.3-0.2,0.3
		c-0.7,0.1-1.4,0.4-2,0.9c-0.1,0.1-0.2,0.1-0.3,0l-5.6-4.3c-0.1-0.1-0.1-0.2-0.1-0.3c0-0.1,0.1-0.2,0.1-0.4c0-0.4-0.2-0.8-0.4-1
		c-0.3-0.3-0.6-0.4-1-0.4l0,0c-0.8,0-1.5,0.7-1.5,1.5c0,0.4,0.2,0.8,0.4,1c0.5,0.5,1.2,0.6,1.8,0.2c0.1-0.1,0.2-0.1,0.3,0l5.5,4.3
		c0.1,0.1,0.1,0.3,0.1,0.4c-0.9,1.4-0.9,3.3,0.1,4.7c0.1,0.1,0.1,0.3,0,0.4l-1.7,1.7c-0.1,0.1-0.2,0.1-0.3,0.1
		C37.489,39.3,37.389,39.3,37.289,39.3z M42.889,37.4c-0.7,0-1.3-0.2-1.8-0.7s-0.8-1.1-0.8-1.8s0.2-1.3,0.7-1.8s1.1-0.8,1.8-0.8h0.1
		c0.7,0,1.3,0.3,1.8,0.8s0.7,1.1,0.7,1.8C45.389,36.3,44.389,37.4,42.889,37.4C42.989,37.4,42.989,37.4,42.889,37.4z M42.989,32.9
		C42.889,32.9,42.889,32.9,42.989,32.9c-0.6,0-1.1,0.2-1.4,0.6s-0.6,0.9-0.5,1.4c0,0.5,0.2,1,0.6,1.4c0.4,0.4,0.9,0.5,1.4,0.5l0,0
		c1,0,1.9-0.9,1.9-1.9c0-0.5-0.2-1-0.5-1.4S43.489,32.9,42.989,32.9L42.989,32.9z"/>
</g>
<g>
	<g>
		<g>
			<path fill="#EFEE93" d="M53.396,36.861c-0.2-0.5-0.6-0.8-1-0.9c-0.5-0.1-0.9,0-1.2,0.4c-0.1,0-0.1,0.1-0.2,0.2
				c-0.3,0.6-0.2,1.3,0.3,1.7c0.4,0.5,1.1,0.5,1.6,0.2C53.296,38.061,53.596,37.461,53.396,36.861z M52.896,37.361
				c-0.1,0.5-0.6,0.9-1.1,0.6c-0.4-0.2-0.6-0.7-0.5-1.1l0.1-0.1c0.2-0.4,0.5-0.5,0.9-0.3C52.696,36.661,52.996,37.061,52.896,37.361
				z"/>
		</g>
	</g>
</g>
<g>
	<path fill="#1B1749" d="M53.248,17.461c-0.209,0.088-0.114,0.432,0.097,0.343c0.385-0.161,0.703-0.44,0.879-0.824
		c0.132-0.289,0.208-0.742-0.112-0.943c-0.346-0.218-0.635,0.128-0.788,0.403c-0.23,0.413-0.539,0.699-1.015,0.795
		c-0.225,0.045-0.127,0.388,0.097,0.343c0.287-0.058,0.552-0.185,0.776-0.373c0.223-0.188,0.348-0.419,0.495-0.664
		c0.051-0.085,0.167-0.291,0.275-0.167c0.088,0.1,0.005,0.329-0.039,0.43C53.788,17.097,53.544,17.337,53.248,17.461z"/>
	<path fill="#1B1749" d="M52.847,13.639c-0.07-0.013-0.144,0.023-0.19,0.086c-0.189,0.264-0.089,0.645,0.179,0.811
		c0.031,0.019,0.069,0.026,0.107,0.022c0.091,0.024,0.201-0.021,0.22-0.124c0.002-0.01,0.003-0.021,0.005-0.031
		c0.028-0.024,0.05-0.058,0.063-0.093c0.085-0.228-0.029-0.511-0.249-0.615C52.95,13.659,52.898,13.639,52.847,13.639z"/>
	<path fill="#1B1749" d="M54.418,11.402c-0.333-0.354-0.822-0.507-1.286-0.429c-0.311-0.026-0.609,0.117-0.797,0.382
		c-0.081,0.114,0.019,0.267,0.147,0.272l1.8,0.075C54.436,11.708,54.522,11.513,54.418,11.402z"/>
	<path fill="#1B1749" d="M56.248,21.212l1.967,1.116c0.369,0.209,0.776,0.279,1.168,0.236c0.373-1.229,0.705-2.186,0.952-2.647
		c0.563-1.049,1.034-1.874,1.542-2.495c0.583-0.713,1.22-1.151,2.102-1.328l0.449-0.79c0.526-0.927,0.203-2.102-0.719-2.633
		c-0.033,0.027-0.076,0.039-0.126,0.038c-0.007,0-0.011,0.006-0.019,0.005c-0.792-0.109-1.348-0.687-1.983-1.113
		c-0.017-0.011-0.033-0.025-0.05-0.036c-0.138-0.09-0.291-0.172-0.45-0.239c-0.112-0.047-0.226-0.086-0.342-0.113
		c-0.348-0.082-0.699-0.059-0.985,0.168c-0.004,0.003-0.008,0.009-0.012,0.012c0.007-0.002,0.013-0.003,0.02-0.005
		c0.027,0.028,0.055,0.055,0.081,0.083c0.014,0.015,0.025,0.032,0.039,0.047c-0.202,0.105-0.387,0.246-0.544,0.421
		c-0.13,0.229-0.249,0.464-0.37,0.692c-0.043,0.081-0.086,0.162-0.129,0.242c-0.009,0.02-0.013,0.037-0.028,0.052
		c-0.155,0.292-0.311,0.583-0.466,0.875c-0.838,1.573-1.677,3.146-2.515,4.719c-0.069,0.13-0.212,0.096-0.284,0.008l-0.026,0.046
		c-0.176,0.31-0.249,0.647-0.244,0.979c-0.421-0.052-0.836-0.147-1.235-0.293c-0.43-0.158-0.839-0.369-1.215-0.629
		c-0.65-0.45-1.144-1.051-1.491-1.728c0.004-0.013,0.006-0.026,0.01-0.039c0.171-0.554,0.146-1.158-0.129-1.695
		c-0.105-0.204-0.411-0.022-0.307,0.182c0.165,0.321,0.228,0.684,0.194,1.038c0,0.001,0,0.001,0,0.002
		c-0.001-0.004-0.002-0.008-0.004-0.012c-0.314-0.837-0.413-1.761-0.27-2.666c0.165-1.046,0.623-2.031,1.365-2.791
		c0.017-0.018,0.014-0.038,0.022-0.057c0.716-0.63,1.535-1.133,2.43-1.473c0.239,1.45,1.603,2.614,3.08,2.582
		c-0.025,0.427,0.275,0.826,0.68,0.957c0.027-0.05,0.054-0.1,0.08-0.15c0.064-0.121,0.13-0.242,0.194-0.363
		c0.113-0.214,0.226-0.428,0.341-0.64c0.083-0.152,0.174-0.303,0.281-0.44c0.089-0.113,0.201-0.203,0.318-0.286
		c0.033-0.023,0.054-0.059,0.089-0.079c0.526-0.297,1.151-0.161,1.673,0.101c0.114,0.057,0.224,0.118,0.326,0.184
		c0.63,0.41,1.169,1.006,1.948,1.114c0.038,0.005,0.055,0.028,0.075,0.048c0.061-0.165,0.106-0.336,0.132-0.506
		c0.012-0.08,0.023-0.162,0.032-0.245c0.016-0.006,0.03,0.002,0.046-0.011c0.41-0.31,0.607-0.857,0.415-1.349
		c-0.061-0.156-0.165-0.284-0.285-0.394c0.064-0.184,0.099-0.379,0.06-0.583c-0.028-0.148-0.095-0.278-0.177-0.397
		c-0.005-0.006-0.008-0.013-0.014-0.019c-0.158-0.22-0.385-0.388-0.647-0.468c-0.041-0.021-0.082-0.039-0.125-0.055
		c0.136-0.665-0.36-1.291-1.041-1.299c0.073-0.728-0.311-1.491-0.991-1.804c-0.569-0.261-1.224-0.177-1.726,0.157
		c-0.1-0.178-0.193-0.362-0.316-0.514c-0.25-0.311-0.61-0.463-1.007-0.391c-0.403,0.073-0.748,0.325-1.112,0.496
		C56.791,5.124,56.587,5.2,56.38,5.189c-0.277-0.016-0.508-0.195-0.753-0.306c-0.794-0.36-1.759,0.177-1.926,0.999
		c-0.425-0.203-0.934-0.175-1.325,0.132c-0.23,0.181-0.378,0.426-0.455,0.707c-0.018,0.066-0.031,0.141-0.048,0.215
		c-0.201,0.045-0.4,0.099-0.597,0.161c-0.011,0.001-0.021,0.004-0.033,0.007c-0.668,0.225-1.408,0.498-1.739,1.174
		c-0.142,0.289-0.185,0.608-0.096,0.92c0.103,0.36,0.377,0.678,0.338,1.07c-0.036,0.365-0.259,0.686-0.379,1.026
		c-0.103,0.292-0.126,0.598-0.037,0.897c0.169,0.562,0.652,0.973,1.227,1.058c-0.232,1.007-0.199,2.077,0.122,3.061
		c0.073,0.224,0.164,0.439,0.266,0.646c-0.062,0.144-0.136,0.285-0.236,0.41c-0.142,0.178,0.111,0.43,0.254,0.25
		c0.077-0.096,0.123-0.207,0.182-0.312c0.817,1.372,2.245,2.313,3.848,2.57c0.105,0.017,0.211,0.017,0.316,0.028
		c0.022,0.11,0.053,0.216,0.094,0.321c-0.724,0.174-1.448,0.347-2.173,0.521c0.097-0.004,0.151-0.004,0.151-0.004
		s-0.012,0.11-0.003,0.278c0.001,0.018,0.002,0.036,0.003,0.056c0.729-0.175,1.457-0.35,2.186-0.524
		C55.735,20.815,55.958,21.047,56.248,21.212z M60.794,11.97c0.294,0.14,0.391,0.486,0.265,0.775
		c-0.018,0.042-0.048,0.075-0.074,0.111c-0.154,0.22-0.423,0.341-0.687,0.235c-0.083-0.034-0.155-0.087-0.218-0.151
		c-0.086-0.088-0.14-0.198-0.168-0.316c-0.026-0.109-0.034-0.222,0.005-0.332c0.007-0.019,0.016-0.035,0.027-0.049
		c0.004-0.023,0.014-0.046,0.032-0.069c0.073-0.098,0.17-0.162,0.275-0.207C60.419,11.893,60.613,11.885,60.794,11.97z
		 M60.075,5.532c-0.028,0.015-0.059,0.024-0.086,0.041c-0.008,0-0.015,0.003-0.023,0.004C60.004,5.565,60.036,5.541,60.075,5.532z
		 M58.419,4.906l0.01,0.028c-0.106-0.015-0.217-0.007-0.322,0.021c-0.053-0.005-0.105,0-0.158,0
		C58.113,4.897,58.272,4.875,58.419,4.906z M54.364,5.412c0,0.002-0.001,0.003-0.001,0.005c-0.005,0.003-0.007,0.007-0.012,0.01
		C54.356,5.422,54.359,5.417,54.364,5.412z M50.391,7.849c-0.007,0.009-0.013,0.018-0.018,0.029c-0.037,0.02-0.073,0.04-0.108,0.062
		C50.307,7.909,50.346,7.876,50.391,7.849z"/>
	<path fill="#1B1749" d="M60.73,12.61c0.01-0.021-0.001-0.037,0.003-0.057c0.012-0.058,0.012-0.111-0.013-0.156
		c-0.045-0.082-0.133-0.129-0.227-0.134c-0.028-0.001-0.051,0.001-0.078,0.009c-0.048,0.014-0.095,0.032-0.13,0.079
		c-0.004,0.006-0.01,0.015-0.016,0.023c-0.002,0.004-0.004,0.005-0.007,0.01c-0.052,0.147,0.021,0.277,0.126,0.341
		C60.5,12.794,60.651,12.783,60.73,12.61z"/>
	<path fill="#1B1749" d="M66.901,32.612c-0.001-0.044-0.009-0.086-0.013-0.129c-0.007-0.074-0.016-0.148-0.032-0.219
		c-0.16-0.687-0.749-1.223-1.496-1.224c-0.192,0-0.366,0.032-0.525,0.089c-0.602-0.62-1.467-1.084-2.351-0.88
		c-0.274,0.063-0.523,0.179-0.746,0.333c-0.675-0.173-1.327,0.038-1.838,0.452c-1.196,0.214-2.31,0.807-3.173,1.662
		c-0.216,0.214-0.429,0.433-0.609,0.68c-0.16,0.219-0.304,0.48-0.394,0.753c-0.002,0.007-0.006,0.013-0.009,0.02
		c-0.134,0.418-0.131,0.863,0.165,1.234c0.194,0.244,0.514,0.393,0.827,0.365c0.371-0.032,0.599-0.313,0.792-0.602
		c0.17-0.255,0.364-0.487,0.579-0.693c0.003-0.002,0.006-0.004,0.009-0.007c0.001-0.001,0.002-0.001,0.003-0.002
		c0.001-0.001,0.003-0.002,0.004-0.003c0.186-0.177,0.388-0.337,0.605-0.474c-0.009,0.163-0.014,0.331-0.008,0.498
		c0,0,0,0.001,0,0.001c0,0,0,0,0,0c0,0.004,0,0.008,0,0.013c0.019,0.429,0.119,0.849,0.441,1.156
		c0.382,0.364,0.997,0.365,1.314-0.046c0.004-0.005,0.011-0.007,0.015-0.013c0.023,0.037,0.051,0.069,0.077,0.104
		c0.152,0.198,0.358,0.349,0.615,0.383c0.416,0.056,0.814-0.197,1.047-0.525c0.291-0.412,0.411-0.944,0.542-1.436
		c0-0.002,0.001-0.004,0.002-0.005c0-0.001,0-0.001,0-0.002c0.001-0.003,0.002-0.007,0.003-0.01c0.02-0.073,0.039-0.145,0.06-0.216
		c0.096-0.326,0.186-0.654,0.287-0.978c0.063-0.202,0.259-0.685,0.54-0.446c-0.051,0.112-0.099,0.225-0.142,0.338
		c-0.153,0.395-0.268,0.806-0.342,1.224c0,0,0,0.001,0,0.001c0,0.001,0,0.002-0.001,0.002c0,0,0,0.001,0,0.001
		c-0.014,0.074-0.026,0.148-0.036,0.222c-0.064,0.444-0.117,0.937,0.024,1.372c0.28,0.862,1.314,0.884,1.877,0.282
		c0.707-0.755,0.427-1.889,0.837-2.766c0,0,0,0,0-0.001c0.001-0.002,0.002-0.004,0.003-0.006c0.005-0.01,0.011-0.019,0.016-0.028
		c0.029-0.059,0.06-0.118,0.096-0.174c0.001-0.002,0.002-0.004,0.004-0.007c0.125-0.192-0.164-0.402-0.289-0.209
		c-0.119,0.184-0.2,0.378-0.26,0.578c-0.002,0.007-0.005,0.013-0.007,0.02c0,0,0,0.001,0,0.001c0,0.001-0.001,0.003-0.002,0.004
		c-0.145,0.499-0.158,1.032-0.279,1.547c-0.084,0.358-0.237,0.734-0.554,0.946c-0.255,0.17-0.634,0.251-0.891,0.039
		c-0.299-0.248-0.294-0.713-0.273-1.064c0.018-0.286,0.055-0.571,0.113-0.852c0-0.002,0.001-0.003,0.001-0.005c0,0,0,0,0,0
		c0.001-0.005,0.002-0.01,0.004-0.015c0.023-0.11,0.048-0.22,0.077-0.328c0.105-0.394,0.249-0.778,0.428-1.144
		c0.131-0.266,0.298-0.54,0.528-0.736c0.066-0.056,0.136-0.109,0.213-0.15c0.774-0.409,1.685,0.137,1.754,0.975
		c0.004,0.046,0.016,0.09,0.014,0.138c-0.001,0.035,0.018,0.056,0.031,0.082c0.007,0.014,0.007,0.034,0.017,0.045
		c0.001,0.001,0,0.002,0.001,0.003c0,0,0,0,0,0c0.001,0.001,0,0.002,0.001,0.003c0.016-0.008,0.032-0.016,0.049-0.023
		c0.013-0.006,0.025-0.013,0.038-0.019c0.022-0.011,0.043-0.021,0.065-0.032c0.046-0.023,0.093-0.045,0.139-0.069
		c0.001-0.001,0.002-0.001,0.003-0.002c0.004-0.002,0.008-0.004,0.012-0.006c0-0.001,0-0.002,0-0.003
		C66.903,32.623,66.901,32.618,66.901,32.612z M60.606,32.188c-0.154,0.469-0.235,0.96-0.284,1.451
		c-0.025,0.251-0.06,0.515-0.075,0.779c0,0.009-0.002,0.017-0.002,0.026c0,0,0,0,0,0.001c0,0,0,0.001,0,0.001
		c-0.013,0.267-0.003,0.532,0.065,0.781c-0.043,0.016-0.083,0.047-0.108,0.097c-0.135,0.269-0.498,0.282-0.725,0.133
		c-0.253-0.166-0.369-0.466-0.411-0.754c-0.011-0.073-0.019-0.146-0.024-0.222c0-0.001,0-0.002,0-0.003c0-0.001,0-0.002,0-0.004
		c0,0,0,0,0,0c-0.017-0.229-0.013-0.467,0.008-0.706c0.012-0.14,0.03-0.281,0.053-0.418c0.032-0.198,0.075-0.39,0.124-0.571
		c0.03-0.111,0.067-0.22,0.107-0.328c0.15-0.409,0.372-0.79,0.702-1.08c0.019-0.017,0.037-0.032,0.056-0.048
		c0.028-0.023,0.058-0.046,0.087-0.067c0.347-0.256,0.775-0.412,1.204-0.378c-0.342,0.342-0.598,0.778-0.756,1.23
		C60.618,32.134,60.615,32.162,60.606,32.188z M56.407,35.345c-0.006-0.003-0.01-0.008-0.016-0.011
		c-0.326-0.151-0.435-0.528-0.393-0.863c0.011-0.089,0.032-0.174,0.06-0.258c0.001-0.003,0.003-0.006,0.004-0.009
		c0.085-0.247,0.233-0.472,0.388-0.678c0.031-0.041,0.072-0.074,0.104-0.115c0.381-0.478,0.836-0.898,1.35-1.227
		c0.476-0.304,0.996-0.533,1.538-0.682c-0.129,0.168-0.24,0.349-0.329,0.539c-0.088,0.186-0.146,0.384-0.202,0.583
		c-0.083,0.296-0.146,0.598-0.179,0.905c-0.348,0.188-0.671,0.425-0.952,0.704c-0.058,0.058-0.113,0.117-0.167,0.177
		c0,0.001-0.001,0.001-0.001,0.002c-0.001,0.001-0.002,0.002-0.003,0.003c-0.001,0.001-0.001,0.001-0.002,0.002
		c-0.152,0.172-0.289,0.356-0.418,0.548c-0.157,0.233-0.351,0.435-0.62,0.41C56.518,35.37,56.467,35.37,56.407,35.345z
		 M63.797,32.12c-0.257-0.176-0.615-0.071-0.807,0.164c-0.093,0.114-0.148,0.25-0.196,0.388c-0.003,0.009-0.006,0.017-0.009,0.026
		c-0.014,0.044-0.032,0.087-0.045,0.131c-0.074,0.249-0.146,0.498-0.219,0.747c-0.004,0.013-0.008,0.027-0.012,0.04
		c-0.052,0.177-0.1,0.357-0.15,0.537c-0.002,0.008-0.005,0.016-0.007,0.025c0,0.001,0,0.001,0,0.002c0,0,0,0.001,0,0.001
		c-0.033,0.121-0.08,0.236-0.117,0.355c-0.05,0.161-0.093,0.325-0.157,0.479c-0.155,0.37-0.536,0.846-0.997,0.665
		c-0.484-0.191-0.496-0.825-0.468-1.255c0-0.001,0-0.003,0-0.004c0-0.002,0-0.004,0-0.006v0c0-0.006,0.001-0.011,0.001-0.017
		c0.031-0.462,0.069-0.924,0.146-1.376c0.052-0.3,0.143-0.6,0.256-0.891c0.211-0.542,0.532-1.037,1.048-1.335
		c0.846-0.488,1.786-0.123,2.436,0.507c-0.159,0.107-0.295,0.245-0.419,0.398C63.978,31.829,63.881,31.97,63.797,32.12z"/>
	<path fill="#1B1749" d="M41.297,21.505C41.297,21.505,41.297,21.505,41.297,21.505c0.031,0.143,0.061,0.286,0.092,0.429
		c0.178-0.143,0.356-0.286,0.534-0.429c0,0,0,0,0,0c0.074-0.059,0.148-0.119,0.222-0.178c0.005-0.004,0.01-0.008,0.015-0.012
		c-0.167-0.055-0.334-0.111-0.501-0.166H41.22c0.013,0.059,0.025,0.119,0.038,0.178C41.271,21.386,41.284,21.445,41.297,21.505z"/>
	<path fill="#1B1749" d="M52.153,50.138c-0.065-0.101-0.129-0.203-0.19-0.307c-0.556-0.939-0.868-1.949-1.184-2.986
		c-0.296-0.97-0.669-1.923-1.398-2.655c-0.205-0.206-0.435-0.383-0.672-0.546V30.969v-0.006v-8.976v-0.482v-0.357h-0.357h-5.688
		c0.04,0.053,0.051,0.12,0.019,0.178c-0.009,0.016-0.014,0.034-0.031,0.047c-0.054,0.044-0.109,0.087-0.163,0.131c0,0,0,0,0,0
		c-0.027,0.021-0.053,0.043-0.08,0.064c-0.336,0.27-0.672,0.539-1.008,0.809c-0.096,0.077-0.267,0.065-0.298-0.079
		c-0.057-0.265-0.113-0.53-0.17-0.795l0,0c-0.013-0.059-0.025-0.119-0.038-0.178c-0.013-0.059-0.025-0.119-0.038-0.178H0.361H0.004
		v0.357v39.16v0.357h0.357H20.85c0.138,0.442,0.276,0.884,0.413,1.325c0.182,0.585,0.335,1.191,0.559,1.762
		c0.169,0.431,0.509,0.873,1.023,0.852c0.473-0.019,0.783-0.46,0.851-0.892c0.089-0.563-0.072-1.196-0.157-1.754
		c-0.067-0.434-0.151-0.865-0.251-1.293h0.416c0.311,0.469,0.575,0.97,0.742,1.513c0.164,0.53,0.239,1.119,0.599,1.563
		c0.274,0.338,0.764,0.566,1.199,0.441c0.409-0.117,0.592-0.488,0.631-0.875c0.047,0.069,0.101,0.135,0.162,0.195
		c0.302,0.298,0.736,0.379,1.122,0.196c0.922-0.438,0.877-1.731,0.669-2.568c-0.039-0.159-0.097-0.312-0.155-0.464h0.257
		c0.349,0.16,0.689,0.34,1.009,0.557c0.334,0.227,0.648,0.553,1.049,0.655c0.324,0.082,0.653-0.024,0.847-0.299
		c0.2-0.285,0.219-0.608,0.136-0.913h16.38h0.357v-0.357v-0.023c3.405-0.252,4.731-1.469,5.261-4.149
		C54.475,53.937,53.752,51.33,52.153,50.138z M43.144,23.775h3.025h2.182v5.687v1.235v0.002v0.002v12.71
		c-0.401-0.232-0.83-0.419-1.269-0.565c-0.02-0.007-0.041-0.013-0.061-0.02c-2.146-0.901-4.857-1.148-6.381-1.16
		c-0.858-0.344-1.608-0.919-2.019-1.77c-0.451-0.933-0.494-2.009-0.642-3.018c-0.212-1.446-0.779-2.795-1.66-3.917
		c-0.646-1.163-1.582-2.174-3.005-2.959c-2.963-1.634-8.521-0.867-10.462,3.535c-0.66,1.496-0.89,2.688-0.866,3.709l-1.501,1.135
		c-0.853,0.645-1.022,1.859-0.377,2.712l0.913,1.207c0.961-0.225,1.953-0.229,2.87-0.021c0.472,0.107,0.922,0.271,1.338,0.486
		c0.385,0.2,0.741,0.442,1.055,0.732c0.523,0.483,1.19,1.502,1.411,3.364l1.297-0.981c0.722-0.546,0.947-1.497,0.611-2.294
		c-0.454-0.465-0.897-0.94-1.315-1.436c-0.551-0.654-1.073-1.334-1.56-2.036c-0.32-0.461-0.615-0.936-0.906-1.414
		c-0.056-0.092-0.113-0.184-0.168-0.276c-0.006-0.011-0.013-0.021-0.02-0.032c-0.085-0.139-0.17-0.278-0.255-0.418
		c-0.161-0.263-0.349-0.537-0.563-0.784c-0.281-0.323-0.612-0.594-1.033-0.685c-0.443-0.096-0.982,0.02-1.269,0.376
		c-0.071,0.088-0.139,0.18-0.172,0.299c-0.045,0.167-0.251,0.154-0.324,0.043c-0.024-0.036-0.034-0.083-0.02-0.138
		c0.197-0.722,0.977-1.035,1.671-0.958c0.765,0.086,1.329,0.649,1.75,1.252c0.182,0.261,0.345,0.535,0.51,0.807
		c0.025,0.041,0.052,0.081,0.077,0.122c0.036,0.06,0.077,0.118,0.113,0.179c1.668-1.154,2.897-2.928,3.384-4.899
		c0.132-0.534,0.192-1.081,0.211-1.63c0.006,0.001,0.008,0.006,0.014,0.006c2.003,0.053,3.901,1.357,4.599,3.249
		c-0.273-0.106-0.528-0.268-0.718-0.51c-0.141-0.18-0.392,0.073-0.252,0.252c0.271,0.346,0.659,0.577,1.078,0.682
		c0.003,0.02,0.011,0.039,0.014,0.059c0.051,0.17,0.093,0.343,0.126,0.517c0.263,1.739-0.369,3.542-1.763,4.68
		c-0.431,0.352-0.92,0.632-1.44,0.827c-0.12,0.045-0.241,0.086-0.364,0.122c-0.415,0.122-0.846,0.192-1.28,0.203
		c-0.229,0.006-0.23,0.363,0,0.357c0.427-0.012,0.849-0.075,1.255-0.186c-0.089,1.366-0.178,2.732-0.266,4.098
		c-0.005,0.079,0.059,0.15,0.131,0.172c0.425,0.131,0.85,0.262,1.275,0.394c0.311,0.122,0.618,0.253,0.93,0.37
		c0.117,0.003,0.234,0.017,0.35,0.025c1.025,0.316,2.05,0.633,3.075,0.949c0.052-0.053,0.09-0.095,0.113-0.122
		c0.02-0.024,0.034-0.041,0.034-0.041s0.288,0.001,0.753,0.068c1.273,0.184,3.915,0.876,5.911,3.502
		c1.849,2.434,3.521,6.604,4.404,9.032v0h-1.823h-6.651v0c0.066-0.121,0.119-0.248,0.176-0.373c0.121-0.268,0.228-0.542,0.303-0.827
		c0.354-1.348,0.12-2.792-0.594-3.984c-0.367-0.612-0.853-1.142-1.429-1.56c0.156-0.279,0.311-0.559,0.466-0.839
		c0.111-0.201-0.196-0.381-0.308-0.18c-0.166,0.299-0.332,0.598-0.498,0.896c-0.096,0.063-0.134,0.229-0.007,0.314
		c1.069,0.717,1.817,1.856,2.081,3.113c0.216,1.03,0.045,2.089-0.403,3.028c-0.066,0.138-0.12,0.28-0.198,0.412v0h-6.981l0,0
		c-0.097-0.173-0.225-0.33-0.369-0.458c-0.603-0.539-1.457-0.832-2.216-1.069c-0.815-0.253-1.661-0.386-2.513-0.443
		c0.036-0.088,0.001-0.17-0.067-0.212c0.175-1.315,0.351-2.629,0.526-3.944c0.088-0.659,0.176-1.319,0.264-1.978
		c0.105-0.787,0.21-1.574,0.315-2.361c0.013-0.098-0.05-0.145-0.125-0.158c-0.097-0.017-0.215,0.031-0.232,0.158
		c-0.095,0.713-0.19,1.426-0.285,2.139c-0.073,0.549-0.147,1.098-0.22,1.648c-0.042,0.312-0.083,0.625-0.125,0.937
		c-0.166,1.243-0.332,2.487-0.498,3.73c-0.007,0-0.014-0.002-0.02-0.002c-0.133-0.046-0.269-0.082-0.406-0.114
		c-0.5-0.118-1.022-0.145-1.534-0.073c-0.255-0.174-0.541-0.307-0.836-0.394c-0.627-0.185-1.297-0.141-1.827,0.304
		c-0.057-0.018-0.115-0.033-0.175-0.045c-0.753-0.149-1.472,0.248-1.994,0.76c-0.48,0.471-0.75,0.985-0.954,1.575v0h-5.647v0H0.361
		V23.775H43.144z M48.351,60.665h-0.056c0.018-0.001,0.037-0.002,0.056-0.002V60.665z M39.726,41.605
		c-1.465-0.248-1.624-1.261-1.853-2.951c0.06,0.325,0.138,0.647,0.249,0.961C38.422,40.461,38.978,41.137,39.726,41.605z
		 M37.706,37.501c-0.018-0.11-0.037-0.222-0.057-0.336c-0.103-0.579-0.22-1.146-0.363-1.696c0.13,0.384,0.231,0.779,0.3,1.182
		C37.633,36.932,37.67,37.217,37.706,37.501z M23.068,38.066c0.007-0.033,0.02-0.059,0.038-0.079
		c0.002-0.027,0.012-0.055,0.032-0.083c0.168-0.239,0.476-0.331,0.749-0.219c0.28,0.114,0.407,0.422,0.312,0.706
		c-0.095,0.283-0.382,0.486-0.685,0.402C23.196,38.706,23.005,38.383,23.068,38.066z M31.615,61.587
		c-0.135,0.368-0.486,0.368-0.789,0.189c-0.325-0.192-0.608-0.451-0.929-0.651c-0.063-0.039-0.132-0.067-0.196-0.105
		c-0.109-0.064-0.221-0.121-0.334-0.178c-0.112-0.058-0.219-0.126-0.334-0.178c0,0,0,0,0,0c-0.21-0.095-0.424-0.18-0.642-0.254
		c-0.295-0.506-0.697-0.947-1.182-1.282c-0.034-0.024-0.069-0.047-0.104-0.07c1.255,0.123,2.524,0.459,3.612,1.064
		c0.234,0.13,0.496,0.315,0.685,0.541l0,0c0.047,0.057,0.088,0.117,0.124,0.178c0.034,0.057,0.059,0.117,0.081,0.178
		C31.672,61.196,31.688,61.385,31.615,61.587z M28.372,61.209c0.25,0.703,0.489,2.075-0.334,2.507
		c-0.412,0.217-0.785-0.048-0.965-0.425c-0.206-0.431-0.142-0.931-0.172-1.393c-0.021-0.311-0.112-0.601-0.232-0.877
		c-0.026-0.06-0.053-0.12-0.084-0.178c-0.031-0.058-0.049-0.123-0.084-0.178l0,0c-0.209-0.326-0.5-0.596-0.853-0.792
		c-0.02-0.011-0.036-0.029-0.056-0.04c-0.041-0.062-0.089-0.118-0.131-0.178c-0.223-0.315-0.466-0.614-0.742-0.873
		c0.363-0.018,0.718,0.032,1.063,0.118c0.081,0.02,0.166,0.03,0.245,0.056c0.029,0.029,0.069,0.049,0.122,0.05
		c0.008,0,0.016,0,0.024,0c0.663,0.244,1.252,0.673,1.683,1.242c0.099,0.131,0.19,0.271,0.271,0.416l0,0l0.023,0.041
		c0.024,0.044,0.039,0.092,0.061,0.137c0.028,0.058,0.054,0.118,0.079,0.178C28.315,61.084,28.349,61.144,28.372,61.209z
		 M26.096,64.207c-0.472,0.081-0.835-0.331-0.997-0.721c-0.195-0.467-0.266-0.978-0.449-1.451c-0.137-0.355-0.316-0.69-0.513-1.014
		c-0.036-0.06-0.071-0.12-0.11-0.178c-0.038-0.058-0.07-0.121-0.11-0.178l0,0c-0.103-0.147-0.222-0.282-0.336-0.42
		c-0.242-0.29-0.499-0.566-0.79-0.81c-0.014-0.012-0.029-0.021-0.043-0.028c-0.008-0.015-0.019-0.027-0.028-0.042
		c-0.176-0.326-0.399-0.621-0.697-0.816c0.221-0.145,0.467-0.216,0.719-0.228c0.001,0,0.001,0,0.002,0
		c0.252-0.012,0.511,0.033,0.759,0.119c0.155,0.054,0.306,0.122,0.447,0.204c0.101,0.059,0.197,0.123,0.287,0.193
		c0.038,0.029,0.075,0.06,0.111,0.091c0.204,0.177,0.387,0.379,0.562,0.591c0.109,0.133,0.218,0.267,0.315,0.41
		c0.04,0.058,0.079,0.117,0.117,0.177c0.115,0.181,0.222,0.368,0.321,0.558l0,0c0.031,0.059,0.052,0.119,0.081,0.178
		c0.029,0.059,0.053,0.119,0.081,0.178c0.077,0.166,0.16,0.331,0.225,0.497c0.191,0.489,0.334,0.996,0.426,1.512
		C26.545,63.412,26.626,64.116,26.096,64.207z M23.013,64.552c-0.498,0.271-0.815-0.42-0.93-0.779
		c-0.295-0.914-0.575-1.834-0.858-2.752c-0.018-0.059-0.037-0.119-0.056-0.178c-0.018-0.059-0.037-0.119-0.056-0.178v0
		c-0.034-0.111-0.069-0.221-0.103-0.331c-0.053-0.17-0.267-0.148-0.33-0.028c-0.018,0.034-0.029,0.074-0.014,0.123
		c0.025,0.079,0.049,0.157,0.073,0.236v0h-1.851v0c0.011-0.036,0.024-0.071,0.037-0.106c0.055-0.144,0.132-0.293,0.218-0.441
		c0.075-0.13,0.16-0.258,0.255-0.383c0.424-0.561,1.025-1.033,1.669-1.077c0.007,0,0.014-0.003,0.022-0.004
		c0.005,0,0.008,0.002,0.013,0.001c0.003,0,0.005,0.001,0.008,0.001c0.143-0.005,0.277,0.009,0.399,0.046
		c0.048,0.015,0.092,0.036,0.137,0.057c0.023,0.011,0.049,0.018,0.071,0.029c0.254,0.134,0.454,0.355,0.615,0.611
		c0.164,0.261,0.286,0.558,0.377,0.838c0.046,0.141,0.089,0.284,0.128,0.427v0c0.016,0.059,0.024,0.119,0.039,0.178
		s0.025,0.119,0.039,0.178c0.181,0.743,0.304,1.501,0.402,2.258C23.37,63.69,23.455,64.312,23.013,64.552z M23.206,60.665
		c-0.021-0.08-0.044-0.161-0.067-0.241s-0.048-0.161-0.075-0.243c0.146,0.154,0.284,0.315,0.413,0.484l0,0L23.206,60.665
		L23.206,60.665L23.206,60.665z M26.303,61.021c0.005,0.009,0.012,0.016,0.017,0.025c0.124,0.238,0.178,0.485,0.206,0.737
		c-0.008-0.024-0.017-0.048-0.025-0.071c-0.08-0.231-0.186-0.46-0.287-0.69L26.303,61.021L26.303,61.021z M1.32,22.543
		c-0.009-0.032-0.008-0.063,0-0.091c0.042-0.382,0.468-0.468,0.66-0.217c0.037,0.048,0.065,0.109,0.08,0.182
		C2.174,22.964,1.391,23.124,1.32,22.543z M3.787,22.214c0.039,0.02,0.072,0.044,0.099,0.069c0.27,0.248,0.048,0.708-0.348,0.69
		C2.939,22.945,3.235,21.924,3.787,22.214z M5.364,22.463c0.059-0.147,0.193-0.248,0.357-0.236c0.172,0.013,0.306,0.15,0.308,0.336
		C6.04,22.667,6.003,22.77,5.9,22.835c-0.017,0.014-0.035,0.026-0.055,0.036c-0.124,0.062-0.276,0.015-0.361-0.089
		c-0.005-0.006-0.009-0.013-0.014-0.02c-0.043-0.044-0.073-0.099-0.085-0.158C5.357,22.561,5.346,22.509,5.364,22.463z
		 M50.193,46.723c0.003-0.216-0.011-0.422-0.043-0.621c0.053,0.133,0.102,0.268,0.148,0.406c0.34,1.02,0.604,2.042,1.084,3.002
		C50.684,48.863,50.171,48.06,50.193,46.723z"/>
	<path fill="#1B1749" d="M33.116,37.797c0.358,0.135,0.736,0.182,1.116,0.137c0.228-0.027,0.202-0.382-0.026-0.356
		c-0.503,0.059-1.021-0.06-1.427-0.371c-0.079-0.06-0.291-0.242-0.098-0.264c0.126-0.014,0.329,0.08,0.453,0.11
		c0.307,0.075,0.615,0.151,0.922,0.226c0.224,0.055,0.288-0.296,0.066-0.35c-0.463-0.113-0.938-0.274-1.409-0.344
		c-0.349-0.052-0.573,0.279-0.429,0.595C32.421,37.484,32.821,37.685,33.116,37.797z"/>
	<path fill="#1B1749" d="M23.622,38.453c0.122,0.021,0.215-0.081,0.243-0.191c0.063-0.245-0.282-0.373-0.419-0.178
		c-0.009,0.013-0.019,0.024-0.03,0.034c0,0.014-0.001,0.028-0.004,0.043C23.386,38.29,23.495,38.43,23.622,38.453z"/>
	<path fill="#1B1749" d="M8.081,35.607c0.749-0.042,1.502-0.116,2.219-0.348c0.656-0.211,1.268-0.532,1.85-0.897
		c1.164-0.731,2.334-1.702,3.596-2.388v-3.981l1.827,1.055v-3.039H3.256v10.767c0.287-0.222,0.604-0.409,0.931-0.557
		C5.409,35.662,6.766,35.682,8.081,35.607z M8.103,27.569c1.753,0,3.175,1.421,3.175,3.175c0,1.753-1.421,3.175-3.175,3.175
		s-3.175-1.421-3.175-3.175C4.929,28.991,6.35,27.569,8.103,27.569z"/>
	<path fill="#1B1749" d="M19.733,16.056h14.731c0.713,0.775,1.937,1.29,3.332,1.326c0.157,0.004,0.303-0.15,0.186-0.232
		c-0.51-0.358-0.923-0.775-1.23-1.233c1.786-0.473,3.103-2.101,3.103-4.036c0-2.306-1.869-4.175-4.175-4.175H19.733
		c-2.306,0-4.175,1.869-4.175,4.175C15.559,14.187,17.428,16.056,19.733,16.056z M34.808,9.566c1.273,0,2.304,1.031,2.304,2.304
		s-1.031,2.304-2.304,2.304c-1.272,0-2.304-1.032-2.304-2.304S33.536,9.566,34.808,9.566z M25.734,10.158h3.422v3.422h-3.422V10.158
		z M19.72,10.33l2.666,1.539l-2.666,1.539V10.33z"/>
	<path fill="#1B1749" d="M63.918,41.808c0.473-0.332,0.946-0.663,1.419-0.995c0.186-0.131,0.008-0.44-0.18-0.308
		c-0.542,0.38-1.084,0.76-1.626,1.14c-0.083,0.058-0.134,0.203-0.036,0.28c0.573,0.451,1.146,0.902,1.719,1.353
		c0.178,0.14,0.432-0.11,0.252-0.252C64.949,42.62,64.434,42.214,63.918,41.808z"/>
	<path fill="#1B1749" d="M69.801,41.466c-0.607-0.306-1.214-0.611-1.821-0.917c-0.204-0.103-0.385,0.205-0.18,0.308
		c0.524,0.264,1.049,0.528,1.573,0.792c-0.59,0.436-1.181,0.873-1.771,1.309c-0.183,0.135-0.005,0.444,0.18,0.308
		c0.673-0.497,1.346-0.995,2.019-1.492C69.9,41.701,69.932,41.532,69.801,41.466z"/>
	<path fill="#1B1749" d="M13.287,49.323H3.864c-0.229,0-0.23,0.357,0,0.357h9.423C13.516,49.68,13.517,49.323,13.287,49.323z"/>
	<path fill="#1B1749" d="M3.87,51.199h2.622c0.237,0,0.238-0.357,0-0.357H3.87C3.632,50.843,3.632,51.199,3.87,51.199z"/>
	<path fill="#1B1749" d="M13.284,50.863H8.029c-0.233,0-0.234,0.357,0,0.357h5.255C13.517,51.22,13.518,50.863,13.284,50.863z"/>
	<path fill="#1B1749" d="M13.29,52.363H3.86c-0.225,0-0.225,0.357,0,0.357h9.43C13.515,52.719,13.515,52.363,13.29,52.363z"/>
	<path fill="#1B1749" d="M31.558,34.974c-0.004,0.016-0.008,0.033-0.01,0.05c-0.016,0.129,0.036,0.231,0.128,0.317
		c0.028,0.027,0.065,0.038,0.103,0.039c0.021,0.006,0.043,0.009,0.063,0.008c0.049-0.001,0.085-0.016,0.119-0.042
		c0.026-0.014,0.05-0.033,0.07-0.06c0.032-0.043,0.053-0.09,0.064-0.139c0.022-0.073,0.027-0.153,0.013-0.225
		c-0.03-0.155-0.123-0.271-0.263-0.341c-0.104-0.053-0.227,0.025-0.269,0.119C31.533,34.793,31.531,34.888,31.558,34.974z"/>
	<path fill="#1B1749" d="M30.604,34.352c0.023,0.081,0.115,0.127,0.18,0.035c0.16-0.226,0.584-0.222,0.726-0.413
		c0.053-0.072,0.066-0.171,0.011-0.321c-0.125-0.339-0.678-0.327-0.918-0.074c-0.16,0.168-0.314,0.526-0.156,0.707
		C30.491,34.336,30.545,34.353,30.604,34.352z"/>
</g>
<g>
	<path fill="#FFC5FF" d="M53.09,15.9c-0.3,0-0.7-0.1-0.9-0.4c-0.3-0.3-0.6-0.8-0.7-1.3s-0.1-1,0.1-1.5c0.2-0.4,0.5-0.7,0.9-0.8
		s0.8,0.1,1.2,0.4c0.3,0.3,0.6,0.8,0.7,1.3l0,0c0.2,1.1-0.2,2.1-1,2.3C53.29,15.9,53.19,15.9,53.09,15.9z M52.79,12.3h-0.1
		c-0.2,0-0.5,0.2-0.6,0.6c-0.1,0.3-0.2,0.8-0.1,1.2c0.1,0.4,0.3,0.8,0.5,1.1c0.2,0.2,0.5,0.3,0.8,0.3c0.5-0.1,0.8-0.9,0.7-1.8l0,0
		c-0.1-0.4-0.3-0.8-0.5-1.1C53.19,12.4,52.99,12.3,52.79,12.3z"/>
</g>
<g>
	<path fill="#FFC5FF" d="M49.99,16.5c-0.7,0-1.4-0.7-1.6-1.7c-0.2-1.1,0.2-2.1,1-2.3c0.8-0.2,1.6,0.6,1.8,1.7c0.1,0.5,0.1,1-0.1,1.5
		c-0.2,0.4-0.5,0.7-0.9,0.8C50.09,16.5,49.99,16.5,49.99,16.5z M49.59,12.9h-0.1c-0.5,0.1-0.8,0.9-0.7,1.8c0.2,0.8,0.8,1.5,1.3,1.4
		c0.2,0,0.5-0.2,0.6-0.6c0.1-0.3,0.2-0.8,0.1-1.2C50.59,13.5,50.09,12.9,49.59,12.9z"/>
</g>
<path fill="#52A5AE" d="M69.723,14.352c0.461,0.029,0.922,0.057,1.383,0.086c0.133,0.008,0.224-0.161,0.152-0.269
	c-0.238-0.36-0.475-0.72-0.713-1.08c-0.023-0.035-0.052-0.057-0.083-0.069c0.033-0.143-0.165-0.293-0.306-0.165
	c-0.377,0.344-0.588,0.812-0.612,1.321C69.538,14.276,69.631,14.346,69.723,14.352z M70.243,13.279
	c0.172,0.26,0.344,0.52,0.515,0.781c-0.281-0.017-0.562-0.035-0.843-0.052C69.958,13.737,70.071,13.49,70.243,13.279z"/>
<g>
	<circle fill="#FFFFFF" cx="72.114" cy="31.361" r="5.2"/>
</g>
<g>
	<path fill="#1B1749" d="M74.614,33.061L74.614,33.061L74.614,33.061c0.4,0,0.6-0.3,0.6-0.6v-1.3c0-1.7-1.4-3.2-3.2-3.2
		c-1.7,0-3.2,1.4-3.2,3.2v1.3c0,0.3,0.3,0.6,0.6,0.6h0.3c0.2,0,0.3-0.1,0.3-0.3v-1.6c0-0.2-0.1-0.3-0.3-0.3h-0.3l0,0
		c0.2-1.3,1.3-2.2,2.6-2.2c1.3,0,2.4,1,2.6,2.2l0,0h-0.3c-0.2,0-0.3,0.1-0.3,0.3v2c0,0.4-0.3,0.7-0.7,0.7h-0.7v-0.3h-1.2v0.9h1.9
		C74.114,34.361,74.614,33.761,74.614,33.061z"/>
</g>
<g>
	<g>
		<path fill="#FFC5FF" d="M36.648,23.718l-1.7-1.2l4.3-5.9l1.7,1.2L36.648,23.718z M35.548,22.418l0.9,0.7l3.7-5.1l-0.9-0.7
			L35.548,22.418z"/>
	</g>
</g>
</svg>
