<?xml version="1.0" encoding="utf-8"?>
<!-- Generator: Adobe Illustrator 27.6.1, SVG Export Plug-In . SVG Version: 6.00 Build 0)  -->
<svg version="1.0" id="Layer_1" xmlns="http://www.w3.org/2000/svg" xmlns:xlink="http://www.w3.org/1999/xlink" x="0px" y="0px"
	 viewBox="0 0 79.8 63.6" style="enable-background:new 0 0 79.8 63.6;" xml:space="preserve">
<style type="text/css">
	.st0{fill:none;stroke:#52A5AE;stroke-width:0.6336;stroke-miterlimit:10;}
	.st1{fill:none;}
	.st2{fill:#FFFFFF;}
	.st3{fill:#F0EE9F;}
	.st4{fill:#52A5AE;}
	.st5{fill:#FFC5FF;}
	.st6{fill:#F05C5E;}
	.st7{fill:#1B1749;}
</style>
<path class="st0" d="M7.045,48.308c0,0,5.941-42.78,62.67-37.283"/>
<path class="st1" d="M30.903,7.978c-0.601-0.086-1.172-0.324-1.626-0.753c-0.025-0.024-0.045-0.053-0.069-0.078
	c-0.002-0.002-0.004-0.002-0.005-0.004c-0.01-0.01-0.016-0.021-0.026-0.031c-0.095-0.1-0.185-0.203-0.263-0.314
	c-0.055-0.076-0.099-0.158-0.146-0.239c-0.023-0.042-0.054-0.08-0.075-0.122c-0.029-0.032-0.058-0.064-0.085-0.097
	c0.072,0.318,0.204,0.63,0.4,0.92c0.118,0.166,0.246,0.322,0.392,0.454c0.078,0.07,0.163,0.129,0.247,0.189
	c0.067,0.049,0.131,0.103,0.202,0.145c0.255,0.148,0.533,0.241,0.819,0.301C30.741,8.223,30.825,8.102,30.903,7.978z"/>
<path class="st1" d="M63.196,21.4c-0.003,0.033,0.012,0.054,0.013,0.084c-0.003-0.081,0.002-0.161,0.015-0.241
	C63.211,21.294,63.201,21.347,63.196,21.4z"/>
<path class="st1" d="M68.873,18.418c-0.021-0.014-0.042-0.028-0.062-0.04c0,0,0,0-0.001,0c-0.005,0.006-0.011,0.015-0.014,0.018
	C68.822,18.403,68.848,18.41,68.873,18.418z"/>
<path class="st1" d="M26.289,22.108c-0.856,0.448-1.636,1.048-2.263,1.792c-1.046,1.24-1.571,2.905-1.438,4.51
	c0.09-0.63,0.237-1.252,0.453-1.85C23.677,24.8,24.812,23.226,26.289,22.108z"/>
<path class="st1" d="M49.725,1.274c-0.034-0.022-0.068-0.045-0.103-0.067c-1.506-0.932-3.527-0.768-4.807,0.489
	c-0.234,0.23-0.428,0.492-0.581,0.774c0.064-0.086,0.132-0.17,0.203-0.252C45.781,0.696,47.946,0.502,49.725,1.274z"/>
<path class="st1" d="M11.691,17.831c0.204-0.051,0.365-0.214,0.448-0.408h-0.97c-0.069,0-0.133-0.017-0.2-0.02
	C11.084,17.69,11.362,17.913,11.691,17.831z"/>
<path class="st1" d="M64.26,22.412c-0.288,0.086-0.591,0.12-0.876,0.013c-0.406-0.153-0.622-0.567-0.605-0.988
	s0.242-0.782,0.518-1.087c0.329-0.364,0.709-0.69,1.09-0.998c0.591-0.477,1.229-0.941,1.924-1.267
	c-0.462-0.005-0.923,0.066-1.365,0.208c-0.634,0.203-1.146,0.559-1.654,0.977c-0.367,0.303-0.762,0.58-1.248,0.614v2.573
	c0,0.367-0.129,0.705-0.344,0.969c0.679,0.134,1.358,0.267,2.038,0.4C64.065,23.42,64.243,22.921,64.26,22.412z"/>
<path class="st1" d="M7.032,53.869c0.004-0.004,0.01-0.006,0.014-0.009c-0.252,0.093-0.507,0.18-0.76,0.27
	c0.006-0.001,0.011-0.003,0.017-0.004C6.545,54.04,6.789,53.954,7.032,53.869z"/>
<path class="st1" d="M61.67,14.727c0.08,0.093,0.149,0.195,0.205,0.305c0.159-0.08,0.321-0.154,0.487-0.221
	C62.133,14.769,61.902,14.741,61.67,14.727z"/>
<g>
	<path class="st2" d="M39.585,10.659c0.256-0.076,0.521-0.129,0.801-0.13c-1.299-0.803-2.509-1.729-3.458-2.664
		C37.519,9.023,38.498,9.945,39.585,10.659z"/>
	<path class="st2" d="M33.4,12.432c0.013,0.416,0.061,0.831,0.131,1.24c0.075,0.274,0.168,0.544,0.278,0.809
		c0.245,0.587,0.578,1.127,0.969,1.615c1.098-0.202,1.934-1.162,1.934-2.317c0-1.301-1.059-2.36-2.36-2.36
		c-0.368,0-0.712,0.092-1.023,0.243c-0.005,0.019-0.01,0.038-0.015,0.057c-0.008,0.227-0.002,0.452,0.013,0.677
		C33.353,12.407,33.373,12.429,33.4,12.432z M35.645,13.603c0.049-0.109,0.191-0.198,0.312-0.138
		c0.162,0.082,0.27,0.215,0.305,0.395c0.016,0.083,0.011,0.175-0.015,0.26c-0.012,0.056-0.036,0.111-0.074,0.161
		c-0.023,0.031-0.051,0.053-0.081,0.069c-0.039,0.03-0.081,0.047-0.138,0.048c-0.024,0-0.049-0.003-0.074-0.009
		c-0.044-0.002-0.087-0.015-0.119-0.045c-0.106-0.1-0.166-0.218-0.148-0.367c0.002-0.02,0.007-0.039,0.012-0.058
		C35.594,13.82,35.597,13.71,35.645,13.603z"/>
	<path class="st2" d="M41.357,24.436c0.269-0.569,0.619-1.106,0.985-1.615c0.128-0.178,0.26-0.354,0.39-0.531
		c-0.056-0.018-0.104-0.055-0.121-0.131c-0.163-0.722-0.422-1.409-0.751-2.063c-0.78,0.032-1.558,0.099-2.332,0.19
		c-0.151,0.024-0.304,0.041-0.455,0.068c-0.011,0-0.021,0.001-0.032,0.002c-1.605,0.216-3.19,0.556-4.742,1.02
		c0.038,0.105,0.739,1.859,5,2.707C40.015,24.225,40.694,24.338,41.357,24.436z"/>
	<path class="st2" d="M42.133,12.028c0.084,0.038,0.17,0.075,0.256,0.111c-0.417-0.667-1.153-1.115-1.996-1.115
		c-0.059,0-0.114,0.013-0.171,0.017C40.842,11.402,41.481,11.731,42.133,12.028z"/>
	<path class="st2" d="M45.317,16.097c0.005-0.105-0.004-0.21-0.003-0.315c-0.052,0.051-0.104,0.103-0.156,0.154
		C45.211,15.99,45.264,16.043,45.317,16.097z"/>
	<path class="st2" d="M43.241,13.31c0.001,0.025,0.008,0.049,0.008,0.074c0,1.575-1.281,2.856-2.855,2.856
		c-1.394,0-2.553-1.005-2.802-2.328l-0.307,0.039c0.086,0.793-0.193,1.617-0.818,2.152c-0.134,0.114-0.303,0.026-0.35-0.095
		c-0.288,0.229-0.619,0.4-0.982,0.505c0.854,0.902,1.954,1.559,3.199,1.828c2.031,0.439,4.262-0.111,5.812-1.504
		c0.199-0.179,0.494,0.115,0.294,0.294c-0.831,0.747-1.842,1.261-2.922,1.534c0.037,0.073,0.075,0.147,0.112,0.22
		c0.632,0.931,1.094,1.967,1.355,3.063c0.596-0.806,1.177-1.618,1.581-2.548c0.382-0.878,0.604-1.814,0.699-2.763
		c-0.183-0.185-0.365-0.369-0.548-0.554c-0.121-0.122-0.044-0.286,0.077-0.339c0.009-0.03,0.026-0.059,0.053-0.086l0.42-0.414
		c-0.09-0.004-0.18,0.005-0.269-0.01c-0.264-0.042-0.151-0.443,0.111-0.401c0.119,0.019,0.236,0.015,0.351,0.009
		c0.027-0.005,0.051-0.003,0.079,0.002c0.028-0.003,0.053-0.012,0.081-0.016l-0.008-0.02c0.042-0.011,0.083-0.018,0.125-0.027
		l0.057-0.056c0.067-0.066,0.164-0.064,0.243-0.021c0.007-0.002,0.013-0.005,0.02-0.007c0.745-0.335,1.237-1.176,0.955-2.034
		c-0.029-0.089-0.07-0.17-0.115-0.247c-0.164-0.238-0.386-0.393-0.634-0.476c-0.172-0.032-0.358-0.014-0.55,0.083
		c-0.581,0.296-0.721,0.986-0.697,1.581c0.011,0.268-0.405,0.267-0.416,0c-0.009-0.213,0.009-0.43,0.047-0.643L43.241,13.31z
		 M39.26,16.606c-0.38,0.52-1.032,0.758-1.654,0.567c-0.255-0.079-0.146-0.48,0.111-0.401c0.431,0.133,0.913-0.005,1.184-0.375
		C39.058,16.181,39.418,16.389,39.26,16.606z M45.187,14.035c0.336-0.413,0.672-0.826,1.008-1.239
		c0.169-0.208,0.462,0.088,0.294,0.294c-0.336,0.413-0.672,0.826-1.008,1.239C45.312,14.537,45.019,14.241,45.187,14.035z"/>
	<path class="st2" d="M39.605,11.17c-0.913,0.326-1.571,1.191-1.571,2.214c0,1.301,1.059,2.36,2.36,2.36
		c1.301,0,2.36-1.059,2.36-2.36c0-0.251-0.05-0.488-0.123-0.716c-0.15-0.053-0.301-0.103-0.446-0.165
		C41.298,12.123,40.423,11.681,39.605,11.17z M39.65,13.661c-0.115,0.135-0.342,0.133-0.416-0.047
		c-0.017-0.042-0.034-0.084-0.056-0.14c-0.052-0.071-0.079-0.161-0.072-0.248c0.011-0.132,0.094-0.235,0.21-0.287
		c0.115-0.151,0.335-0.118,0.416,0.047c0.014,0.03,0.026,0.06,0.035,0.092c0.036,0.05,0.061,0.107,0.068,0.168
		C39.853,13.399,39.783,13.564,39.65,13.661z"/>
	<path class="st2" d="M44.391,12.473c-0.521-0.18-1.061-0.396-1.615-0.653c0.114,0.173,0.205,0.361,0.279,0.558
		C43.494,12.501,43.944,12.554,44.391,12.473z"/>
	<path class="st2" d="M52.052,22.726c-0.003-0.045-0.015-0.088-0.013-0.134c-0.023-0.031-0.038-0.07-0.039-0.119
		c-0.014-0.601,0.009-1.201,0.016-1.802c-0.5-0.141-1.002-0.273-1.507-0.395c0.086,1.208-0.022,2.427-0.334,3.604
		C50.937,23.549,51.57,23.139,52.052,22.726z"/>
	<path class="st2" d="M37.171,13.417c0.005,0.015,0.01,0.031,0.015,0.047l0.355-0.045c0-0.012-0.003-0.023-0.003-0.034
		c0-1.113,0.646-2.068,1.577-2.539c-1.21-0.843-2.251-1.94-2.793-3.322c-0.578,0.321-1.106,0.734-1.531,1.236
		c-0.006,0.007-0.012,0.013-0.018,0.02c-0.187,0.223-0.355,0.459-0.511,0.703c-0.035,0.055-0.068,0.112-0.101,0.169
		c-0.182,0.307-0.327,0.644-0.478,0.977c-0.06,0.145-0.124,0.289-0.176,0.438c0.269-0.084,0.548-0.142,0.844-0.142
		C35.803,10.923,36.991,12.014,37.171,13.417z"/>
	<path class="st2" d="M50.073,20.174c-0.127-0.029-0.253-0.061-0.38-0.089c0.059,1.405-0.157,2.811-0.568,4.17
		c0.176-0.051,0.355-0.097,0.525-0.156C50.027,22.82,50.182,21.49,50.073,20.174z"/>
	<path class="st2" d="M67.209,18.19c-0.854,0.227-1.625,0.757-2.318,1.289c-0.362,0.278-0.707,0.577-1.035,0.894
		c-0.251,0.242-0.538,0.523-0.631,0.87c-0.013,0.08-0.018,0.16-0.015,0.241c0.002,0.098,0.007,0.195,0.042,0.27
		c0.118,0.249,0.402,0.36,0.728,0.299c0.087-0.017,0.173-0.04,0.259-0.068c0.135-0.044,0.267-0.1,0.397-0.161
		c0.197-0.092,0.389-0.196,0.578-0.287c0.906-0.435,1.812-0.871,2.717-1.307c0.24-0.115,0.451,0.243,0.21,0.359
		c-0.044,0.021-0.088,0.043-0.132,0.064c0.227,0.258,0.454,0.516,0.681,0.774c0.176,0.201-0.117,0.496-0.294,0.294
		c-0.258-0.293-0.516-0.587-0.774-0.88c-0.965,0.471-1.927,0.951-2.905,1.394c-0.013,0.006-0.026,0.011-0.038,0.017
		c0.014,0.627-0.185,1.252-0.567,1.763c0.021,0.13-0.085,0.29-0.257,0.256c-0.013-0.003-0.026-0.005-0.04-0.008
		c-0.016-0.001-0.031-0.004-0.046-0.009c-0.102-0.02-0.204-0.04-0.305-0.06c-0.72-0.141-1.44-0.283-2.16-0.424
		c-0.233,0.142-0.506,0.223-0.797,0.223h-1.037c0.039,0.12-0.012,0.276-0.177,0.283c-0.214,0.008-0.429,0.005-0.644,0.011
		c0.046,0.373,0.433,0.736,0.787,0.88c0.294,0.12,0.607,0.173,0.919,0.226c0.179,0.015,0.353,0.043,0.514,0.1
		c0.149,0.036,0.295,0.081,0.437,0.143c1.03,0.446,1.478,1.543,2.245,2.289c0.465,0.453,1.068,0.675,1.648,0.939
		c0.545,0.248,1.041,0.559,1.422,1.027c0.128,0.157,0.229,0.329,0.331,0.5c0.001,0.002,0.004,0.003,0.005,0.005
		c0.037,0.051,0.071,0.103,0.102,0.157c0.041,0.069,0.077,0.141,0.109,0.214c0.349,0.728,0.53,1.54,0.693,2.325
		c0.021,0.104-0.031,0.18-0.103,0.223c-0.006-0.066-0.011-0.132-0.017-0.199c-0.01-0.117-0.099-0.175-0.191-0.188
		c-0.053-0.008-0.101,0.001-0.143,0.028c-0.051,0.032-0.089,0.08-0.082,0.161c0.006,0.072,0.012,0.144,0.018,0.216
		c0.322,3.83,0.643,7.659,0.965,11.489c0.022,0.265,0.439,0.267,0.416,0c-0.312-3.709-0.623-7.419-0.935-11.128
		c-0.002-0.025-0.004-0.049-0.006-0.074c0.396,0.355,1.223,0.749,2.831,0.36c0,0,0,0,0.001,0c1.845-0.446,3.21-1.597,3.851-2.226
		c-0.426-1.801-0.94-3.582-1.565-5.324c-0.638-1.776-1.379-3.515-2.219-5.206c-0.378-0.761-0.74-1.573-1.244-2.261
		c-0.166-0.227-0.356-0.41-0.564-0.547c-0.025-0.007-0.052-0.015-0.077-0.022c0.003-0.003,0.009-0.012,0.014-0.018
		C68.348,18.098,67.8,18.033,67.209,18.19z M69.617,30.704c0.185,0.112,0.081,0.355-0.086,0.376c-0.04,0.005-0.08,0.01-0.124-0.017
		c-1.219-0.738-1.938-2.065-2.186-3.441c-0.059-0.329-0.086-0.659-0.099-0.988c-0.057-1.438,0.271-2.879,0.599-4.271
		c0.061-0.261,0.463-0.15,0.401,0.111c-0.361,1.538-0.748,3.154-0.538,4.743c0.01,0.073,0.013,0.146,0.026,0.218
		c0.192,1.144,0.733,2.245,1.643,2.974C69.375,30.507,69.481,30.621,69.617,30.704z"/>
	<path class="st2" d="M63.136,14.98c-0.383,0.111-0.763,0.26-1.124,0.444c-0.385,0.196-0.748,0.433-1.075,0.711
		c-0.297,0.253-0.61,0.581-0.649,0.989c-0.009,0.098,0.007,0.208,0.047,0.317c0.034,0.091,0.085,0.177,0.149,0.247
		c0.002,0.003,0.003,0.006,0.005,0.009c0.001,0.002,0.003,0.004,0.005,0.005c0.105,0.111,0.246,0.178,0.408,0.151
		c0.128-0.022,0.22,0.063,0.25,0.161c0.228-0.339,0.566-0.637,0.892-0.878c0.123-0.091,0.243-0.174,0.356-0.248
		c1.454-0.96,3.293-1.323,4.972-0.884c-0.204-0.746-1.025-1.12-1.745-1.225C64.8,14.659,63.935,14.748,63.136,14.98z"/>
	<path class="st2" d="M64.954,16.313c-0.901,0.16-1.76,0.518-2.508,1.046c-0.133,0.094-0.271,0.195-0.403,0.304
		c-0.252,0.208-0.486,0.447-0.63,0.727c-0.207,0.404-0.129,0.978,0.387,1.07c0.083,0.015,0.164,0.018,0.243,0.01
		c0.19-0.017,0.37-0.093,0.538-0.194c0.008-0.005,0.015-0.01,0.023-0.014c0.165-0.101,0.318-0.225,0.459-0.342
		c0.377-0.314,0.759-0.602,1.207-0.808c0.871-0.403,1.828-0.528,2.775-0.377c0.042,0.007,0.073,0.023,0.096,0.044
		c0.525-0.13,1.065-0.126,1.553,0.063c0.02-0.451-0.227-0.88-0.624-1.103c-0.042-0.024-0.069-0.055-0.085-0.089
		C67.039,16.232,65.969,16.133,64.954,16.313z"/>
	<path class="st2" d="M58.231,14.504c0.426,0.296,0.964,0.155,1.426,0.035c0.484-0.125,0.968-0.202,1.454-0.223
		c0.525-0.023,1.051,0.019,1.581,0.137c0.105,0.024,0.149,0.102,0.148,0.184c0.384-0.123,0.78-0.213,1.181-0.265
		c0.43-0.057,0.931-0.074,1.426-0.022c-0.651-0.5-1.389-0.881-2.174-1.129c-0.828-0.262-1.698-0.377-2.565-0.336
		c-0.43,0.02-0.857,0.08-1.276,0.181c-0.401,0.096-0.838,0.208-1.175,0.456c-0.245,0.18-0.351,0.438-0.274,0.671
		C58.02,14.306,58.101,14.414,58.231,14.504z"/>
	<path class="st2" d="M35.154,54.378v4.291c0.165-0.139,0.33-0.279,0.495-0.418c0.203-0.172,0.499,0.121,0.294,0.294
		c-0.191,0.161-0.382,0.323-0.572,0.484l0.353,0.392c0.179,0.199-0.115,0.494-0.294,0.294l-0.275-0.306v1.556h20.587v-6.607
		c-0.016,0.004-0.024,0.019-0.043,0.019L35.154,54.378L35.154,54.378z M53.286,58.235c-0.513,0.477-1.249,0.204-1.721-0.193
		c-0.498-0.419-0.99-1.103-1.719-0.763c-0.843,0.393-1.472,1.543-2.548,1.188c-0.949-0.314-1.492-1.802-2.639-1.218
		c-0.474,0.241-0.865,0.622-1.367,0.811c-0.591,0.223-1.099-0.007-1.583-0.355c-0.511-0.366-1.029-0.585-1.669-0.469
		c-0.573,0.104-1.087,0.433-1.38,0.941c-0.134,0.232-0.494,0.022-0.359-0.21c0.64-1.109,2.192-1.527,3.289-0.848
		c0.282,0.175,0.532,0.413,0.84,0.544c0.284,0.12,0.568,0.084,0.842-0.044c0.484-0.227,0.872-0.615,1.37-0.817
		c0.498-0.202,1.001-0.119,1.432,0.197c0.417,0.306,0.731,0.766,1.194,1.007c0.501,0.26,0.968-0.02,1.361-0.339
		c0.378-0.306,0.739-0.671,1.21-0.832c0.579-0.198,1.102,0.073,1.53,0.457c0.364,0.327,1.089,1.144,1.622,0.649
		C53.188,57.759,53.483,58.053,53.286,58.235z"/>
	<path class="st2" d="M51.404,52.322c-0.029-0.093-0.043-0.184-0.044-0.272c-0.564-0.408-1.139-0.799-1.739-1.153
		c-0.242,0.376-0.497,0.744-0.764,1.102c-0.106,0.142-0.303,0.097-0.374-0.012c-1.055-1.367-2.101-2.724-3.146-4.082
		c-0.146-0.189,0.123-0.373,0.298-0.266c0.037-0.016,0.081-0.021,0.131-0.009c0.827,0.197,1.66,0.356,2.498,0.493
		c0.001-0.009,0.002-0.018,0.003-0.027c0.04-0.23,0.102-0.453,0.17-0.674c0.259-0.85,0.707-1.635,1.291-2.309
		c1.515-1.746,3.75-2.551,6.013-2.596v-5.408H35.154v9.866v6.987h20.543c0.019,0,0.027,0.015,0.043,0.019v-0.406
		c-0.782-0.223-1.645-0.395-2.401-0.445C52.658,53.083,51.661,53.14,51.404,52.322z M38.927,51.65
		c-0.283,0.291-0.744,0.399-1.124,0.252c-0.427-0.166-0.575-0.574-0.534-0.994c-0.037-0.496,0.25-0.957,0.758-1.064
		c0.408-0.086,0.742,0.069,0.954,0.331c1.243-0.981,2.486-1.963,3.729-2.945c1.111-0.877,2.222-1.755,3.333-2.632
		c-0.136-0.223-0.175-0.498-0.054-0.801c-1.372-0.526-2.784-0.941-4.223-1.24c-0.085,0.137-0.204,0.257-0.354,0.35
		c-0.367,0.228-0.87,0.272-1.263,0.084c-0.306-0.147-0.465-0.408-0.512-0.705c-0.064-0.029-0.114-0.088-0.115-0.18
		c-0.009-0.654,0.482-1.18,1.125-1.259c0.571-0.07,1.079,0.264,1.233,0.82c0.002,0.006,0.003,0.012,0.005,0.018
		c2.825-0.197,5.65-0.394,8.475-0.591c0.01-0.043,0.024-0.085,0.042-0.127c-0.012-0.045-0.005-0.097,0.029-0.149
		c0.298-0.453,0.797-0.71,1.326-0.491c0.172,0.071,0.329,0.185,0.452,0.327c0.077,0.089,0.141,0.19,0.188,0.298
		c0.008,0.019,0.016,0.038,0.023,0.057c0.03,0.082,0.049,0.167,0.057,0.256c0.003,0.032,0.004,0.064,0.003,0.096
		c-0.008,0.409-0.3,0.786-0.696,0.9c-0.394,0.113-0.852-0.017-1.151-0.295c-0.829,0.443-1.657,0.885-2.485,1.328
		c0.024,0.031,0.046,0.065,0.066,0.1c0.279,0.494,0.122,1.224-0.338,1.554c-0.464,0.333-1.125,0.262-1.547-0.047
		c-0.992,0.783-1.984,1.566-2.976,2.349c-1.391,1.099-2.783,2.197-4.175,3.296C39.292,50.911,39.23,51.338,38.927,51.65z"/>
	<path class="st2" d="M53.936,46.125c0.112-0.14,0.232-0.272,0.358-0.398c-1.015,0.339-1.925,0.969-2.603,1.802
		c-0.014,0.017-0.031,0.031-0.044,0.048c-0.399,0.502-0.703,1.062-0.913,1.667c-0.079,0.228-0.174,0.468-0.3,0.68
		c0.567,0.306,1.125,0.628,1.674,0.965c0.125-0.09,0.254-0.17,0.377-0.233c0.626-0.32,1.322-0.434,2.013-0.36
		c0-0.092,0.007-0.183,0.019-0.272c-0.032,0.009-0.068,0.011-0.106,0.002c-0.712-0.165-1.208-0.831-1.297-1.538
		c-0.039-0.308,0.005-0.612,0.081-0.909C53.328,47.047,53.598,46.544,53.936,46.125z"/>
	<path class="st2" d="M46.93,42.966c0.281-0.078,0.598-0.069,0.861,0.048c0.867-0.463,1.734-0.926,2.601-1.389
		c-0.015-0.038-0.028-0.076-0.036-0.115c-2.812,0.197-5.623,0.393-8.434,0.588c-0.002,0.022-0.005,0.044-0.008,0.067
		c1.47,0.307,2.912,0.734,4.312,1.278C46.386,43.217,46.633,43.048,46.93,42.966z"/>
	<path class="st2" d="M18.124,37.108h-0.418c0.037,0.146,0.061,0.297,0.052,0.459c-0.005,0.091-0.037,0.173-0.061,0.257
		c-0.022,0.076-0.043,0.149-0.078,0.218c-0.175,0.345-0.494,0.599-0.855,0.641c0.236,0.329,0.312,0.761,0.152,1.16
		c-0.254,0.638-0.898,0.863-1.55,0.788v4.843c0,0,0,0,0,0v0.175v0.268c0,0,0,0,0,0v3.773c0.87-0.462,1.724-0.949,2.573-1.449v-1.919
		v-4v-3.078h1.698h12.396v6.742v0.879v4.656c0.321-0.011,0.641-0.022,0.963-0.017c0.091,0.001,0.177,0.063,0.2,0.152
		c0.022,0.082,0.034,0.16,0.037,0.238c0.005,0.018,0.007,0.036,0.006,0.057l-0.109,2.221c-0.008,0.161-0.18,0.204-0.301,0.149
		c-0.808,0.03-1.616,0.059-2.424,0.089c-0.07,0.003-0.121-0.024-0.154-0.065c-0.036-0.034-0.06-0.083-0.058-0.148
		c0.01-0.287,0.021-0.573,0.032-0.86h-8.497c0.099,0.104,0.198,0.208,0.265,0.35c0.209,0.447,0.217,0.959,0.107,1.447h8.76
		c0.268,0,0.268,0.416,0,0.416h-8.594c0.203,0.297,0.322,0.647,0.371,1.01h3.146c0.268,0,0.268,0.416,0,0.416h-3.118
		c0.001,0.045,0.007,0.092,0.006,0.137c-0.016,0.739-0.204,1.558-0.751,2.091c-0.215,0.209-0.481,0.367-0.771,0.447
		c-1.107,0.308-2.229-0.609-2.071-1.742c-0.142,0.033-0.284,0.066-0.426,0.097c-0.306,0.068-0.619,0.108-0.922,0.192
		c-0.146,0.041-0.323,0.085-0.448,0.174c-0.121,0.086-0.224,0.204-0.345,0.292c-0.201,0.147-0.405,0.288-0.613,0.424
		c-0.31,0.202-0.634,0.38-0.959,0.556v1.318h19.371v-1.402c-0.026,0.022-0.052,0.044-0.078,0.066
		c-0.203,0.172-0.499-0.121-0.294-0.294c0.124-0.105,0.248-0.21,0.373-0.315v-0.074l-0.261-0.291
		c-0.169-0.188,0.082-0.447,0.261-0.309V46.96v-9.852H20.649H18.124z M30.862,56.98h-3.785c-0.268,0-0.268-0.416,0-0.416h3.785
		C31.13,56.564,31.13,56.98,30.862,56.98z"/>
	<path class="st2" d="M26.788,46.681c0.079,0.007,0.155,0.024,0.235,0.024c0.038,0,0.074-0.01,0.112-0.011
		c1.422-0.06,2.559-1.222,2.559-2.659c0-1.475-1.195-2.67-2.67-2.67c-1.475,0-2.67,1.195-2.67,2.67c0,0.161,0.02,0.317,0.047,0.471
		c0.347-0.008,0.682,0.098,0.969,0.409c0.388,0.421,0.346,0.879,0.133,1.311C25.872,46.483,26.313,46.639,26.788,46.681z"/>
	<path class="st2" d="M11.342,33.778c0.601,0.051,1.226,0.277,1.754,0.422c0.067,0.018,0.135,0.038,0.202,0.057
		c0.02-0.051,0.059-0.095,0.12-0.12c0.376-0.156,0.796-0.191,1.194-0.111c0.351,0.07,0.676,0.238,0.953,0.464
		c0.035,0.028,0.078,0.046,0.111,0.077c0.038,0.035,0.062,0.081,0.097,0.119c0.016,0.018,0.031,0.038,0.046,0.057
		c0.038,0.046,0.078,0.091,0.113,0.139c0.062,0.085,0.135,0.163,0.196,0.25c0.077,0.111,0.151,0.224,0.245,0.325
		c0.518,0.551,1.355,1.003,2.097,0.611c0.53-0.28,0.556-0.733,0.381-1.186c0,0,0,0,0,0c-0.018-0.047-0.047-0.093-0.069-0.139
		c-0.009-0.019-0.019-0.038-0.028-0.057c-0.034-0.066-0.063-0.132-0.102-0.196c-0.067-0.109-0.139-0.216-0.215-0.316
		c-0.01-0.01-0.019-0.022-0.027-0.035c-0.001-0.001-0.001-0.001-0.002-0.002c-0.137-0.178-0.281-0.336-0.402-0.458
		c-0.726-0.73-1.573-1.356-2.499-1.808c-0.894-0.436-2.037-0.74-2.987-0.295c-0.768,0.359-1.391,1.203-1.171,2.076
		C11.361,33.698,11.357,33.742,11.342,33.778z"/>
	<path class="st2" d="M7.24,42.394c1.454,0.551,2.908,1.102,4.361,1.653c0.224,0.085,0.448,0.17,0.672,0.255
		c0.901,0.341,1.801,0.683,2.702,1.024v-4.761c-0.624-0.12-1.243-0.328-1.851-0.502c0.092,0.115,0.185,0.23,0.277,0.346
		c0.07,0.088,0.087,0.208,0,0.294c-0.073,0.073-0.224,0.088-0.294,0c-0.037-0.046-0.073-0.091-0.11-0.137
		c-0.121-0.151-0.242-0.303-0.363-0.454c-0.047-0.059-0.069-0.132-0.054-0.199l-0.152-0.042l-1.909-0.525
		c-0.259-0.071-0.148-0.472,0.11-0.402c0.639,0.176,1.278,0.351,1.917,0.527c0.653,0.18,1.307,0.359,1.961,0.539
		c0.144,0.04,0.304,0.086,0.468,0.129c0.064,0.017,0.13,0.028,0.196,0.042s0.13,0.033,0.196,0.042c0,0,0,0,0,0
		c0.316,0.045,0.63,0.025,0.885-0.162c0.935-0.687-0.236-1.639-0.885-1.912c0,0,0,0,0,0c-0.064-0.027-0.131-0.046-0.196-0.072
		c-0.064-0.026-0.131-0.046-0.196-0.072c-0.499-0.2-1.002-0.387-1.512-0.556c-0.863-0.286-1.737-0.541-2.626-0.737
		c-0.262-0.058-0.15-0.459,0.111-0.402c0.938,0.207,1.855,0.483,2.763,0.79c0.425,0.143,0.847,0.294,1.264,0.459
		c0.065,0.026,0.131,0.045,0.196,0.071c0.065,0.026,0.132,0.045,0.196,0.071c0,0,0,0,0,0c0.287,0.119,0.572,0.242,0.856,0.37
		c0.046,0.021,0.075,0.05,0.092,0.084c0.01,0.006,0.021,0.013,0.031,0.021c0.34,0.266,0.818-0.01,0.946-0.365
		c0.084-0.233,0.06-0.476-0.02-0.703c-0.067-0.189-0.17-0.367-0.296-0.515c-0.391-0.459-0.936-0.803-1.49-1.079
		c-0.04-0.02-0.079-0.042-0.119-0.061c0,0,0,0,0,0c-0.066-0.032-0.131-0.059-0.196-0.089c-0.065-0.03-0.131-0.061-0.196-0.089
		c-0.009-0.004-0.018-0.008-0.027-0.012c-0.771-0.333-1.582-0.563-2.393-0.775c-0.765-0.2-1.752-0.587-2.405,0.06
		c-0.203,0.202-0.366,0.471-0.443,0.747c-0.093,0.335,0.05,0.568,0.14,0.887c0.015,0.055,0.03,0.112,0.022,0.168
		c-0.016,0.113-0.129,0.123-0.18,0.209c-0.009,0.015-0.02,0.03-0.034,0.044c-0.51,0.518-0.643,1.287-0.414,1.965
		c0.123,0.366,0.594,1.777,0.93,1.899c0.645,0.234,1.277,0.5,1.902,0.781c0.289,0.129,0.579,0.255,0.863,0.394
		c0.241,0.118,0.03,0.477-0.21,0.359c-0.25-0.122-0.51-0.219-0.763-0.334c-0.45-0.203-0.897-0.415-1.357-0.593
		c-0.233-0.091-0.467-0.178-0.702-0.262c-0.571-0.203-1.149-0.388-1.733-0.552c-0.653-0.184-1.32-0.368-1.991-0.478
		c-0.465-0.075-1.141-0.124-1.458,0.307c-0.396,0.538,0.101,1.208,0.561,1.494C5.878,41.951,6.592,42.148,7.24,42.394z"/>
	<path class="st2" d="M19.13,34.456c0.006,0.011,0.012,0.022,0.018,0.033h0.529h1.673c-0.017-0.159-0.025-0.317-0.022-0.476
		c0-0.028,0.001-0.056,0.002-0.083c0.004-0.204,0.011-0.409-0.006-0.615c-0.026-0.324-0.151-0.667-0.435-0.815
		c-0.069-0.036-0.139-0.071-0.229-0.079c-0.84-0.081-1.54,0.843-1.817,1.557c-0.001,0.004-0.004,0.008-0.005,0.012
		c0.03,0.041,0.061,0.083,0.09,0.124C19.001,34.22,19.069,34.336,19.13,34.456z"/>
	<path class="st2" d="M59.293,53.219c0.022,0.031,0.036,0.069,0.038,0.114c0.014,0.326,0.267,0.557,0.523,0.786
		c1.182,0.374,2.718,0.411,3.903,0.022c-1.388-0.405-2.71-1.12-3.97-1.82C59.513,52.54,59.332,52.864,59.293,53.219z"/>
	<path class="st2" d="M64.282,54.386c-0.06,0.025-0.123,0.037-0.183,0.06c0.165-0.036,0.33-0.073,0.495-0.107
		c-0.072-0.014-0.144-0.023-0.215-0.038C64.361,54.335,64.33,54.366,64.282,54.386z"/>
	<path class="st2" d="M56.133,51.938c-0.066,0.012-0.132,0.026-0.196,0.027c-0.067,0.001-0.132-0.008-0.196-0.019
		c-0.586-0.102-1.041-0.666-1.19-1.229c-0.636-0.093-1.299,0.014-1.872,0.308c-0.054,0.028-0.115,0.064-0.178,0.105
		c0.126,0.079,0.252,0.158,0.376,0.239c0.08,0.052,0.104,0.13,0.094,0.204c0.017,0.061,0.004,0.129-0.056,0.186
		c-0.206,0.198-0.369,0.433-0.469,0.703c-0.035,0.093-0.112,0.135-0.19,0.14c0.253,0.089,0.541,0.085,0.805,0.096
		c0.364,0.015,0.727,0.047,1.088,0.098c0.491,0.069,1.055,0.204,1.593,0.354c0.066,0.018,0.132,0.035,0.196,0.054
		c0.064,0.019,0.133,0.035,0.196,0.054c0.039,0.012,0.084,0.022,0.123,0.034c-0.063-0.464-0.057-0.935,0.015-1.377
		C56.224,51.929,56.179,51.93,56.133,51.938z"/>
	<path class="st2" d="M67.735,48.051c-1.359-0.941-2.745-1.842-4.168-2.671c-0.244-0.142-0.491-0.279-0.74-0.415
		c-0.048-0.026-0.096-0.054-0.145-0.08c-0.423-0.214-0.845-0.429-1.276-0.628c-1.663-0.759-3.422-1.291-5.267-1.333
		c-0.002,0-0.004,0-0.006,0c-0.065-0.001-0.13,0.005-0.196,0.005c-0.065,0-0.131,0.004-0.196,0.005
		c-2.245,0.043-4.471,0.88-5.893,2.681c-0.426,0.539-0.762,1.162-0.979,1.821c-0.124,0.374-0.22,0.757-0.247,1.151
		c-0.038,0.557,0.08,1.247,0.685,1.45c0.633,0.213,0.868-0.451,1.031-0.921c0.201-0.581,0.499-1.116,0.859-1.604
		c0.489-0.663,1.115-1.211,1.82-1.633c0.009-0.007,0.017-0.015,0.026-0.022c0.033-0.017,0.068-0.03,0.101-0.046
		c0.524-0.297,1.083-0.537,1.683-0.661c0.107-0.043,0.214-0.087,0.321-0.13c0.018-0.007,0.036-0.012,0.054-0.015
		c0.173-0.108,0.355-0.2,0.539-0.286c0.065-0.031,0.13-0.06,0.196-0.088c0.064-0.027,0.131-0.047,0.196-0.071
		c0.584-0.219,1.203-0.344,1.835-0.337c0.268,0.003,0.249,0.419-0.018,0.416c-0.627-0.008-1.244,0.125-1.817,0.362
		c-0.067,0.028-0.13,0.058-0.196,0.089c-0.068,0.032-0.13,0.076-0.196,0.111c-0.474,0.249-0.917,0.558-1.284,0.955
		c-0.371,0.401-0.701,0.9-0.854,1.438c-0.05,0.176-0.082,0.356-0.089,0.539c-0.027,0.665,0.346,1.342,1.025,1.499
		c0.024,0.006,0.044,0.015,0.061,0.025c0.152-0.491,0.454-0.944,0.772-1.335c0.115-0.141,0.247-0.263,0.37-0.396
		c0.065-0.07,0.129-0.142,0.196-0.21c0.014-0.014,0.027-0.03,0.041-0.044c0.054-0.053,0.1-0.114,0.155-0.166
		c0.864-0.817,1.889-1.448,3.014-1.857c0.252-0.092,0.341,0.315,0.093,0.406c-0.995,0.362-1.908,0.926-2.691,1.636
		c-0.144,0.13-0.281,0.268-0.416,0.408c-0.056,0.059-0.12,0.11-0.174,0.171c-0.007,0.008-0.015,0.018-0.022,0.026
		c-0.066,0.074-0.131,0.153-0.196,0.231c-0.383,0.456-0.736,0.98-0.814,1.57c-0.07,0.531,0.282,1.223,0.814,1.352
		c0.063,0.015,0.129,0.016,0.196,0.014c0.064-0.002,0.128-0.004,0.196-0.024c0.093-0.027,0.188-0.064,0.286-0.129
		c0.481-1.466,1.79-2.578,3.306-2.86c0.263-0.049,0.356,0.357,0.093,0.406c-0.764,0.142-1.465,0.5-2.026,1.038
		c-1.07,1.026-1.434,2.608-0.97,4.011c0.223,0.675,0.653,1.34,1.288,1.69c0.571,0.314,1.309,0.292,1.791-0.163
		c0.09-0.123,0.136-0.272,0.108-0.433c-0.042-0.242-0.242-0.424-0.415-0.583c-0.317-0.29-0.618-0.575-0.671-1.01
		c-0.034-0.035-0.055-0.084-0.051-0.149c0.05-0.725,0.529-1.325,1.214-1.554c0.239-0.08,0.333,0.275,0.135,0.387
		c2.049,1.135,4.303,2.304,6.715,1.891c0.199-0.034,0.301,0.189,0.225,0.32c0.662,0.48,1.324,0.96,1.986,1.441
		c0.331-0.271,0.809-0.812,1.145-1.747c0.042-0.118,0.088-0.227,0.125-0.359c0.47-1.663,0.263-2.891,0.01-3.64
		C69.541,49.333,68.646,48.681,67.735,48.051z"/>
	<path class="st2" d="M16.476,58.492c0.182-0.127,0.361-0.259,0.536-0.395c0.182-0.141,0.297-0.22,0.522-0.272
		c0.155,0,0.345-0.08,0.497-0.115c0.157-0.036,0.316-0.065,0.474-0.1c0.345-0.077,0.689-0.158,1.034-0.237
		c0.241-0.055,0.482-0.11,0.722-0.165c0.083-0.019,0.166-0.038,0.249-0.057c0.082-0.019,0.149,0.009,0.195,0.056
		c0.036,0.018,0.073,0.048,0.087,0.081c0.004,0.009,0.008,0.017,0.023,0.036c0.007,0.004,0.013,0.007,0.02,0.01
		c0.037,0.019,0.067,0.044,0.091,0.081c0.03,0.047,0.033,0.107,0.021,0.16c-0.011,0.05-0.052,0.099-0.115,0.133
		c0.032,0.063,0.058,0.13,0.076,0.202c0.068,0.26-0.334,0.369-0.401,0.111c-0.042-0.161-0.148-0.296-0.286-0.378
		c-0.239,0.055-0.477,0.112-0.716,0.169c0.004,0.026,0.004,0.053-0.003,0.083c-0.078,0.347,0.006,0.689,0.217,0.95
		c0.019,0.064,0.063,0.11,0.138,0.127c0.037,0.033,0.066,0.071,0.108,0.1c0.338,0.231,0.792,0.323,1.178,0.159
		c0.482-0.205,0.831-0.7,0.975-1.191c0.095-0.323,0.148-0.694,0.143-1.061c-0.002-0.142-0.024-0.278-0.046-0.416
		c-0.038-0.232-0.104-0.453-0.213-0.652c-0.015-0.026-0.019-0.058-0.035-0.084c-0.046-0.074-0.102-0.129-0.157-0.187
		c-0.028-0.029-0.054-0.062-0.085-0.088c-0.35-0.292-0.834-0.333-1.319-0.31c-0.303,0.014-0.606,0.051-0.874,0.069
		c-1.023,0.066-2.046,0.132-3.069,0.198c-0.268,0.017-0.266-0.399,0-0.416c1.108-0.072,2.217-0.143,3.325-0.215
		c0.631-0.041,1.345-0.136,1.919,0.154c0.096-0.435,0.085-0.929-0.166-1.308c-0.144-0.216-0.347-0.323-0.569-0.386
		c-0.303-0.087-0.646-0.081-0.96-0.056c-0.232,0.018-0.465,0.038-0.697,0.056c-1.187,0.094-2.374,0.192-3.56,0.288
		c-0.267,0.022-0.265-0.395,0-0.416c0.729-0.059,1.457-0.118,2.186-0.177c0.111-0.009,0.222-0.018,0.334-0.027
		c0.764-0.062,1.558-0.194,2.325-0.16c0.246,0.011,0.481,0.062,0.692,0.156c0.171-0.476-0.024-1.016-0.384-1.356
		c-0.419-0.395-1.014-0.543-1.575-0.56c-0.349-0.011-0.698,0.02-1.045,0.065c-0.055,0.02-0.109,0.041-0.164,0.06
		c-0.064,0.023-0.119,0.014-0.162-0.014c-0.007,0.001-0.014,0.002-0.021,0.003c-0.211,0.032-0.422,0.067-0.632,0.098l-1.905,0.283
		c-0.015,0.002-0.023-0.009-0.037-0.009c-0.095-0.003-0.163-0.057-0.196-0.132c-0.028-0.063-0.033-0.128,0-0.181
		c0.024-0.038,0.06-0.07,0.122-0.079c0.025-0.004,0.049-0.007,0.074-0.011c0.777-0.115,1.555-0.231,2.332-0.346
		c0.08-0.012,0.161-0.023,0.241-0.035c0.075-0.011,0.15-0.022,0.225-0.033c1.122-0.408,2.223-0.934,3.264-1.555
		c1.152-0.688,2.232-1.494,3.171-2.428c0.05-0.05,0.104-0.107,0.158-0.167c0.167-0.185,0.332-0.412,0.419-0.649
		c0.084-0.23,0.096-0.468-0.054-0.687c-0.143-0.211-0.366-0.305-0.604-0.333c-0.263-0.031-0.547,0.021-0.773,0.117
		c-0.539,0.23-1.011,0.632-1.491,0.962c-0.231,0.159-0.467,0.312-0.7,0.468c-0.252,0.169-0.502,0.341-0.756,0.506
		c-0.938,0.61-1.894,1.193-2.861,1.756c-0.846,0.493-1.707,0.957-2.573,1.413c-0.066,0.035-0.13,0.072-0.196,0.107
		c-0.066,0.034-0.13,0.072-0.196,0.106c-0.134,0.069-0.263,0.147-0.397,0.216c-2.44,1.245-4.961,2.325-7.532,3.27
		c-0.004,0.003-0.01,0.005-0.014,0.009c-0.243,0.085-0.486,0.171-0.729,0.257c-0.006,0.001-0.011,0.003-0.017,0.004
		c-0.412,0.146-0.822,0.301-1.237,0.439c0.066,0.772,0.263,2.482,0.783,3.954c0.417,1.179,0.829,1.935,1.096,2.358
		c0.13,0.004,0.26,0.005,0.39,0.01c0.914,0.037,1.822,0.071,2.734-0.018c0.88-0.086,1.75-0.265,2.596-0.522
		c0.804-0.244,1.581-0.572,2.327-0.96c0.066-0.034,0.131-0.069,0.196-0.105c0.065-0.035,0.131-0.068,0.196-0.105
		C15.747,58.967,16.119,58.742,16.476,58.492z"/>
	<path class="st2" d="M55.805,20.494c0.207,0.165,0.504-0.128,0.294-0.294c-0.549-0.437-1.099-0.874-1.648-1.31
		c0.104-0.066,0.208-0.132,0.312-0.198c0.477-0.303,0.955-0.606,1.432-0.909c0.225-0.143,0.017-0.503-0.21-0.359
		c-0.516,0.328-1.032,0.656-1.548,0.983c-0.149,0.095-0.298,0.189-0.447,0.284c-0.102,0.065-0.152,0.239-0.042,0.327
		C54.566,19.509,55.186,20.001,55.805,20.494z"/>
	<path class="st2" d="M58.462,20.456c0.626-0.485,1.252-0.97,1.878-1.455c0.089-0.069,0.071-0.222,0-0.294
		c-0.531-0.539-1.12-1.013-1.757-1.421c-0.226-0.145-0.435,0.215-0.21,0.359c0.542,0.347,1.044,0.745,1.506,1.191
		c-0.57,0.442-1.14,0.884-1.711,1.326C57.957,20.326,58.253,20.619,58.462,20.456z"/>
</g>
<path class="st1" d="M28.119,5.499c-0.012-0.033-0.014-0.068-0.025-0.101c-0.032,0.308-0.02,0.623,0.046,0.934
	c0.124,0.582,0.415,1.102,0.81,1.52c-0.361-0.391-0.629-0.872-0.758-1.407C28.116,6.131,28.094,5.813,28.119,5.499z"/>
<path class="st1" d="M36.262,3.232c-0.046-0.74-0.308-1.453-0.799-1.99c0.477,0.544,0.727,1.266,0.767,2.005
	C36.242,3.242,36.252,3.236,36.262,3.232z"/>
<path class="st1" d="M29.848,8.048c0.253,0.152,0.526,0.255,0.81,0.319c0.003-0.006,0.006-0.012,0.009-0.018
	C30.382,8.289,30.104,8.196,29.848,8.048z"/>
<path class="st1" d="M29.208,7.147c-0.011-0.011-0.02-0.024-0.031-0.035c0.009,0.01,0.016,0.021,0.026,0.031
	C29.204,7.145,29.206,7.146,29.208,7.147z"/>
<path class="st1" d="M27.949,4.71c0.001,0.01,0.005,0.019,0.006,0.029c-0.008-0.088,0.003-0.175,0.003-0.262
	C27.959,4.555,27.941,4.631,27.949,4.71z"/>
<path class="st1" d="M29.072,1.914c-0.025,0.025-0.043,0.056-0.068,0.081c0.152-0.159,0.318-0.302,0.49-0.436
	C29.349,1.672,29.203,1.784,29.072,1.914z"/>
<g>
	<path class="st3" d="M75.819,53.39c-0.046-0.402-0.142-0.635-0.142-0.635l-5.636-3.6c0,0,0.019,0.028,0.042,0.064
		c0.051,0.08,0.143,0.25,0.246,0.498c0.034,0.082,0.065,0.175,0.099,0.275c0.253,0.749,0.459,1.977-0.01,3.64
		c-0.037,0.131-0.083,0.241-0.125,0.359c-0.336,0.935-0.814,1.476-1.145,1.747c-0.075,0.062-0.141,0.11-0.197,0.146
		c-0.104,0.069-0.171,0.1-0.171,0.1h0l4.13,3.066c0,0,1.066-0.688,2.23-2.773C75.842,55.02,75.889,54.003,75.819,53.39z"/>
	<path class="st3" d="M32.035,52.38c-0.008-0.016-0.021-0.029-0.029-0.045c-0.073-0.156-0.276-0.113-0.359,0
		c-0.247,0.336-0.523,0.647-0.739,1.005c-0.003,0.005-0.007,0.01-0.011,0.015c-0.07,0.118-0.01,0.23,0.083,0.281
		c0.033,0.043,0.085,0.072,0.156,0.072c0.433-0.002,0.867-0.017,1.301,0c0.106,0.004,0.17-0.059,0.191-0.138
		c0.052-0.059,0.074-0.145,0.028-0.235C32.48,52.996,32.208,52.721,32.035,52.38z"/>
	<path class="st3" d="M48.149,43.295c-0.095-0.126-0.219-0.218-0.358-0.281c-0.263-0.117-0.58-0.126-0.861-0.048
		c-0.297,0.082-0.544,0.251-0.705,0.477c-0.031,0.042-0.057,0.085-0.081,0.13c-0.034,0.016-0.064,0.043-0.087,0.085
		c-0.026,0.047-0.048,0.094-0.066,0.14c-0.121,0.303-0.083,0.578,0.054,0.801c0.071,0.117,0.169,0.219,0.285,0.304
		c0.423,0.308,1.083,0.38,1.547,0.047c0.46-0.329,0.617-1.06,0.338-1.554C48.194,43.36,48.172,43.326,48.149,43.295z"/>
	<path class="st3" d="M49.369,35.879c0.062,0.452,0.641,0.499,0.765,0.044c0.048-0.125,0.024-0.264-0.062-0.363
		C49.781,35.23,49.308,35.434,49.369,35.879z"/>
	<path class="st3" d="M20.827,7.957c-0.356,0.16-0.689,0.447-0.989,0.692c-0.399,0.326-0.767,0.687-1.128,1.053
		c-0.237,0.24-0.473,0.483-0.709,0.723c-0.353,0.359-3.078,2.954-2.892,3.367c-0.229-0.51-0.459-1.019-0.688-1.528
		c-0.03-0.065-0.112-0.102-0.18-0.103c-1.231-0.015-0.833,0.636-0.406,1.445c0.336,0.638,0.672,1.275,1.01,1.915
		c0.079,0.15,0.274,0.119,0.359,0c1.445-2.011,2.997-3.942,4.643-5.791c0.499-0.56,1.005-1.114,1.521-1.658
		C21.783,7.634,20.915,7.918,20.827,7.957z"/>
</g>
<g>
	<path class="st4" d="M66.955,30.397c-0.001-0.002-0.004-0.003-0.005-0.005c0.033,0.056,0.077,0.105,0.107,0.162
		C67.026,30.5,66.992,30.448,66.955,30.397z"/>
	<path class="st4" d="M24.413,33.947c-0.345,0.001-0.659,0.219-0.769,0.542h1.408C24.98,34.186,24.753,33.946,24.413,33.947z"/>
	<path class="st4" d="M47.932,27.546c0.342-0.444,0.646-0.92,0.912-1.413c0.351-0.651,0.602-1.337,0.807-2.034
		c-0.17,0.059-0.349,0.105-0.525,0.156c-0.407,1.345-1.002,2.645-1.723,3.85C47.603,27.943,47.781,27.743,47.932,27.546z"/>
	<path class="st4" d="M78.956,44.035c-1.048-4.223-4.081-12.711-4.081-12.711s-0.027,0.032-0.075,0.086
		c-0.06,0.067-0.165,0.177-0.296,0.307c-0.012,0.012-0.028,0.026-0.04,0.038c-0.641,0.63-2.006,1.78-3.851,2.226c0,0,0,0-0.001,0
		c-1.608,0.389-2.435-0.006-2.831-0.36c0.002,0.025,0.004,0.049,0.006,0.074c0.312,3.709,0.623,7.419,0.935,11.128
		c0.022,0.267-0.394,0.265-0.416,0c-0.322-3.83-0.643-7.659-0.965-11.489c-0.006-0.072-0.012-0.144-0.018-0.216
		c-0.007-0.081,0.031-0.129,0.082-0.161c-0.278-1.31-0.664-2.75-1.892-3.467c-0.583-0.34-1.248-0.522-1.809-0.903
		c-0.482-0.328-0.837-0.785-1.183-1.246c-0.347-0.462-0.702-0.957-1.218-1.243c-0.631-0.351-1.394-0.28-2.051-0.558
		c-0.215-0.091-0.423-0.235-0.6-0.407c-0.235-0.227-0.411-0.51-0.43-0.838c0.051-0.001,0.103-0.002,0.154-0.003
		c0.062-0.001,0.123-0.002,0.185-0.003c0.029-0.001,0.058-0.001,0.087-0.002c0.214-0.006,0.429-0.003,0.644-0.011
		c0.165-0.006,0.216-0.163,0.177-0.283c-0.024-0.074-0.075-0.137-0.177-0.133c-0.265,0.01-0.53,0.01-0.795,0.017
		c-1.058,0.026-2.117,0.03-3.175-0.006c-0.526-0.018-1.08-0.012-1.604-0.106c-0.074-0.013-0.15-0.022-0.222-0.04
		c-0.513-0.127-1.128-0.531-1.045-1.143c0.008-0.06-0.007-0.112-0.036-0.154c0-0.015,0.001-0.03,0-0.045
		c-0.011-0.531,0.01-1.062,0.014-1.594c0-0.003,0-0.006,0-0.009c0.001-0.141,0.002-0.282,0.004-0.423
		c0.007-0.438-0.006-0.876,0.012-1.314c0.005-0.135-0.098-0.201-0.203-0.2c-0.103,0.002-0.208,0.067-0.213,0.2
		c-0.016,0.399-0.003,0.797-0.01,1.196c-0.003,0.143-0.002,0.286-0.004,0.428c0,0.001,0,0.002,0,0.003
		c-0.006,0.601-0.029,1.201-0.016,1.802c0.001,0.049,0.016,0.088,0.039,0.119c-0.002,0.046,0.01,0.089,0.013,0.134
		c-0.482,0.413-1.114,0.822-1.877,1.154c-0.01,0.038-0.017,0.077-0.027,0.115c-0.296,1.069-0.751,2.099-1.349,3.035
		c-0.417,0.653-1.011,1.584-1.834,1.764c-0.053,0.069-0.134,0.107-0.221,0.084c-0.714-0.18-1.429-0.041-2.145,0.088
		c-0.685,0.124-1.369,0.238-2.05,0.052c-0.489-0.133-0.865-0.423-1.141-0.793c-0.406-0.544-0.59-1.268-0.549-1.965
		c0.038-0.645,0.226-1.251,0.497-1.824c-0.662-0.099-1.341-0.211-2.057-0.354c-4.261-0.848-4.962-2.602-5-2.707
		c-0.001-0.003-0.004-0.01-0.004-0.01s-0.293,0.067-0.766,0.197c-0.38,0.104-0.877,0.25-1.451,0.44
		c-2.238,0.74-5.574,2.138-7.091,4.256c-0.731,1.02-1.474,2.124-2.194,3.231c-0.103,0.158-0.206,0.315-0.307,0.473
		c-0.038,0.058-0.075,0.116-0.112,0.174c-0.438,0.682-0.862,1.357-1.268,2.011c0.264,0.149,0.461,0.399,0.555,0.71
		c0.162,0.534,0.028,1.093,0.112,1.633h1.444c0-0.014-0.008-0.025-0.004-0.04c0.13-0.572,0.714-0.96,1.291-0.915
		c0.529,0.041,0.885,0.457,0.964,0.955H38.34h10.547h6.854c0.217,0,0.392,0.175,0.392,0.392v7.636
		c0.099,0.002,0.198-0.004,0.297,0.001c2.221,0.107,4.31,0.884,6.262,1.908c0.512,0.268,1.016,0.55,1.509,0.846
		c1.462,0.877,2.885,1.822,4.283,2.804c0.537,0.377,1.07,0.757,1.599,1.145c-0.023-0.036-0.042-0.064-0.042-0.064l5.636,3.6
		c0,0,0.095,0.233,0.142,0.635C79.508,51.809,79.911,47.884,78.956,44.035z"/>
	<path class="st4" d="M33.197,51.658c-0.023-0.089-0.109-0.151-0.2-0.152c-0.321-0.005-0.642,0.006-0.963,0.017
		c-0.511,0.018-1.022,0.05-1.531,0.109c-0.134,0.015-0.2,0.131-0.198,0.236c-0.055,0.065-0.074,0.153-0.034,0.246
		c-0.015,0.409-0.03,0.818-0.045,1.227c-0.011,0.287-0.021,0.573-0.032,0.86c-0.002,0.066,0.021,0.114,0.058,0.148
		c0.033,0.041,0.084,0.067,0.154,0.065c0.808-0.03,1.616-0.06,2.424-0.089c0.12,0.055,0.293,0.012,0.301-0.149l0.109-2.221
		c0.001-0.02-0.002-0.039-0.006-0.057C33.231,51.818,33.22,51.74,33.197,51.658z M32.629,53.57
		c-0.022,0.079-0.085,0.142-0.191,0.138c-0.434-0.017-0.868-0.002-1.301,0c-0.071,0-0.123-0.029-0.156-0.072
		c-0.093-0.051-0.153-0.163-0.083-0.281c0.003-0.005,0.007-0.01,0.011-0.015c0.216-0.358,0.492-0.669,0.739-1.005
		c0.083-0.113,0.286-0.156,0.359,0c0.008,0.016,0.02,0.029,0.029,0.045c0.174,0.341,0.445,0.616,0.622,0.955
		C32.704,53.425,32.681,53.511,32.629,53.57z"/>
	<path class="st4" d="M52.421,41.01c-0.007-0.019-0.015-0.038-0.023-0.057c-0.046-0.108-0.11-0.209-0.188-0.298
		c-0.123-0.142-0.28-0.256-0.452-0.327c-0.529-0.219-1.028,0.038-1.326,0.491c-0.034,0.052-0.041,0.104-0.029,0.149
		c-0.017,0.042-0.031,0.085-0.042,0.127c-0.035,0.138-0.04,0.278-0.006,0.415c0.009,0.039,0.021,0.077,0.036,0.115
		c0.038,0.094,0.095,0.185,0.172,0.271c0.022,0.025,0.046,0.049,0.07,0.071c0.299,0.279,0.757,0.409,1.151,0.295
		c0.396-0.114,0.688-0.491,0.696-0.9c0.001-0.032-0.001-0.063-0.003-0.096C52.47,41.177,52.45,41.092,52.421,41.01z"/>
	<path class="st4" d="M54.31,35.662c-0.092-0.195-0.332-0.216-0.501-0.125c-0.037,0.016-0.072,0.039-0.104,0.069
		c-0.17,0.16-0.125,0.447,0.073,0.564c0.123,0.073,0.265,0.048,0.358-0.033c0.093-0.035,0.171-0.107,0.204-0.22
		c0.013-0.045,0.009-0.088-0.006-0.126C54.337,35.751,54.332,35.707,54.31,35.662z"/>
	<path class="st4" d="M11.022,16.227c-0.406,0.216-0.596,0.686-0.546,1.127c0.02,0.174,0.068,0.345,0.168,0.492
		c0.046,0.067,0.111,0.094,0.176,0.093c0.236,0.237,0.571,0.372,0.916,0.307c0.415-0.078,0.737-0.425,0.842-0.823
		c0.054-0.206,0.055-0.424-0.027-0.629C12.324,16.221,11.57,15.936,11.022,16.227z M11.691,17.831
		c-0.328,0.082-0.607-0.141-0.722-0.428c-0.045-0.112-0.07-0.231-0.055-0.349c0.004-0.029,0.001-0.054-0.005-0.077
		c0.042-0.131,0.12-0.25,0.238-0.337c0.315-0.232,0.817-0.086,0.994,0.253c0.088,0.167,0.072,0.36-0.001,0.53
		C12.055,17.617,11.895,17.78,11.691,17.831z"/>
</g>
<g>
	<path class="st5" d="M30.267,47.279c-0.616,0.45-1.232,0.899-1.848,1.349c-0.567,0.414-1.132,0.905-1.783,1.183
		c-1.298,0.553-2.577-0.384-3.847-0.582c-0.192-0.03-0.385-0.037-0.578-0.046c-0.874,0.571-1.791,1.075-2.747,1.497
		c0.155,0.009,0.311,0.027,0.465,0.056c0.598,0.114,1.183,0.414,1.532,0.926c0.317,0.464,0.392,1.049,0.183,1.565
		c0.034,0.03,0.053,0.079,0.085,0.112h8.497c0.015-0.409,0.03-0.818,0.045-1.227c-0.04-0.092-0.021-0.181,0.034-0.246
		c-0.002-0.106,0.064-0.221,0.198-0.236c0.509-0.059,1.019-0.09,1.531-0.109v-4.656v-0.879c-0.382,0.28-0.765,0.559-1.148,0.839
		C30.68,46.977,30.474,47.128,30.267,47.279z"/>
	<path class="st5" d="M6.928,60.881c-0.267-0.423-0.68-1.178-1.096-2.358c-0.52-1.472-0.717-3.182-0.783-3.954
		c0-0.001,0-0.001,0-0.002c-0.022-0.261-0.03-0.416-0.03-0.416l-0.015,0.002l-4.511,0.713c0,0-0.498,2.5,0.337,4.884
		c0.835,2.384,2.055,3.437,2.055,3.437l4.339-1.885c0,0-0.074-0.091-0.19-0.261C7.001,60.994,6.967,60.942,6.928,60.881z"/>
	<path class="st5" d="M41.882,41.668c-0.155-0.556-0.662-0.891-1.233-0.82c-0.643,0.078-1.134,0.605-1.125,1.259
		c0.001,0.092,0.051,0.151,0.115,0.18c0.047,0.298,0.206,0.559,0.512,0.705c0.393,0.188,0.896,0.144,1.263-0.084
		c0.15-0.093,0.268-0.213,0.354-0.35c0.074-0.12,0.123-0.253,0.146-0.393c0.003-0.022,0.006-0.044,0.008-0.067
		c0.013-0.134,0.002-0.274-0.035-0.412C41.885,41.68,41.883,41.674,41.882,41.668z"/>
	<path class="st5" d="M47.027,15.271c-0.223-0.064-0.42-0.168-0.606-0.291c-0.062-0.041-0.121-0.089-0.18-0.137
		c-0.05-0.041-0.106-0.071-0.154-0.118c-0.013-0.013-0.032-0.01-0.047-0.019c-0.001-0.001-0.003-0.001-0.004-0.002
		c-0.079-0.043-0.177-0.045-0.243,0.021l-0.057,0.056l-0.026,0.025l-0.073,0.072l0,0l-0.33,0.325l-0.041,0.04l-0.42,0.414
		c-0.027,0.027-0.044,0.056-0.053,0.086c-0.121,0.053-0.198,0.216-0.077,0.338c0.183,0.185,0.365,0.369,0.548,0.554
		c0.206,0.208,0.412,0.416,0.618,0.624c0.094,0.095,0.26,0.074,0.327-0.042c0.067-0.116,0.133-0.232,0.2-0.348
		c0.247-0.431,0.495-0.862,0.742-1.294C47.219,15.459,47.157,15.308,47.027,15.271z M46.216,16.371
		c-0.077,0.134-0.154,0.268-0.231,0.402c-0.223-0.225-0.446-0.45-0.668-0.676c-0.053-0.054-0.106-0.107-0.159-0.161
		c0.052-0.051,0.104-0.103,0.156-0.154c0.163-0.161,0.325-0.321,0.488-0.482c0.042-0.041,0.084-0.083,0.126-0.124
		c0.007-0.007,0.013-0.013,0.02-0.02c0.005,0.004,0.011,0.007,0.016,0.012c0.213,0.176,0.447,0.316,0.703,0.417
		C46.516,15.847,46.366,16.109,46.216,16.371z"/>
</g>
<g>
	<path class="st6" d="M61.991,19.886c-0.44,0.016-0.861-0.202-1.027-0.623c-0.142-0.359-0.098-0.699,0.047-1.009
		c-0.624,0.106-1.065-0.401-1.126-0.961c-0.009-0.08-0.01-0.161-0.002-0.242c0.008-0.092,0.028-0.184,0.059-0.272
		c0.258-0.735,1.017-1.241,1.665-1.605c0.088-0.049,0.177-0.097,0.267-0.142c-0.056-0.11-0.125-0.212-0.205-0.305
		c-0.434-0.027-0.87-0.004-1.299,0.074c-0.603,0.109-1.217,0.385-1.84,0.269c-0.404-0.075-0.812-0.346-0.953-0.745
		c-0.016-0.044-0.027-0.088-0.035-0.132H53.78c-0.849,0-1.538,0.689-1.538,1.538v0.663v2.451c0.105-0.002,0.209,0.064,0.203,0.2
		c-0.018,0.438-0.005,0.876-0.012,1.314c-0.002,0.141-0.003,0.282-0.004,0.423c0,0.003,0,0.006,0,0.009
		c-0.004,0.531-0.026,1.062-0.014,1.594c0,0.015-0.001,0.03,0,0.045c0.028,0.042,0.044,0.094,0.036,0.154
		c-0.084,0.612,0.532,1.016,1.045,1.143c0.073,0.018,0.148,0.027,0.222,0.04c0.524,0.094,1.078,0.088,1.604,0.106
		c1.058,0.036,2.117,0.032,3.175,0.006c0.265-0.006,0.53-0.006,0.795-0.017c0.102-0.004,0.153,0.059,0.177,0.133h1.037
		c0.292,0,0.565-0.081,0.797-0.223c0.045-0.028,0.089-0.058,0.132-0.09c0.094-0.071,0.178-0.154,0.253-0.245
		c0.003-0.004,0.007-0.006,0.01-0.01c0.215-0.264,0.344-0.602,0.344-0.969v-2.573C62.026,19.885,62.009,19.886,61.991,19.886z
		 M58.168,20.162c0.57-0.442,1.14-0.884,1.711-1.326c-0.462-0.446-0.964-0.844-1.506-1.191c-0.225-0.144-0.016-0.504,0.21-0.359
		c0.637,0.408,1.226,0.883,1.757,1.421c0.071,0.072,0.089,0.225,0,0.294c-0.626,0.485-1.252,0.97-1.878,1.455
		C58.253,20.619,57.957,20.326,58.168,20.162z M55.985,17.423c0.227-0.144,0.435,0.216,0.21,0.359
		c-0.477,0.303-0.955,0.606-1.432,0.909c-0.104,0.066-0.208,0.132-0.312,0.198c0.549,0.437,1.099,0.874,1.648,1.31
		c0.21,0.167-0.087,0.459-0.294,0.294c-0.619-0.492-1.239-0.985-1.858-1.477c-0.11-0.087-0.06-0.262,0.042-0.327
		c0.149-0.095,0.298-0.189,0.447-0.284C54.952,18.078,55.468,17.75,55.985,17.423z"/>
	<path class="st6" d="M38.982,50.175c-0.212-0.263-0.546-0.418-0.954-0.331c-0.508,0.108-0.795,0.569-0.758,1.064
		c-0.042,0.42,0.107,0.828,0.534,0.994c0.38,0.147,0.841,0.039,1.124-0.252c0.302-0.311,0.364-0.738,0.251-1.102
		C39.137,50.411,39.07,50.283,38.982,50.175z"/>
	<path class="st6" d="M51.846,35.485c-0.254,0.105-0.355,0.401-0.241,0.644c0.038,0.082,0.141,0.114,0.226,0.096
		c0.069,0.042,0.15,0.064,0.232,0.058c0.25-0.02,0.383-0.265,0.33-0.496C52.338,35.545,52.082,35.388,51.846,35.485z"/>
	<path class="st6" d="M24.503,33.534c-0.577-0.045-1.161,0.343-1.291,0.915c-0.003,0.015,0.005,0.026,0.004,0.04
		c-0.003,0.086,0.037,0.156,0.103,0.191c-0.002,0.001-0.003,0.004-0.005,0.005c-0.024,0.014-0.041,0.036-0.058,0.057
		c-0.03,0.037-0.046,0.083-0.042,0.139c0.001,0.011-0.006,0.019-0.003,0.03c0.128,0.572,0.711,0.962,1.288,0.919
		c0.529-0.04,0.885-0.453,0.967-0.949c0.008-0.047,0.022-0.091,0.024-0.139c0.001-0.02,0.01-0.037,0.01-0.057c0,0,0-0.001,0-0.001
		c0-0.068-0.023-0.129-0.033-0.195C25.388,33.991,25.032,33.575,24.503,33.534z M25.075,34.742
		c-0.003,0.048-0.012,0.094-0.023,0.139c-0.071,0.292-0.286,0.525-0.612,0.536c-0.351,0.012-0.676-0.21-0.792-0.536
		c-0.01-0.028-0.028-0.051-0.035-0.08c-0.006-0.028-0.026-0.039-0.04-0.059c-0.013-0.019-0.021-0.045-0.038-0.057
		c-0.001-0.001-0.002-0.004-0.003-0.005c0.038-0.024,0.069-0.062,0.082-0.12c0.006-0.026,0.022-0.046,0.03-0.071
		c0.11-0.323,0.424-0.541,0.769-0.542c0.34-0.001,0.567,0.239,0.639,0.542c0.015,0.064,0.032,0.127,0.032,0.195c0,0,0,0.001,0,0.001
		C25.084,34.705,25.076,34.722,25.075,34.742z"/>
	<path class="st6" d="M35.649,58.251c-0.165,0.139-0.33,0.279-0.495,0.418c-0.02,0.017-0.041,0.034-0.061,0.052l-0.322-0.358
		c-0.01-0.011-0.022-0.007-0.033-0.015c-0.18-0.138-0.43,0.122-0.261,0.309l0.261,0.291l0.038,0.042
		c-0.013,0.011-0.025,0.021-0.038,0.032c-0.124,0.105-0.248,0.21-0.373,0.315c-0.205,0.173,0.091,0.466,0.294,0.294
		c0.026-0.022,0.052-0.044,0.078-0.066c0.105-0.089,0.21-0.178,0.315-0.267l0.101,0.112l0.275,0.306
		c0.179,0.2,0.473-0.096,0.294-0.294l-0.353-0.392c0.191-0.161,0.382-0.323,0.572-0.484C36.148,58.372,35.852,58.079,35.649,58.251z
		"/>
	<path class="st6" d="M43.192,12.827c-0.011-0.002-0.022-0.005-0.033-0.007c-0.179-0.042-0.355-0.089-0.529-0.151
		c0.073,0.227,0.123,0.464,0.123,0.716c0,1.301-1.059,2.36-2.36,2.36c-1.301,0-2.36-1.059-2.36-2.36
		c0-1.023,0.659-1.888,1.571-2.214c-0.004-0.002-0.008-0.004-0.012-0.007c-0.162-0.101-0.321-0.209-0.478-0.318
		c-0.931,0.471-1.577,1.427-1.577,2.539c0,0.012,0.003,0.023,0.003,0.034l-0.355,0.045l-0.01,0.001
		c-0.002-0.016-0.003-0.032-0.005-0.048c-0.18-1.403-1.368-2.494-2.819-2.494c-0.296,0-0.576,0.058-0.844,0.142
		c-0.015,0.005-0.031,0.009-0.046,0.014c-0.039,0.013-0.079,0.022-0.117,0.036c-0.148,0.056-0.288,0.127-0.423,0.206
		c-0.501,0.293-0.905,0.728-1.152,1.256c-0.171,0.366-0.274,0.771-0.274,1.201c0,0.572,0.173,1.102,0.463,1.549
		c0.135,0.208,0.3,0.393,0.483,0.559c0.507,0.46,1.173,0.747,1.91,0.747c0.103,0,0.2-0.02,0.3-0.03
		c0.092-0.01,0.186-0.01,0.275-0.028c0.072-0.015,0.137-0.044,0.207-0.064c0.363-0.104,0.693-0.276,0.982-0.505
		c0.614-0.487,1.019-1.215,1.073-2.045l0.095-0.012l0.307-0.039c0.249,1.323,1.408,2.328,2.802,2.328
		c1.575,0,2.855-1.281,2.855-2.856c0-0.025-0.007-0.049-0.008-0.074l1.407-0.348c0.009-0.051,0.031-0.098,0.044-0.149
		C44.195,12.954,43.689,12.939,43.192,12.827z M34.778,16.096c-0.081,0.015-0.164,0.019-0.248,0.025
		c-0.06,0.005-0.117,0.018-0.178,0.018c-0.025,0-0.048-0.007-0.073-0.007c-0.732-0.023-1.376-0.381-1.794-0.925
		c-0.305-0.398-0.494-0.889-0.494-1.428c0-0.743,0.352-1.399,0.89-1.832c0.109-0.088,0.224-0.164,0.348-0.232
		c0.029-0.016,0.058-0.033,0.088-0.048c0.004-0.002,0.008-0.004,0.012-0.006c0.311-0.151,0.655-0.243,1.023-0.243
		c1.301,0,2.36,1.059,2.36,2.36C36.712,14.934,35.876,15.894,34.778,16.096z"/>
	<path class="st6" d="M40.222,11.042c0.058-0.004,0.113-0.017,0.171-0.017c0.843,0,1.579,0.448,1.996,1.115
		c0.218,0.092,0.44,0.173,0.667,0.238c-0.075-0.197-0.165-0.385-0.279-0.558c-0.511-0.776-1.387-1.29-2.384-1.29
		c-0.002,0-0.004,0.001-0.007,0.001c-0.28,0.001-0.545,0.054-0.801,0.13c0.073,0.048,0.144,0.098,0.217,0.144
		C39.938,10.889,40.083,10.961,40.222,11.042z"/>
</g>
<g>
	<path class="st7" d="M22.412,29.725c-0.12,0.057-0.201,0.225-0.086,0.36c0.015,0.018,0.031,0.033,0.047,0.051
		c0.037-0.058,0.075-0.116,0.112-0.174c0.101-0.157,0.204-0.315,0.307-0.473c0.721-1.107,1.464-2.211,2.194-3.231
		c1.518-2.118,4.853-3.515,7.091-4.256c0.575-0.19,1.071-0.336,1.451-0.44c0.472-0.129,0.766-0.197,0.766-0.197
		s0.003,0.007,0.004,0.01c1.552-0.464,3.137-0.804,4.742-1.02c0.011,0,0.021-0.001,0.032-0.002c0.151-0.027,0.303-0.044,0.455-0.068
		c0.774-0.091,1.552-0.158,2.332-0.19c0.33,0.654,0.589,1.342,0.751,2.063c0.017,0.076,0.065,0.113,0.121,0.131
		c-0.131,0.176-0.262,0.352-0.39,0.531c-0.366,0.509-0.717,1.045-0.985,1.615c-0.27,0.573-0.458,1.179-0.497,1.824
		c-0.042,0.697,0.142,1.42,0.549,1.965c0.276,0.37,0.652,0.66,1.141,0.793c0.681,0.186,1.365,0.072,2.05-0.052
		c0.715-0.129,1.431-0.269,2.145-0.088c0.087,0.022,0.168-0.015,0.221-0.084c0.823-0.18,1.417-1.111,1.834-1.764
		c0.598-0.935,1.053-1.965,1.349-3.035c0.011-0.038,0.017-0.077,0.027-0.115c0.312-1.176,0.42-2.396,0.334-3.604
		c0.505,0.122,1.007,0.255,1.507,0.395c0-0.001,0-0.002,0-0.003c0.001-0.143,0.001-0.286,0.004-0.428
		c0.007-0.399-0.006-0.798,0.01-1.196c0.005-0.132,0.11-0.198,0.213-0.2v-2.451c-1.156-1.186-2.163-2.52-2.994-3.963
		c-0.613-1.064-1.08-2.19-1.551-3.319c1.76,0.122,3.603-0.784,4.51-2.298c0.55-0.918,0.618-2.003,0.191-2.984
		c-0.238-0.547-0.592-1.033-1.018-1.447c-0.871-1.345-2.377-2.27-4.021-2.194c-1.883,0.086-3.563,1.407-3.894,3.273
		c-2.132-1.134-4.76-1.213-6.996-0.325c-0.071,0.028-0.137,0.066-0.207,0.096c-0.011,0.005-0.021,0.01-0.031,0.015
		c-0.041-0.739-0.29-1.46-0.767-2.005c-0.048-0.053-0.104-0.099-0.157-0.148c-0.081-0.079-0.162-0.156-0.253-0.225
		c-0.192-0.146-0.401-0.274-0.64-0.367c-0.922-0.36-1.962-0.218-2.888,0.053c-0.367,0.107-0.726,0.253-1.073,0.421
		c-0.079,0.038-0.161,0.072-0.238,0.113c-0.074,0.039-0.143,0.088-0.215,0.131c-0.149,0.09-0.299,0.179-0.439,0.284
		c-0.023,0.017-0.043,0.038-0.066,0.056c-0.172,0.134-0.338,0.277-0.49,0.436c-0.002,0.002-0.005,0.004-0.007,0.006
		c-0.011,0.012-0.019,0.027-0.031,0.039c-0.161,0.173-0.311,0.36-0.441,0.562c-0.013,0.02-0.022,0.042-0.034,0.062
		c-0.122,0.196-0.231,0.402-0.316,0.617c-0.023,0.06-0.034,0.123-0.054,0.183c-0.059,0.176-0.113,0.353-0.142,0.535
		c-0.024,0.157-0.021,0.317-0.019,0.477c0,0.088-0.011,0.175-0.003,0.262c0.003,0.03-0.005,0.059-0.001,0.089
		c0.024,0.195,0.078,0.384,0.14,0.57c0.011,0.033,0.013,0.069,0.025,0.101c-0.025,0.313-0.003,0.632,0.073,0.945
		c0.13,0.535,0.397,1.016,0.758,1.407c0.015,0.016,0.031,0.03,0.047,0.045c0.098,0.102,0.203,0.198,0.313,0.286
		c0.086,0.067,0.176,0.127,0.268,0.185c0.045,0.029,0.089,0.061,0.135,0.088c0.173,0.1,0.363,0.165,0.553,0.229
		c0.062,0.021,0.118,0.058,0.182,0.076c-0.101,0.188-0.208,0.374-0.3,0.566c-0.715,1.495-1.148,3.183-0.856,4.847
		c0.235,1.337,1.036,2.603,2.171,3.324c0.42,0.267,0.883,0.445,1.367,0.528c-0.258,1.131-1.377,1.832-2.383,2.211
		c-0.583,0.22-1.175,0.399-1.755,0.606c-0.137,0.024-0.276,0.042-0.413,0.071c-0.604,0.13-1.191,0.327-1.756,0.581
		c-2.269,1.021-4.05,3.072-4.359,5.632C22.06,28.003,22.154,28.89,22.412,29.725z M39.802,10.804
		c-0.073-0.046-0.145-0.097-0.217-0.144c-1.087-0.715-2.067-1.636-2.657-2.794c0.95,0.936,2.159,1.861,3.458,2.664
		c0.002,0,0.004-0.001,0.007-0.001c0.997,0,1.873,0.515,2.384,1.29c0.553,0.257,1.093,0.474,1.614,0.653
		c-0.447,0.082-0.897,0.029-1.335-0.096c-0.226-0.064-0.449-0.146-0.667-0.238c-0.086-0.036-0.172-0.073-0.256-0.111
		c-0.652-0.297-1.291-0.626-1.911-0.986C40.083,10.961,39.938,10.889,39.802,10.804z M49.651,24.099
		c-0.205,0.697-0.456,1.383-0.807,2.034c-0.266,0.493-0.57,0.969-0.912,1.413c-0.151,0.197-0.329,0.397-0.529,0.559
		c0.721-1.205,1.317-2.505,1.723-3.85c0.411-1.359,0.626-2.765,0.568-4.17c0.127,0.028,0.253,0.06,0.38,0.089
		C50.182,21.49,50.027,22.82,49.651,24.099z M44.815,1.696c1.28-1.257,3.301-1.421,4.807-0.489c0.035,0.021,0.068,0.044,0.103,0.067
		c-1.779-0.772-3.944-0.578-5.287,0.944c-0.072,0.081-0.14,0.166-0.203,0.252C44.388,2.188,44.582,1.926,44.815,1.696z
		 M29.848,8.048c-0.071-0.043-0.135-0.096-0.202-0.145c-0.084-0.06-0.169-0.118-0.247-0.189c-0.146-0.132-0.273-0.288-0.392-0.454
		c-0.196-0.29-0.328-0.602-0.4-0.92c0.028,0.033,0.056,0.065,0.085,0.097c0.021,0.043,0.051,0.081,0.075,0.122
		c0.047,0.081,0.091,0.163,0.146,0.239c0.079,0.111,0.168,0.214,0.263,0.314c0.011,0.011,0.02,0.024,0.031,0.035
		c0.024,0.025,0.044,0.054,0.069,0.078c0.453,0.429,1.025,0.667,1.626,0.753c-0.078,0.124-0.162,0.244-0.235,0.371
		c-0.003,0.006-0.006,0.012-0.009,0.018C30.374,8.303,30.101,8.2,29.848,8.048z M32.443,15.887
		c-0.183-0.166-0.348-0.351-0.483-0.559c-0.291-0.447-0.463-0.978-0.463-1.549c0-0.43,0.103-0.835,0.274-1.201
		c0.247-0.529,0.651-0.964,1.152-1.256c0.135-0.079,0.275-0.15,0.423-0.206c0.038-0.014,0.078-0.024,0.117-0.036
		c0.015-0.005,0.03-0.009,0.046-0.014c0.052-0.149,0.116-0.292,0.176-0.438c0.139-0.336,0.292-0.665,0.478-0.977
		c0.034-0.056,0.066-0.113,0.101-0.169c0.156-0.244,0.324-0.48,0.511-0.703c0.006-0.007,0.012-0.013,0.018-0.02
		c0.425-0.501,0.953-0.915,1.531-1.236c0.542,1.382,1.583,2.479,2.793,3.322c0.157,0.11,0.316,0.217,0.478,0.318
		c0.004,0.002,0.008,0.004,0.012,0.007c0.819,0.511,1.693,0.953,2.579,1.333c0.145,0.062,0.296,0.113,0.446,0.165
		c0.174,0.061,0.35,0.109,0.529,0.151c0.011,0.003,0.022,0.005,0.033,0.007c0.497,0.113,1.003,0.127,1.499-0.014
		c-0.012,0.05-0.034,0.097-0.044,0.149c-0.039,0.212-0.056,0.429-0.047,0.643c0.011,0.267,0.427,0.268,0.416,0
		c-0.025-0.596,0.115-1.286,0.697-1.581c0.191-0.097,0.378-0.116,0.55-0.083c0.248,0.083,0.469,0.238,0.634,0.476
		c0.046,0.077,0.086,0.158,0.115,0.247c0.283,0.858-0.209,1.699-0.955,2.034c-0.007,0.002-0.013,0.005-0.02,0.007
		c0.001,0.001,0.003,0.001,0.004,0.002c0.015,0.009,0.034,0.006,0.047,0.019c0.047,0.047,0.104,0.076,0.154,0.118
		c0.058,0.048,0.117,0.096,0.18,0.137c0.186,0.124,0.384,0.228,0.606,0.291c0.13,0.037,0.192,0.188,0.124,0.306
		c-0.247,0.431-0.495,0.862-0.742,1.294c-0.067,0.116-0.133,0.232-0.2,0.348c-0.066,0.116-0.233,0.137-0.327,0.042
		c-0.206-0.208-0.412-0.416-0.618-0.624c-0.095,0.949-0.317,1.885-0.699,2.763c-0.405,0.93-0.985,1.742-1.581,2.548
		c-0.26-1.096-0.723-2.132-1.355-3.063c-0.037-0.073-0.075-0.147-0.112-0.22c1.08-0.273,2.092-0.788,2.922-1.534
		c0.2-0.179-0.095-0.473-0.294-0.294c-1.55,1.393-3.781,1.943-5.812,1.504c-1.246-0.269-2.345-0.926-3.199-1.828
		c-0.07,0.02-0.135,0.05-0.207,0.064c-0.089,0.018-0.183,0.018-0.275,0.028c-0.1,0.011-0.197,0.03-0.3,0.03
		C33.616,16.634,32.95,16.347,32.443,15.887z M24.025,23.899c0.627-0.743,1.408-1.344,2.263-1.792
		c-1.477,1.119-2.612,2.692-3.248,4.452c-0.216,0.598-0.363,1.22-0.453,1.85C22.454,26.805,22.979,25.139,24.025,23.899z"/>
	<path class="st7" d="M34.531,16.121c0.083-0.006,0.167-0.01,0.248-0.025c-0.392-0.489-0.725-1.028-0.969-1.615
		c-0.11-0.264-0.203-0.534-0.278-0.809c-0.07-0.41-0.118-0.824-0.131-1.24c-0.027-0.002-0.047-0.024-0.072-0.036
		c-0.016-0.226-0.021-0.451-0.013-0.677c0.005-0.019,0.01-0.038,0.015-0.057c-0.004,0.002-0.008,0.004-0.012,0.006
		c-0.03,0.015-0.059,0.032-0.088,0.048c-0.123,0.067-0.239,0.144-0.348,0.232c-0.538,0.433-0.89,1.089-0.89,1.832
		c0,0.539,0.189,1.03,0.494,1.428c0.418,0.544,1.062,0.902,1.794,0.925c0.025,0.001,0.048,0.007,0.073,0.007
		C34.413,16.139,34.471,16.125,34.531,16.121z"/>
	<path class="st7" d="M45.481,14.329c0.336-0.413,0.672-0.826,1.008-1.239c0.168-0.206-0.125-0.502-0.294-0.294
		c-0.336,0.413-0.672,0.826-1.008,1.239C45.019,14.241,45.312,14.537,45.481,14.329z"/>
	<path class="st7" d="M37.186,13.463c-0.005-0.016-0.01-0.031-0.015-0.047c0.002,0.016,0.003,0.032,0.005,0.048L37.186,13.463z"/>
	<path class="st7" d="M36.466,16.102c0.625-0.535,0.904-1.359,0.818-2.152l-0.095,0.012c-0.054,0.83-0.459,1.558-1.073,2.045
		C36.163,16.128,36.333,16.217,36.466,16.102z"/>
	<path class="st7" d="M37.607,17.172c0.622,0.192,1.274-0.047,1.654-0.567c0.158-0.217-0.203-0.424-0.359-0.21
		c-0.271,0.371-0.752,0.508-1.184,0.375C37.461,16.692,37.351,17.094,37.607,17.172z"/>
	<path class="st7" d="M70.826,20.59c-0.411-0.809-0.807-1.769-1.51-2.374c-0.074-0.063-0.15-0.121-0.228-0.172
		c0.093-0.661-0.204-1.313-0.787-1.653c-0.014-0.04-0.045-0.076-0.098-0.099c-0.127-0.056-0.256-0.107-0.386-0.153
		c-0.131-0.921-0.802-1.415-1.613-1.647c-0.007-0.037-0.027-0.073-0.063-0.106c-1.483-1.33-3.485-2.02-5.473-1.917
		c-0.492,0.026-0.984,0.099-1.462,0.222c-0.439,0.113-0.901,0.254-1.258,0.544c-0.29,0.236-0.473,0.589-0.405,0.956
		c0.008,0.044,0.02,0.088,0.035,0.132c0.141,0.399,0.549,0.671,0.953,0.745c0.623,0.116,1.238-0.16,1.84-0.269
		c0.429-0.078,0.865-0.101,1.299-0.074c0.232,0.014,0.463,0.042,0.692,0.084c-0.165,0.067-0.328,0.141-0.487,0.221
		c-0.09,0.045-0.179,0.093-0.267,0.142c-0.648,0.365-1.407,0.871-1.665,1.605c-0.031,0.088-0.051,0.18-0.059,0.272
		c-0.007,0.081-0.007,0.162,0.002,0.242c0.061,0.56,0.502,1.067,1.126,0.961c-0.146,0.31-0.189,0.65-0.047,1.009
		c0.166,0.421,0.587,0.639,1.027,0.623c0.017,0,0.034-0.002,0.052-0.003c0.486-0.034,0.881-0.312,1.248-0.614
		c0.508-0.419,1.02-0.775,1.654-0.977c0.442-0.141,0.903-0.212,1.365-0.208c-0.695,0.326-1.333,0.79-1.924,1.267
		c-0.381,0.308-0.761,0.634-1.09,0.998c-0.276,0.305-0.501,0.666-0.518,1.087s0.199,0.835,0.605,0.988
		c0.284,0.107,0.588,0.073,0.876-0.013c-0.018,0.509-0.195,1.008-0.524,1.413c-0.679-0.133-1.358-0.266-2.038-0.4
		c-0.003,0.004-0.007,0.006-0.01,0.01c-0.075,0.091-0.159,0.174-0.253,0.245c-0.043,0.033-0.087,0.062-0.132,0.09
		c0.72,0.141,1.44,0.283,2.16,0.424c0.102,0.02,0.204,0.04,0.305,0.06c0.015,0.005,0.03,0.008,0.046,0.009
		c0.014,0.003,0.027,0.005,0.04,0.008c0.172,0.034,0.278-0.127,0.257-0.256c0.382-0.511,0.581-1.136,0.567-1.763
		c0.012-0.006,0.025-0.011,0.038-0.017c0.978-0.442,1.94-0.923,2.905-1.394c0.258,0.293,0.516,0.587,0.774,0.88
		c0.177,0.201,0.471-0.094,0.294-0.294c-0.227-0.258-0.454-0.515-0.681-0.774c0.044-0.021,0.088-0.043,0.132-0.064
		c0.241-0.116,0.03-0.475-0.21-0.359c-0.906,0.435-1.812,0.871-2.717,1.307c-0.19,0.092-0.382,0.195-0.578,0.287
		c-0.13,0.061-0.262,0.117-0.397,0.161c-0.085,0.028-0.171,0.051-0.259,0.068c-0.326,0.062-0.61-0.05-0.728-0.299
		c-0.036-0.075-0.04-0.172-0.042-0.27c-0.001-0.031-0.016-0.052-0.013-0.084c0.005-0.054,0.015-0.106,0.028-0.157
		c0.094-0.347,0.381-0.628,0.631-0.87c0.328-0.317,0.674-0.616,1.035-0.894c0.693-0.533,1.464-1.063,2.318-1.289
		c0.591-0.157,1.14-0.092,1.602,0.188c0,0,0,0,0.001,0c0.021,0.013,0.042,0.026,0.062,0.04c0.208,0.137,0.397,0.319,0.564,0.547
		c0.504,0.688,0.866,1.5,1.244,2.261c0.84,1.691,1.58,3.43,2.219,5.206c0.625,1.742,1.139,3.522,1.565,5.324
		c0.012-0.012,0.028-0.027,0.04-0.038c0.131-0.13,0.236-0.24,0.296-0.307C73.895,27.665,72.574,24.024,70.826,20.59z M61.151,18.015
		c-0.03-0.098-0.122-0.183-0.25-0.161c-0.162,0.028-0.303-0.04-0.408-0.151c-0.002-0.002-0.004-0.004-0.005-0.005
		c-0.002-0.002-0.003-0.006-0.005-0.009c-0.063-0.07-0.115-0.156-0.149-0.247c-0.04-0.109-0.056-0.219-0.047-0.317
		c0.039-0.408,0.352-0.737,0.649-0.989c0.326-0.277,0.69-0.514,1.075-0.711c0.36-0.184,0.74-0.333,1.124-0.444
		c0.799-0.232,1.664-0.321,2.491-0.201c0.719,0.105,1.541,0.479,1.745,1.225c-1.679-0.438-3.518-0.075-4.972,0.884
		c-0.112,0.074-0.233,0.157-0.356,0.248C61.717,17.378,61.379,17.675,61.151,18.015z M59.656,14.539
		c-0.462,0.12-1,0.261-1.426-0.035c-0.13-0.09-0.21-0.198-0.248-0.311c-0.077-0.233,0.029-0.491,0.274-0.671
		c0.337-0.248,0.775-0.359,1.175-0.456c0.419-0.101,0.846-0.161,1.276-0.181c0.867-0.041,1.737,0.074,2.565,0.336
		c0.785,0.248,1.523,0.629,2.174,1.129c-0.496-0.052-0.997-0.034-1.426,0.022c-0.401,0.053-0.796,0.142-1.181,0.265
		c0.001-0.082-0.043-0.161-0.148-0.184c-0.53-0.117-1.056-0.16-1.581-0.137C60.624,14.337,60.141,14.414,59.656,14.539z
		 M67.141,17.779c-0.023-0.021-0.055-0.037-0.096-0.044c-0.946-0.151-1.903-0.026-2.775,0.377c-0.448,0.206-0.831,0.494-1.207,0.808
		c-0.141,0.117-0.294,0.241-0.459,0.342c-0.008,0.005-0.015,0.01-0.023,0.014c-0.168,0.101-0.348,0.176-0.538,0.194
		c-0.079,0.008-0.16,0.005-0.243-0.01c-0.515-0.092-0.594-0.666-0.387-1.07c0.144-0.28,0.378-0.52,0.63-0.727
		c0.133-0.11,0.27-0.211,0.403-0.304c0.748-0.528,1.606-0.886,2.508-1.046c1.015-0.181,2.085-0.081,3.032,0.337
		c0.016,0.034,0.043,0.065,0.085,0.089c0.396,0.223,0.643,0.652,0.624,1.103C68.206,17.653,67.666,17.649,67.141,17.779z"/>
	<path class="st7" d="M66.95,30.392c-0.102-0.171-0.203-0.343-0.331-0.5c-0.381-0.469-0.878-0.78-1.422-1.027
		c-0.579-0.264-1.183-0.486-1.648-0.939c-0.766-0.746-1.215-1.843-2.245-2.289c-0.142-0.061-0.288-0.107-0.437-0.143
		c-0.161-0.057-0.335-0.085-0.514-0.1c-0.312-0.054-0.625-0.106-0.919-0.226c-0.354-0.144-0.741-0.507-0.787-0.88
		c-0.029,0.001-0.058,0.001-0.087,0.002c-0.062,0.002-0.123,0.002-0.185,0.003c-0.051,0.001-0.103,0.002-0.154,0.003
		c0.019,0.328,0.195,0.61,0.43,0.838c0.177,0.172,0.385,0.316,0.6,0.407c0.657,0.277,1.42,0.207,2.051,0.558
		c0.515,0.287,0.871,0.781,1.218,1.243c0.346,0.461,0.701,0.919,1.183,1.246c0.56,0.381,1.226,0.563,1.809,0.903
		c1.228,0.717,1.613,2.157,1.892,3.467c0.042-0.027,0.09-0.035,0.143-0.028c0.092,0.014,0.182,0.071,0.191,0.188
		c0.006,0.066,0.011,0.132,0.017,0.199c0.072-0.042,0.124-0.119,0.103-0.223c-0.163-0.784-0.344-1.596-0.693-2.325
		c-0.032-0.073-0.068-0.145-0.109-0.214C67.027,30.497,66.983,30.447,66.95,30.392z"/>
	<path class="st7" d="M67.721,22.363c-0.327,1.393-0.656,2.834-0.599,4.271c0.013,0.33,0.04,0.659,0.099,0.988
		c0.249,1.376,0.967,2.703,2.186,3.441c0.044,0.027,0.085,0.022,0.124,0.017c0.167-0.021,0.271-0.264,0.086-0.376
		c-0.137-0.083-0.243-0.197-0.365-0.295c-0.91-0.729-1.451-1.83-1.643-2.974c-0.012-0.073-0.016-0.146-0.026-0.218
		c-0.21-1.589,0.177-3.205,0.538-4.743C68.183,22.213,67.782,22.102,67.721,22.363z"/>
	<path class="st7" d="M23.613,34.56c-0.013,0.058-0.044,0.097-0.082,0.12c0.002,0.001,0.002,0.004,0.003,0.005
		c0.018,0.012,0.025,0.038,0.038,0.057c0.013,0.02,0.033,0.031,0.04,0.059c0.007,0.029,0.025,0.053,0.035,0.08
		c0.116,0.327,0.441,0.549,0.792,0.536c0.326-0.012,0.541-0.245,0.612-0.536c0.011-0.045,0.02-0.091,0.023-0.139
		c0.001-0.019,0.009-0.037,0.009-0.057c0,0,0-0.001,0-0.001c0-0.068-0.017-0.131-0.032-0.195h-1.408
		C23.635,34.514,23.619,34.534,23.613,34.56z"/>
	<path class="st7" d="M30.862,56.564h-3.785c-0.268,0-0.268,0.416,0,0.416h3.785C31.13,56.98,31.13,56.564,30.862,56.564z"/>
	<path class="st7" d="M49.847,45.615c1.422-1.801,3.648-2.638,5.893-2.681c0.065-0.001,0.131-0.005,0.196-0.005
		c0.065,0,0.13-0.006,0.196-0.005c0.002,0,0.004,0,0.006,0c1.845,0.042,3.604,0.575,5.267,1.333
		c0.431,0.198,0.853,0.413,1.276,0.628c0.049,0.026,0.096,0.054,0.145,0.08c0.249,0.135,0.496,0.273,0.74,0.415
		c1.423,0.829,2.809,1.73,4.168,2.671c0.911,0.631,1.807,1.282,2.693,1.942c-0.034-0.1-0.065-0.193-0.099-0.275
		c-0.103-0.248-0.195-0.419-0.246-0.498c-0.528-0.388-1.062-0.768-1.599-1.145c-1.398-0.981-2.822-1.926-4.283-2.804
		c-0.492-0.296-0.997-0.577-1.509-0.846c-1.952-1.024-4.041-1.8-6.262-1.908c-0.099-0.005-0.198,0.001-0.297-0.001v-7.636
		c0-0.217-0.175-0.392-0.392-0.392h-6.854H38.34H25.467c0.01,0.065,0.033,0.127,0.033,0.195c0,0,0,0.001,0,0.001
		c0,0.02-0.009,0.037-0.01,0.057c-0.002,0.048-0.016,0.093-0.024,0.139c-0.081,0.496-0.438,0.91-0.967,0.949
		c-0.577,0.043-1.161-0.347-1.288-0.919c-0.003-0.012,0.004-0.019,0.003-0.03c-0.004-0.057,0.011-0.102,0.042-0.139
		c0.017-0.021,0.034-0.043,0.058-0.057c0.002-0.001,0.003-0.004,0.005-0.005c-0.066-0.035-0.106-0.105-0.103-0.191h-1.444
		c-0.084-0.54,0.05-1.098-0.112-1.633c-0.094-0.31-0.291-0.561-0.555-0.71c-0.133-0.075-0.278-0.132-0.447-0.143
		c-0.949-0.058-1.728,0.79-2.116,1.618c-0.67-0.772-1.558-1.413-2.426-1.901c-1.04-0.585-2.37-1.042-3.552-0.613
		c-1.061,0.386-1.91,1.495-1.618,2.653c-0.31,0.032-0.611,0.119-0.879,0.313c-0.748,0.54-0.888,1.422-0.725,2.254
		c0.011,0.055-0.377,0.527-0.422,0.626c-0.114,0.251-0.182,0.523-0.203,0.797c-0.064,0.85,0.433,1.783,0.842,2.502
		c-0.345-0.116-0.694-0.226-1.044-0.328c-0.729-0.213-1.474-0.42-2.224-0.545c-0.532-0.088-1.159-0.124-1.626,0.197
		c-0.467,0.32-0.592,0.909-0.402,1.426c0.231,0.629,0.806,0.983,1.397,1.229c1.534,0.64,3.115,1.186,4.669,1.775
		c1.548,0.587,3.096,1.174,4.645,1.76v4.122c-1.878,0.982-3.791,1.898-5.752,2.701c-1.389,0.568-2.797,1.087-4.22,1.562l0.015-0.002
		c0,0,0.008,0.155,0.03,0.416c0,0.001,0,0.001,0,0.002c0.415-0.138,0.824-0.293,1.237-0.439c0.253-0.09,0.508-0.177,0.76-0.27
		c2.571-0.945,5.092-2.025,7.532-3.27c0.134-0.069,0.263-0.147,0.397-0.216c0.066-0.034,0.13-0.072,0.196-0.106
		c0.066-0.034,0.13-0.072,0.196-0.107c0.866-0.456,1.727-0.92,2.573-1.413c0.967-0.563,1.923-1.146,2.861-1.756
		c0.254-0.165,0.504-0.337,0.756-0.506c0.233-0.156,0.469-0.309,0.7-0.468c0.48-0.33,0.951-0.732,1.491-0.962
		c0.227-0.097,0.51-0.148,0.773-0.117c0.238,0.028,0.46,0.123,0.604,0.333c0.149,0.219,0.138,0.457,0.054,0.687
		c-0.087,0.237-0.252,0.464-0.419,0.649c-0.054,0.06-0.108,0.117-0.158,0.167c-0.939,0.933-2.019,1.74-3.171,2.428
		c-1.042,0.622-2.142,1.148-3.264,1.555c-0.075,0.01-0.15,0.022-0.225,0.033c-0.08,0.012-0.161,0.023-0.241,0.035
		c-0.777,0.115-1.555,0.231-2.332,0.346c-0.025,0.004-0.049,0.007-0.074,0.011c-0.061,0.009-0.098,0.041-0.122,0.079
		c-0.033,0.053-0.028,0.118,0,0.181c0.033,0.075,0.101,0.13,0.196,0.132c0.014,0,0.022,0.011,0.037,0.009l1.905-0.283
		c0.21-0.031,0.42-0.066,0.632-0.098c0.007-0.001,0.014-0.002,0.021-0.003c0.042,0.028,0.097,0.037,0.162,0.014
		c0.055-0.019,0.109-0.04,0.164-0.06c0.347-0.045,0.696-0.076,1.045-0.065c0.561,0.017,1.156,0.165,1.575,0.56
		c0.36,0.34,0.554,0.88,0.384,1.356c-0.211-0.094-0.446-0.145-0.692-0.156c-0.767-0.034-1.561,0.098-2.325,0.16
		c-0.111,0.009-0.222,0.018-0.334,0.027c-0.729,0.059-1.457,0.118-2.186,0.177c-0.265,0.021-0.267,0.438,0,0.416
		c1.187-0.096,2.373-0.194,3.56-0.288c0.232-0.018,0.465-0.038,0.697-0.056c0.314-0.024,0.657-0.03,0.96,0.056
		c0.222,0.063,0.425,0.17,0.569,0.386c0.251,0.379,0.263,0.873,0.166,1.308c-0.574-0.29-1.287-0.195-1.919-0.154
		c-1.108,0.072-2.217,0.143-3.325,0.215c-0.266,0.017-0.268,0.433,0,0.416c1.023-0.066,2.046-0.132,3.069-0.198
		c0.268-0.017,0.571-0.054,0.874-0.069c0.485-0.023,0.969,0.018,1.319,0.31c0.03,0.025,0.056,0.059,0.085,0.088
		c0.055,0.057,0.111,0.113,0.157,0.187c0.016,0.026,0.021,0.057,0.035,0.084c0.109,0.199,0.175,0.42,0.213,0.652
		c0.023,0.138,0.044,0.274,0.046,0.416c0.006,0.367-0.048,0.738-0.143,1.061c-0.144,0.491-0.493,0.986-0.975,1.191
		c-0.386,0.164-0.839,0.072-1.178-0.159c-0.042-0.029-0.071-0.067-0.108-0.1c-0.074-0.017-0.119-0.063-0.138-0.127
		c-0.211-0.261-0.295-0.603-0.217-0.95c0.007-0.03,0.007-0.057,0.003-0.083c0.239-0.057,0.477-0.113,0.716-0.169
		c0.137,0.082,0.244,0.217,0.286,0.378c0.067,0.258,0.469,0.149,0.401-0.111c-0.018-0.071-0.044-0.138-0.076-0.202
		c0.063-0.034,0.104-0.083,0.115-0.133c0.012-0.053,0.009-0.113-0.021-0.16c-0.024-0.037-0.054-0.063-0.091-0.081
		c-0.007-0.003-0.014-0.007-0.02-0.01c-0.015-0.018-0.02-0.027-0.023-0.036c-0.014-0.033-0.051-0.063-0.087-0.081
		c-0.045-0.048-0.112-0.075-0.195-0.056c-0.083,0.019-0.166,0.038-0.249,0.057c-0.24,0.055-0.481,0.11-0.722,0.165
		c-0.345,0.079-0.689,0.16-1.034,0.237c-0.158,0.035-0.316,0.064-0.474,0.1c-0.152,0.035-0.341,0.115-0.497,0.115
		c-0.225,0.052-0.34,0.131-0.522,0.272c-0.175,0.136-0.354,0.268-0.536,0.395c-0.357,0.25-0.73,0.475-1.109,0.689
		c-0.065,0.036-0.131,0.07-0.196,0.105c-0.065,0.035-0.13,0.07-0.196,0.105c-0.745,0.388-1.522,0.716-2.327,0.96
		c-0.846,0.257-1.717,0.435-2.596,0.522c-0.912,0.089-1.82,0.056-2.734,0.018c-0.13-0.005-0.26-0.006-0.39-0.01
		c0.039,0.062,0.073,0.113,0.105,0.161c0.116,0.17,0.19,0.261,0.19,0.261c0.932,0.036,1.856,0.079,2.786-0.01
		c1.727-0.164,3.415-0.654,4.967-1.43v1.103c0,0.217,0.175,0.392,0.392,0.392h40.374c0.217,0,0.392-0.175,0.392-0.392v-7.272
		c0.069,0.022,0.144,0.042,0.212,0.065c0.225,0.92,0.739,1.756,1.574,2.201c0.623,0.332,1.413,0.358,2.005-0.019
		c0.03-0.006,0.06-0.018,0.089-0.039c0.081-0.058,0.15-0.127,0.208-0.203c0.036-0.037,0.052-0.064,0.061-0.091
		c0.167-0.278,0.196-0.629,0.054-0.937c-0.005-0.012-0.012-0.024-0.018-0.035c1.243,0.356,2.571,0.278,3.781-0.19
		c0.06-0.023,0.124-0.035,0.183-0.06c0.048-0.02,0.079-0.051,0.096-0.086c0.071,0.015,0.144,0.025,0.215,0.038
		c0.734,0.139,1.485,0.182,2.254,0.073c-0.023,0.078-0.006,0.169,0.078,0.23c0.618,0.448,1.235,0.896,1.853,1.344
		c0,0,0.067-0.031,0.171-0.1c0.056-0.037,0.122-0.085,0.197-0.146c-0.662-0.48-1.324-0.96-1.986-1.441
		c0.076-0.131-0.026-0.354-0.225-0.32c-2.412,0.413-4.666-0.756-6.715-1.891c0.199-0.112,0.105-0.467-0.135-0.387
		c-0.685,0.229-1.164,0.829-1.214,1.554c-0.004,0.064,0.017,0.114,0.051,0.149c0.053,0.435,0.354,0.72,0.671,1.01
		c0.173,0.158,0.372,0.341,0.415,0.583c0.028,0.16-0.018,0.31-0.108,0.433c-0.482,0.455-1.22,0.477-1.791,0.163
		c-0.635-0.35-1.065-1.015-1.288-1.69c-0.463-1.403-0.1-2.985,0.97-4.011c0.561-0.538,1.262-0.896,2.026-1.038
		c0.263-0.049,0.17-0.455-0.093-0.406c-1.516,0.281-2.825,1.394-3.306,2.86c-0.098,0.065-0.193,0.102-0.286,0.129
		c-0.068,0.02-0.132,0.022-0.196,0.024c-0.068,0.002-0.133,0.001-0.196-0.014c-0.532-0.129-0.884-0.821-0.814-1.352
		c0.078-0.59,0.431-1.113,0.814-1.57c0.065-0.078,0.13-0.157,0.196-0.231c0.007-0.008,0.015-0.018,0.022-0.026
		c0.054-0.06,0.118-0.112,0.174-0.171c0.134-0.14,0.272-0.278,0.416-0.408c0.783-0.71,1.696-1.274,2.691-1.636
		c0.248-0.09,0.159-0.497-0.093-0.406c-1.125,0.409-2.15,1.041-3.014,1.857c-0.055,0.052-0.101,0.113-0.155,0.166
		c-0.014,0.014-0.027,0.03-0.041,0.044c-0.067,0.068-0.131,0.14-0.196,0.21c-0.123,0.133-0.255,0.255-0.37,0.396
		c-0.317,0.391-0.62,0.844-0.772,1.335c-0.018-0.011-0.037-0.02-0.061-0.025c-0.679-0.157-1.051-0.834-1.025-1.499
		c0.007-0.183,0.039-0.363,0.089-0.539c0.153-0.538,0.483-1.037,0.854-1.438c0.367-0.397,0.81-0.706,1.284-0.955
		c0.067-0.035,0.128-0.079,0.196-0.111c0.065-0.031,0.129-0.061,0.196-0.089c0.573-0.237,1.19-0.369,1.817-0.362
		c0.267,0.003,0.286-0.413,0.018-0.416c-0.632-0.008-1.251,0.118-1.835,0.337c-0.065,0.024-0.132,0.044-0.196,0.071
		c-0.066,0.028-0.131,0.058-0.196,0.088c-0.184,0.087-0.366,0.178-0.539,0.286c-0.018,0.003-0.036,0.008-0.054,0.015
		c-0.107,0.043-0.214,0.087-0.321,0.13c-0.6,0.125-1.159,0.364-1.683,0.661c-0.033,0.016-0.068,0.029-0.101,0.046
		c-0.009,0.007-0.017,0.015-0.026,0.022c-0.705,0.422-1.331,0.97-1.82,1.633c-0.36,0.488-0.658,1.023-0.859,1.604
		c-0.163,0.47-0.398,1.134-1.031,0.921c-0.605-0.203-0.723-0.893-0.685-1.45c0.027-0.394,0.123-0.777,0.247-1.151
		C49.086,46.777,49.421,46.154,49.847,45.615z M48.266,48.095c-0.002,0.009-0.002,0.018-0.003,0.027
		c-0.838-0.137-1.671-0.296-2.498-0.493c-0.05-0.012-0.094-0.007-0.131,0.009c-0.175-0.107-0.444,0.078-0.298,0.266
		c1.046,1.358,2.092,2.714,3.146,4.082c0.071,0.109,0.268,0.155,0.374,0.012c0.267-0.358,0.522-0.726,0.764-1.102
		c0.6,0.354,1.175,0.745,1.739,1.153c0.001,0.089,0.015,0.18,0.044,0.272c0.257,0.818,1.253,0.761,1.935,0.807
		c0.756,0.051,1.619,0.222,2.401,0.445v0.406c-0.016-0.004-0.024-0.019-0.043-0.019H35.154v-6.987v-9.866h20.587v5.408
		c-2.264,0.045-4.498,0.85-6.013,2.596c-0.585,0.674-1.032,1.458-1.291,2.309C48.368,47.642,48.306,47.865,48.266,48.095z
		 M49.369,35.879c-0.061-0.445,0.412-0.65,0.703-0.318c0.086,0.099,0.11,0.238,0.062,0.363
		C50.009,36.378,49.43,36.331,49.369,35.879z M51.846,35.485c0.236-0.097,0.492,0.06,0.547,0.302c0.053,0.231-0.08,0.476-0.33,0.496
		c-0.082,0.007-0.162-0.016-0.232-0.058c-0.086,0.018-0.188-0.014-0.226-0.096C51.491,35.886,51.592,35.589,51.846,35.485z
		 M53.704,35.606c0.032-0.03,0.067-0.053,0.104-0.069c0.17-0.091,0.409-0.07,0.501,0.125c0.022,0.046,0.027,0.089,0.022,0.129
		c0.015,0.038,0.019,0.081,0.006,0.126c-0.033,0.113-0.111,0.185-0.204,0.22c-0.092,0.081-0.235,0.106-0.358,0.033
		C53.579,36.054,53.535,35.766,53.704,35.606z M34.738,37.108v9.852v11.388c0.011,0.008,0.023,0.004,0.033,0.015l0.322,0.358
		c0.02-0.017,0.041-0.034,0.061-0.052v-4.291h20.543c0.019,0,0.027-0.015,0.043-0.019v6.607H35.154V59.41l-0.101-0.112
		c-0.105,0.089-0.21,0.178-0.315,0.267v1.402H15.367v-1.318c0.325-0.176,0.65-0.354,0.959-0.556
		c0.208-0.136,0.413-0.277,0.613-0.424c0.121-0.089,0.225-0.206,0.345-0.292c0.125-0.089,0.302-0.133,0.448-0.174
		c0.303-0.084,0.615-0.124,0.922-0.192c0.142-0.032,0.284-0.064,0.426-0.097c-0.158,1.133,0.964,2.051,2.071,1.742
		c0.289-0.081,0.556-0.238,0.771-0.447c0.547-0.533,0.735-1.352,0.751-2.091c0.001-0.045-0.005-0.092-0.006-0.137h3.118
		c0.268,0,0.268-0.416,0-0.416h-3.146c-0.049-0.363-0.168-0.713-0.371-1.01h8.594c0.268,0,0.268-0.416,0-0.416h-8.76
		c0.11-0.488,0.102-1-0.107-1.447c-0.067-0.142-0.166-0.246-0.265-0.35c-0.032-0.033-0.05-0.083-0.085-0.112
		c0.21-0.517,0.134-1.101-0.183-1.565c-0.349-0.512-0.935-0.812-1.532-0.926c-0.155-0.029-0.31-0.047-0.465-0.056
		c0.956-0.421,1.873-0.926,2.747-1.497c0.193,0.009,0.386,0.016,0.578,0.046c1.27,0.197,2.549,1.135,3.847,0.582
		c0.651-0.278,1.216-0.769,1.783-1.183c0.616-0.45,1.232-0.899,1.848-1.349c0.207-0.151,0.413-0.302,0.619-0.452
		c0.383-0.28,0.766-0.559,1.148-0.839v-6.742H19.638H17.94v3.078v4v1.919c-0.849,0.499-1.703,0.987-2.573,1.449v-3.773c0,0,0,0,0,0
		V45.65v-0.175c0,0,0,0,0,0v-4.843c0.652,0.075,1.296-0.15,1.55-0.788c0.16-0.399,0.084-0.831-0.152-1.16
		c0.361-0.041,0.68-0.296,0.855-0.641c0.035-0.069,0.056-0.142,0.078-0.218c0.024-0.084,0.056-0.166,0.061-0.257
		c0.009-0.162-0.016-0.313-0.052-0.459h0.418h2.525L34.738,37.108L34.738,37.108z M25.369,44.914
		c-0.287-0.311-0.622-0.416-0.969-0.409c-0.027-0.153-0.047-0.31-0.047-0.471c0-1.475,1.195-2.67,2.67-2.67
		c1.475,0,2.67,1.195,2.67,2.67c0,1.436-1.137,2.599-2.559,2.659c-0.038,0.002-0.073,0.011-0.112,0.011
		c-0.081,0-0.157-0.017-0.235-0.024c-0.474-0.042-0.915-0.198-1.286-0.455C25.715,45.793,25.757,45.335,25.369,44.914z
		 M11.601,44.047c-1.454-0.551-2.908-1.102-4.361-1.653c-0.648-0.246-1.362-0.443-1.954-0.811c-0.46-0.286-0.957-0.956-0.561-1.494
		c0.317-0.431,0.993-0.383,1.458-0.307c0.671,0.11,1.337,0.294,1.991,0.478c0.584,0.164,1.162,0.349,1.733,0.552
		c0.235,0.084,0.469,0.171,0.702,0.262c0.46,0.178,0.907,0.39,1.357,0.593c0.253,0.114,0.513,0.212,0.763,0.334
		c0.24,0.117,0.451-0.242,0.21-0.359c-0.284-0.139-0.574-0.265-0.863-0.394c-0.626-0.281-1.258-0.547-1.902-0.781
		c-0.336-0.122-0.807-1.533-0.93-1.899c-0.229-0.677-0.096-1.447,0.414-1.965c0.014-0.014,0.025-0.029,0.034-0.044
		c0.05-0.086,0.163-0.096,0.18-0.209c0.008-0.056-0.006-0.113-0.022-0.168c-0.089-0.319-0.233-0.552-0.14-0.887
		c0.077-0.276,0.239-0.545,0.443-0.747c0.653-0.648,1.64-0.261,2.405-0.06c0.81,0.212,1.622,0.442,2.393,0.775
		c0.009,0.004,0.018,0.008,0.027,0.012c0.065,0.028,0.13,0.059,0.196,0.089c0.065,0.03,0.13,0.057,0.196,0.089c0,0,0,0,0,0
		c0.04,0.019,0.079,0.042,0.119,0.061c0.554,0.276,1.099,0.62,1.49,1.079c0.126,0.148,0.229,0.327,0.296,0.515
		c0.08,0.227,0.105,0.47,0.02,0.703c-0.128,0.354-0.606,0.631-0.946,0.365c-0.01-0.008-0.021-0.015-0.031-0.021
		c-0.017-0.033-0.046-0.063-0.092-0.084c-0.283-0.128-0.568-0.251-0.856-0.37c0,0,0,0,0,0c-0.064-0.027-0.132-0.045-0.196-0.071
		c-0.064-0.026-0.131-0.046-0.196-0.071c-0.417-0.165-0.839-0.315-1.264-0.459c-0.908-0.307-1.826-0.582-2.763-0.79
		c-0.261-0.058-0.372,0.343-0.111,0.402c0.889,0.197,1.763,0.451,2.626,0.737c0.51,0.169,1.013,0.356,1.512,0.556
		c0.065,0.026,0.131,0.046,0.196,0.072c0.064,0.026,0.132,0.045,0.196,0.072c0,0,0,0,0,0c0.649,0.273,1.82,1.225,0.885,1.912
		c-0.255,0.187-0.569,0.207-0.885,0.162c0,0,0,0,0,0c-0.066-0.009-0.13-0.028-0.196-0.042s-0.132-0.025-0.196-0.042
		c-0.165-0.043-0.324-0.089-0.468-0.129c-0.653-0.18-1.307-0.359-1.961-0.539c-0.639-0.176-1.278-0.351-1.917-0.527
		c-0.258-0.071-0.369,0.33-0.11,0.402l1.909,0.525l0.152,0.042c-0.016,0.068,0.006,0.14,0.054,0.199
		c0.121,0.151,0.242,0.302,0.363,0.454c0.037,0.046,0.073,0.091,0.11,0.137c0.07,0.088,0.221,0.073,0.294,0
		c0.087-0.086,0.07-0.206,0-0.294c-0.092-0.115-0.185-0.23-0.277-0.346c0.608,0.174,1.228,0.381,1.851,0.502v4.761
		c-0.901-0.341-1.801-0.683-2.702-1.024C12.049,44.217,11.825,44.132,11.601,44.047z M12.52,31.574
		c0.95-0.444,2.093-0.14,2.987,0.295c0.927,0.452,1.774,1.078,2.499,1.808c0.121,0.122,0.265,0.28,0.402,0.458
		c0.001,0.001,0.001,0.001,0.002,0.002c0.008,0.013,0.017,0.025,0.027,0.035c0.076,0.1,0.148,0.207,0.215,0.316
		c0.039,0.064,0.069,0.13,0.102,0.196c0.01,0.019,0.019,0.038,0.028,0.057c0.022,0.047,0.051,0.092,0.069,0.139c0,0,0,0,0,0
		c0.175,0.453,0.149,0.906-0.381,1.186c-0.741,0.392-1.579-0.06-2.097-0.611c-0.095-0.101-0.168-0.214-0.245-0.325
		c-0.06-0.087-0.134-0.165-0.196-0.25c-0.035-0.048-0.075-0.093-0.113-0.139c-0.016-0.019-0.03-0.039-0.046-0.057
		c-0.034-0.038-0.058-0.084-0.097-0.119c-0.033-0.031-0.076-0.049-0.111-0.077c-0.278-0.225-0.602-0.394-0.953-0.464
		c-0.399-0.079-0.818-0.045-1.194,0.111c-0.061,0.025-0.1,0.07-0.12,0.12c-0.067-0.019-0.135-0.038-0.202-0.057
		c-0.528-0.145-1.153-0.371-1.754-0.422c0.015-0.036,0.019-0.08,0.007-0.128C11.128,32.777,11.752,31.933,12.52,31.574z
		 M20.888,32.5c0.285,0.149,0.409,0.492,0.435,0.815c0.017,0.206,0.01,0.411,0.006,0.615c-0.001,0.028-0.001,0.056-0.002,0.083
		c-0.002,0.159,0.005,0.317,0.022,0.476h-1.673h-0.529c-0.006-0.011-0.012-0.022-0.018-0.033c-0.061-0.12-0.13-0.236-0.203-0.343
		c-0.029-0.042-0.06-0.083-0.09-0.124c0.001-0.004,0.004-0.008,0.005-0.012c0.277-0.715,0.977-1.638,1.817-1.557
		C20.749,32.429,20.819,32.464,20.888,32.5z M59.854,54.119c-0.256-0.229-0.509-0.46-0.523-0.786
		c-0.002-0.045-0.016-0.083-0.038-0.114c0.039-0.355,0.22-0.68,0.493-0.898c1.26,0.701,2.582,1.416,3.97,1.82
		C62.572,54.53,61.035,54.493,59.854,54.119z M55.741,51.946c0.064,0.011,0.129,0.02,0.196,0.019
		c0.064-0.001,0.13-0.014,0.196-0.027c0.046-0.009,0.091-0.009,0.138-0.024c-0.072,0.442-0.079,0.913-0.015,1.377
		c-0.038-0.012-0.084-0.022-0.123-0.034c-0.063-0.019-0.131-0.035-0.196-0.054c-0.065-0.019-0.13-0.036-0.196-0.054
		c-0.538-0.15-1.101-0.285-1.593-0.354c-0.361-0.051-0.724-0.083-1.088-0.098c-0.264-0.011-0.551-0.008-0.805-0.096
		c0.079-0.005,0.156-0.047,0.19-0.14c0.1-0.269,0.262-0.504,0.469-0.703c0.06-0.057,0.073-0.125,0.056-0.186
		c0.01-0.074-0.014-0.153-0.094-0.204c-0.125-0.081-0.25-0.16-0.376-0.239c0.063-0.041,0.124-0.077,0.178-0.105
		c0.573-0.294,1.236-0.401,1.872-0.308C54.7,51.28,55.155,51.843,55.741,51.946z M54.294,45.727
		c-0.126,0.126-0.246,0.259-0.358,0.398c-0.338,0.419-0.608,0.922-0.742,1.453c-0.075,0.297-0.119,0.601-0.081,0.909
		c0.089,0.707,0.585,1.373,1.297,1.538c0.039,0.009,0.074,0.007,0.106-0.002c-0.012,0.09-0.019,0.181-0.019,0.272
		c-0.691-0.074-1.387,0.04-2.013,0.36c-0.123,0.063-0.251,0.143-0.377,0.233c-0.549-0.337-1.107-0.659-1.674-0.965
		c0.126-0.213,0.221-0.453,0.3-0.68c0.21-0.605,0.514-1.165,0.913-1.667c0.014-0.017,0.031-0.031,0.044-0.048
		C52.369,46.696,53.279,46.065,54.294,45.727z"/>
	<path class="st7" d="M34.738,58.947v0.074c0.013-0.011,0.025-0.021,0.038-0.032L34.738,58.947z"/>
	<path class="st7" d="M42.711,47.23c-1.243,0.982-2.486,1.963-3.729,2.945c0.088,0.109,0.154,0.236,0.197,0.373
		c1.392-1.099,2.783-2.197,4.175-3.296c0.992-0.783,1.984-1.566,2.976-2.349c-0.116-0.085-0.214-0.187-0.285-0.304
		C44.933,45.476,43.822,46.353,42.711,47.23z"/>
	<path class="st7" d="M46.056,43.657c0.023-0.042,0.053-0.069,0.087-0.085c0.024-0.045,0.05-0.088,0.081-0.13
		c-1.4-0.543-2.842-0.971-4.312-1.278c-0.022,0.14-0.071,0.273-0.146,0.393c1.439,0.299,2.851,0.714,4.223,1.24
		C46.009,43.751,46.03,43.704,46.056,43.657z"/>
	<path class="st7" d="M50.355,41.51c-0.033-0.137-0.029-0.277,0.006-0.415c-2.826,0.197-5.65,0.394-8.475,0.591
		c0.036,0.139,0.048,0.278,0.035,0.412C44.733,41.902,47.544,41.706,50.355,41.51z"/>
	<path class="st7" d="M50.564,41.896c-0.078-0.086-0.134-0.177-0.172-0.271c-0.867,0.464-1.734,0.926-2.601,1.389
		c0.139,0.062,0.263,0.155,0.358,0.281c0.828-0.443,1.657-0.885,2.485-1.328C50.61,41.945,50.586,41.921,50.564,41.896z"/>
	<path class="st7" d="M38.661,58.177c0.293-0.508,0.807-0.837,1.38-0.941c0.64-0.116,1.158,0.103,1.669,0.469
		c0.484,0.347,0.992,0.578,1.583,0.355c0.502-0.189,0.893-0.57,1.367-0.811c1.147-0.584,1.689,0.904,2.639,1.218
		c1.076,0.356,1.705-0.795,2.548-1.188c0.729-0.34,1.221,0.344,1.719,0.763c0.472,0.398,1.208,0.67,1.721,0.193
		c0.197-0.183-0.098-0.477-0.294-0.294c-0.532,0.495-1.258-0.323-1.622-0.649c-0.428-0.384-0.951-0.655-1.53-0.457
		c-0.471,0.161-0.832,0.525-1.21,0.832c-0.393,0.318-0.86,0.598-1.361,0.339c-0.464-0.24-0.777-0.701-1.194-1.007
		c-0.43-0.316-0.933-0.399-1.432-0.197c-0.498,0.202-0.887,0.59-1.37,0.817c-0.274,0.128-0.558,0.164-0.842,0.044
		c-0.308-0.13-0.558-0.369-0.84-0.544c-1.097-0.679-2.649-0.261-3.289,0.848C38.167,58.199,38.527,58.409,38.661,58.177z"/>
	<path class="st7" d="M10.476,17.353c-0.05-0.441,0.14-0.911,0.546-1.127c0.548-0.291,1.301-0.006,1.529,0.568
		c0.081,0.204,0.081,0.423,0.027,0.629h5.56c0.491,0.986,1.37,1.759,2.436,2.091c0.16,0.05,0.348-0.158,0.235-0.306
		c-0.42-0.547-0.698-1.17-0.857-1.824c1.902-0.196,3.39-1.785,3.39-3.738v-0.167c0-1.99-1.543-3.602-3.496-3.749
		c-1.646,1.849-3.198,3.78-4.643,5.791c-0.085,0.119-0.28,0.15-0.359,0c-0.337-0.64-0.674-1.277-1.01-1.915
		c-0.427-0.81-0.825-1.46,0.406-1.445c0.068,0.001,0.15,0.037,0.18,0.103c0.229,0.509,0.458,1.018,0.688,1.528
		c-0.186-0.413,2.539-3.008,2.892-3.367c0.237-0.24,0.472-0.483,0.709-0.723h-7.54c-2.086,0-3.777,1.691-3.777,3.777v0.167
		C7.392,15.495,8.722,17.027,10.476,17.353z"/>
	<path class="st7" d="M35.614,13.977c-0.018,0.149,0.041,0.267,0.148,0.367c0.033,0.031,0.075,0.044,0.119,0.045
		c0.025,0.007,0.05,0.01,0.074,0.009c0.057-0.001,0.099-0.019,0.138-0.048c0.03-0.016,0.058-0.039,0.081-0.069
		c0.037-0.05,0.061-0.104,0.074-0.161c0.026-0.085,0.031-0.177,0.015-0.26c-0.035-0.18-0.143-0.313-0.305-0.395
		c-0.12-0.061-0.262,0.029-0.312,0.138c-0.048,0.107-0.05,0.217-0.019,0.317C35.621,13.938,35.617,13.957,35.614,13.977z"/>
	<path class="st7" d="M39.234,13.613c0.074,0.18,0.302,0.182,0.416,0.047c0.133-0.097,0.203-0.262,0.185-0.415
		c-0.007-0.061-0.032-0.118-0.068-0.168c-0.009-0.032-0.021-0.063-0.035-0.092c-0.081-0.166-0.301-0.198-0.416-0.047
		c-0.115,0.052-0.198,0.154-0.21,0.287c-0.007,0.087,0.02,0.177,0.072,0.248C39.199,13.529,39.217,13.571,39.234,13.613z"/>
	<path class="st7" d="M44.998,15.234c0.09,0.014,0.179,0.006,0.269,0.01l0.041-0.04l0.33-0.325l0,0l0.073-0.072l0.026-0.025
		c-0.042,0.009-0.084,0.017-0.125,0.027l0.008,0.02c-0.027,0.004-0.053,0.013-0.081,0.016c-0.028-0.005-0.051-0.007-0.079-0.002
		c-0.116,0.006-0.232,0.01-0.351-0.009C44.846,14.791,44.733,15.192,44.998,15.234z"/>
	<path class="st7" d="M45.947,15.157c-0.007,0.007-0.013,0.013-0.02,0.02c-0.042,0.041-0.084,0.083-0.126,0.124
		c-0.163,0.16-0.325,0.321-0.488,0.482c-0.001,0.105,0.008,0.21,0.003,0.315c0.223,0.225,0.446,0.45,0.668,0.676
		c0.077-0.134,0.154-0.268,0.231-0.402c0.15-0.262,0.3-0.523,0.45-0.785c-0.256-0.101-0.49-0.241-0.703-0.417
		C45.958,15.164,45.952,15.161,45.947,15.157z"/>
</g>
<g>
	<path class="st3" d="M13.416,22.332l2.443-1l3.496,8.54l-2.443,1L13.416,22.332z M15.524,22.128l-1.312,0.537l3.034,7.41
		l1.312-0.537L15.524,22.128z"/>
</g>
<circle class="st5" cx="18.837" cy="22.718" r="1.233"/>
<path class="st4" d="M6.373,47.913c-0.526,0.279-0.771,0.888-0.707,1.458c0.025,0.226,0.088,0.446,0.218,0.637
	c0.059,0.087,0.144,0.122,0.228,0.121c0.305,0.307,0.739,0.482,1.185,0.398c0.538-0.101,0.953-0.55,1.09-1.065
	c0.07-0.266,0.071-0.549-0.034-0.814C8.057,47.906,7.082,47.537,6.373,47.913z M7.238,49.989c-0.425,0.106-0.786-0.183-0.934-0.554
	c-0.058-0.145-0.09-0.298-0.071-0.452c0.005-0.038,0.001-0.07-0.007-0.1c0.054-0.17,0.156-0.324,0.308-0.436
	c0.407-0.3,1.057-0.111,1.287,0.328c0.113,0.216,0.093,0.466-0.002,0.686C7.71,49.712,7.501,49.923,7.238,49.989z"/>
<path class="st4" d="M70.025,9.927c-0.526,0.279-0.771,0.888-0.707,1.458c0.025,0.226,0.088,0.446,0.218,0.637
	c0.059,0.087,0.144,0.122,0.228,0.121c0.305,0.307,0.739,0.482,1.185,0.398c0.538-0.101,0.953-0.55,1.09-1.065
	c0.07-0.266,0.071-0.549-0.034-0.814C71.709,9.92,70.734,9.551,70.025,9.927z M70.89,12.004c-0.425,0.106-0.786-0.183-0.934-0.554
	c-0.058-0.145-0.09-0.298-0.071-0.452c0.005-0.038,0.001-0.07-0.007-0.1c0.054-0.17,0.156-0.324,0.308-0.436
	c0.407-0.3,1.057-0.111,1.287,0.328c0.113,0.216,0.093,0.466-0.002,0.686C71.362,11.727,71.154,11.938,70.89,12.004z"/>
<g>
	<path class="st3" d="M58.193,7.692c-0.439-0.059-1.033,0.341-1.335,0.745c-0.225,0.301-0.288,0.603-0.178,0.851
		c0.108,0.242,0.336,0.371,0.619,0.371c0.144,0,0.303-0.034,0.468-0.103c0.612-0.257,1.093-0.906,0.84-1.546
		C58.537,7.834,58.386,7.718,58.193,7.692z M57.573,9.096c-0.126,0.053-0.379,0.119-0.437-0.011
		c-0.041-0.092,0.045-0.305,0.289-0.534c0.327-0.307,0.655-0.393,0.717-0.357C58.295,8.582,57.893,8.962,57.573,9.096z"/>
	<path class="st3" d="M60.035,6.308c-0.248-0.542-0.615-0.759-0.879-0.845c-0.375-0.123-0.82-0.074-1.19,0.132
		c-0.21,0.118-0.469,0.353-0.743,0.602c-0.298,0.27-0.994,0.903-1.173,0.796c-0.105-0.064-0.165-0.129-0.179-0.193
		c-0.029-0.135,0.115-0.344,0.231-0.512c0.14-0.203,0.273-0.396,0.204-0.602c-0.026-0.079-0.092-0.185-0.257-0.24
		c-0.77-0.262-1.715,0.11-2.526,0.998c-1.326,1.449-1.459,3.135-1.002,4.164c0.412,0.926,1.187,1.603,2.183,1.906
		c0.367,0.111,0.747,0.166,1.13,0.166c0.777,0,1.563-0.227,2.262-0.667C60.168,10.698,60.593,7.526,60.035,6.308z M57.828,11.588
		c-0.919,0.579-2.005,0.741-2.979,0.445c-0.855-0.26-1.52-0.839-1.872-1.631c-0.539-1.214,0.096-2.729,0.914-3.623
		c0.538-0.588,1.143-0.916,1.655-0.916c0.077,0,0.151,0.007,0.223,0.022c-0.026,0.04-0.055,0.083-0.079,0.118
		c-0.162,0.234-0.383,0.555-0.309,0.901c0.044,0.204,0.181,0.378,0.409,0.515c0.497,0.301,1.143-0.286,1.768-0.853
		c0.252-0.229,0.491-0.446,0.651-0.535C58.403,5.924,58.711,5.843,59,5.938c0.246,0.081,0.442,0.275,0.58,0.579
		C60.062,7.567,59.653,10.432,57.828,11.588z"/>
</g>
</svg>
