<?xml version="1.0" encoding="UTF-8"?><svg id="b" xmlns="http://www.w3.org/2000/svg" xmlns:xlink="http://www.w3.org/1999/xlink" viewBox="0 0 401.08 260.98"><defs><style>.e{fill:url(#d);}.f{fill:#67a2ab;}.g{fill:#f0ee9f;}.h{fill:#ea5b5e;}.i{fill:#f05c5e;}.j{fill:#fff;}.k{fill:#ffc5ff;}.l{fill:#de6663;}.m{fill:#1b1749;}.n{fill:#52a5ae;}.o{stroke:#f05c5e;stroke-width:1.81px;}.o,.p,.q,.r{fill:none;}.o,.p,.r{stroke-miterlimit:10;}.p{stroke:#67a2ab;stroke-width:2.71px;}.q{stroke:#000;stroke-linecap:round;stroke-linejoin:round;}.q,.r{stroke-width:.9px;}.r{stroke:#fff;}</style><linearGradient id="d" x1="244.37" y1="32.15" x2="387.94" y2="32.15" gradientTransform="translate(0 103.93) scale(1 -1)" gradientUnits="userSpaceOnUse"><stop offset="0" stop-color="#f2f5a7"/><stop offset="1" stop-color="#f5c7fa"/></linearGradient></defs><g id="c"><path class="e" d="m387.94,143.56V0h-.31l-32.76,32.76c10.08,10,16.27,23.75,16.27,39.02,0,30.39-24.59,54.98-54.98,54.98-15.27,0-29.02-6.19-39.02-16.27l-32.76,32.76v.31h143.56Z"/><polygon class="f" points="244.37 0 244.37 40.01 284.39 0 244.37 0"/><path class="l" d="m261.17,71.78c0,15.12,6.11,28.79,15.96,38.72l77.74-77.74c-9.93-9.85-23.6-15.96-38.72-15.96-30.39,0-54.98,24.59-54.98,54.98Z"/><path class="p" d="m348.25,90.4s-131.69-51.79-241.82,27.85"/><circle class="p" cx="351.35" cy="92.46" r="4.83"/><path class="m" d="m288.28,104.35c-2.65,10.87-11.03,18.92-20.91,23.15-11.37,4.87-24.29,5.48-36.46,5.18-13.5-.34-26.91-2.37-40.09-5.25-6.64-1.45-13.24-3.12-19.81-4.92-4.62-1.26-9.65-2.5-13.3-5.78-.29-.06-.56-.26-.64-.61-.23-.23-.46-.48-.67-.73-.51-.6.01-1.4.59-1.41,0-3.9.69-7.79,2.02-11.46,2.69-7.44,7.81-13.98,14.5-18.07,3.93-2.4,8.29-3.4,12.54-5.01,3.67-1.39,7.75-3.94,8.7-8.07-1.77-.3-3.46-.95-4.99-1.93-4.14-2.63-7.07-7.25-7.92-12.13-1.07-6.08.51-12.24,3.12-17.69,4.74-9.91,12.91-18.57,23.07-22.6,9.67-3.84,21.38-2.79,29.66,3.83,4.45,3.56,7.28,8.6,9.55,13.79,2.4,5.5,4.44,11.1,7.44,16.31,3.06,5.31,6.77,10.22,11.04,14.58,3.87,3.95,8.23,7.34,12.24,11.13,3.8,3.58,7.33,7.61,9.36,12.53,1.98,4.81,2.22,10.12.98,15.17Z"/><path class="m" d="m196.27,72.15c-.77,5.04-5.75,7.43-10.14,8.38-2.65.57-5.37.81-8.02,1.38-2.21.47-4.35,1.19-6.41,2.12-8.28,3.73-14.78,11.21-15.91,20.56-.62,5.11.43,10.42,3.27,14.7.57.86,1.95.05,1.38-.82-5.22-7.86-3.79-18.65,2.14-25.67,2.91-3.45,6.71-6.1,10.86-7.77,2.12-.85,4.31-1.44,6.55-1.84,2.67-.47,5.38-.73,8-1.44,4.42-1.2,9.06-4.19,9.82-9.17.16-1.02-1.38-1.46-1.54-.43Z"/><path class="j" d="m266.24,102.35c-4,5.18-9.72,8.41-16.19,9.32-7.59,1.07-15.26-.71-22.56-2.67-7.13-1.92-14.42-4.22-20.34-8.77-5.15-3.96-9.11-9.57-9.91-16.12-.04-.34.27-.63.56-.73,6.32-2.29,12.99-3.47,19.71-3.51,3.76-.66,7.55-1.13,11.36-1.4-.87-1.71-1.75-3.42-2.62-5.13-5.4.76-10.86.09-15.9-1.93-.09-.04-.19-.08-.28-.12-.61-.25-1.21-.52-1.8-.81-.17-.09-.28-.21-.34-.34-.43-.29-.84-.61-1.24-.95-2.73-1.27-5.05-3.45-6.66-6.02-2.28-3.65-3.1-7.95-3.23-12.22-.43-.04-.85-.4-.74-.95.92-4.52,2.79-8.87,5.78-12.42,5.12-6.08,14.16-9.12,21.54-5.35,3.8,1.94,6.49,5.4,8.98,8.75,2.23,2.98,4.49,6.08,5.41,9.69,2.23-2.36,6.61-2.63,8.47.44.88,1.45.93,3.34.33,4.91-.7,1.82-2.11,2.9-3.97,3.34-.39.09-.82.16-1.22.27l4.62,11.94c.4,1.04.81,2.08,1.21,3.13.28.73.63,1.48.85,2.24.55.23,1.12.42,1.7.57.16-.25.44-.41.81-.32.98.25,1.96.5,2.93.75.1-.04.21-.07.35-.06.92.04,1.83.14,2.73.3,2.75.2,5.42.69,7.37,2.64,2.28.62,4.57,1.23,6.85,1.85.23.06.49.28.53.53,1.08,6.79-.9,13.76-5.08,19.18Z"/><path class="m" d="m227.68,77.4c-12.11.5-24.09,2.92-35.43,7.19-.91.34-.51,1.81.4,1.46,11.22-4.22,23.05-6.64,35.03-7.13.97-.04.98-1.56,0-1.52Z"/><path class="m" d="m282.27,85.43c-8.77-3.62-17.86-6.42-27.15-8.38-.95-.2-1.36,1.26-.4,1.46,9.29,1.96,18.37,4.76,27.15,8.38.9.37,1.3-1.1.4-1.46Z"/><path class="n" d="m200.07,83.56s2.23,6.73,18.27,9.92c16.04,3.19,28.32,3.43,37.99,0,9.67-3.43,13.67-10.92,13.67-10.92,0,0,35.77,9.27,49.98,20.31,34.73,26.96,30.21,120.38,30.21,120.38,0,0-210.52-48.08-210.87-48.69-.35-.61-.65-29.85,0-30.66.65-.81,14.26-25.01,26.78-42.48,8.73-12.18,33.98-17.86,33.98-17.86Z"/><path class="m" d="m236.02,67.02c-5.66,5.09-13.8,7.09-21.22,5.49-7.5-1.62-13.58-7.05-16.52-14.09-1.61-3.86-2.21-8.07-1.67-12.22.12-.97-1.4-.96-1.52,0-1.02,7.94,2.1,16.18,7.86,21.68,5.9,5.64,14.28,7.74,22.22,6.15,4.42-.88,8.56-2.92,11.92-5.94.73-.65-.35-1.73-1.07-1.07Z"/><path class="m" d="m238.45,50.67c-3.29,1.3-6.71.2-9.78-1.2-2.91-1.33-5.79-2.77-8.51-4.47-5.17-3.23-9.84-7.7-11.73-13.65-.29-.93-1.76-.53-1.46.4,2.01,6.33,6.91,11.11,12.43,14.56,3,1.88,6.21,3.5,9.46,4.89,3.15,1.35,6.68,2.24,9.99.93.9-.35.51-1.82-.4-1.46Z"/><path class="m" d="m247.69,50.7c-1.09-2.47-3.69-3.85-6.28-2.76-2.88,1.22-3.85,4.39-3.73,7.28.04.97,1.56.98,1.52,0-.09-2.17.42-4.69,2.54-5.77,2.09-1.06,4.06.28,4.74,2.33,1.43,4.34-2.55,8.63-6.95,7.92-.96-.15-1.37,1.31-.4,1.46,2.8.45,5.71-.52,7.49-2.79,1.67-2.14,2.17-5.18,1.06-7.68Z"/><path class="m" d="m243.51,52.27c-1.23,1.51-2.45,3.02-3.68,4.52-.61.75.46,1.83,1.07,1.07,1.23-1.51,2.45-3.02,3.68-4.52.61-.75-.46-1.83-1.07-1.07Z"/><path class="m" d="m231.89,86.05c-1.03-4.56-2.98-8.86-5.75-12.62-.57-.78-1.89-.02-1.31.77,2.7,3.67,4.6,7.81,5.6,12.26.22.95,1.68.55,1.46-.4Z"/><path class="m" d="m216.88,65.41c-.99,1.35-2.75,1.86-4.32,1.37-.94-.29-1.34,1.18-.4,1.46,2.27.7,4.65-.17,6.04-2.07.58-.79-.74-1.55-1.31-.77Z"/><path class="m" d="m200.5,7.4c-3.37-1.32-7.16-.8-10.54.19-3.42,1-6.75,2.68-9.23,5.28-2.57,2.71-4.28,6.53-3.81,10.32.1.84.31,1.66.6,2.45-.09,1.14-.01,2.31.27,3.45,1.27,5.24,6.16,9.09,11.58,8.88,3.03-.12,5.94-1.39,8.06-3.57.68-.7-.42-1.74-1.1-1.04-4.4,4.51-11.98,3.96-15.54-1.27-.73-1.06-1.21-2.21-1.47-3.38.1.12.2.24.31.35.52,1.06,1.25,2.04,2.13,2.88,2.43,2.3,5.76,3.2,9.05,2.85,6.63-.71,13.14-5.65,15.54-11.88,2.19-5.69.22-13.15-5.83-15.51Z"/><path class="m" d="m266.15,19.54c-.87-2-2.16-3.77-3.72-5.28-3.18-4.91-8.68-8.29-14.68-8.01-7.2.33-13.65,5.57-14.41,12.91-.36,3.53.55,7.1,2.67,9.91,1.53,4.33,5.19,7.92,9.7,9.22,7.28,2.1,15.85-1.37,19.73-7.85,2.01-3.35,2.25-7.31.7-10.89Zm-29.06-5.88c-.26.3-.51.6-.74.92.56-1.03,1.27-1.99,2.12-2.83,4.67-4.59,12.05-5.19,17.55-1.78.13.08.25.16.37.24-6.49-2.82-14.4-2.11-19.3,3.45Z"/><path class="m" d="m246.37,110.63c-.19.29-.52.44-.86.35-5.1-1.29-10.23,1.9-15.31.51-4.41-1.2-6.42-5.8-6.17-10.07.28-4.7,2.73-8.83,5.41-12.55,2.91-4.05,6.11-7.88,8.12-12.49,2.18-5.01,3.08-10.51,2.7-15.95-.06-.94,1.34-.97,1.5-.1,2.04-.3,3.8-1.38,4.9-3.14.24-.39.86-.53,1.19-.15,2.68,3.03,4.72,6.53,6.13,10.32,5.48,14.71.65,30.65-7.62,43.27Z"/><path class="m" d="m257.2,69.35c-1.47-4.27-3.63-8.24-6.39-11.81-.6-.77-1.66.31-1.07,1.07,9.34,12.09,10.69,28.91,3.45,42.35-.97,1.8-2.08,3.54-3.33,5.16-1.23,1.6-2.87,3.37-5.07,3.14-.97-.1-.96,1.42,0,1.52,3.82.4,6.46-3.77,8.23-6.54,2.18-3.41,3.84-7.17,4.92-11.08,2.16-7.8,1.9-16.16-.74-23.81Z"/><line class="o" x1="231.66" y1="52.82" x2="238.88" y2="49.41"/><path class="n" d="m273.21,136.21c.02-.15,0-.31-.08-.47-.34-.71-1.21-.79-1.83-.46-.13.06-.26.14-.38.25-.62.58-.46,1.63.26,2.06.45.26.97.18,1.31-.12.34-.13.62-.39.74-.8.05-.16.03-.32-.02-.46Z"/><rect class="m" x="101.86" y="40.98" width="58.22" height="28.19" rx="3.52" ry="3.52"/><path class="m" d="m149.98,76.8c-4.89-1.52-8.75-5.57-10-10.54-.21-.83.88-1.24,1.32-.7,1.26-1.22,2.81-2.1,4.52-2.54.31-.42,1-.44,1.27-.05.44.29.54,1.01.06,1.27-.14,4.13,1.16,8.14,3.69,11.44.41.54-.27,1.3-.86,1.12Z"/><path class="g" d="m152.88,35.03c-8.11,8.54-15.63,17.63-22.5,27.19-.31.43-1.02.55-1.31,0-1.23-2.34-2.46-4.66-3.69-6.99-1.56-2.96-3.01-5.33,1.48-5.28.25,0,.55.14.66.38.84,1.86,1.67,3.72,2.51,5.58-.68-1.51,9.27-10.98,10.56-12.29,2.18-2.21,4.3-4.51,6.71-6.48,1.09-.9,2.31-1.94,3.61-2.53.32-.14,3.49-1.18,1.97.42Z"/><path class="n" d="m246.54,61.31c-1.32-.38-2.45-1.04-3.43-2-.29-.29-.78-.29-1.07,0l-3.45,3.41c-.1.1-.16.2-.19.31-.44.19-.72.79-.28,1.24,1.42,1.43,2.84,2.87,4.25,4.3.34.35.95.27,1.19-.15,1.15-2,2.29-4,3.44-5.99.25-.43.02-.98-.45-1.12Zm-3.8,5.48c-1.01-1.02-2.01-2.04-3.02-3.05.96-.95,1.92-1.9,2.88-2.84.79.66,1.67,1.19,2.62,1.57-.83,1.44-1.66,2.89-2.49,4.33Z"/><line class="o" x1="208.98" y1="55.88" x2="213.18" y2="55.47"/><path class="m" d="m217.74,51.61c-.44.2-.76.59-.8,1.1-.03.33.08.68.28.95.08.22.15.38.22.54.28.69,1.16.7,1.6.18.51-.37.78-1.01.71-1.59-.03-.23-.12-.45-.26-.64-.04-.12-.08-.24-.14-.35-.31-.64-1.16-.76-1.6-.18Z"/><path class="m" d="m244.09,42.29c-.44,3.65-2.73,6.43-5.1,9.08-.17.19-.49.27-.74.2-10.09-3.15-23.07-11.13-30.21-18.92-10.23,4.38-14.16,20.93-14.72,30.07.02.11.05.21.08.32.06.25,0,.47-.12.63,0,.28-.02.55-.02.83,0,.98-1.52.98-1.52,0,0-.55.02-1.09.05-1.64-1.85-7.95-1.3-16.47,2.1-23.94,5.47-12.03,18.74-20.09,31.98-17.21,6.32,1.37,12.28,5.12,15.7,10.68,1.8,2.93,2.92,6.45,2.5,9.91Z"/><path class="o" d="m209.79,55.86c0,5.26-4.26,9.52-9.52,9.52s-9.52-4.26-9.52-9.52,4.26-9.52,9.52-9.52,9.52,4.26,9.52,9.52Z"/><path class="m" d="m209.99,53.2c-.46-.86-1.73-.03-1.27.83,1.65,3.1.78,7.04-1.85,9.3-.74.64.39,1.65,1.12,1.02,3.18-2.72,3.95-7.49,2-11.14Z"/><path class="m" d="m204.84,53.63c-.46-.23-1.01.11-1.2.53-.18.41-.19.83-.07,1.22-.02.07-.04.15-.04.22-.07.57.16,1.03.57,1.41.13.12.29.17.46.17.09.03.19.04.28.04.22,0,.38-.07.53-.19.12-.06.22-.15.31-.27.14-.19.24-.4.28-.62.1-.33.12-.68.06-1-.14-.69-.55-1.2-1.17-1.52Z"/><path class="o" d="m231.84,54.42c0,5.26-4.26,9.52-9.52,9.52s-9.52-4.26-9.52-9.52,4.26-9.52,9.52-9.52,9.52,4.26,9.52,9.52Z"/><path class="j" d="m32.26,129.4h243.74c.46,0,.83.37.83.83v123.42c0,.46-.37.83-.83.83H32.26c-.46,0-.83-.37-.83-.83v-123.42c0-.46.37-.83.83-.83Z"/><path class="m" d="m276,130.23v123.42H32.26v-123.42h243.74Zm0-1.66H32.26c-.92,0-1.66.74-1.66,1.66v123.42c0,.92.74,1.66,1.66,1.66h243.74c.92,0,1.66-.74,1.66-1.66v-123.42c0-.92-.74-1.66-1.66-1.66h0Z"/><path class="m" d="m275.68,140.84H31.98c-.99,0-1,1.55,0,1.55h243.69c.99,0,1-1.55,0-1.55Z"/><rect class="m" x="32.11" y="130.06" width="244.06" height="10.96"/><path class="n" d="m106.01,174.26c7.02-1.2,13.32-5.36,17.26-11.31,4.19-6.34,4.11-14.32,1.74-21.5-.95-2.87-1.44-5.62-3.31-7.98-.97-4.34-4.76-7.6-8.91-9.08-2.79-.99-5.79-1.32-8.74-1.44-3.23-.14-6.47-.08-9.68.25-5.65.58-11.9,1.85-16.62,5.2-2.06,1.46-3.79,3.39-4.58,5.83-.92,2.82-.44,5.83-.7,8.73-.16,1.84-.84,3.35-1.75,4.93-.78,1.34-1.48,2.7-1.61,4.27,0,.04,0,.07,0,.11-.49-.25-1.21-.05-1.13.64.53,4.82,3.67,9.18,8.11,11.18,1.09.49,2.23.85,3.41,1.02.24.04.48.06.73.09.65.51,1.27,1.04,1.87,1.61.53,1.06,1.15,2.08,1.86,3.04.12.26.25.51.37.77,1.02,3.78,1.61,7.65,1.75,11.55-.12.12-.2.29-.21.5-.11,2.7-.22,5.4-.34,8.1-5.5,8.22-14.28,13.44-22.64,18.35-.27.16-.48.56-.36.87,1.8,4.66,6.41,7.18,11.12,8.01,5.15.9,10.69.7,15.86.04,4.96-.63,9.88-1.91,14.31-4.29,4.41-2.37,8.04-5.83,10.86-9.95,3.21-4.69,5.37-10.01,7.21-15.36.2-.6-.42-1.06-.95-.95-5.11.31-10.04.62-14.98.92-.41.03-.64.27-.72.57-.05,0-.11,0-.16.01,0-.43-.02-.86-.03-1.29.03-.08.06-.18.07-.28l.87-13.15Z"/><path class="m" d="m125.85,144.32c-1.54-4.67-4.41-8.71-7.26-12.67-.58-.8-1.92-.03-1.33.78,2.35,3.27,4.74,6.58,6.34,10.29,1.52,3.53,2.1,7.35,1.73,11.18-.73,7.44-5.17,14.02-11.78,17.49-3.63,1.9-7.71,2.79-11.8,2.56-.99-.06-.99,1.49,0,1.55,7.64.43,15.38-2.98,20.13-9,4.85-6.14,6.41-14.73,3.97-22.18Z"/><path class="m" d="m127.54,128.62c-.17-2.59-1.98-4.85-4.39-5.38,2.1-2.13,3.4-4.88,3.71-7.92.04-.39-.39-.8-.77-.77-5.69.46-11.4.08-16.97-1.12.72-1.21,1.32-2.54,1.21-3.97-.11-1.41-.91-2.87-2.31-3.34-1.81-.6-3.8.49-5.45,1.12-1.63.61-3.26,1.23-4.89,1.84-.03-.31-.12-.62-.28-.91-.64-1.16-2.11-1.41-3.29-1.01-1.48.5-2.34,1.84-3.32,2.97-1.05,1.2-2.22,2.29-3.45,3.3-4.86,3.98-10.68,6.71-15.09,11.25-8.76,9-9.64,23.22-3.89,34.02,3.04,5.72,7.71,10.49,13.18,13.92.73,1.22,1.57,2.36,2.51,3.42.04.28.27.51.56.61.94.98,1.46-1.26,1.57-1.76.64-2.74-.13-5.64-1.14-8.19-.47-1.2-.97-2.73-1.75-3.77-.65-.87-1.99-1.05-2.51-2.07-.3-.59-.98-.44-1.28-.02-.12.06-.22.15-.31.28-1.37,2.11-4.02,2.72-6.19,1.47-.12-.07-.24-.1-.35-.11-1.38-1.81-2.58-3.74-3.56-5.78.29-.14.48-.45.35-.85-1.01-2.98,1.83-5.14,4.29-6.03,2.39-.87,6.47-1.48,7.43,1.73.02.07.05.13.08.18.67,2.48,2.54,4.45,4.97,5.32.56.2,1.11-.42.95-.95-2.4-7.85-4.81-15.87-4.52-24.16,10.81-4.73,23.21-5.29,34.42-1.71-.02.11,0,.23.04.35.83,2.41,2.17,4.57,3.97,6.38.25.25.64.29.94.12,3.07-1.74,5.8-4.72,5.55-8.48Z"/><path class="m" d="m120.76,148.55c-3.45.19-6.43-1.98-7.26-5.34-.24-.96-1.73-.56-1.49.41.99,3.99,4.64,6.7,8.75,6.47.99-.05,1-1.6,0-1.54Z"/><path class="m" d="m113.88,155.26c-1.76-.03-3.35-.72-4.57-1.99-.69-.72-1.78.38-1.09,1.09,1.5,1.56,3.5,2.41,5.66,2.45.99.01.99-1.53,0-1.54Z"/><path class="m" d="m73.87,150.64c2.48-.99,5.34-.19,7.17,1.68.7.71,1.79-.38,1.09-1.09-3.67-3.75-10.09-3.26-12.73,1.43-2.52,4.48.39,10.56,5.66,10.92,2.7.19,5.39-1.29,6.69-3.66.48-.87-.86-1.65-1.33-.78-1.15,2.11-3.68,3.33-6.06,2.79-2.47-.56-4.35-2.99-4.4-5.5-.05-2.48,1.61-4.87,3.9-5.78Z"/><path class="m" d="m81.42,154.81c-2.3.42-4.63.56-6.96.46-.99-.04-.99,1.5,0,1.54,2.48.11,4.94-.07,7.38-.52.98-.18.56-1.67-.41-1.49Z"/><path class="m" d="m108.29,189.53c-2.56-.05-1.79-4.82-1.78-6.4.03-2.7.06-5.39.09-8.09.01-.99-1.53-1-1.54,0-.04,3.47-.08,6.93-.11,10.4-.02,2.31.33,5.58,3.35,5.64.99.02.99-1.53,0-1.54Z"/><path class="m" d="m86.37,184.76c-.11-3.82-1-7.6-.49-11.44.13-.98-1.42-.97-1.54,0-.8,5.99,2.28,12.88-.89,18.47-1.44,2.53-3.94,4.23-6.24,5.9-2.73,1.98-5.45,3.96-8.18,5.95-3.14,2.28-6.28,4.56-9.42,6.84-.8.58-.03,1.92.78,1.33,5.82-4.23,11.63-8.45,17.45-12.68,2.34-1.7,4.79-3.37,6.45-5.78,1.74-2.51,2.17-5.62,2.09-8.61Z"/><path class="m" d="m142.42,185.42c-12.05.35-24.1.7-36.15,1.06-.99.03-1,1.57,0,1.54,12.05-.35,24.1-.7,36.15-1.06.99-.03,1-1.57,0-1.55Z"/><path class="g" d="m189.76,212.99l-3.64,40.66H32.26v-22.83c1.14-1.93,2.48-3.7,4.04-5.24,14.34-14.15,25.57-16.62,25.57-16.62,0,0,20.74,7.65,40.32-2.59,19.59-10.24,19.78-21.13,19.78-21.13,0,0,8.77-.21,18.46.41.37.03.74.05,1.11.08.2.01.4.03.6.04,2.95.21,5.93.51,8.75.92.63.09,1.17.18,1.7.26,3.21.53,6.12,1.21,8.39,2.1,11.42,4.45,28.76,23.96,28.76,23.96Z"/><rect class="m" x="178.03" y="142.01" width="98.31" height="112.33"/><path class="n" d="m159.27,228.71c.86,3.76-1.26,8.03-5.07,9.23-2.16.68-4.41.19-6.2-1,.46,3.39.36,6.84-.29,10.22-.42,2.22-1.09,4.41-1.99,6.5h-27.4c.58-1.85,1.15-3.7,1.73-5.55,5.5-17.62,11-35.25,16.49-52.87.07-.23.21-.37.38-.46.96-2.49,2.11-4.9,3.46-7.2.37-.63.76-1.25,1.16-1.87,1.12-1.72,2.36-3.36,3.69-4.92.95-1.11,1.95-2.2,3.01-3.2.91-.86,1.96-1.67,3.23-1.88,2.36-.38,4.22,1.38,3.8,3.76-.05.31-.14.59-.25.86.2.24.28.56.07.85l-3.75,5.04c-.04.05-.09.1-.13.14-.07.11-.15.21-.22.32-4.74,6.95-8.39,14.61-10.82,22.67,3.62-2.02,6.76-5.7,10.72-6.46,1.1-.21,2.26-.2,3.52.14,1.84.49,3.15,1.77,4,3.35.46.85.79,1.79,1,2.74.47,2.13.38,4.38.66,6.55.04.31.09.61.15.92.65,1.16,1.03,2.44,1.16,3.75.25,2.6-.5,5.29-2.18,7.33-.05.06-.1.13-.16.19.1.28.18.56.25.85Z"/><path class="m" d="m160.99,226.5c-.11.18-.26.28-.42.33.04.21.08.43.1.64.51,3.9-.82,7.99-4.04,10.39-2.11,1.57-5.29,2.39-7.72,1.2.4,4.99-.42,10.01-2.3,14.59h-1.65c2.16-4.98,3.01-10.53,2.27-15.92-.56-.7-.82-1.55-.79-2.41-.8.35-1.48-.9-.67-1.39.49-.3.99-.61,1.48-.91.77-1.09,1.93-1.8,3.13-2.39l-.27-1.23c-.09-.41.12-.83.54-.95.39-.11.86.13.95.54l.29,1.29c.5.27.71,1.02.07,1.32-1.03.47-2.3,1.04-3.13,1.92-.2.21-.37.43-.5.67-.16.28-.27.6-.33.94-.04.23-.04.44,0,.65.07.5.33.92.69,1.26.5.48,1.21.8,1.88.95,2.9.65,5.92-1.37,7.35-3.78.96-1.61,1.42-3.57,1.34-5.49-.01-.35-.04-.7-.09-1.04-.13-.94-.39-1.86-.78-2.71-.59-1.26-1.49-2.42-2.78-3.03-1.7-.8-3.73-.43-5.52-.18-3.59.5-7.17,1.11-10.72,1.82-.97.2-1.38-1.3-.41-1.49,2.7-.54,5.41-1.02,8.12-1.44,2.34-.36,4.89-.97,7.26-.65,2.85.38,4.77,2.49,5.72,5.02.77-1.44,1.25-3.06,1.29-4.68.03-1.19-.17-2.38-.67-3.5-.18-.41-.39-.8-.64-1.17-1.35-2.04-3.6-3.32-6.13-3.25-3.33.09-6.66,1.85-9.57,3.33-2.94,1.48-5.74,3.2-8.42,5.12-.81.58-1.58-.76-.78-1.33,2.81-2.02,5.78-3.82,8.89-5.35,4.65-2.3,10.69-5.2,15.37-1.47.06.05.12.1.17.15-.09-2.18-.26-4.51-1.19-6.48-.33-.68-.74-1.32-1.28-1.9-1.65-1.77-4.01-2.11-6.23-1.58-.64.15-1.27.37-1.87.66-2.87,1.36-5.18,3.75-7.52,5.84-.17.15-.33.3-.5.44-.67.59-1.33,1.19-2,1.78-1.86,1.65-3.71,3.31-5.57,4.96-.74.66-1.84-.43-1.09-1.09,2.44-2.17,4.87-4.34,7.31-6.51,1.5-5.43,4.03-10.57,6.92-15.42,1.39-2.33,2.86-4.6,4.34-6.88.61-.94,1.23-1.88,1.83-2.82.93-1.44,2-3.07,1.93-4.86-.05-1.5-.96-3.06-2.61-3.05-1.7,0-3.19,1.43-4.33,2.53-1.25,1.21-2.39,2.54-3.41,3.95-.78,1.08-1.5,2.19-2.17,3.34-1.04,1.77-1.95,3.61-2.8,5.47-3.15,6.91-5.72,14.12-8.1,21.32-.58,1.74-1.14,3.48-1.68,5.23-2.29,7.4-3.94,14.97-6.24,22.35-1.42,4.55-3.04,9.04-4.66,13.52h-1.74c.1-.29.2-.58.3-.87,2.56-7.49,5.2-14.91,7.25-22.56,2.02-7.55,4.19-15.07,6.77-22.46,2.56-7.32,5.19-14.84,8.93-21.66.09-.16.17-.31.26-.47,1.67-2.96,3.65-5.77,6.08-8.15,2.04-2,5.48-4.54,8.17-2.09,2.56,2.34,1.38,6.02-.18,8.53-.62,1.01-1.27,2.01-1.91,3-1.56,2.4-3.15,4.78-4.61,7.23-2.43,4.07-4.62,8.34-6.14,12.83,2.48-2.22,5.05-4.63,8.33-5.53,3.07-.85,6.35-.19,8.41,2.36,2.25,2.78,2.46,6.43,2.58,9.84,0,.26-.09.45-.24.57,2.69,3.48,2.41,8.5.06,12.26Z"/><path class="i" d="m40.14,132.56c-1.47-.59-3.16-.1-4.05,1.21-.1.14-.14.29-.15.42-.09.1-.16.22-.2.39-.36,1.7.68,3.47,2.39,3.94,1.63.44,3.17-.63,3.68-2.16.51-1.53-.16-3.19-1.67-3.8Zm.08,3.16c-.17.65-.72,1.26-1.44,1.19-.87-.08-1.57-1.04-1.4-1.88.02-.08.02-.15.02-.23.06-.05.11-.11.16-.18.86-1.26,3.07-.5,2.66,1.09Z"/><path class="g" d="m48.98,137.01c-.49-.35-.96-.73-1.41-1.14.52-.55,1.03-1.09,1.55-1.64.68-.72-.41-1.82-1.09-1.09-.52.55-1.04,1.1-1.56,1.65-.36-.39-.7-.79-1.03-1.21-.61-.78-1.7.32-1.09,1.09.34.43.69.84,1.06,1.23-.37.39-.75.79-1.12,1.18-.68.72.41,1.82,1.09,1.09.38-.4.75-.8,1.13-1.19.53.48,1.1.93,1.69,1.35.81.58,1.58-.76.78-1.33Z"/><path class="i" d="m52.21,170.67c-2.14-.17-4.31,1.27-4.79,3.4-.09.4.11.71.4.86-.29.15-.49.45-.4.86.47,2.12,2.64,3.57,4.78,3.41,2.22-.17,3.71-2.09,3.72-4.26,0-2.17-1.48-4.1-3.7-4.27Zm-.24,6.99c-1.42.05-2.76-.9-3.07-2.29-.05-.22-.16-.36-.3-.45.14-.09.25-.23.3-.45.31-1.36,1.59-2.27,2.97-2.27,1.53,0,2.49,1.28,2.49,2.74,0,1.41-.92,2.67-2.39,2.72Z"/><path class="i" d="m36.79,187.07l-13.15-.46c-.92-.03-.98,1.27-.22,1.51,1.34,2.73,2.69,5.47,4.03,8.2.2.41.92.54,1.21.16,2.4-3.09,5.26-5.79,8.51-7.97.63-.42.4-1.41-.39-1.44Zm-8.51,7.44c-1.03-2.1-2.06-4.2-3.1-6.3,3.11.11,6.21.22,9.32.32-2.29,1.75-4.38,3.75-6.22,5.98Z"/><path class="i" d="m146.54,116.61c-2.2-.87-4.41-1.74-6.61-2.61-.09-.04-.18-.05-.26-.05-.46-.2-1.11.03-1.11.67.02,3.35.04,6.7.07,10.05,0,.65.85,1.04,1.32.55,2.31-2.44,4.62-4.88,6.93-7.32.43-.45.19-1.08-.34-1.29Zm-6.42-.89c1.62.64,3.25,1.28,4.87,1.93-1.61,1.7-3.22,3.4-4.83,5.1-.02-2.34-.03-4.68-.05-7.02Z"/><path class="n" d="m171.51,74.94c-1.34-.38-2.49-1.05-3.49-2.03-.3-.29-.79-.3-1.09,0l-3.51,3.47c-.1.1-.16.21-.2.32-.45.2-.73.8-.29,1.26,1.44,1.46,2.89,2.92,4.33,4.37.35.35.97.27,1.21-.16,1.17-2.03,2.33-4.06,3.5-6.1.25-.44.02-1-.46-1.13Zm-3.87,5.58c-1.02-1.04-2.05-2.07-3.07-3.11.98-.96,1.95-1.93,2.93-2.89.8.68,1.7,1.21,2.67,1.59-.84,1.47-1.68,2.94-2.53,4.41Z"/><path class="m" d="m99.36,142.89c-.67-.34-1.46.16-1.73.76-.27.59-.28,1.2-.1,1.76-.03.1-.05.21-.06.32-.1.83.23,1.48.82,2.04.18.17.42.24.66.25.14.04.28.05.41.05.31,0,.55-.1.77-.27.17-.09.32-.21.45-.39.21-.28.34-.58.41-.89.14-.47.17-.98.08-1.45-.2-1-.79-1.74-1.69-2.2Z"/><path class="m" d="m118.02,139.97c-.64.29-1.1.86-1.16,1.59-.04.48.11.98.4,1.38.12.31.22.55.31.78.41,1,1.68,1.01,2.31.26.74-.54,1.13-1.46,1.03-2.3-.04-.34-.18-.66-.38-.93-.05-.18-.12-.35-.2-.51-.45-.92-1.67-1.1-2.31-.26Z"/><circle class="j" cx="167.39" cy="152.31" r="15.68"/><path class="g" d="m167.39,169.29c-9.36,0-16.98-7.62-16.98-16.98s7.62-16.98,16.98-16.98,16.98,7.62,16.98,16.98-7.62,16.98-16.98,16.98Zm0-31.36c-7.93,0-14.38,6.45-14.38,14.38s6.45,14.38,14.38,14.38,14.38-6.45,14.38-14.38-6.45-14.38-14.38-14.38Z"/><rect class="m" x="163.1" y="143.97" width="2.32" height="6.92"/><rect class="m" x="169.37" y="143.97" width="2.32" height="6.92"/><path class="m" d="m167.39,163.11c2.36,0,4.29-1.93,4.29-4.29v-2.78h-8.58v2.78c0,2.36,1.93,4.29,4.29,4.29Z"/><path class="k" d="m223.17,246.94c.08-.04.11-.12.09-.2l-2.76-11.27c-.02-.08-.09-.14-.18-.14l-7.19.18c-.07,0-.13-.04-.16-.1-1.85-3.79-4.33-7.15-7.28-9.98-.05-.05-.07-.12-.05-.19l2.32-6.76c.03-.08,0-.17-.08-.21l-9.92-6.01c-.07-.04-.16-.03-.22.03l-4.89,5.15c-.05.05-.12.07-.19.05-.96-.33-1.93-.62-2.91-.86-.11-.03-.22.06-.22.17v36.67c0,.1.08.18.18.18h26.59c.09,0,.17-.07.18-.17.02-.24.03-.48.04-.72.04-.82.06-1.65.04-2.48,0-.07.04-.13.1-.16l6.52-3.19Z"/><path class="k" d="m255.45,209.57l6.79.28.72,4.11c.05.27.25.49.52.56,2.5.67,4.85,1.76,6.97,3.25.12.08.26.13.41.13.13,0,.25-.03.36-.1l3.61-2.11.27.29v37.16h-37.37l-1.65-1.8,2.48-3.53c.16-.23.17-.52.03-.76-1.28-2.2-2.17-4.59-2.63-7.09-.05-.27-.25-.49-.52-.56l-4.14-1.08.28-6.79,4.18-.73c.27-.05.49-.25.56-.52.65-2.49,1.73-4.82,3.19-6.94.16-.23.17-.52.03-.76l-2.13-3.64,5-4.6,3.43,2.41c.12.08.26.13.41.13.12,0,.25-.03.36-.1,2.24-1.31,4.67-2.2,7.22-2.66.27-.05.49-.25.56-.52l1.06-4.03Zm2.14,35.61c4.89,0,8.88-3.83,9.09-8.72.1-2.43-.75-4.75-2.4-6.54-1.65-1.79-3.89-2.83-6.32-2.93-.13,0-.26,0-.38,0-4.89,0-8.88,3.83-9.09,8.72-.1,2.43.75,4.75,2.4,6.54,1.65,1.79,3.89,2.83,6.32,2.93.13,0,.26,0,.38,0Z"/><path class="k" d="m257.13,180.64l7.58-1.66c.15-.03.26-.17.26-.32v-12.5c0-.15-.11-.29-.26-.32l-7.52-1.64c-.13-.03-.22-.13-.25-.25-.98-4.46-2.72-8.63-5.08-12.37-.07-.11-.07-.25,0-.35l4.13-6.43c.08-.13.07-.3-.04-.41l-1.54-1.54c-.06-.06-.15-.1-.23-.1h-64.32c-.18,0-.33.15-.33.33v64.55c0,.09.03.17.1.23l1.42,1.42c.11.11.28.13.41.04l6.62-4.25c.11-.07.24-.07.35,0,3.68,2.32,7.77,4.04,12.15,5.02.12.03.22.13.25.25l1.68,7.7c.03.15.17.26.32.26h12.5c.15,0,.29-.11.32-.26l1.68-7.7c.03-.12.12-.22.25-.25,4.37-.98,8.47-2.7,12.15-5.02.11-.07.24-.07.35,0l6.62,4.25c.13.08.3.07.41-.04l8.84-8.84c.11-.11.13-.28.04-.41l-4.22-6.58c-.07-.11-.07-.25,0-.35,2.36-3.69,4.11-7.81,5.11-12.21.03-.12.13-.22.25-.25Zm-16.15-7.69c-.35,11.56-9.66,20.87-21.22,21.22-12.59.38-22.97-10-22.58-22.58.35-11.56,9.66-20.87,21.22-21.22,12.59-.38,22.97,10,22.58,22.58Z"/><rect class="j" x="42.57" y="225.97" width="18.19" height="18.19" rx=".69" ry=".69"/><path class="m" d="m60.06,226.67v16.8h-16.8v-16.8h16.8Zm0-1.39h-16.8c-.77,0-1.39.62-1.39,1.39v16.8c0,.77.62,1.39,1.39,1.39h16.8c.77,0,1.39-.62,1.39-1.39v-16.8c0-.77-.62-1.39-1.39-1.39h0Z"/><path class="i" d="m69.41,222.08c-6.61,4.72-12.49,10.44-17.37,16.93-.16.21-.38.29-.59.27-.22.13-.5.12-.72-.13-1.65-1.9-3.3-3.79-4.95-5.69-.37-.42-.07-.97.32-1.1.62-.94,1.72-1.78,2.77-.85.58.51,1.02,1.28,1.48,1.9.27.36.55.73.82,1.09,3-4.85,6.68-9.26,10.94-13.05h7.57c.03.23-.05.47-.28.63Z"/><path class="n" d="m107.9,232.89h-41.14c-.83,0-.83,1.29,0,1.29h41.14c.83,0,.83-1.29,0-1.29Z"/><path class="n" d="m77.05,238.4h-8.81c-.83,0-.83,1.29,0,1.29h8.81c.83,0,.83-1.29,0-1.29Z"/><path class="n" d="m106.07,238.4h-23.87c-.83,0-.83,1.29,0,1.29h23.87c.83,0,.83-1.29,0-1.29Z"/><path class="g" d="m191.17,165.45c-.61-1.65-2.49-2.68-4.12-1.75-1.58.89-2.2,3.03-1.29,4.6.26.45.76.45,1.09.22.6.45,1.37.69,2.14.63,1.87-.14,2.81-2.01,2.19-3.69Zm-2.26,2.15c-.73.08-1.63-.4-1.63-1.19,0-.24-.09-.41-.22-.54.13-.27.32-.52.56-.71.79-.6,1.71-.11,2.07.71.32.72.11,1.63-.78,1.72Z"/><path class="g" d="m246.89,138.99c-3.15-.61-6.3-1.21-9.45-1.82-.16-.03-.3-.01-.42.03-.39.13-.63.43-.54.84,0,.11.04.21.09.31.98,3.03,2.5,5.81,4.5,8.29.24.3.85.3,1.09,0,1.69-2.12,3.39-4.24,5.08-6.36.33-.41.29-1.17-.34-1.29Zm-8.5-.07c2.3.44,4.6.89,6.9,1.33-1.23,1.54-2.45,3.07-3.68,4.61-1.35-1.82-2.43-3.81-3.22-5.93Z"/><polygon class="j" points="337.89 254.48 339.34 251 317.2 251 337.89 254.48"/><path class="q" d="m237.33,155.31s-3.91,4.86-2.16,14.54"/><path class="q" d="m230.51,172.27c-2.09-5.08-1.13-11.16-1.13-11.16"/><path class="r" d="m313.91,166.52s-3.59,19.87,30.35,31.91"/><rect class="i" x="287.12" y="195.41" width="91.1" height="58.33"/><path class="j" d="m287.12,200.37c.03.15.15.3.35.3h90.75v-.66h-90.82c-.16,0-.25.09-.28.21-.01.05,0,.1,0,.15Z"/><path class="j" d="m314.64,215.86c1-.45,2.18-.52,3.26-.66,1.2-.16,2.4-.25,3.6-.42.88-.12,1.89-.33,2.52-1.02.76-.84.62-2.1.48-3.13-.13-1-.36-1.97-.69-2.92-.07-.21-.15-.41-.22-.61-.07-.04-.14-.07-.22-.1-.53-.2-1.1-.29-1.64-.48-.5-.18-.98-.41-1.44-.67-.96-.55-1.82-1.28-2.53-2.13-1.42-1.68-2.25-3.83-2.24-6.03,0-.06.01-.1.04-.14-.05-1.97.53-3.95,1.7-5.54-.05-.1-.05-.21.05-.32,1.29-1.41,2.71-2.7,4.26-3.82.63-.46,1.29-.95,1.99-1.3.51-.26,1.21-.45,1.75-.16.76.41.54,1.26.5,1.95-.05.87.15,1.73.44,2.55.29.82.67,1.62,1.04,2.4.33.7.69,1.39,1.22,1.97.57.63,1.35.95,2.12,1.28.81.35,1.62.7,2.44,1.05.05-.02.1-.03.16-.04.13,0,.27.07.34.17.48-.14.98-.25,1.49-.26.68,0,1.36.15,1.94.5,2.03,1.22,1.66,4.08.18,5.59-1.39,1.42-3.7,1.53-5.21.27-.05.08-.11.16-.18.24-.09.1-.22.21-.35.29.08.54.16,1.08.23,1.63.24,1.65.38,3.36.85,4.97.38,1.3,1.02,2.63,2.27,3.29.06.03.11.08.14.13.1.03.2.05.29.08.98.23,1.98.38,2.97.56l3.16.59,6.33,1.18c.24.05.32.28.26.46.16.05.33.1.5.12.6.09,1.19-.1,1.78-.01.46.07.86.3,1.18.63.66.7.83,1.71.59,2.62-.28,1.05-1.03,1.91-1.8,2.64-.81.77-1.73,1.43-2.72,1.96-.97.52-2.01.9-3.09,1.14-1.26.28-2.57.35-3.86.42-2.62.13-5.24.1-7.86-.12-2.59-.21-5.18-.58-7.72-1.14-2.29-.5-4.57-1.19-6.54-2.49-1-.65-1.89-1.45-2.72-2.3-.41-.42-.8-.84-1.19-1.28-.36-.41-.8-.81-1.09-1.27-.61-.98.41-1.94,1.25-2.31Z"/><path class="m" d="m327.9,183.7c-5.36,0-9.93,3.32-11.79,8.02-.09.22-.17.45-.25.69,2.82-.23,5.38-1.82,7.51-3.64.51-.44,1.01-.89,1.51-1.35-.19,2.38.52,4.82,2.01,6.69,1.62,2.04,4.03,3.34,6.62,3.59,1.3.13,2.61.02,3.89-.2,1.16,1.11,1.55,2.92,1.07,4.44-.52,1.61-2,2.64-3.65,2.79-.9.08-1.83-.11-2.6-.6-.09-.06-.19-.07-.28-.05,0-.04-.01-.07-.02-.1-.06-.43-.72-.33-.66.09.1.7.22,1.39.37,2.08.01.06.04.11.07.14.1.68.3,1.34.59,1.96.21-.08.42-.16.62-.25,2.09-.9,3.89-2.35,5.21-4.16.28-.39.55-.79.78-1.21,1.05-1.85,1.66-3.99,1.66-6.27,0-7-5.67-12.67-12.67-12.67Z"/><path class="m" d="m327.02,206.73c-3.29.55-6.83-.68-9.08-3.16-1.11-1.22-1.86-2.71-2.14-4.34-.27-1.59-.12-3.24.42-4.76.61-1.7,1.7-3.21,3.2-4.23.36-.24-.05-.77-.41-.53-2.88,1.96-4.31,5.6-3.95,9.01.38,3.59,2.88,6.54,6.15,7.93,1.85.78,3.92,1.06,5.9.73.42-.07.33-.73-.09-.66Z"/><path class="m" d="m324.7,212.01c-.07-.82-.23-1.64-.36-2.45-.13-.87-.27-1.74-.4-2.61-.07-.42-.73-.33-.66.09.23,1.51.48,3.02.7,4.53.09.59.17,1.26-.1,1.83-.24.49-.72.75-1.23.89-.55.15-1.12.18-1.69.23-.74.06-1.48.15-2.21.25-1.47.21-2.93.51-4.36.89-.77.2-1.54.42-2.29.68-.57.2-1.16.5-1.37,1.11-.14.4.48.65.62.25.19-.55.9-.7,1.39-.86.71-.23,1.43-.43,2.16-.62,1.46-.37,2.93-.65,4.42-.85.73-.1,1.45-.16,2.18-.23.55-.05,1.1-.12,1.63-.31.52-.19.99-.52,1.27-1,.32-.55.36-1.2.31-1.82Z"/><path class="m" d="m351.79,217.49c-3.13-1.41-6.58-1.76-9.94-2.2-1.69-.22-3.38-.47-5.03-.91-.81-.22-1.67-.45-2.42-.83-.81-.41-.99-1.29-1.21-2.1-.55-2.05-.91-4.16-1.06-6.28-.03-.43-.69-.33-.66.09.14,1.94.45,3.87.93,5.76.2.81.36,1.77.88,2.45.51.68,1.42.94,2.19,1.19,3.36,1.1,6.91,1.27,10.38,1.84,1.96.32,3.89.78,5.7,1.6.39.18.64-.44.25-.62Z"/><path class="m" d="m338.91,202.63c-.2.44-.46.85-.78,1.21-.27.3-.59.57-.94.79-1.46.9-3.34,1.04-4.88.3-.04.74.04,1.49.27,2.2.09.3.21.6.34.88-.2.09-.41.17-.62.25-.56-1.21-.78-2.57-.61-3.9.04-.26.32-.36.53-.23.77.49,1.7.68,2.6.6,1.66-.15,3.14-1.18,3.65-2.79.48-1.51.09-3.33-1.07-4.44-1.29.22-2.59.33-3.89.2-2.58-.25-5-1.55-6.62-3.59-1.49-1.88-2.2-4.31-2.01-6.69-.5.46-1,.91-1.51,1.35-2.14,1.82-4.69,3.41-7.51,3.64.08-.23.16-.46.25-.69,3.55-.39,6.49-3.07,9.02-5.43.21-.19.58.03.53.3-.25,1.42-.17,2.89.26,4.27.73,2.32,2.39,4.25,4.58,5.32,2.19,1.07,4.6,1.05,6.94.63.02,0,.04-.01.07-.01.36-.06.71-.14,1.06-.22.42-.1.51.56.09.66-.17.04-.33.07-.5.11.56.66.92,1.45,1.08,2.31.19,1.01.06,2.05-.34,2.97Z"/><path class="m" d="m338.75,199.21c-.24-.66-.68-1.29-1.28-1.68-.67-.44-1.47-.52-2.25-.51-.9.02-1.84.19-2.58.73-.68.5-1.13,1.27-1.26,2.11-.07.42.59.5.66.08.1-.62.42-1.19.91-1.58.55-.44,1.24-.61,1.93-.66.67-.05,1.4-.04,2.02.27.52.26.91.75,1.15,1.27.96,2.13-.48,4.82-2.77,5.21-1.26.22-2.63-.18-3.51-1.12-.29-.31-.82.09-.53.41.95,1.01,2.32,1.52,3.7,1.42,1.38-.09,2.64-.87,3.36-2.05.71-1.16.93-2.61.46-3.9Z"/><path class="m" d="m336.1,199.93c-.02-.36-.52-.54-.73-.22-.02.03-.03.06-.04.09-.06,0-.11.02-.13.02-.14.02-.29.05-.43.07-.29.05-.58.09-.86.14-.58.09-1.15.19-1.73.28-.42.07-.33.73.09.66l2.97-.49c.33-.05.9-.09.87-.56Z"/><path class="m" d="m326.37,196.21c-.03-.31-.4-.35-.57-.17-.06-.05-.15-.08-.25-.06-.89.15-1.78.3-2.67.46l-1.31.22c-.35.06-.73.16-1.09.2-.12-.08-.27-.05-.38.02-.1.06-.14.16-.16.27-.01.07.01.17.06.24.32,1.41,2.21,1.87,3.47,1.67,1.34-.2,3.06-1.29,2.9-2.84Zm-1.53,1.59c-.43.32-.93.52-1.46.6-.82.12-2.19-.07-2.63-.89.19-.04.37-.09.53-.12.49-.08.98-.17,1.47-.25.96-.16,1.92-.33,2.89-.49.02,0,.04,0,.05-.01-.09.48-.48.89-.86,1.17Z"/><path class="m" d="m322.85,192.47c-.29-.31-.82.09-.53.41.76.81-.81,1.91-1.39,2.27-.37.22.04.75.41.53.59-.36,1.19-.83,1.55-1.42.34-.54.43-1.28-.04-1.78Z"/><circle class="m" cx="339.68" cy="184.42" r="7.7"/><path class="n" d="m376.82,253.74h-31.24c-.12.09-.24.19-.36.28-.12.09-.24.18-.36.28h-16.64c.07-.19.15-.38.25-.56h-41.35s0-5.99,0-5.99c3.68-6.87,9.4-17.33,12.58-22.29.39-.61.75-1.14,1.06-1.57.95-1.33,2.07-2.45,3.25-3.4.25-.2.5-.4.76-.58,4.54-3.33,9.63-4.24,9.63-4.24,0,0,2.6,6.37,16.34,6.45,13.74.08,16.95-5.93,16.95-5.93,0,0,8.4,1.65,14.12,6.68,5.72,5.03,9.34,17.19,12.2,24.01,1.78,4.25,2.52,6.09,2.82,6.87Z"/><path class="j" d="m354.83,250.64c-.44-2.1-.88-4.2-1.34-6.29-.44-1.98-.95-3.96-1.78-5.82-.17-.39-.79-.13-.61.26.82,1.84,1.33,3.79,1.76,5.75.45,2.06.88,4.13,1.32,6.19.09.42.75.33.66-.09Z"/><path class="j" d="m304.45,219.03c-.32,1.3-.29,2.63-.46,3.96-.08.61-.18,1.21-.31,1.81-.06.3-.14.6-.21.9-.06.23-.09.5-.23.69-.16.22-.39.27-.64.34-.23.06-.45.18-.67.27-.54.23-1,.24-1.56.1-.59-.15-1.17-.14-1.77-.1-.64.04-1.27.06-1.91.08-1.23.02-2.47,0-3.7-.07-.64-.04-1.28-.09-1.91-.15-.55-.06-1.13-.08-1.66-.23-.44-.12-.81-.44-.81-.93,0-.31.1-.64.15-.94.05-.29.11-.58.16-.87.44-2.37.89-4.75,1.33-7.12,0-.05,0-.1.01-.15.23-.7-.57-1.18-1.1-1.39-.72-.29-1.47-.52-2.2-.78-2.7-.95-5.42-1.85-8.1-2.85-1.26-.47-2.47-1.01-3.64-1.68-.8-.46-1.57-.98-2.33-1.51-.07.02-.15.02-.23-.02-.83-.39-1.58-.93-2.21-1.59-.05,0-.11-.03-.17-.07-.69-.57-1.46-1.27-1.45-2.24,0-.69.43-1.42,1.17-1.51.91-.1,1.7.75,2.38,1.23,1.28.91,2.63,1.71,4.04,2.41-.7-1.16-1.35-2.36-1.93-3.59-.37-.78-.75-1.58-1.04-2.4-.28-.79-.47-1.64-.28-2.48.02-.11.08-.24.2-.27.25-.07.5-.09.74-.04.22-.62.66-1.12,1.26-1.43.4-.2.86-.32,1.29-.45.29-.09.59-.18.88-.28.03-.02.08-.04.12-.06l.5-.14c.16-.04.29.06.34.19.47.13.9.43,1.26.78.56.55,1.01,1.21,1.48,1.84.51.69,1,1.39,1.45,2.12.44.72.84,1.46,1.17,2.23.25.57.48,1.15.79,1.68.03.02.06.04.08.07.3.38.65.72,1.03,1.02.21.14.41.28.62.42.24.14.49.27.75.37.95.38,1.98.6,3,.78-.27-.71-.82-1.28-1.4-1.76-.75-.62-1.57-1.16-2.27-1.83-.61-.58-1.11-1.25-1.3-2.09-.12-.54-.09-1.13.21-1.61.27-.43.77-.68,1.28-.7,1.2-.07,2.03.77,2.71,1.65.68.87,1.42,1.59,2.36,2.18,1.81,1.15,3.88,1.77,5.75,2.8.95.52,1.84,1.13,2.59,1.92.71.74,1.25,1.62,1.76,2.51.2.19.4.39.61.58.19.09.37.21.53.35.36.24.7.52.95.9.38.54.59,1.17.7,1.81.09.49.11.99.11,1.49.18,1.3.05,2.56-.27,3.84Z"/><path class="m" d="m303.5,210.72c-.41-.43-.88-.76-1.39-1.04-.93-1.66-2.47-2.96-4.1-3.96-2.12-1.31-4.48-2.2-6.52-3.65-.51-.36-1-.76-1.44-1.19-.46-.45-.86-.95-1.32-1.38-.44-.41-1.01-.76-1.6-.9-.49-.12-1.01-.09-1.48.16-1.05.56-1.14,1.88-.79,2.9.31.89.93,1.62,1.6,2.26.21.2.44.4.67.6.64.54,1.32,1.08,1.87,1.69-.07-.02-.14-.04-.21-.07-.54-.18-1.12-.37-1.67-.61-.61-.27-1.19-.6-1.66-1.05-.89-.86-1.27-2.15-1.83-3.22-.59-1.15-1.28-2.25-2.05-3.29-.7-.94-1.49-2.06-2.58-2.58-.87-.41-2.01-.3-2.59.49-1.1-.4-2.16.57-2.34,1.63-.5-.12-1.03.19-1.26.64-.31.6-.12,1.31.04,1.93.55,2.18,1.61,4.12,2.92,5.9-.91-.6-1.81-1.2-2.72-1.79-.62-.41-1.23-.85-1.88-1.22-.53-.3-1.18-.49-1.76-.2-.93.47-1.13,1.65-.77,2.55.42,1.04,1.38,1.86,2.25,2.52,1.96,1.47,4.31,2.43,6.54,3.4,3.16,1.38,6.39,2.59,9.67,3.66.97.31,1.94.62,2.92.9-.4,2.05-.81,4.09-1.21,6.14,0,0-.69,3.5-.69,3.5l-1.02,5.17v3.44c.47-2.38.94-4.75,1.4-7.13.1-.49.19-.99.29-1.48.62-3.15,1.24-6.3,1.86-9.45.55.16,1.1.31,1.65.46.41.11.5-.55.09-.66-1.78-.48-3.55-1.01-5.3-1.58-.87-.29-1.74-.58-2.61-.89-2.3-.82-4.57-1.72-6.81-2.69-2.07-.9-4.24-1.79-6.09-3.1-.84-.59-1.78-1.33-2.25-2.26-.21-.42-.31-.89-.13-1.34.16-.4.49-.69.94-.64.57.06,1.1.51,1.56.82.54.36,1.08.71,1.62,1.07,1.08.71,2.16,1.42,3.24,2.13.09.06.19.07.27.05,1.29,1.55,2.73,2.98,4.14,4.37.3.3.71-.23.41-.53-.87-.86-1.74-1.73-2.58-2.63-1.45-1.56-2.83-3.22-3.87-5.08-.51-.91-.94-1.88-1.26-2.88-.16-.51-.33-1.05-.37-1.59-.02-.36.18-1.07.68-.82.02,0,.04.02.06.02.13,1.12.87,2.13,1.45,3.07.77,1.25,1.53,2.5,2.3,3.75.7,1.14,1.36,2.31,2.14,3.4.69.96,1.51,1.83,2.57,2.37.38.2.64-.42.26-.62-1.06-.55-1.84-1.48-2.5-2.45-.66-.98-1.26-2-1.88-3.01-.68-1.11-1.36-2.22-2.04-3.32-.33-.54-.68-1.08-1-1.63-.28-.48-.55-1-.63-1.55-.07-.5.03-.97.37-1.35.26-.29.64-.49,1.03-.37-.23.92.25,1.94.68,2.72.69,1.26,1.38,2.52,2.08,3.78.61,1.12,1.2,2.25,1.86,3.34,1.07,1.77,2.49,3.54,4.63,3.97.42.08.51-.58.09-.66-.47-.09-.91-.26-1.32-.5-1.78-1.04-2.8-3.05-3.76-4.79-.67-1.21-1.33-2.42-2-3.64-.33-.6-.66-1.2-.99-1.79-.25-.46-.49-.94-.61-1.45-.1-.47-.09-1,.29-1.35.37-.33.94-.36,1.39-.22.52.16.95.54,1.31.93.4.44.78.91,1.14,1.38.76,1.01,1.45,2.08,2.04,3.2.54,1.03.92,2.2,1.65,3.12.64.82,1.56,1.31,2.5,1.7.14.06.27.11.41.16.7.27,1.41.5,2.13.7.29.08.58.16.86.23.19.05.38.09.56.14,2.46.59,4.98.97,7.43,1.62,1.05.28,2.15.58,3.12,1.07.12.06.23.12.35.19.23.13.45.28.64.45.65.54,1.12,1.25,1.42,2.06.43,1.16.5,2.42.42,3.65-.09,1.32-.29,2.64-.47,3.96,0,.04-.01.08-.02.13-.21,1.61-.42,3.23-.63,4.84-.51,3.86-1.01,7.72-1.52,11.58-.06.43.6.52.66.09.09-.69.18-1.39.27-2.08.38-2.88.75-5.77,1.13-8.65.04-.31.08-.63.12-.94.25-1.85.5-3.7.74-5.56.09-.68.17-1.35.25-2.03.29-2.43.3-5.25-1.5-7.15Zm-3.17-1.77c-1.25-.41-2.52-.72-3.8-1-2.15-.47-4.33-.83-6.45-1.41-.76-1.14-1.96-1.98-2.98-2.9-.11-.1-.21-.19-.31-.29-.59-.57-1.12-1.23-1.37-2.03-.15-.48-.19-1.04.05-1.5.24-.47.74-.65,1.24-.61.14.01.27.04.4.07.95.27,1.6,1.18,2.26,1.86.83.86,1.79,1.56,2.82,2.18,1.99,1.2,4.17,2.06,6.09,3.37,1.01.69,1.98,1.51,2.72,2.5-.22-.08-.45-.16-.67-.24Z"/><path class="n" d="m304.06,225.46l-3.33,28.28h-13.62s0-24.13,0-24.13c.61-2.49,1-4.1,1.02-4.16,0,0,15.93,0,15.93,0Z"/><path class="j" d="m303.76,225.56c-.14,2.54-.3,5.09-.49,7.63-.32,4.5-.71,8.99-1.15,13.48-.23,2.36-.49,4.72-.75,7.07h-.67c.05-.41.1-.83.14-1.24.5-4.48.94-8.97,1.31-13.46.38-4.51.69-9.03.95-13.55.02-.43.69-.35.66.08Z"/><path class="j" d="m311.93,187.83c-.11.06-.23.11-.35.16.05-.06.11-.11.21-.14.05-.02.1-.02.14-.02Z"/><path class="m" d="m309.11,190.88c-1.66-1.73-3.49-3.35-5.63-4.46-.97-.5-1.99-.88-3.06-1.09.76-.25,1.57-.38,2.38-.36.42,0,.51-.65.08-.66-1.45-.03-2.88.32-4.14,1.05-.23.13-.27.39-.07.57.55.53,1,1.15,1.33,1.83.19.39.75.15.61-.26-.18-.52-.36-1.04-.53-1.55,2.05.37,3.91,1.39,5.56,2.66.91.7,1.76,1.48,2.57,2.3.83.83,1.63,1.7,2.29,2.68.73,1.08,1.25,2.34,1.09,3.66-.05.43.61.5.66.08.29-2.56-1.49-4.71-3.14-6.44Z"/><path class="k" d="m362.27,196.61c.67.13,1.42-.31,1.55-1,.12-.66-.37-1.34-1.08-1.42-.62-.24-1.32.19-1.51.82-.21.71.33,1.46,1.04,1.6Zm-.41-1.36c.05-.3.39-.56.68-.42.07.03.13.04.18.03.29.05.51.36.44.66-.08.3-.43.48-.73.44-.32-.04-.63-.37-.58-.71Z"/><path class="m" d="m376.54,223.1c0,1,.01,2,.02,3,0,.21.27.36.45.27.95-.45,1.88-.94,2.8-1.46.24-.14.12-.47-.07-.57-.91-.49-1.77-1.06-2.56-1.72-.23-.19-.49,0-.52.23-.06.06-.11.15-.11.26Zm.66.39c.55.42,1.13.81,1.73,1.16-.56.31-1.14.61-1.71.89,0-.68,0-1.36-.01-2.05Z"/><path class="i" d="m301.76,203.24c.51-.49.98-1.01,1.43-1.56.27-.33.8.07.53.41-.48.6-1,1.16-1.56,1.69-.31.3-.71-.24-.4-.53Z"/><path class="i" d="m302.2,201.71c.51.54,1.05,1.05,1.62,1.53.33.28-.08.81-.41.53-.61-.52-1.19-1.07-1.75-1.66-.29-.31.24-.71.53-.4Z"/><path class="m" d="m319.48,192.08c-.25-.12-.54.06-.64.28-.1.22-.1.44-.04.65-.01.04-.02.08-.02.12-.04.31.08.55.3.75.07.06.15.09.24.09.05.01.1.02.15.02.12,0,.2-.04.28-.1.06-.03.12-.08.17-.14.08-.1.13-.21.15-.33.05-.17.06-.36.03-.53-.07-.37-.29-.64-.62-.81Z"/><path class="g" d="m346.21,249.66c-17.1-23.46-44.63-55.02-78.69-72.19-20.3-10.23-33.47-10.47-33.6-10.47l.03-6.27c.58,0,14.42.17,35.9,10.89,19.54,9.75,49.52,30.56,81.43,74.34l-5.07,3.69Z"/><rect class="l" x="192.22" y="152.15" width="25.29" height="5.51" rx="2.3" ry="2.3" transform="translate(23.83 -27.28) rotate(8.09)"/><rect class="l" x="194.11" y="160.59" width="25.29" height="5.51" rx="2.3" ry="2.3" transform="translate(25.04 -27.46) rotate(8.09)"/><path class="n" d="m233.66,150.6c-1.87-.27-19.76-2.81-21.62-3.07-2.43-.35-5.17,4.77-6.11,11.42-.95,6.65.26,12.33,2.69,12.67,1.59.23,20.03,2.85,21.62,3.07,2.43.35,5.17-4.77,6.11-11.42.95-6.65-.26-12.33-2.69-12.67Z"/><path class="g" d="m237.85,153.52c-1.52-.22-2.19-.31-3.7-.53-1.97-.28-4.19,3.87-4.96,9.26-.77,5.39.21,9.99,2.18,10.27l3.7.53c1.97.28,4.19-3.87,4.96-9.26.77-5.39-.21-9.99-2.18-10.27Z"/><path class="j" d="m330.56,153.94c.84,2.42-.21,5.01-1.09,7.26-.94,2.4-2.14,4.9-4.49,6.21-2.12,1.19-4.27.81-6.36-.22-1.06-.52-2.09-1.16-3.24-1.49-1.21-.35-2.49-.33-3.71-.06-4.57,1.04-7.89,4.67-12.12,6.44-.8.46-1.71.75-2.7.81-.05,0-.11,0-.15,0-1.87.99-3.86,1.75-5.93,2.25.26.27.49.58.66.92.85,1.66.18,3.57-1.15,4.75-3.24,2.87-7.37.63-10.12-1.71-1.73-1.46-3.42-2.59-5.75-2.7-2.28-.11-4.49.55-6.61,1.31-2.1.75-4.47,2.03-6.76,1.85-.98-.08-1.92-.51-2.53-1.21.52.14-.59-2.91-.07-2.75.16.05,1.64-2.13.79-2.3.61-.72,1.34-1.36,1.99-1.89,1.73-1.4,3.78-2.35,5.95-2.82-.24-.51-.45-1.06-.58-1.64-3.82.74-7.25-2.45-7.94-6.15-.74-4,1.03-7.65,3.12-10.95-2.55,1.16-4.83,2.88-6.68,4.98-.7,1.12-1.34,2.28-1.92,3.46-1.27,2.79-2.12,5.76-2.49,8.8-.25,1.98-.3,3.98-.14,5.98.02.25-.11.54-.33.67-2.71,1.66-5.65-.28-6.86-2.82-.34-.71-.61-1.46-.81-2.23-.52-1.96-.65-4.07-.56-6.02.14-2.74.78-5.44,1.94-7.93.97-2.07,2.28-3.96,3.86-5.58.01-.2.1-.4.29-.55,6.03-4.75,13.02-9.95,20.82-10.43.08-.04.17-.06.28-.07,14.08-.36,28.19,1.44,41.73,5.34.11.03.2.08.28.14,2.4.52,6.77,1.18,9.08,2.05,2.4.91,2.72,2.07,4.94,3.36,2.07,1.2,4.53,2.55,5.36,4.94Z"/><path class="m" d="m323.84,145.65c-10.36-2.99-20.89-5.62-31.51-7.47-9.94-1.73-20.36-2.39-30.08.83-8.65,2.86-16.26,8.9-19.42,17.64-1.39,3.86-1.87,8.03-1.06,12.08.4,2.03,1.12,4.18,2.74,5.57,1.41,1.2,3.59,1.64,5.26.69,2.01-1.15,1.98-3.56,1.91-5.58-.08-2.34.22-4.64.92-6.88,1.2-3.82,3.51-7.24,6.59-9.78-.26.59-.5,1.2-.7,1.83-.94,2.92-1.2,6.34.3,9.13,1.23,2.29,3.79,3.91,6.44,3.54.14-.02.26-.07.36-.15.08.32.17.64.29.95-2.45.65-4.67,1.96-6.38,3.87-1.59,1.78-3.26,4.87-1.49,7.09,1.95,2.45,5.27.95,7.65.21,3.34-1.04,7.54-1.66,11.06-1.8,1.97,2.84,4.82,5.01,8.25,5.43,2.56.31,5.28-.64,6.8-2.7.09-.06.18-.14.25-.25.2-.3.34-.63.44-.97.07-.17.09-.29.09-.39.2-1.17-.16-2.4-1.05-3.26-.03-.03-.07-.07-.11-.1,4.94-.44,9.59-2.59,13.17-6.06.14-.13.2-.28.21-.42,2.96-.46,5.84-1.35,8.56-2.86.02.3.2.58.57.68,5.4,1.43,10.8,2.87,16.2,4.3.95.25,1.25-1.24.31-1.49-5.39-1.43-10.77-2.86-16.16-4.29.09-.54-.55-1.17-1.19-.79-7.67,4.58-16.89,3.55-25.35,2.38.53-.64-.26-1.73-.97-1.14-2.03,1.68-2.88,4.35-2.09,6.89.07.22.21.37.37.44.75,1.41,2.15,1.99,3.61,2.56.8.31,1.72.67,2.18,1.44.31.51.34,1.08.2,1.62-1.04,2.18-3.53,3.23-5.89,2.91-2.62-.36-4.96-2.06-6.6-4.06-3.42-4.17-4.26-10.03-1.96-14.93,1.21-2.57,3.12-4.71,5.54-6.2.83-.51-.02-1.77-.85-1.26-4.79,2.95-7.79,8.46-7.5,14.08-2.24,3.14-6.04.46-6.68-2.17-.61-2.51.22-5.23,1.12-7.57,1.74-4.55,4.59-8.65,8.26-11.86.73-.63-.11-1.9-.85-1.26-4.32,3.77-7.57,8.6-9.35,14.07-.57,1.75-1,3.69-.87,5.56-.07-.01-.15-.02-.24,0-2.52.36-4.68-1.46-5.46-3.76-.87-2.56-.36-5.51.62-7.97,1.77-4.46,5.4-8.07,9.91-9.75.91-.34.43-1.78-.49-1.44-3.36,1.25-6.27,3.47-8.39,6.3-.06.04-.11.08-.16.12-.31.29-.62.58-.92.87-6.49,4.18-10.35,11.71-10.08,19.4.06,1.81.13,4.38-2.3,4.49-2.33.1-3.64-2.09-4.24-4.04-1.17-3.8-.89-7.97.27-11.73,2.62-8.48,9.72-14.49,17.89-17.43,9.16-3.29,19.05-2.91,28.52-1.39,11.21,1.8,22.32,4.61,33.22,7.76.94.27,1.24-1.22.31-1.49Zm-37.79,26.05c-.33-1.26-.14-2.6.5-3.71,5.21.73,10.65,1.43,15.91.98-3.52,2.88-8.81,4.77-13.32,5.05-1.17-.44-2.34-.9-2.81-1.99-.07-.15-.17-.26-.28-.34Zm-12.01-.48c.33,1.6.93,3.21,1.76,4.71-2.53.15-5.5.54-7.83,1.08-1.3.3-2.57.67-3.83,1.1-1.18.4-2.46.95-3.73.66-3.09-.72-1.03-4.43.23-5.85,1.56-1.75,3.68-2.99,5.97-3.51,1.6,2.22,4.94,3.81,7.43,1.82Z"/><path class="n" d="m321.99,168.66s3.14-3.17,2.49-10.16c-1.01-10.8-7.16-14.75-7.16-14.75l23.92,4.86s4.02,4.08,2.8,12.71c-1.23,8.63-3.95,12.37-3.95,12.37l-18.09-5.02Z"/><path class="g" d="m253.66,171.56s9.58,2.76,27.3,13.75c0,0-2.94-5.92-6.02-11.18-.49-.83-.9-2.9-.9-2.9,0,0-1.1,1.28-3.06.8s-2.52-.83-4.37-2.62c0,0-11.29-4-12.75-4.5s-1.96,5.98-.2,6.65Z"/><polygon class="m" points="309.09 253.74 340.57 260.98 376.54 257.36 401.08 228.87 351.06 226.4 339.34 250.08 308.31 250.08 309.09 253.74"/><path class="n" d="m373.88,242.23c-1.09-2.13-4.71-3.19-7.34-2.11-2.72,1.12-3.51,4.08-1.81,6.01.22.25.53.35.84.35,1.13.88,2.74,1.38,4.39,1.14,3.02-.44,5.06-3.16,3.91-5.39Zm-4.13,3.85c-2.19.42-3.98-1.32-3.73-2.88.02-.11,0-.2-.02-.29.2-.49.58-.93,1.14-1.25,1.51-.86,3.92-.32,4.77.94.9,1.33-.32,3.13-2.16,3.48Z"/><path class="j" d="m174.67,132.13c.91.77,1.76,1.62,2.52,2.54.11.13.23.17.4.14,1.09-.22,2.21-.22,3.3,0,.31.06.58-.39.29-.6-.5-.36-1.01-.72-1.51-1.08.84-.36,1.61-.85,2.31-1.46.24-.21-.01-.58-.28-.57-.65.02-1.3.04-1.95.06-.31,0-.63.05-.93.03-.3-.02-.13.02-.12-.15,0-.11.15-.27.2-.37.6-1.09,1.2-2.19,1.8-3.28.16-.3-.23-.64-.5-.44-1.24.89-2.49,1.78-3.73,2.67.46-2.77.92-5.54,1.39-8.31.07-.45-.55-.55-.68-.13-.77,2.44-1.75,4.8-2.91,7.07-.36-1.04-.83-2.04-1.4-2.99-.17-.29-.69-.13-.63.21.11.75.08,1.5-.1,2.23-.48-.39-.96-.78-1.44-1.17-.25-.2-.69.03-.56.37.17.42.27.85.3,1.3-.48-.24-1-.41-1.53-.51-.25-.05-.48.2-.39.45.55,1.58,1.29,3.33,3.04,3.84,1.02.3,2.08.12,3.13.15Z"/><path class="j" d="m372.89,205.16c-.75.63-1.5,1.27-2.25,1.9l-1.3-1.45c-.73-.81-1.91.39-1.19,1.19l1.21,1.34c-.55.47-1.11.94-1.66,1.4-.83.7.37,1.89,1.19,1.19.53-.45,1.06-.9,1.59-1.35l1.52,1.69c.73.81,1.91-.39,1.19-1.19l-1.43-1.59c.77-.65,1.54-1.3,2.31-1.96.83-.7-.37-1.89-1.19-1.19Z"/><path class="n" d="m118.82,67.16c-1.01-2.26-4.33-3.39-6.74-2.24-2.5,1.19-3.23,4.34-1.67,6.39.2.27.49.37.78.37,1.04.93,2.52,1.47,4.04,1.21,2.78-.47,4.65-3.36,3.59-5.73Zm-3.79,4.09c-2.01.45-3.65-1.4-3.42-3.07.02-.11,0-.21-.02-.3.18-.52.53-.99,1.05-1.33,1.39-.92,3.6-.34,4.38,1,.83,1.41-.3,3.32-1.98,3.7Z"/><path class="j" d="m61.79,129.71c-2.18.81-4.6.06-6.8.53,1.24,1.5,1.06,3.93-.5,5.34-1.95,1.76-4.45,1.58-6.78.86,1.37,2.14,2.18,4.64.81,7.04-.61,1.07-1.71,1.76-2.86,1.97.44.66.76,1.39.86,2.22.18,1.58-.48,3.26-2.02,3.89-.99.4-2.06.3-3.09.14-1.2-.18-2.4-.42-3.58-.68-1.93-.43-3.84-.95-5.72-1.56.6,2.58.92,5.23.91,7.89,0,2.47-.01,5.56-1.25,7.79-.47.86-1.22,1.56-2.19,1.79-1.11.27-2.21-.19-3.22-.59-2.85-1.12-5.7-2.25-8.54-3.37-2.73-1.08-5.46-2.15-8.19-3.23-2.34-.92-5.24-1.63-7.16-3.34-1.54-1.37-2.26-3.86-.79-5.55,1.22-1.39,3.33-1.55,5.05-1.4,4.94.41,9.9,1.6,14.63,3.14-1.23-2.55-2.92-4.92-3.45-7.74-.48-2.57.15-5.44,2.3-7.01-.44-.98-.52-2.07-.31-3.12-.45-3.54,2.54-6.65,6.17-6.46,0-.13,0-.28-.02-.44-.09-.69-.29-1.36-.32-2.05-.05-1.39.54-2.75,1.38-3.83,1.77-2.28,4.63-3.45,7.45-3.66,6.42-.48,12.67,3.91,16.79,8.44.12.14.18.3.19.46.6.36,1.22.69,1.86.99,1.13-2.31,2.51-4.6,5.01-5.6,2.25-.89,4.95-.16,5.96,2.16.96,2.21-.53,4.22-2.59,4.98Z"/><path class="m" d="m65.31,130.91c-.54-2.18.17-4.47-.49-6.64-.52-1.73-1.85-3.05-3.71-3.16-3.52-.21-6.41,2.93-7.85,6-2.49-2.86-5.78-5.24-8.99-7.05-3.86-2.17-8.79-3.87-13.17-2.27-3.93,1.43-7.08,5.54-6,9.84-1.15.12-2.27.44-3.26,1.16-2.77,2-3.29,5.27-2.69,8.36.04.21-1.4,1.95-1.57,2.32-.42.93-.68,1.94-.75,2.96-.24,3.15,1.6,6.61,3.12,9.28-1.28-.43-2.57-.84-3.87-1.22-2.7-.79-5.46-1.56-8.25-2.02-1.97-.33-4.3-.46-6.03.73-1.73,1.19-2.2,3.37-1.49,5.29.86,2.33,2.99,3.64,5.18,4.56,5.69,2.37,11.55,4.4,17.31,6.58,6.23,2.36,12.45,4.72,18.68,7.08v-1.64c-10.05-3.81-20.09-7.61-30.14-11.42-2.4-.91-5.05-1.64-7.25-3.01-1.71-1.06-3.55-3.55-2.08-5.54,1.18-1.6,3.68-1.42,5.41-1.14,2.49.41,4.96,1.09,7.38,1.77,2.17.61,4.31,1.29,6.43,2.05.87.31,1.74.63,2.6.97,2.67,1.03,5.29,2.18,7.86,3.44.89.43,1.67-.9.78-1.33-3.34-1.63-6.76-3.09-10.25-4.36-1.25-.45-2.99-5.69-3.45-7.04-.85-2.51-.35-5.37,1.53-7.29.05-.05.09-.11.13-.16.19-.32.6-.36.67-.78.03-.21-.02-.42-.08-.62-.33-1.18-.86-2.05-.52-3.29.29-1.02.89-2.02,1.64-2.77,2.42-2.4,6.08-.97,8.92-.22,3.01.79,6.01,1.64,8.87,2.87.51.22,1.03.46,1.55.71,2.21,1.06,4.41,2.4,5.97,4.23,1.03,1.21,1.75,2.94,1.17,4.52-.47,1.31-2.25,2.34-3.51,1.35-.04-.03-.08-.05-.12-.08-.06-.12-.17-.23-.34-.31-1.05-.47-2.11-.93-3.17-1.37-5.3-2.19-10.78-3.92-16.39-5.16-.97-.21-1.38,1.27-.41,1.49,5.75,1.27,11.37,3.05,16.8,5.33,2.41,1.01,6.75,4.54,3.28,7.09-.95.69-2.11.77-3.28.6-1.12-.16-2.24-.53-3.19-.79-4.79-1.32-9.59-2.63-14.38-3.95-.96-.26-1.37,1.22-.41,1.49l7.64,2.1c-.06.25.02.52.2.74.58.73,1.17,1.46,1.75,2.19.26.33.82.27,1.09,0,.32-.32.26-.76,0-1.09-.34-.43-.68-.85-1.03-1.28,2.72.78,5.49,1.77,8.28,2.11,2.43.29,4.84-.55,5.78-2.92.59-1.48.31-3.08-.57-4.3,1.9-.22,3.56-1.99,3.68-4.14.08-1.36-.33-2.57-1.01-3.65,1.02.22,2.09.22,3.23-.1,1.63-.46,3-1.61,3.51-3.25.3-.98.25-1.99-.01-2.96-.28-1.02-.8-2-1.38-2.85-.11-.15-.22-.31-.33-.46,1.02-2.66,3.62-6.12,6.76-5.82,1.71.16,2.34,1.83,2.46,3.32.15,1.8-.19,3.57.25,5.35.06.22.17.07.32.16.22.13.54.12.78,0,.3-.15.49-.16.39-.57Zm-10.91.87c.65,1.68.55,3.36-1.41,4.4-2.75,1.45-5.85-.22-7.77-2.27-.98-1.04-1.54-2.34-2.58-3.3-1.1-1.01-2.48-1.71-3.95-2-1.48-.29-3.03-.17-4.43.41-.23.09-.37.26-.45.45-.25-.07-.5-.14-.75-.21-1.96-.54-4.27-1.38-6.5-1.56.06-.13.07-.3.03-.48-.82-3.24,1.49-6.37,4.34-7.7,3.52-1.65,7.76-.52,11.08,1.1,3.44,1.68,6.58,4,9.27,6.7.45.46.99,1.04,1.5,1.71.03.05.06.09.1.13.61.81,1.18,1.72,1.54,2.63Z"/><rect class="m" x="30.58" y="149.63" width="1.77" height="64.52"/><polygon class="j" points="46.94 206.81 32.36 206.81 32.36 150.75 46.94 156.06 46.94 206.81"/><circle class="j" cx="73.37" cy="86.34" r="20.62"/><path class="h" d="m73.37,107.85c-11.86,0-21.51-9.65-21.51-21.51s9.65-21.51,21.51-21.51,21.51,9.65,21.51,21.51-9.65,21.51-21.51,21.51Zm0-41.24c-10.88,0-19.74,8.85-19.74,19.74s8.85,19.74,19.74,19.74,19.74-8.85,19.74-19.74-8.85-19.74-19.74-19.74Z"/><path class="h" d="m75.99,87.73c-.36-.27-.87-.2-1.14.16l-1.17,1.53-.38.05-2.83-2.1-.06-.38,1.1-1.49c.28-.38.2-.93-.17-1.21l-.13-.1c-.13-.1-.3-.14-.46-.12h0c-.16.02-.31.11-.4.24l-1.42,1.89h-.03s-.9-.66-.9-.66c-.38-.29-.93-.21-1.21.18l-2.05,2.75c-1.63,2.19-1.47,5.24.37,7.25l.09.1-1.52,2.05c-.2.27-.03.92.24,1.13h0c.44.23.99.13,1.31-.26.61-.72,1.5-1.79,1.5-1.79l.12.06c1.14.55,2.4.7,3.66.44,1.36-.29,2.61-1.12,3.51-2.34l1.92-2.59c.28-.38.2-.93-.18-1.21l-.71-.53-.05-.38,1.14-1.54c.26-.35.19-.86-.16-1.12h0Zm-2.01,4.45c.01.09,0,.18-.06.25l-1.36,1.83c-.63.85-1.59,1.43-2.65,1.59s-2.13-.11-2.99-.75c-1.55-1.15-2.06-3.21-1.23-5,.11-.24.26-.45.39-.63l1.37-1.84c.06-.07.14-.12.22-.13s.18,0,.25.06l5.93,4.4c.07.05.12.13.13.22Z"/><path class="h" d="m82.77,73.75h0c-.42-.31-1.01-.22-1.32.19l-1.45,1.94-.11-.05c-.61-.3-1.27-.5-1.95-.55-2.06-.16-3.94.71-5.12,2.3l-2.22,2.99c-.18.24-.13.59.11.77l8.26,6.14c.12.09.27.12.41.1s.27-.09.36-.22l2.24-3c1.63-2.19,1.47-5.24-.37-7.25l-.09-.1,1.44-1.95c.31-.42.22-1.01-.2-1.32Zm-1.37,6.63c.16,1.06-.11,2.13-.75,2.99l-1.42,1.92c-.07.1-.23.12-.33.05l-6.1-4.53c-.1-.08-.13-.22-.05-.33l1.36-1.83c.54-.73,1.23-1.25,1.99-1.5.24-.08.48-.14.73-.17,1.06-.16,2.12.1,2.99.75.87.64,1.43,1.58,1.59,2.65Z"/></g></svg>