<?xml version="1.0" encoding="utf-8"?>
<!-- Generator: Adobe Illustrator 27.4.1, SVG Export Plug-In . SVG Version: 6.00 Build 0)  -->
<svg version="1.1" id="Layer_1" xmlns="http://www.w3.org/2000/svg" xmlns:xlink="http://www.w3.org/1999/xlink" x="0px" y="0px"
	 viewBox="0 0 77.41995 64.96649" style="enable-background:new 0 0 77.41995 64.96649;" xml:space="preserve">
<style type="text/css">
	.st0{fill:#52A5AE;}
	.st1{fill:#F05C5E;}
	.st2{fill:#FFFFFF;}
	.st3{fill:#1B1749;}
	.st4{fill:#F0EE9F;}
	.st5{fill:#FFC5FF;}
</style>
<polyline class="st0" points="32.86758,2.06368 19.59341,13.02365 15.99596,9.49499 16.08864,7.91302 25.70008,1.39133 "/>
<g>
	<path class="st1" d="M20.12847,38.94387c0,4.00124,0.90283,7.79096,2.51616,11.17746
		c0.17942,0.37605,0.36695,0.74729,0.56357,1.1128c1.47649,2.74965,3.43238,5.20361,5.75669,7.24848
		c0.03059,0.02729,0.06169,0.05402,0.09228,0.08083c0.15888,0.13875,0.31964,0.27563,0.48182,0.41052
		c0.98084,0.81528,2.02334,1.55975,3.11902,2.22477c0.35448,0.21577,0.71428,0.42248,1.07983,0.62101
		c0.46983,0.25546,0.94827,0.49708,1.43486,0.72389c0.11861,0.05549,0.23825,0.11054,0.35881,0.16413
		c0.03635,0.01625,0.07321,0.03253,0.11003,0.0483c0.01628,0.00814,0.03209,0.01482,0.04834,0.02201
		c0.15265,0.06701,0.3057,0.13255,0.45978,0.19662c1.97599,0.82343,4.07444,1.40952,6.26191,1.72435
		c1.02097,0.14733,2.06156,0.23535,3.11799,0.25978c0.15697,0.00381,0.31435,0.00623,0.47225,0.00719
		c0.04977,0.00048,0.09994,0.00048,0.14975,0.00048c0.08469,0,0.1689-0.00048,0.25311-0.00095
		c0.14447-0.00143,0.2885-0.00433,0.43249-0.00814c4.17299-0.10765,8.10198-1.19805,11.56352-3.04864
		c0.18423-0.09808,0.36699-0.19908,0.54879-0.30141c3.67735-2.08129,6.79776-5.03134,9.08278-8.57137
		c0.07464-0.11531,0.14785-0.2311,0.2201-0.34784c0.15023-0.24016,0.29613-0.48274,0.43777-0.72818
		c0.07749-0.1335,0.15356-0.26744,0.2282-0.40238c0.28802-0.51864,0.55885-1.04778,0.81148-1.58704
		c1.10661-2.36304,1.86878-4.92028,2.22139-7.60629c0.02296-0.17366,0.04405-0.34828,0.06364-0.52337
		c0.00861-0.07849,0.01676-0.15698,0.0249-0.23543c0.0201-0.19809,0.03777-0.3971,0.05358-0.59658
		c0.05359-0.6813,0.08087-1.36983,0.08087-2.065c0-3.81224-0.81961-7.43311-2.29225-10.69564
		c-0.21771-0.4823-0.44929-0.95642-0.69517-1.42192c-2.47835-4.70169-6.35375-8.5527-11.07458-10.99947
		c-0.46649-0.24258-0.94156-0.47078-1.4243-0.68417c-1.72864-0.76694-3.5558-1.35018-5.45811-1.7267
		c-0.19427-0.03829-0.38943-0.07464-0.58558-0.1086c-1.45929-0.25406-2.96069-0.38661-4.49263-0.38661
		c-0.78561,0-1.56312,0.03492-2.33098,0.10288c-0.17513,0.01581-0.34975,0.03301-0.52341,0.05215
		c-0.53493,0.05835-1.06501,0.13251-1.58942,0.22296c-0.14638,0.02534-0.29187,0.05164-0.43682,0.07893
		c-3.11703,0.59137-6.03749,1.73913-8.65407,3.33574c-0.11726,0.07126-0.23304,0.14352-0.3488,0.21672
		c-0.79137,0.49998-1.55355,1.04158-2.28411,1.62191c-0.0995,0.07845-0.19853,0.15789-0.2966,0.23877
		c-3.23242,2.64339-5.81743,6.04992-7.47954,9.94399c-0.05072,0.11766-0.10002,0.23587-0.14883,0.35455
		c-0.26073,0.63726-0.49708,1.28698-0.70808,1.94867c-0.04497,0.14113-0.08854,0.28278-0.13108,0.42486
		c-0.31102,1.03777-0.55884,2.1023-0.73922,3.18977c-0.02487,0.14883-0.04782,0.29763-0.07031,0.44738
		c-0.1134,0.76603-0.19332,1.54299-0.23873,2.32956c-0.01243,0.22391-0.02252,0.4483-0.02971,0.67415
		C20.13279,38.38264,20.12847,38.66253,20.12847,38.94387z"/>
</g>
<rect x="7.50587" y="2.11389" class="st2" width="36.38351" height="25.92161"/>
<g>
	<path class="st1" d="M66.89642,24.80151c1.02342,1.12436,2.01905,2.27406,2.98551,3.44672
		c-0.21771-0.4823-0.44929-0.95642-0.69517-1.42192c-2.80848-3.29551-5.84369-6.39729-9.07996-9.27559
		c-0.65688-0.58422-1.32142-1.1588-1.99462-1.72388c-0.46649-0.24258-0.94156-0.47078-1.4243-0.68417
		C60.32594,18.10043,63.74061,21.33421,66.89642,24.80151z"/>
</g>
<g>
	<path class="st1" d="M50.64419,13.30738c0.67122,0.80619,1.33862,1.61476,2.00273,2.42667
		c4.11413,5.02987,8.10007,10.16452,11.95251,15.39824c2.53861,3.44863,5.01843,6.9408,7.4403,10.47316
		c0.0201-0.19809,0.03777-0.3971,0.05358-0.59658c-0.74204-1.07987-1.4894-2.15545-2.24245-3.22762
		c-3.70797-5.27722-7.54988-10.46021-11.51906-15.54323c-2.32332-2.97594-4.69116-5.91693-7.10203-8.82205
		C51.0355,13.37769,50.84034,13.34134,50.64419,13.30738z"/>
</g>
<g>
	<path class="st1" d="M61.05507,30.00225c3.77498,3.99214,7.40971,8.11628,10.89611,12.362
		c0.02296-0.17366,0.04405-0.34828,0.06364-0.52337c-1.33008-1.61528-2.68121-3.2128-4.05431-4.79213
		c-4.90502-5.6423-10.07844-11.05162-15.49587-16.20348c-2.81662-2.67787-5.69878-5.28631-8.64406-7.82162
		c-0.17513,0.01581-0.34975,0.03301-0.52341,0.05215c0.53489,0.45883,1.06788,0.92051,1.59848,1.38462
		C50.52407,19.38169,55.91855,24.56993,61.05507,30.00225z"/>
</g>
<g>
	<path class="st1" d="M41.27093,13.37769c1.00809,1.16166,2.0119,2.32621,3.00943,3.49646
		c2.69221,3.1587,5.34089,6.35518,7.90392,9.6201c2.55438,3.25348,5.02268,6.57627,7.35847,9.99046
		c2.31279,3.38067,4.49501,6.85222,6.49253,10.42812c0.9267,1.65976,1.81373,3.34245,2.65484,5.04714
		c0.07749-0.1335,0.15356-0.26744,0.2282-0.40238c-1.01953-2.05349-2.10464-4.07444-3.24621-6.06236
		c-2.05877-3.58694-4.29934-7.06806-6.6662-10.45882c-2.35537-3.37447-4.83658-6.65996-7.39577-9.8823
		c-2.59319-3.26587-5.26863-6.46616-7.98381-9.63106c-0.63729-0.74351-1.27697-1.4846-1.91859-2.22429
		C41.56137,13.32411,41.41587,13.3504,41.27093,13.37769z"/>
</g>
<g>
	<path class="st1" d="M55.16356,37.23918c2.99553,3.22611,5.8566,6.57762,8.57225,10.04301
		c1.47649,1.88411,2.90897,3.80315,4.29644,5.75379c0.07464-0.11531,0.14785-0.2311,0.2201-0.34784
		c-1.66688-2.33674-3.39791-4.62797-5.19066-6.86997c-2.77114-3.4673-5.68964-6.81734-8.74305-10.03924
		c-3.04152-3.20844-6.21691-6.2896-9.51583-9.23301c-3.29792-2.94194-6.71879-5.74466-10.25071-8.401
		c-0.64111-0.48226-1.28651-0.95975-1.93524-1.43149c-0.11726,0.07126-0.23304,0.14352-0.3488,0.21672
		c1.11189,0.80714,2.21278,1.62958,3.30317,2.46592c3.50841,2.69221,6.90247,5.53465,10.17171,8.51246
		C49.01171,30.88543,52.15556,33.99913,55.16356,37.23918z"/>
</g>
<g>
	<path class="st1" d="M22.05898,29.08937c1.75399,0.9932,3.46829,2.05778,5.14184,3.18162
		c3.03239,2.03629,5.93083,4.26725,8.71539,6.63029c2.80554,2.38028,5.4968,4.89354,8.10675,7.48673
		c2.61137,2.59553,5.14184,5.27197,7.62782,7.98762c2.27696,2.48645,4.51654,5.00735,6.74989,7.53312
		c0.18423-0.09808,0.36699-0.19908,0.54879-0.30141c-0.0962-0.19475-0.19328-0.3895-0.29041-0.58371
		c-1.83343-3.65919-3.8228-7.23843-5.93318-10.74398c-2.11041-3.50702-4.34193-6.9408-6.65948-10.31479
		c-2.33388-3.39743-4.75527-6.7346-7.23263-10.02915c-2.45638-3.26587-4.96723-6.49011-7.50536-9.69231
		c-0.44738-0.5646-0.89564-1.12821-1.34446-1.69134c-0.0995,0.07845-0.19853,0.15789-0.2966,0.23877
		c0.76452,0.95832,1.52622,1.91808,2.2855,2.88025c2.55919,3.24335,5.08679,6.51208,7.55417,9.82673
		c2.43716,3.27354,4.81553,6.59204,7.10346,9.97223c2.29412,3.38837,4.49784,6.83891,6.57619,10.36456
		c1.82433,3.09364,3.55056,6.24467,5.15813,9.45601c-2.44626-2.7645-4.90169-5.52126-7.40633-8.2331
		c-2.50941-2.71708-5.06816-5.38919-7.71442-7.97375c-2.62857-2.56832-5.34422-5.04997-8.17757-7.39152
		c-2.80994-2.32233-5.73608-4.50884-8.79528-6.49294c-1.32912-0.86219-2.68407-1.68511-4.0634-2.46449
		C22.15709,28.85248,22.10779,28.97069,22.05898,29.08937z"/>
</g>
<g>
	<path class="st1" d="M21.21981,31.4629c1.07888,1.19658,2.15299,2.397,3.22039,3.60366
		c4.66769,5.27531,9.20957,10.67407,13.35723,16.3719c3.14722,4.32417,6.06236,8.82348,8.60723,13.52708
		c0.14447-0.00143,0.2885-0.00433,0.43249-0.00814c-1.10998-2.06306-2.29126-4.08783-3.53379-6.07435
		c-3.72323-5.9528-7.97614-11.55776-12.45964-16.95509c-3.07735-3.70511-6.26668-7.31398-9.49283-10.88992
		C21.30593,31.17917,21.26236,31.32082,21.21981,31.4629z"/>
</g>
<g>
	<path class="st1" d="M23.72442,51.21213c-0.35881-0.36457-0.71861-0.72818-1.0798-1.0908
		c0.17942,0.37605,0.36695,0.74729,0.56357,1.1128c2.03915,2.06548,4.052,4.15722,6.03796,6.27387
		c1.1464,1.22195,2.28363,2.45201,3.41184,3.69073c0.35448,0.21577,0.71428,0.42248,1.07983,0.62101
		C30.47579,58.21322,27.13719,54.67609,23.72442,51.21213z"/>
</g>
<g>
	<path class="st1" d="M37.12955,53.48476c2.8936,3.75532,5.6657,7.60152,8.40001,11.47406
		c0.15697,0.00381,0.31435,0.00623,0.47225,0.00719c-1.1248-1.59371-2.25587-3.18357-3.3989-4.76437
		c-3.85339-5.33033-7.84554-10.57076-12.19076-15.51264c-3.10988-3.53617-6.40495-6.91586-9.93155-10.03634
		c-0.02487,0.14883-0.04782,0.29763-0.07031,0.44738c1.29417,1.1497,2.55775,2.33575,3.79119,3.55199
		C28.87683,43.26133,33.12446,48.28743,37.12955,53.48476z"/>
</g>
<g>
	<path class="st1" d="M20.14185,38.10376c0.30192,0.4827,0.60381,0.965,0.90569,1.44773
		c3.01948,4.828,6.03939,9.65549,9.05887,14.48302c1.80852,2.89122,3.61657,5.78247,5.4251,8.67325
		c0.03635,0.01625,0.07321,0.03253,0.11003,0.0483c0.01628,0.00814,0.03209,0.01482,0.04834,0.02201
		c0.15265,0.06701,0.3057,0.13255,0.45978,0.19662c-0.57748-0.92286-1.15498-1.84627-1.73246-2.76967
		c-3.01944-4.82753-6.03892-9.65501-9.05887-14.48302c-1.72861-2.76399-3.45769-5.52845-5.18677-8.2924
		C20.15913,37.65351,20.14904,37.8779,20.14185,38.10376z"/>
</g>
<g>
	<path class="st2" d="M50.56068,34.31172c0.5643,2.05708,2.00871,3.84965,3.9072,4.81956
		c0.05894,0.83311,0.11792,1.66618,0.17755,2.49929c0.01478,0.20847,0.18599,0.29547,0.33622,0.26392
		c0.10387,0.22244,0.23792,0.4337,0.40076,0.62816c0.15859,0.18951,0.48567,0.03158,0.47933-0.19864
		c-0.03228-1.23806,1.64095-1.3658,2.50912-1.48933c0.89348-0.12705,1.67462-0.44848,2.23397-1.17981
		c0.46954-0.61411,0.7222-1.41143,0.65134-2.18556c-0.02175-0.23862-0.07438-0.46744-0.15158-0.6864
		c0.40986-1.82976,0.48285-3.72961,0.20631-5.59939c-0.31861-2.15182-1.08647-5.06453-3.38639-5.8815
		c-2.27615-0.8078-4.7347,0.73346-6.0647,2.50351C50.47856,29.6444,49.94866,32.08332,50.56068,34.31172z"/>
</g>
<path class="st3" d="M43.69801,2.30524V27.8442H7.69732V2.30524H43.69801L43.69801,2.30524z M44.08073,1.92248h-0.38272H7.69732
	H7.31453v0.38276V27.8442v0.38272h0.38279h36.00068h0.38272V27.8442V2.30524V1.92248L44.08073,1.92248z"/>
<g>
	<path class="st3" d="M22.10985,14.25404c0.07244,3.13963,1.84252,5.83412,3.84815,8.11713
		c1.10136,1.25408,2.27212,2.44864,3.41958,3.66029c1.16401,1.2287,2.29596,2.50091,3.51069,3.67991
		c0.52224,0.50727,1.08585,0.98601,1.723,1.34468c0.66043,0.37263,1.38403,0.58382,2.13498,0.67441
		c0.78209,0.09367,1.57343,0.05589,2.35548-0.01764c0.7676-0.07192,1.53979-0.15371,2.29908-0.28773
		c1.38194-0.24328,2.7861-0.80326,3.48795-2.09926c0.2976-0.54967,0.43729-1.18627,0.30999-1.80482
		c-0.11854-0.57759-0.48189-1.06307-0.9032-1.45955c-0.43784-0.41247-0.93936-0.75048-1.37563-1.16507
		c-0.49125-0.46634-0.76034-1.00094-0.94563-1.64689c-0.1404-0.48905-0.25894-0.99951-0.50306-1.44722
		c0.02025,0.00568,0.04137,0.00777,0.06261,0.00583c0.37865,0.50753,0.53779,1.21458,0.75627,1.77783
		c0.2966,0.76456,0.7862,1.59158,1.6624,1.74607c0.26099,0.04599,0.37205-0.35309,0.11007-0.39926
		c-1.0593-0.18672-1.34845-1.4287-1.66332-2.28466c-0.29778-0.80975-0.77391-1.60314-1.53913-2.04971
		c-0.54054-0.31542-1.16225-0.45358-1.74067-0.68006c-0.15496-0.0607-0.30988-0.13196-0.45607-0.21694
		c-0.01713-0.12635-0.01973-0.25754-0.01163-0.38863c0.0304-0.49004,0.17733-0.96639,0.24834-1.45111
		c0.06899-0.47129,0.10416-0.95037,0.05142-1.42522c-0.10383-0.93503-0.55059-1.63182-1.2912-2.19246
		c-0.69799-0.5284-1.57878-1.01338-1.52993-2.01787c0.02681-0.55158,0.2808-1.07591,0.49712-1.57368
		c0.18907-0.43495,0.35833-0.87312,0.47075-1.33481c0.21331-0.8762,0.26048-1.79158,0.15015-2.68598
		c-0.22057-1.78821-1.04517-3.49143-2.38747-4.70536c-0.06073-0.05487-0.13046-0.06499-0.19233-0.04779
		c-0.36988-0.39728-0.7847-0.75389-1.24048-1.05849c-0.22259-0.14858-0.42959,0.21063-0.2091,0.35763
		c0.36281,0.24269,0.69873,0.52015,1.00615,0.82864c-0.44823-0.07145-0.90987-0.04504-1.35759,0.05744
		c-1.49784,0.34208-2.60188,1.45228-3.65457,2.49625c-0.99427,0.987-2.08738,1.84568-3.16703,2.73487
		c-1.03311,0.8509-2.04498,1.7582-2.78819,2.88183C22.45659,11.38725,22.07618,12.8059,22.10985,14.25404z M38.48219,17.87234
		c-0.07446,0.46345-0.23121,0.99218-0.25285,1.4989c-0.01661-0.01687-0.0329-0.03411-0.04878-0.05164
		c-0.24372-0.49822-0.1916-1.0966-0.11861-1.63919c0.08902-0.65992,0.222-1.3307,0.08799-1.99418
		c-0.05194-0.25699-0.1503-0.4955-0.2775-0.71883c0.01845,0.01882,0.03733,0.03704,0.05534,0.05637
		C38.63377,15.7836,38.63714,16.90767,38.48219,17.87234z M35.73855,11.0565c0.18012-0.7251,0.54553-1.3881,0.73911-2.1096
		c0.15734-0.58485,0.23546-1.19302,0.23854-1.79756c0.00444-0.77762-0.11322-1.55311-0.34044-2.29416
		c0.36974,0.93856,0.54762,1.95457,0.51215,2.96923c-0.0344,0.98378-0.30024,1.88723-0.69011,2.78438
		c-0.21386,0.49202-0.42538,1.02757-0.46572,1.55663C35.63949,11.816,35.64154,11.44692,35.73855,11.0565z"/>
</g>
<g>
	<path class="st0" d="M16.50812,12.09603c0.51809,1.11743,1.21062,2.16088,1.88811,3.18724
		c0.60505,0.91662,1.2634,1.82081,2.08789,2.55372c0.8597,0.76445,1.87671,1.27888,3.0076,1.49732
		c1.22199,0.23598,2.47299,0.18269,3.70841,0.11953c0.1408-0.00723,0.27951-0.17649,0.17913-0.31157
		c-0.5683-0.76188-1.1361-1.52424-1.70389-2.2866c-0.2841-0.38096-0.56775-0.7624-0.85189-1.14332
		c-0.24225-0.32452-0.51501-0.64595-0.68996-1.01393c-0.39383-0.8271,0.15426-1.62261,0.72-2.20434
		c0.52319-0.5383,1.08273-1.02999,1.37669-1.738c0.00726-0.01713,0.01034-0.03367,0.01243-0.04973
		c0.39233-0.08227,0.80223,0.05953,1.20802,0.22204c1.78718,0.71633,3.88904,0.40942,5.32321-0.91196
		c1.37989-1.27015,1.90418-3.34146,1.35088-5.12395c-0.00983-0.03261-0.02689-0.05956-0.04761-0.08127
		C34.02693,4.2776,33.91877,3.7481,33.7542,3.23363c0.10713,0.02795,0.21426,0.0585,0.32034,0.09162
		c0.01555,0.00466,0.03055,0.00829,0.04504,0.00983l-0.36126-0.52895c-0.00462-0.00723-0.00932-0.01449-0.01295-0.02124
		c-0.05688-0.01859-0.1144-0.03671-0.17183-0.05435c-0.02329-0.05795-0.04654-0.11538-0.07145-0.17286
		c-0.07915-0.18529-0.30277-0.10871-0.36178,0.04449c-1.06718-0.30016-2.17896-0.48237-3.25916-0.16662
		c-1.03615,0.30277-1.88294,0.9891-2.65975,1.72197c-0.27331,0.05949-0.55591,0.05586-0.84936-0.05641
		c-0.77017-0.29455-1.30015-0.99687-2.10395-1.23699c-0.68219-0.20396-1.37779,0.04141-1.71467,0.68057
		c-0.34938,0.66095-0.26759,1.4016-0.11645,2.10447c0.18008,0.83377,0.35191,1.64326-0.10512,2.42069
		c-0.36383,0.61954-0.98961,1.07554-1.6697,1.2934c-1.59929,0.51241-3.26429-0.35866-4.40556-1.44143
		c-0.10816-0.10299-0.30951-0.06525-0.34571,0.0911C15.5879,9.40569,15.91707,10.82181,16.50812,12.09603z"/>
</g>
<g>
	<defs>
		<path id="SVGID_1_" d="M7.69732,5.41585v22.42831h24.83074c-0.19864-1.20086-0.57905-2.3996-1.26615-3.33519
			c-2.42348-3.30079-3.90371-5.37896-3.90371-5.37896s-3.6622,0.37964-7.00095-2.77305
			c-3.82926-3.61731-4.1486-5.31932-4.36129-6.86198c-0.16633-1.20365,0.09268-1.58197,0.09268-1.58197
			s-2.43331-1.97152-5.14599-2.62421C9.79868,5.01366,8.70795,5.01722,7.69732,5.41585z"/>
	</defs>
	<use xlink:href="#SVGID_1_"  style="overflow:visible;fill:#F0EE9F;"/>
	<clipPath id="SVGID_00000078742697962789972420000009894803073621310090_">
		<use xlink:href="#SVGID_1_"  style="overflow:visible;"/>
	</clipPath>
</g>
<g>
	<path class="st0" d="M7.69732,14.06402v4.29186c0.07156,0.06385,0.1565,0.11718,0.25615,0.1572
		c0.57905,0.23301,1.15876-0.28215,1.17068-0.8626c0.01192-0.53618-0.32987-0.92641-0.74325-1.20857
		c0.20425-0.13897,0.4085-0.27794,0.61272-0.41621c0.09686-0.06594,0.20704-0.13196,0.31373-0.20422
		c0.25688-0.15019,0.50042-0.32638,0.72851-0.52712c0.23374-0.20565-0.02875-0.52638-0.27863-0.4604
		c-0.10878-0.23862-0.35305-0.43304-0.6099-0.53625C8.78376,14.15179,8.11771,13.87525,7.69732,14.06402z"/>
</g>
<g>
	<path class="st3" d="M26.63021,10.09972c1.53231,0.97905,3.56027,1.02464,5.16645,0.18448
		c1.68669-0.88218,2.6164-2.67112,2.56704-4.55175c-0.02755-1.05057-0.36526-2.09816-1.01261-2.93215
		c-0.21888-0.28208,0.17568-0.68226,0.39703-0.39706c1.28236,1.65225,1.5201,3.9339,0.68681,5.84442
		c-0.83567,1.9161-2.75911,3.08054-4.81637,3.18382c-1.14651,0.05751-2.30271-0.2278-3.27174-0.84694
		C26.04323,10.39056,26.3245,9.90441,26.63021,10.09972z"/>
</g>
<g>
	<path class="st4" d="M38.77641,27.86331c0.01823,0.97208-0.04423,1.94415-0.19446,2.9071
		c-0.02102,0.1368,0.01757,0.23301,0.12918,0.31652c0.72502,0.54604,1.323,1.23035,1.78057,2.01289
		c0.13123,0.22461,0.55309,0.14601,0.52287-0.14175c-0.05194-0.50111-0.10456-1.00296-0.1565-1.50411
		c0.67379,0.31938,1.38616,0.52363,2.13293,0.62259c0.25762,0.03437,0.34674-0.32147,0.19864-0.47867
		c-0.36288-0.38602-0.72572-0.77135-1.08856-1.15664c-0.17054-0.18181-0.36919-0.35584-0.52007-0.55378
		c-0.1474-0.19299-0.08355-0.06738,0.02597-0.15228c0.0702-0.05336,0.24706-0.05545,0.33057-0.07442
		c0.991-0.22322,1.98131-0.44639,2.97235-0.67027c0.2688-0.06037,0.26671-0.4801,0-0.54116
		c-1.21352-0.28003-2.42704-0.55936-3.64048-0.83868c1.94129-1.20927,3.88262-2.41787,5.82392-3.62648
		c0.31369-0.19578,0.04001-0.62812-0.28351-0.48494c-1.90274,0.84008-3.87353,1.5153-5.88854,2.02693
		c0.44005-0.78187,0.7994-1.60515,1.07382-2.4621c0.08282-0.25828-0.28777-0.48989-0.46953-0.27372
		c-0.39655,0.47302-0.87309,0.86117-1.41774,1.14119c-0.02036-0.50324-0.04002-1.00644-0.05967-1.51038
		c-0.01052-0.2604-0.39303-0.40425-0.52356-0.14106c-0.16633,0.33339-0.3748,0.62534-0.62816,0.88365
		c-0.11513-0.42464-0.28703-0.8282-0.51377-1.2107c-0.106-0.17898-0.38037-0.18602-0.48494,0
		c-0.66469,1.18473-1.33917,2.57716-0.71167,3.92121C37.55166,26.65753,38.23106,27.21131,38.77641,27.86331z"/>
</g>
<g>
	<path class="st5" d="M30.22917,27.84413c0,2.56806,2.08184,4.6499,4.64994,4.6499c2.56802,0,4.64986-2.08184,4.64986-4.6499
		s-2.08184-4.6499-4.64986-4.6499C32.31101,23.19423,30.22917,25.27607,30.22917,27.84413z"/>
</g>
<g>
	<circle class="st1" cx="16.76503" cy="27.84413" r="4.64989"/>
</g>
<g>
	<path class="st2" d="M25.26998,37.60734c0.05824,0.51582,0.22105,1.01627,0.48498,1.46475
		c0.28633,0.4885,0.6864,0.80923,1.08856,1.19313c0.55727,0.5306,0.21195,1.18616,0.06598,1.82063
		c-0.13967,0.60286-0.15866,1.22753-0.08846,1.84091c0.20007,1.74764,1.06472,3.32606,1.6269,4.9754
		c0,0.00356,0.68431,7.09293,0.68431,7.09293c-0.01265,0.02175-0.02248,0.04559-0.0274,0.07368
		c-0.1916,1.14963-0.13053,2.5765,1.29072,2.79337c0.70393,0.10805,1.44931,0.07721,2.1589,0.07368
		c0.77901-0.00492,1.5574-0.0344,2.33363-0.08982c0.6871-0.04915,1.41282-0.07159,2.08587-0.22809
		c0.47727-0.11161,0.93071-0.3839,1.02548-0.89909c0.05751-0.31443-0.03022-0.62677-0.10534-0.92997
		c-0.0947-0.37964-0.19017-0.75866-0.2849-1.13837l-0.55308-2.21013c-0.37971-1.51808-0.75943-3.03551-1.1391-4.55359
		c-0.0091-0.03792-0.02457-0.06877-0.0435-0.09473c-0.05688-0.36079-0.10108-0.72293-0.13196-1.08647
		c0.05406-0.04493,0.09404-0.11161,0.10321-0.19791c0.18103-1.65569,0.36211-3.31208,0.54318-4.9677
		c0.52077-1.91323,0.83311-3.88123,0.92576-5.86258c0.09686-2.06343-0.04563-4.13811-0.42182-6.16923
		c-0.17546-0.94824-0.39442-1.89358-0.7664-2.78566c-0.28219-0.67518-0.7412-1.662-1.59254-1.72446
		c-0.82885-0.06037-1.08786,0.79313-1.08291,1.45984c0.00909,1.02471,0.23579,2.04593,0.48006,3.03554
		c0.40425,1.63809,0.9145,3.34641,0.71307,5.03082c-0.27933-0.88431-0.70327-1.71742-1.52091-2.22414
		c-0.40076-0.24779-0.8773-0.36002-1.33496-0.32565c-0.04489-0.05685-0.11296-0.09895-0.20209-0.10948
		c-0.74256-0.08842-1.27946,0.37685-1.4437,0.96573c-0.25901-0.16563-0.56222-0.2618-0.88156-0.25545
		c-0.66113,0.01262-1.24506,0.44987-1.49494,1.04363c-0.21966-0.05898-0.44426-0.0772-0.66462-0.05758
		c-0.0421-0.15859-0.25127-0.28773-0.42813-0.20352c-0.61698,0.29411-1.06054,0.8352-1.24649,1.49146
		c-0.02388,0.08421-0.01126,0.15654,0.02314,0.21196C25.27698,36.55318,25.20961,37.08162,25.26998,37.60734z"/>
</g>
<g>
	<path class="st3" d="M25.13545,38.13185c0.12217,0.50676,0.32499,1.05489,0.58397,1.50829
		c0.13266,0.23235,0.29477,0.44782,0.47936,0.64081c0.04915,0.05124,0.58463,0.48006,0.58463,0.48637
		c-0.78466,2.6186-0.3467,5.56355,1.24719,7.80669c-0.01196,0.0344-0.01683,0.07368-0.01265,0.11927
		c0.34674,3.2903,0.69345,6.57986,1.03945,9.87016c0.15863,0.13897,0.31938,0.27577,0.48145,0.41056
		c0.06741-0.04211,0.11091-0.11792,0.09969-0.2267c-0.34531-3.27977-0.69062-6.55877-1.0359-9.83854
		c0.13402-0.06525,0.21471-0.21478,0.09892-0.36567c-1.88727-2.45506-2.29295-5.90816-0.96573-8.71624
		c0.06037-0.12704,0.02318-0.24639-0.05333-0.32708c0.01192-0.04211,0.01544-0.08773,0.00558-0.13897
		c-0.07086-0.35444-0.14175-0.70958-0.21261-1.06403c-0.00913-0.04628-0.02666-0.08348-0.04984-0.113
		c-0.20568-0.44566-0.41129-0.89132-0.61694-1.33701c-0.15158-0.32774-0.63517-0.04277-0.48498,0.28355
		c0.20425,0.44217,0.40847,0.88365,0.61202,1.32582c0.0702,0.35162,0.14036,0.70254,0.21056,1.05416
		c0.01119,0.05402,0.03367,0.09474,0.06246,0.12635c-0.08703,0.1902-0.16706,0.3832-0.23932,0.57828
		c-0.01265,0-0.57487-0.56075-0.62115-0.62394c-0.18881-0.25615-0.339-0.5397-0.45549-0.8352
		c-0.24075-0.6085-0.3397-1.26754-0.3236-1.91954c0.02179-0.89275,0.2267-2.27116,1.37358-2.2452
		c0.59163,0.01332,1.06469,0.42952,1.39595,0.88644c0.72711,1.00222,0.98048,2.29295,1.95816,3.11692
		c0.27442,0.23158,0.67375-0.16354,0.39651-0.39728c-1.19034-1.00365-1.30261-2.78563-2.56663-3.73801
		c-0.00844-0.00704-0.01753-0.01265-0.02597-0.019l0.08634-0.18738c0.01192-0.01405,0.01892-0.02248,0.02666-0.03088
		c0.02171-0.02245,0.04559-0.04284,0.07016-0.06316c0.02949-0.02388,0.04984-0.05402,0.06316-0.08703
		c0.82119-0.75447,1.98835,0.02457,2.52317,0.7657c0.66326,0.91875,1.02332,2.03119,1.90341,2.78706
		c0.27302,0.23444,0.67166-0.16145,0.39728-0.39655c-1.0528-0.90397-1.3497-2.37155-2.36172-3.31271
		c-0.11161-0.1039-0.23513-0.19934-0.36713-0.28358c0.02457-0.02241,0.04636-0.05124,0.06323-0.08843
		c0.20352-0.44635,0.67023-0.64852,1.14611-0.6162c0.539,0.03649,0.99944,0.39163,1.36015,0.76639
		c0.84081,0.87313,1.46688,1.99609,1.89574,3.12254c0.12771,0.33479,0.67027,0.18881,0.54179-0.14946
		c-0.15441-0.40498-0.33335-0.82189-0.539-1.23244c0.21966-1.52091-0.19794-3.29378-0.59097-4.9593
		c-0.3327-1.41212-0.5811-2.13641-0.62534-2.95478c-0.03579-0.66256,0.16494-1.51177,1.07312-1.22687
		c0.76713,0.24005,0.9994,1.21073,1.21209,1.88239c0.25406,0.80149,0.46744,1.61634,0.63869,2.43962
		c0.39445,1.90062,0.56357,3.84687,0.50746,5.78677c-0.06176,2.1231-0.51868,4.15352-0.85064,6.24086
		c-0.33482,2.10623-0.56852,4.23285-0.58466,6.36718c-0.0007,0.04911,0.00983,0.09052,0.0274,0.12631
		c0.57828,2.3421,1.15594,4.68489,1.73421,7.02691c0.08634,0.35096,0.6275,0.20147,0.54116-0.14949
		c-0.58044-2.35119-1.16015-4.70304-1.7406-7.05427c0.00491-0.57061,0.02179-1.14119,0.05054-1.71181
		c0.10878-2.13432,0.43866-4.21459,0.82119-6.31245c0.37755-2.07395,0.64005-4.17809,0.55301-6.28997
		c-0.0779-1.87674-0.36002-3.74931-0.84712-5.56359c-0.21965-0.81694-0.4253-1.73917-0.87165-2.46837
		c-0.3573-0.58323-1.02401-1.0605-1.73924-0.89278c-0.66674,0.15654-1.01488,0.83381-1.02889,1.47671
		c-0.01823,0.87804,0.27442,2.15259,0.60851,3.39064c0.43021,1.5911,0.65904,2.56528,0.62746,3.98228
		c-0.39442-0.62673-0.86325-1.20083-1.41913-1.63948c-0.49341-0.38885-1.08299-0.63238-1.71745-0.54604
		c-0.5383,0.07299-1.03876,0.36985-1.26894,0.87518c-0.02179,0.04845-0.02876,0.09543-0.02597,0.1397
		c-0.72503-0.29198-1.56793-0.25828-2.13642,0.36706c-0.04845,0.02388-0.08912,0.05967-0.11161,0.10735l-0.04423,0.09616
		c-0.0421,0.06528-0.0772,0.13548-0.10387,0.20844c-0.93837-0.33475-1.88727-0.03576-2.25506,0.9047
		c-0.03154,0.08073-0.06103,0.16215-0.08843,0.24496C24.95581,36.22705,24.9137,37.21035,25.13545,38.13185z"/>
</g>
<g>
	<path class="st0" d="M28.56468,54.54956c0.00495,0.04632,0.1839,1.80867,0.40007,3.93313
		c1.8536,1.63321,3.9423,3.00532,6.20788,4.06095c0.15511,0.07225,0.31161,0.14388,0.46884,0.21261
		c0.01614,0.00774,0.03228,0.01474,0.04842,0.02179c2.10905,0.92715,4.36411,1.58198,6.72158,1.92094
		c-0.189-0.46707-0.3781-0.93419-0.56717-1.4013c-0.4209-1.03996-1.27811-1.32413-1.69905-2.36414
		c-0.407-1.00553-2.93736-7.72278-2.86441-7.8045c0,0-1.63937,0.9101-4.05937,1.42052
		C30.19539,55.1878,28.5521,54.43094,28.56468,54.54956z"/>
</g>
<g>
	<path class="st3" d="M52.44945,27.52302c1.10859-0.9584,2.45855-1.57467,3.91732-1.73536
		c0.35863-0.03954,0.35584,0.52228,0,0.56148c-2.40511,0.26492-4.54042,1.99851-5.44556,4.22122
		c-0.93052,2.28499-0.34949,4.877,1.26483,6.70412c0.90789,1.02757,2.09002,1.77405,3.42816,2.08965
		c0.35155,0.08285,0.20271,0.62442-0.14927,0.54142c-2.58401-0.60938-4.66835-2.76123-5.3392-5.31253
		C49.44241,31.99416,50.43965,29.26054,52.44945,27.52302z"/>
</g>
<g>
	<path class="st3" d="M52.07711,47.78122c0.76841,0.09906,1.21209-0.59013,1.40083-1.24004
		c0.21819-0.75125,0.32616-1.54687,0.44247-2.31906c0.24368-1.61806,0.36926-3.25227,0.39236-4.88815
		c0.0051-0.36097,0.56662-0.36203,0.56152,0c-0.02641,1.86868-0.19175,3.73299-0.49785,5.57679
		c-0.20513,1.23556-0.49543,3.66451-2.29933,3.43194C51.72369,48.29711,51.71915,47.73508,52.07711,47.78122z"/>
</g>
<g>
	<path class="st3" d="M56.73596,38.32381c0.38228,1.5241,2.3041,1.97192,3.17546,0.65237
		c0.39515-0.59842,0.47548-1.37548,0.11098-2.01168c-0.36893-0.64378-1.11064-1.05416-1.82129-0.94497
		c-0.35342,0.05424-0.50607-0.51934-0.14924-0.57417c0.94145-0.14454,1.86919,0.29363,2.40339,1.13287
		c0.51934,0.81591,0.4608,1.89923-0.05905,2.69844c-0.51912,0.79812-1.3877,1.23787-2.2986,1.05944
		c-0.90316-0.1769-1.66718-0.91347-1.90308-1.854C56.10157,38.11142,56.64306,37.95331,56.73596,38.32381z"/>
</g>
<g>
	<path class="st3" d="M57.15866,36.83863c0.69271,0.31652,1.38539,0.63308,2.07814,0.9496
		c0.32822,0.14997,0.04321,0.6341-0.2834,0.48483c-0.69275-0.31652-1.38542-0.63308-2.07813-0.9496
		C56.54704,37.17349,56.83205,36.6894,57.15866,36.83863z"/>
</g>
<g>
	<path class="st3" d="M57.88093,24.60338c0.23077-0.27845,0.62607,0.12063,0.39706,0.39702
		c-2.52896,3.05219-3.21918,7.4137-1.84219,11.11273c0.66898-0.38356,1.39778-0.61562,2.16961-0.70885
		c0.35793-0.04321,0.35481,0.51865,0,0.56152c-0.77971,0.09411-1.51042,0.37458-2.16601,0.80373
		c-0.16754,0.10966-0.34784-0.01086-0.41239-0.16779C54.39672,32.63919,55.15373,27.89482,57.88093,24.60338z"/>
</g>
<g>
	<path class="st3" d="M50.62083,29.74787c1.11284-3.69238,5.04274-5.96351,8.79513-5.54683
		c3.65306,0.40579,6.77245,3.00866,8.20251,6.33196c0.74014,1.7194,1.06153,3.60909,1.01546,5.47597
		c-0.02949,1.20127-0.27277,2.35339-0.53779,3.50449c-0.07035,0.30533-0.14231,0.6107-0.21221,0.9171
		c-0.04346,0.19255-0.08692,0.38507-0.12778,0.57865c-0.02949,0.13666-0.05747,0.27332-0.08436,0.41096
		c-0.04353,0.21841-0.08388,0.43733-0.1196,0.65783c-0.30999,1.89901-0.06316,3.71255,0.7888,5.43969
		c0.81723,1.65676,2.03977,3.08993,3.31451,4.41077c1.82708,1.8938,3.96463,3.73636,5.28756,6.03698
		c0.12371,0.21426,0.23961,0.43267,0.34776,0.65574c0.06059-0.35558,0.0782-0.71886,0.05751-1.07808
		c-0.17132-0.28986-0.3551-0.57193-0.54813-0.8473c-1.60757-2.29233-3.88335-4.12553-5.72331-6.22017
		c-1.2572-1.4316-2.40052-3.05678-2.88183-4.92575c-0.35506-1.37933-0.21635-2.72915,0.05432-4.07276
		c0.05021-0.24793,0.10452-0.49583,0.16148-0.74376c0.12008-0.52378,0.25053-1.04708,0.36904-1.57189
		c0.85603-3.78345,0.39699-7.94629-1.94559-11.13664c-2.11635-2.88183-5.74195-4.80614-9.36494-4.38377
		c-3.33108,0.38862-6.40807,2.7012-7.38994,5.95775C49.97492,29.9461,50.51682,30.0931,50.62083,29.74787z"/>
</g>
<g>
	<path class="st3" d="M48.94434,29.32924c1.08204,0.45226,2.44483-0.11304,2.82029-1.24594
		c0.11315-0.34138,0.65556-0.19508,0.54142,0.14927c-0.46253,1.39569-2.1352,2.21307-3.51098,1.63809
		C48.46659,29.73334,48.6108,29.18983,48.94434,29.32924z"/>
</g>
<g>
	<path class="st3" d="M50.37579,31.89506c0.47489,0.15958,0.9475,0.10911,1.37482-0.15496
		c0.30823-0.1905,0.59053,0.29499,0.2834,0.48483c-0.54509,0.33684-1.19933,0.41591-1.80746,0.21152
		C49.88579,32.32194,50.03191,31.77942,50.37579,31.89506z"/>
</g>
<g>
	<path class="st3" d="M40.42315,48.76202c0.05549,0.34546,0.25021,0.66363,0.60425,0.75979
		c0.34975,0.0947,0.73874-0.04639,1.09568-0.20095c-0.05934,0.10145-0.11722,0.20381-0.17227,0.30808
		c-0.09426-0.01049-0.18995,0.02681-0.24878,0.13783c-0.39138,0.73203-0.36889,1.6042,0.07988,2.30707
		c0.07082,0.11193,0.19857,0.15738,0.3148,0.12679c0.14212,0.07559,0.35789,0.04445,0.42967-0.15265
		c0.52484-1.42672,1.51574-2.67358,2.7879-3.50698c1.26215-0.82772,2.71565-1.10764,4.17299-1.39041
		c1.38895-0.26979,2.72713-0.62626,3.94666-1.36404c2.15783-1.30804,3.76875-3.46679,4.36393-5.9217
		c0.08612-0.3521-0.45596-0.49994-0.54065-0.14924c-0.01482,0.06026-0.03062,0.11861-0.0464,0.17895
		c-0.01628-0.03162-0.03257-0.05696-0.05549-0.08087c-0.08949-0.09045-0.17847-0.18133-0.26844-0.27174
		c0.02824-0.034,0.05553-0.06844,0.08231-0.10287c0.18514-0.23873-0.06844-0.56123-0.28465-0.48373
		c0.01962-0.04544,0.03921-0.09187,0.0574-0.13923c0.08894-0.23014-0.28135-0.32869-0.36937-0.10145
		c-0.25743,0.66601-0.77318,1.17031-1.37889,1.53103c-0.00811,0.0048-0.01625,0.00909-0.02439,0.0139
		c-0.02967,0.00858-0.05743,0.02343-0.08039,0.04639c-2.19125,1.22915-5.26911,0.7057-7.01305,2.73241
		c-1.84817-0.23778-3.71127,0.36313-5.15619,1.52813c-0.64972,0.52389-1.20996,1.16742-1.62815,1.8913
		C40.71165,47.1152,40.29874,47.98217,40.42315,48.76202z"/>
</g>
<g>
	<defs>
		<path id="SVGID_00000144303362059340896410000011930644753607064479_" d="M35.64147,62.75624
			c0.01614,0.00774,0.03228,0.01474,0.04842,0.02179c2.10905,0.92715,4.36411,1.58198,6.72158,1.92094
			c1.22126,0.17616,2.46984,0.26745,3.74017,0.26745c10.43021,0,19.42725-6.13629,23.57797-14.99575l-0.38815-0.63447
			c0,0-14.21946-5.21263-18.90009-4.78733c-4.68133,0.42534-8.10286,2.02136-11.60508,9.46866
			c-0.10952,0.23301-0.21617,0.46326-0.31938,0.69066c-0.02666,0.05824-0.05263,0.11649-0.0786,0.17403
			C36.94268,58.19708,36.10678,60.87041,35.64147,62.75624z"/>
	</defs>
	<use xlink:href="#SVGID_00000144303362059340896410000011930644753607064479_"  style="overflow:visible;fill:#52A5AE;"/>
	<clipPath id="SVGID_00000120560967287853559690000009086309633765896080_">
		<use xlink:href="#SVGID_00000144303362059340896410000011930644753607064479_"  style="overflow:visible;"/>
	</clipPath>
</g>
<g>
	<path class="st3" d="M56.49411,27.94525c0.04984-0.10882,0.13475-0.14953,0.22109-0.14531
		c0.32143-0.87239,0.73903-1.71181,1.25067-2.49651c0.15232-0.23297,0.45971-0.12771,0.51377,0.07937
		c0.18459-0.1558,0.38463-0.29972,0.60359-0.42956c2.20804-1.31178,4.72835,0.09474,6.36156,1.67462
		c1.79327,1.73569,2.8804,4.01246,3.27065,6.46404c0.41899,2.63331,0.16842,5.30179,0.35583,7.95058
		c0.18177,2.56315,0.80993,5.27084,2.72038,7.11673c0.25967,0.25197-0.13757,0.64848-0.39728,0.39725
		c-1.37629-1.33004-2.10414-2.96179-2.49364-4.71786c-0.01966,0.03022-0.04424,0.0548-0.07299,0.07512
		c0.02946,0.19794,0.05828,0.39515,0.08704,0.59237c0.05124,0.34949-0.47727,0.50885-0.54112,0.1488
		c-0.0625-0.34458-0.12426-0.68992-0.18603-1.03524l-0.24841-0.23792c-0.56573,0.75451-1.45844,1.31317-2.37367,1.49146
		c-1.21278,0.23722-2.45297,0.03154-3.6447-0.226c-1.15594-0.25058-2.39403-0.48358-3.38995-1.16155
		c-0.49895-0.33915-0.91772-0.79812-1.17915-1.32608c-0.12209,0.01423-0.24815-0.04313-0.28531-0.19827
		c-0.15126-0.63102-0.14685-1.26366,0.01595-1.892c0.05267-0.20319,0.32305-0.2743,0.46924-0.12386
		c0.08549,0.08802,0.17828,0.16075,0.27596,0.21999c0.05509-0.03118,0.12429-0.04134,0.20535-0.015
		c0.12272,0.03994,0.24848,0.06694,0.37513,0.08326c0.83124,0.08197,1.43329-0.57494,1.86611-1.31089
		c0.1507-0.48985,0.16108-1.02973,0.08395-1.53719c-0.01148-0.07563,0.00836-0.14755,0.04592-0.20733
		c-0.33273-0.32191-0.63652-0.67004-0.91079-1.04279c-0.28443-0.20154-0.59288-0.36812-0.91776-0.49631
		c-0.5748-0.05967-1.16713,0.05458-1.68357,0.33258c-0.00088,0.04218-0.01115,0.08644-0.03605,0.13167
		c-0.06822,0.12382-0.16629,0.23788-0.3097,0.27328c-0.1595,0.03936-0.33621-0.02256-0.42292-0.16552
		c-0.13435-0.22142-0.08384-0.56328,0.0048-0.79295C55.2792,32.99044,55.42048,30.28716,56.49411,27.94525z"/>
</g>
<g>
	<path class="st3" d="M51.1376,29.29839c0.10948-0.32286,0.25688-0.63234,0.43583-0.92293
		c1.29072-0.8773,2.66632-1.79536,4.19148-2.16521c0.30529,0.02318,0.6078,0.07651,0.90257,0.15863
		c-0.20073,0.67448-0.40146,1.34963-0.60146,2.02411c-0.06741,0.2253,0.2077,0.45831,0.41195,0.31725
		c0.82959-0.57131,1.65918-1.14262,2.48946-1.71463c0.82607-0.32987,1.53987-0.83094,2.12658-1.4872
		c0.01405,0.00561,0.02879,0.01049,0.0435,0.01544c0.26183,0.09686,0.41833-0.21966,0.30676-0.4176
		c0.08139-0.05054,0.16277-0.10038,0.24562-0.14949c0.16842-0.09829,0.19725-0.39376,0-0.48428
		c-1.96378-0.90397-4.26303-1.02962-6.28927-0.24284c-1.22966,0.47724-2.32383,1.25419-3.1843,2.24032
		c-0.76713,0.72851-1.34966,1.64161-1.62056,2.67963C50.50383,29.50265,51.02251,29.63809,51.1376,29.29839z M59.52888,25.29363
		c0.02388,0.00352,0.04775,0.0077,0.07163,0.01196c-0.01265,0.01471-0.02388,0.03015-0.03653,0.04559
		C59.55419,25.33086,59.54297,25.31117,59.52888,25.29363z"/>
</g>
<g>
	<path class="st3" d="M26.4747,10.17164c0.3613,0,0.36193,0.56152,0,0.56152C26.11339,10.73316,26.11284,10.17164,26.4747,10.17164z
		"/>
</g>
<g>
	<path class="st3" d="M23.62976,13.66483c0.86443-1.12036,1.72894-2.2408,2.5934-3.36119
		c0.2176-0.28204,0.70562-0.00275,0.48483,0.2834c-0.86451,1.1204-1.72894,2.24083-2.5934,3.36123
		C23.89695,14.23031,23.40897,13.95102,23.62976,13.66483z"/>
</g>
<g>
	<path class="st3" d="M24.07106,13.74413c1.34031,1.82331,2.68058,3.64661,4.02086,5.46988
		c0.21423,0.29143-0.2728,0.57186-0.48483,0.2834c-1.34027-1.82327-2.68051-3.64661-4.02082-5.46988
		C23.37204,13.73613,23.8591,13.4557,24.07106,13.74413z"/>
</g>
<g>
	<path class="st3" d="M16.03246,21.81104c1.44234,1.21561,3.73104,1.10052,4.57889-0.73973
		c0.48006-1.04154,0.5313-2.27256,0.62112-3.39904c0.11091-1.37284,0.14531-2.75196,0.10457-4.12898
		c-0.02102-0.68853-0.05824-1.37706-0.11858-2.06277c-0.04497-0.51025-0.1053-1.05137-0.39306-1.49003
		c-0.27438-0.41756-0.79306-0.66883-1.26402-0.61903c0.08546-0.00902,0.18456-0.67276,0.18848-0.746
		c0.02751-0.51773-0.4293-0.61811-0.65204-0.12169c-0.08788,0.19585-0.09947,0.41584-0.1221,0.62933
		c-0.13178,1.2418-0.72748,2.21615-1.38366,3.24273c-0.74417,1.16419-1.59276,2.2792-2.16106,3.54601
		C14.60412,17.74368,14.32277,20.36943,16.03246,21.81104z"/>
</g>
<g>
	<path class="st0" d="M5.83881,14.52024c0.3825,0.33405,0.95381,0.40498,1.44231,0.41899
		c0.1565,0.00495,0.31234-0.0007,0.46814-0.01401c0.03154,0.01192,0.06734,0.01823,0.10875,0.01683
		c0.73837-0.02597,1.4002,0.76287,2.13014,0.2337c0.65413-0.47515,0.47096-1.29278,0.20003-1.93711
		c0.61342-0.55305,0.61833-1.46828,0.03018-2.04447c0.23161-0.80435-0.03935-1.67744-0.64639-2.2361
		c0.63935-0.84925-0.65064-2.14063-1.54269-2.25646c-0.64712-0.08421-0.98469,0.53269-0.991,1.10191
		c-0.00425,0.37197,0.1137,0.7215,0.34949,0.97556C6.96669,9.04299,6.59959,9.39604,6.52452,9.91402
		c-0.05476,0.37828,0.09191,0.7313,0.35444,0.97061c-0.43935,0.27515-0.80292,0.65974-0.85908,1.20864
		c-0.02949,0.29125,0.05824,0.56919,0.226,0.7811c-0.24493,0.09899-0.46183,0.24988-0.60498,0.4948
		C5.40995,13.76716,5.49629,14.22052,5.83881,14.52024z"/>
</g>
<g>
	<path class="st3" d="M5.65983,14.46552c0.64782,1.02889,1.91676,0.80219,2.90637,0.51164
		c0.34674-0.10108,0.19864-0.6429-0.14946-0.54116c-0.53695,0.15723-1.17002,0.36567-1.7252,0.17337
		c-0.36563-0.12631-0.77413-0.5383-0.66465-0.96225c0.06319-0.24423,0.2688-0.37828,0.50394-0.4527
		c0.14667-0.04698,0.30533-0.07016,0.44709-0.08278c0.03789-0.00352,0.07442-0.00565,0.10952-0.00774
		c0.56427-0.03228,1.1391,0.00422,1.69985,0.05898c0.4604,0.04563,1.10543,0.08278,1.34196,0.55448
		c0.20565,0.40986,0.03576,0.93907-0.19585,1.29909c-0.51516,0.80296-1.46472,1.23527-2.40309,1.18825
		c-0.36218-0.01753-0.36009,0.54395,0,0.56148c1.13345,0.05685,2.27465-0.50042,2.88806-1.46615
		c0.38041-0.6001,0.49411-1.429,0.10739-1.99539c-0.1053-0.15441-0.24705-0.28916-0.43161-0.39442
		c-0.02597-0.01474-0.05263-0.02949-0.07999-0.0428c-0.49271-0.24353-1.10052-0.26323-1.63886-0.30042
		c-0.57201-0.03928-1.17277-0.0772-1.7399,0.02736C6.62626,12.59575,6.61712,12.59791,6.60803,12.6
		c-0.20422,0.04071-0.39372,0.11649-0.55657,0.21966C5.50542,13.16357,5.24718,13.81066,5.65983,14.46552z"/>
</g>
<g>
	<path class="st3" d="M6.05146,12.81966c0.1221,0.16145,0.28355,0.29338,0.47936,0.37476
		c0.14667-0.04698,0.30533-0.07016,0.44709-0.08278c0.0786-0.14458,0.04563-0.35514-0.15932-0.41133
		C6.73717,12.6779,6.66697,12.6435,6.60803,12.6c-0.32844-0.24357-0.31722-0.77626-0.05333-1.09491
		c0.39585-0.47863,1.06821-0.53621,1.643-0.48149c0.5924,0.05689,1.34126,0.16354,1.83115,0.52712
		c0.42321,0.31373,0.69689,1.02819,0.10666,1.33283c-0.0154,0.0077-0.02875,0.0161-0.04137,0.02666
		c-0.25336,0.1839,0.01962,0.6162,0.32422,0.45827c0.03789-0.01962,0.07372-0.03998,0.10739-0.06385
		c0.65556-0.42739,0.63307-1.35528,0.14249-1.92233c-0.60781-0.70327-1.72376-0.87382-2.60177-0.93071
		c-0.84008-0.05402-1.81707,0.23161-2.17364,1.07316C5.71037,11.95779,5.78335,12.46173,6.05146,12.81966z"/>
</g>
<g>
	<path class="st3" d="M6.53523,9.3086c0.32396-0.60876,1.01561-0.87459,1.67862-0.84745
		c1.30396,0.05336,3.10838,1.32227,2.20936,2.78159c-0.18914,0.30713-0.67503,0.02545-0.48479-0.28336
		c0.63029-1.02313-0.75869-1.84524-1.61407-1.92919C7.89101,8.98765,7.3895,9.07626,7.11142,9.44405
		c-0.22949,0.3035-0.30266,0.765-0.03286,1.06476c0.24119,0.268-0.15467,0.6663-0.39699,0.39706
		C6.27842,10.45797,6.2567,9.83187,6.53523,9.3086z"/>
</g>
<g>
	<path class="st3" d="M7.3804,6.61683c0.63377-0.29279,1.57346,0.0146,2.0006,0.50848
		c0.50284,0.58125,0.5496,1.42371,0.19296,2.08793c-0.17095,0.3185-0.65581,0.03528-0.48479-0.28333
		c0.27152-0.50595,0.18027-1.12678-0.24654-1.51713C8.5728,7.16603,8.0909,6.99097,7.72762,7.08835
		C7.42577,7.16922,7.28082,7.44106,7.25798,7.73459c-0.02204,0.283,0.21896,0.6992,0.29275,0.94868
		c0.07445,0.25175-0.11087,0.49359-0.41639,0.17719c-0.30097-0.31172-0.4695-0.73632-0.4326-1.17108
		c0.03092-0.36457,0.22134-0.77743,0.528-0.98719C7.2776,6.66943,7.32795,6.64107,7.3804,6.61683z"/>
</g>
<g>
	<path class="st3" d="M7.76925,18.25517c0.54347,0.35056,1.29168,0.04757,1.30437-0.6396
		c0.01159-0.62592-0.66025-0.99826-1.20413-0.7237c-0.3218,0.16248-0.60641-0.32176-0.28344-0.48479
		c0.91464-0.46172,2.06302,0.13787,2.04909,1.2085c-0.0143,1.09615-1.24106,1.71027-2.14929,1.12443
		C7.18323,18.54477,7.46443,18.05851,7.76925,18.25517z"/>
</g>
<g>
	<path class="st3" d="M56.54293,41.69088c0.04871-0.04874,0.12855-0.08538,0.19849-0.08223
		c0.07262,0.00323,0.14792,0.0271,0.19853,0.08223c0.05043,0.0549,0.08223,0.12239,0.08223,0.19849v0.10636
		c0,0.072-0.03132,0.14759-0.08223,0.19853c-0.04871,0.04867-0.12862,0.08531-0.19853,0.08223
		c-0.07258-0.00327-0.14791-0.0271-0.19849-0.08223c-0.05043-0.05494-0.08223-0.12246-0.08223-0.19853v-0.10636
		C56.4607,41.81738,56.49199,41.74174,56.54293,41.69088z"/>
</g>
<g>
	<path class="st3" d="M0,40.46445c0,2.81706,2.28371,5.10033,5.10033,5.10033h9.63469
		c1.08262,1.13664,2.50021,1.95053,4.04452,2.28279c0.2088,0.04497,0.30504-0.21331,0.13977-0.33181
		c-0.72535-0.52106-1.33224-1.18927-1.78663-1.95097h0.26961c1.40809,0,2.68363-0.57106,3.60645-1.49384
		c0.92286-0.9229,1.49391-2.19799,1.49391-3.60649c0-2.81665-2.28374-5.10036-5.10036-5.10036H5.10033
		c-1.40849,0-2.68315,0.57102-3.60645,1.49384C0.57106,37.78082,0,39.05636,0,40.46445z"/>
</g>
<g>
	<path class="st3" d="M49.2123,4.86449c0,2.19862,1.78201,3.98066,3.98066,3.98066h1.08948
		c-0.13094,0.66506-0.40887,1.30272-0.82655,1.85752c-0.12165,0.16149,0.08021,0.32921,0.23392,0.30434
		c1.26028-0.20337,2.36689-1.04444,2.95588-2.16187h9.36234c1.09934,0,2.09467-0.44566,2.8146-1.16558
		c0.72044-0.72048,1.16606-1.71573,1.16606-2.81508c0-2.19869-1.78201-3.98066-3.98066-3.98066H53.19296
		c-1.09931,0-2.09464,0.44562-2.81457,1.16558C49.65792,2.76986,49.2123,3.76515,49.2123,4.86449z"/>
</g>
<g>
	<path class="st3" d="M52.17508,58.15799c1.55172,2.82571,4.32267,4.70972,7.41191,5.52669
		c4.61711,1.22093,10.19453-0.08689,14.42624-2.07858c1.07627-0.50654,2.15589-1.12076,2.8354-2.09713
		c1.68889-2.42671-0.75297-5.4445-2.3257-7.21664c0.92329-0.53313,1.25562-1.64645,1.13293-2.69294
		c-0.21426-1.82653-1.66244-2.85337-3.03349-3.85438c-1.7406-1.27011-2.67846-2.41138-3.87665-4.22651
		c0.12423-0.01603,0.24841-0.03261,0.37263-0.04867c-0.95176,0.12426-1.22247-3.96716-1.4378-4.31343
		c-0.30225,1.0067-0.08641,2.24681,0.20338,3.27416c0.03418,0.12111,0.07093,0.2417,0.11032,0.36178
		c0.02586,0.07764,0.05223,0.15477,0.07966,0.23187c-0.10606-0.00513-0.21217-0.01034-0.31776-0.015
		c-0.16721-0.00723-0.33438-0.01342-0.50152-0.01863c-1.22668-0.03829-2.45487-0.02483-3.67998,0.03983
		c-1.16918,0.06162-2.35651,0.13721-3.51017,0.34579c-0.49015,0.0885-0.9756,0.21892-1.4301,0.41404
		c-0.38345-0.29503-0.76702-0.59057-1.15051-0.88607c-0.07192-0.05538-0.19204-0.02483-0.25054,0.0326
		c-1.6971,1.65518-3.25809,3.48223-4.42427,5.55471c-2.00456,3.5624-2.70435,7.64205-0.76815,11.41391
		C52.08456,57.99041,52.1293,58.07462,52.17508,58.15799z"/>
</g>
<g>
	<path class="st1" d="M53.55426,4.58124c0.1902-0.18698,0.48321,0.10559,0.29279,0.29275
		c-0.11737,0.11535-0.0293,0.3097,0.09671,0.38657c0.1693,0.10332,0.36042-0.02003,0.46756-0.15529
		c0.31105-0.39244,0.09782-0.93012-0.0534-1.34354c-0.05281-0.14425,0.1115-0.30537,0.25465-0.25465
		c0.57806,0.20473,0.65787,0.78132,1.0447,1.17853c0.17484,0.17953,0.59625,0.36941,0.64177-0.02439
		c0.00411-0.03561,0.00433-0.07167,0.0018-0.10787c-0.15268-0.21665-0.25813-0.46095-0.29491-0.69803
		c-0.03492-0.22508,0.2435-0.36717,0.37839-0.15954c0.10996,0.16919,0.21911,0.4096,0.27507,0.65376
		c0.16908,0.22501,0.40924,0.39347,0.6966,0.45571c0.29327,0.06349,0.50372-0.08513,0.49414-0.39347
		c-0.00084-0.02787-0.0044-0.05516-0.00903-0.08219c-0.17612-0.23744-0.34039-0.48369-0.4922-0.73771
		c-0.11935-0.19974,0.16204-0.42391,0.32518-0.25087c0.21969,0.23301,0.45457,0.49623,0.54835,0.807
		c0.3068,0.40476,0.65053,0.78059,1.03028,1.12172c0.11913,0.10702,0.30133,0.3313,0.46862,0.33889
		c0.21632,0.00987-0.03488-0.35595-0.09177-0.45923c-0.23304-0.42262-0.46598-0.84521-0.69894-1.2678
		c-0.10882-0.19736,0.16886-0.4381,0.32514-0.25087c0.48141,0.57678,1.00101,1.1182,1.55476,1.62334
		c-0.13152-0.48046-0.11659-0.9994,0.06675-1.47759c0.07119-0.18555,0.33581-0.20678,0.39926,0
		c0.13105,0.42681,0.33038,0.82827,0.60054,1.18473c0.13721,0.18104,0.29319,0.34879,0.46103,0.50177
		c0.15136,0.13801,0.38562,0.37062,0.61187,0.34916c0.39482-0.03748,0.30218-0.6257,0.18467-0.86102
		c-0.1934-0.38753-0.49525-0.69642-0.59853-1.1285c-0.03433-0.14344,0.0988-0.30944,0.25465-0.25465
		c0.86293,0.3035,1.45672,1.12902,1.44777,2.04802c-0.00264,0.26631-0.41668,0.26693-0.41408,0
		c0.00517-0.53133-0.24009-1.03593-0.64136-1.36441c0.19075,0.30467,0.41639,0.59233,0.45882,0.96316
		c0.04676,0.40916-0.11341,0.89363-0.55899,0.99529c-0.54072,0.12342-1.0656-0.43972-1.37801-0.80656
		c-0.22351-0.26242-0.41071-0.54938-0.56266-0.85479c-0.01922,0.53482,0.17165,1.06516,0.55917,1.46369
		c0.19072,0.19618-0.08887,0.45406-0.29283,0.29279c-0.45153-0.35708-0.88332-0.73676-1.29432-1.13771
		c0.02116,0.04599,0.04134,0.09224,0.05868,0.13922c0.16208,0.43807-0.14223,0.8571-0.61771,0.68479
		c-0.22974-0.08322-0.41694-0.26855-0.59537-0.42901c-0.21034-0.18918-0.41082-0.38943-0.60054-0.59941
		c-0.05542-0.06129-0.10955-0.12364-0.1631-0.18654c-0.09206,0.22413-0.27361,0.40388-0.52627,0.45142
		c-0.36662,0.06903-0.72403-0.0625-1.01426-0.29503c-0.06745,0.19178-0.22211,0.33651-0.50937,0.377
		c-0.37032,0.05219-0.70889-0.21199-0.91769-0.49242c-0.09741-0.13086-0.17572-0.29657-0.26521-0.45263
		c0.03224,0.20396,0.03271,0.41001-0.02725,0.61122C54.84169,5.29302,54.6038,5.59,54.2769,5.68279
		C53.6666,5.85597,53.06063,5.06644,53.55426,4.58124z"/>
</g>
<g>
	<path class="st4" d="M3.89337,39.69992c0.56625-0.34509,1.23145-0.13376,1.74001,0.22006
		c0.54703,0.3807,0.94644,1.00633,1.57996,1.25742c1.05632,0.41877,1.84054-0.85933,2.59194-1.36987
		c0.41771-0.2838,0.91787-0.42365,1.4155-0.28435c0.62035,0.17366,1.07683,0.68332,1.50275,1.13562
		c0.45838,0.48677,1.2287,1.16584,1.92783,0.71655c0.49576-0.31861,0.71057-0.94439,1.11504-1.35759
		c0.8542-0.87265,2.43944-0.64555,3.04765,0.40051c0.1342,0.23077-0.22351,0.43946-0.35752,0.20895
		c-0.27284-0.46928-0.79284-0.72891-1.32894-0.7369c-0.57084-0.00847-0.99595,0.27559-1.32168,0.72807
		c-0.30599,0.42505-0.56995,0.93665-1.06054,1.17864c-0.59328,0.29257-1.23215,0.06099-1.72864-0.3112
		c-0.87947-0.65923-1.68874-2.1728-2.95441-1.35275c-0.76394,0.49499-1.31317,1.44077-2.29255,1.53525
		c-0.68237,0.06587-1.23575-0.37803-1.70198-0.81847c-0.48417-0.45743-1.24312-1.23263-1.96543-0.7924
		C3.87426,40.19649,3.66594,39.83856,3.89337,39.69992z"/>
</g>
<g>
	<path class="st1" d="M39.417,41.46924c0.00121,0.61617,0.4242,1.16372,1.0572,1.21114
		c0.60971,0.0457,1.22592-0.36658,1.3606-0.97098c0.02556-0.11469-0.03305-0.20121-0.11425-0.24419
		c0.08113-0.04299,0.13952-0.12954,0.11351-0.24401c-0.13717-0.60414-0.75385-1.01392-1.36382-0.96639
		C39.83772,40.30413,39.41575,40.85318,39.417,41.46924z M39.85653,41.46924c-0.00099-0.41455,0.27434-0.77916,0.70866-0.77839
		c0.39226,0.00073,0.75737,0.26132,0.84496,0.64723c0.01394,0.06129,0.04614,0.10221,0.08638,0.12727
		c-0.04002,0.02512-0.07196,0.06602-0.08561,0.12716c-0.08795,0.39471-0.47093,0.6659-0.87353,0.65167
		C40.11686,42.22932,39.85749,41.87045,39.85653,41.46924z"/>
</g>
<g>
	<path class="st0" d="M7.48856,23.24213c0.36402,0.06866,0.71816-0.07442,0.96731-0.32459
		c0.06826,0.00099,0.13757-0.02762,0.18602-0.09873c0.37428-0.54934,0.19992-1.39166-0.39926-1.70975
		c-0.57883-0.30731-1.37449-0.00616-1.61542,0.59985C6.37499,22.34329,6.82317,23.11666,7.48856,23.24213z M7.06139,21.81332
		c0.18753-0.35815,0.71772-0.51256,1.05001-0.26752c0.12393,0.0914,0.20715,0.21724,0.25105,0.3558
		C8.356,21.92558,8.35325,21.95228,8.3571,21.98302c0.05527,0.44507-0.33834,0.94142-0.82057,0.82064
		C7.13272,22.70254,6.86333,22.19149,7.06139,21.81332z"/>
</g>
<g>
	<path class="st0" d="M60.42251,17.78333c0.21848,0.01672,0.43785-0.05131,0.6085-0.17829
		c0.09573,0.06484,0.23587,0.06573,0.31062-0.0629c0.2593-0.44621,0.08069-1.05563-0.36802-1.30807
		c-0.46594-0.26213-0.99914,0.02897-1.17336,0.49924C59.62325,17.21102,59.89132,17.74269,60.42251,17.78333z M60.22336,16.8546
		c0.10236-0.23407,0.36669-0.37428,0.59024-0.20282c0.0687,0.0527,0.12235,0.12287,0.15848,0.20088
		c-0.03781,0.03525-0.06319,0.08582-0.06363,0.15276c-0.00139,0.22604-0.25754,0.36233-0.464,0.33966
		C60.19262,17.3175,60.13317,17.06076,60.22336,16.8546z"/>
</g>
<g>
	<path class="st4" d="M23.19775,53.17998c0.70034,0.07819,1.40072,0.15639,2.10106,0.23458
		c0.12356,0.01379,0.24878-0.1452,0.19967-0.26209c-0.26224-0.62413-0.52451-1.24821-0.78679-1.87234
		c-0.10185-0.24236-0.50236-0.13523-0.39926,0.1101c0.00763,0.01815,0.01529,0.03635,0.02292,0.0545
		c-0.5653,0.36255-1.0111,0.84232-1.3164,1.42375C22.94054,53.01787,23.04125,53.16252,23.19775,53.17998z M24.97381,52.96421
		c-0.47856-0.05344-0.95719-0.10688-1.43574-0.16028c0.24999-0.38679,0.57102-0.71468,0.9602-0.97142
		C24.65678,52.20974,24.8153,52.58695,24.97381,52.96421z"/>
</g>
<g>
	<path class="st3" d="M63.42582,27.55354c0.75711,1.79019,2.01168,3.42791,3.61698,4.51691
		c0.68999,0.66106,1.48273,1.23783,2.34954,1.60633c1.15843,0.49249,2.41164,0.45483,3.4962-0.20422
		c1.03241-0.62735,1.75816-1.65316,2.11565-2.79645c0.11854-0.37891,0.19878-0.7654,0.24834-1.15579
		c0.17329-0.78631,0.1796-1.60739,0.00187-2.39788c-0.00337-0.01485-0.00751-0.02945-0.01096-0.04427
		c0.01643-0.28776,0.00729-0.57707-0.02747-0.86205c-0.3273-2.67982-2.808-4.70983-5.23108-5.53028
		c-1.30389-0.44151-2.75134-0.5138-4.0224,0.06987c-0.58598,0.26906-1.11728,0.67225-1.52032,1.17343
		c-0.83333,0.55385-1.49351,1.36265-1.74551,2.34756C62.40668,25.4077,62.63925,26.68038,63.42582,27.55354z M74.7169,25.64822
		c-0.36728-0.72253-0.86252-1.38198-1.43464-1.9538c-1.89281-1.89141-4.91735-3.21988-7.57178-2.37114
		c0.28539-0.17498,0.59314-0.31516,0.91186-0.41518c1.28086-0.40187,2.68227-0.14135,3.88567,0.3894
		c1.13056,0.49866,2.18787,1.22951,3.00385,2.16168C74.06629,24.09248,74.49999,24.8391,74.7169,25.64822z M68.94297,33.0251
		c1.06934,0.35976,2.23376,0.46077,3.31542,0.09034c0.57388-0.1967,1.08614-0.5174,1.52028-0.92414
		c-0.40901,0.50185-0.92384,0.91633-1.51492,1.17791C71.14761,33.86309,69.96786,33.6138,68.94297,33.0251z"/>
</g>
<path class="st3" d="M52.89805,29.69305c-0.11618,0.05277-0.20027,0.15581-0.21137,0.28947
	c-0.00725,0.0875,0.02045,0.17846,0.07249,0.2499c0.02174,0.05687,0.03921,0.09923,0.05657,0.14162
	c0.07474,0.18166,0.30428,0.18409,0.42002,0.04758c0.13417-0.0978,0.20493-0.26427,0.18648-0.41848
	c-0.00734-0.06152-0.03249-0.11921-0.0685-0.16937c-0.00937-0.03203-0.02109-0.06322-0.03571-0.0931
	C53.23633,29.57366,53.01436,29.54119,52.89805,29.69305z"/>
<path class="st3" d="M32.61075,5.52011c0.22012-0.15735,0.43296,0.20472,0.21437,0.36099
	c-0.78922,0.56414-1.05723,1.64878-0.68065,2.52953c0.10614,0.24831-0.29875,0.36114-0.40366,0.11582
	C31.28621,7.46316,31.67989,6.18544,32.61075,5.52011z"/>
<path class="st3" d="M29.40753,7.70278c0.07899,0.45628,0.45313,0.79627,0.9027,0.86894
	c0.26735,0.04325,0.18695,0.45541-0.07937,0.41238c-0.64856-0.10483-1.13141-0.61212-1.2423-1.25205
	C28.94242,7.46551,29.36176,7.43895,29.40753,7.70278z"/>
<path class="st3" d="M33.38129,6.36936c0.13618-0.00115,0.22445,0.14322,0.22026,0.26382
	c-0.00414,0.11804-0.05145,0.21853-0.12454,0.29475c-0.00371,0.01914-0.00852,0.03835-0.01525,0.05744
	c-0.05037,0.14309-0.15693,0.22301-0.29795,0.266c-0.04338,0.01312-0.08767,0.00597-0.12823-0.01234
	c-0.02524-0.0051-0.04961-0.01343-0.07072-0.02432c-0.05073-0.02606-0.08106-0.06119-0.10295-0.10527
	c-0.02-0.02785-0.03489-0.06077-0.04194-0.09883c-0.01146-0.06145-0.00876-0.12173,0.0053-0.1781
	c0.01489-0.08828,0.05128-0.17396,0.10332-0.24205C33.04093,6.44355,33.19811,6.37087,33.38129,6.36936z"/>
<path class="st3" d="M30.5788,4.39065c0.08075,0.0988,0.11045,0.22844,0.06116,0.35317
	c-0.03228,0.08165-0.09743,0.15091-0.17574,0.19188c-0.04469,0.04134-0.07913,0.07157-0.11348,0.10187
	c-0.14752,0.12971-0.35435,0.03014-0.3976-0.14353c-0.07692-0.14714-0.06656-0.32773,0.01833-0.45778
	c0.03385-0.05189,0.08197-0.09246,0.13648-0.12146c0.02259-0.02455,0.04693-0.04732,0.07328-0.06763
	C30.32848,4.13368,30.54185,4.20297,30.5788,4.39065z"/>
<g>
	<path class="st3" d="M16.99753,21.18853c0.44426,0.86256,1.57071,1.37772,2.46768,0.96082
		c0.11087,0.03228,0.24144,0.0091,0.32851-0.1053c0.71164-0.94538,1.1987-2.03115,1.523-3.1653
		c1.17772-4.12407,0.19651-8.85312,2.56733-12.62208c0.15936-0.2541-0.14454-0.48919-0.36281-0.39167
		c-0.03092-0.0238-0.06881-0.04277-0.11795-0.0519c-0.33687-0.0625-0.60707-0.24144-0.78888-0.51725
		c0.01405-0.01617,0.02666-0.03231,0.04071-0.04915c0.23374-0.27302-0.16142-0.67166-0.39725-0.39655
		c-1.02262,1.19665-1.86901,2.53296-2.49086,3.98019c-0.56709,1.31878-0.91732,2.68528-1.14614,4.09953
		c-0.12001,0.73903-0.2274,1.48155-0.40216,2.21079c-0.18735,0.77626-0.48776,1.49285-0.81694,2.21857
		C16.86556,18.54044,16.35466,19.93921,16.99753,21.18853z"/>
</g>
<g>
	<path class="st3" d="M22.47801,3.39765c0.9025-1.1427,2.79003-0.60447,2.83609,0.88497c0.01115,0.36141-0.55033,0.36108-0.56152,0
		C24.72111,3.2636,23.39382,3.01177,22.863,3.81884c-0.58242,0.88552,0.23169,1.90036,1.16621,1.94584
		c0.35969,0.01749,0.36178,0.57905,0,0.56145c-0.69132-0.03363-1.3662-0.38129-1.6971-1.00993
		C22.01577,4.71518,22.05234,3.93665,22.47801,3.39765z"/>
</g>
<g>
	<path class="st3" d="M23.55245,4.13635c0.51516,0.2044,1.03036,0.4088,1.54552,0.61316
		c0.33192,0.13171,0.18723,0.67492-0.14927,0.54142c-0.51516-0.20436-1.03032-0.40876-1.54552-0.61312
		C23.07125,4.54614,23.21594,4.00289,23.55245,4.13635z"/>
</g>
<polyline class="st0" points="16.08864,7.91302 18.4018,8.98725 18.92603,9.47544 18.38102,10.44525 17.25869,10.17164 "/>
<g>
	<path class="st3" d="M15.24149,7.61051c0.04141-0.00488,0.08212-0.01122,0.12356-0.01683
		c1.55457,0.74255,3.06917,1.56514,4.53811,2.46489c0.01196,0.16354,0.19585,0.2541,0.35444,0.21757
		c0.01262,0.00774,0.02597,0.01617,0.03858,0.02388c0.30746,0.1923,0.58888-0.29407,0.28358-0.48497
		c0.52147-1.46897,1.05629-2.9309,1.59107-4.39214c0.23513-0.6429,0.51307-1.28511,0.70467-1.94276
		c0.1137-0.38881,0.16706-0.88361-0.12144-1.21209c-0.31722-0.36145-0.85204-0.31513-1.20644-0.0344
		c-0.42607,0.33761-0.60362,0.9321-0.88787,1.38054c-1.14824,1.81289-3.1071,3.09096-5.22946,3.40891
		c-0.04984-0.00635-0.09756,0.0007-0.14036,0.01893c-0.01617,0.00209-0.03231,0.00495-0.04845,0.00704
		C14.88635,7.09256,14.88352,7.65401,15.24149,7.61051z"/>
</g>
<polyline class="st0" points="29.37566,2.50606 28.71057,3.35819 28.00392,3.35819 27.90001,2.36057 "/>
<g>
	<path class="st3" d="M21.94766,3.67526c-0.00913,0.22952,0.32495,0.38951,0.47936,0.1986
		c0.40355-0.50108,0.99592-1.04994,1.69926-0.88695c0.29055,0.06748,0.53427,0.29242,0.65582,0.56108
		c-0.05769-0.12745,0.0757,1.9969,0.35591,1.95395c0.10603-0.01628,0.20143-0.07148,0.294-0.12565
		c0.67991-0.39798,1.402-0.75899,2.01578-1.25617c0.62222-0.50401,1.14072-1.09916,1.59415-1.75663
		c0.1474-0.22384-0.09686-0.44984-0.31722-0.41265c-0.71872,0.12001-1.4437,0.17051-2.16942,0.1565
		c-0.03162-0.01335-0.06598-0.02248-0.10387-0.02318c-1.38898-0.03367-2.77723-0.06668-4.16551-0.10035
		c-0.1572-0.00352-0.27507,0.13196-0.28072,0.28072C21.98628,2.73479,21.96663,3.20502,21.94766,3.67526z"/>
</g>
<g>
	
		<rect x="7.13911" transform="matrix(-1 -1.224647e-16 1.224647e-16 -1 51.40017 2.78266)" class="st3" width="37.12196" height="2.78266"/>
</g>
<g>
	<path class="st0" d="M14.86621,1.39705c0.02457,0.35653,0.29825,0.66044,0.66957,0.65343
		c0.37832-0.00631,0.68989-0.32147,0.70463-0.69414c0.00139-0.03297-0.00348-0.06176-0.01049-0.08843
		c0-0.02666-0.00282-0.05472-0.01192-0.08494c-0.10673-0.3467-0.45904-0.55022-0.81349-0.49407
		C15.06485,0.74296,14.84303,1.06083,14.86621,1.39705z"/>
</g>
<g>
	<path class="st1" d="M11.84684,1.53462c0.09543,0.34179,0.48923,0.5657,0.83168,0.46532
		c0.34326-0.09965,0.56222-0.48498,0.46535-0.83098c-0.08986-0.31934-0.40498-0.50181-0.71868-0.48149
		c-0.0351-0.00209-0.07229,0.00213-0.113,0.01614c-0.04005,0.00913-0.07299,0.02457-0.10108,0.04423
		C11.93036,0.8952,11.75702,1.21249,11.84684,1.53462z"/>
</g>
<g>
	<path class="st4" d="M8.67659,1.47425c0.05615,0.34883,0.41129,0.59027,0.75657,0.5313
		c0.33761-0.05681,0.57696-0.39233,0.54395-0.72851C9.94204,0.91699,9.61848,0.6608,9.26683,0.65941
		C9.13912,0.65871,9.0577,0.72818,9.01981,0.818C8.78611,0.94156,8.63027,1.18366,8.67659,1.47425z"/>
</g>
</svg>
