<?xml version="1.0" encoding="UTF-8"?><svg id="b" xmlns="http://www.w3.org/2000/svg" viewBox="0 0 449.18 290.37"><defs><style>.d{fill:#eeec9d;}.e{fill:#f0ee9f;}.f{fill:#ea5b5e;}.g{fill:#f05c5e;}.h{fill:#fff;}.i{fill:#ffc5ff;}.j{fill:#1b1749;}.k{fill:#6eb9bf;}.l{fill:#52a3ac;}.m{fill:#52a5ae;}</style></defs><g id="c"><path class="l" d="m366.56,94.49c-.43.05-43.53,4.99-101.57,27.14-34.08,13.01-66.57,29.32-96.56,48.47-37.48,23.94-71.15,52.43-100.07,84.67l-1.02-.91c29.01-32.34,62.78-60.91,100.38-84.92,30.08-19.21,62.65-35.56,96.83-48.6,58.2-22.2,101.44-27.15,101.87-27.2l.15,1.36Z"/><path class="l" d="m68.67,255.04c-.59-1.19-1.85-1.79-3.13-1.64-1.4.17-2.72,1.18-3.01,2.61-.06.27.06.49.23.62-.18.12-.3.33-.25.61.49,2.73,4.44,3.79,5.99,1.38.67-1.04.71-2.47.17-3.57Zm-.81,1.55c.03,1.08-.61,2.12-1.75,2.2-1.12.08-2.25-.7-2.46-1.83-.02-.14-.08-.24-.16-.31.08-.07.14-.17.17-.3.22-1.05,1.22-1.77,2.27-1.78,1.14,0,1.9.92,1.93,2.02Z"/><path class="l" d="m182.25,218.22c30.35-20.25,58.41-43.36,83.4-68.7,31.24-31.67,57.74-66.91,78.79-104.77l1.19.66c-21.11,37.97-47.7,73.33-79.03,105.08-25.06,25.4-53.2,48.58-83.63,68.88"/><path class="l" d="m344.06,44.57c.83,1.03,2.2,1.34,3.41.9,1.33-.48,2.39-1.75,2.36-3.21,0-.28-.16-.46-.36-.55.15-.16.22-.39.11-.65-1.09-2.56-5.17-2.71-6.15-.01-.42,1.16-.15,2.56.63,3.52Zm.44-1.69c-.27-1.04.12-2.2,1.21-2.53,1.08-.33,2.35.19,2.8,1.24.05.13.13.21.22.27-.06.08-.1.2-.09.33.02,1.07-.79,2-1.82,2.23-1.11.26-2.05-.47-2.33-1.55Z"/><path class="i" d="m35.61,79.36c0,7.26,1.25,14.22,3.55,20.69,4.6,12.94,13.39,23.89,24.73,31.22.22.14.43.28.65.42,1.42.89,2.88,1.73,4.37,2.5.25.13.51.26.76.39,8.33,4.19,17.74,6.54,27.69,6.54,5.34,0,10.53-.68,15.48-1.96,26.62-6.87,46.28-31.04,46.28-59.8,0-7.47-1.33-14.64-3.76-21.27-.1-.27-.2-.53-.3-.8-1.32-3.44-2.93-6.74-4.82-9.85-.76,1.24-1.53,2.49-2.29,3.73-1.56,2.53-3.12,5.06-4.69,7.59-.15.24-.3.48-.45.72-4.47,7.21-8.96,14.42-13.47,21.6-.12.2-.25.4-.37.6-.13-.06-.27-.12-.4-.17-.17-.07-.35-.14-.52-.21-1.35-.52-2.7-.96-4.01-1.33.33-.5.66-1,.99-1.49.15-.23.31-.46.46-.7,1.24-1.86,2.47-3.72,3.71-5.58.23-.34.45-.68.68-1.02.02-.03.03-.05.05-.08,1.31-1.97,2.62-3.94,3.93-5.9.4-.59.79-1.19,1.18-1.78,1.27-1.91,2.54-3.82,3.82-5.73.16-.24.32-.47.47-.71,1.06-1.59,2.12-3.19,3.18-4.78,1.82-2.74,3.64-5.47,5.46-8.21-1.86-2.66-3.93-5.17-6.18-7.5-.4-.42-.81-.82-1.22-1.23-11.14-10.92-26.39-17.65-43.22-17.65-11.72,0-22.68,3.27-32.02,8.94-.24.15-.48.29-.72.44-1.3.81-2.56,1.67-3.79,2.57-.78.57-1.55,1.16-2.3,1.77-.54.44-1.08.88-1.6,1.34-.64.56-1.28,1.13-1.9,1.72-4.82,4.54-8.91,9.84-12.08,15.72-.14.25-.27.51-.41.77-4.44,8.52-6.95,18.22-6.95,28.49Z"/><path class="m" d="m59.66,85.55c.38.65.81,1.28,1.26,1.88,1.74,2.33,3.92,4.36,6.08,6.29,1.09.97,2.24,1.87,3.57,2.48,1.35.61,2.78.94,4.23,1.18,3.21.54,6.44,1,9.66,1.49,1.57.24,3.15.51,4.74.57,1.63.06,3.22-.18,4.78-.67,1.54-.48,3.03-1.1,4.52-1.69,1.49-.6,2.98-1.21,4.45-1.84,2.89-1.23,5.8-2.48,8.6-3.92,1.31-.67,2.52-1.49,3.43-2.66.8-1.03,1.27-2.29,1.55-3.56.15-.67.25-1.34.33-2.02.07-.6.17-1.24.12-1.85-.04-.45-.18-.98-.43-1.41,0-.07,0-.14-.02-.2-.11-.47-.55-.7-1-.65-.22-.05-.47-.04-.74.05-.05.02-.1.04-.15.06-1.13.13-2.26.21-3.4.25-.15-.25-.41-.44-.69-.41-1.34.1-2.67.21-4.01.31-.22-.02-.44-.04-.67-.07-1.62-.21-3.16-.67-4.66-1.27.22-.06.44-.17.66-.34.61-.47.92-1.25,1.12-1.97.23-.81.42-1.62.69-2.42.65-1.98,1.53-3.88,2.61-5.66.37.23.77.16,1.06-.08,1.19-.99,1.71-2.51,1.54-4.04-.02-.16-.1-.3-.21-.41.64-3.79.32-7.78-1.02-11.38-.4-1.07-.96-2.08-1.8-2.87-.82-.77-1.8-1.32-2.84-1.72-2.13-.82-4.48-.98-6.74-.78-2.37.22-4.68.79-6.96,1.46-2.13.63-4.48,1.16-6.03,2.9-3.24,3.64-2.23,8.77-2.23,13.22,0,3.18-.32,6.36-.94,9.47-.13.1-.23.25-.28.46-.25,1.16-.5,2.31-.75,3.47-.27.57-.61,1.11-1.01,1.6-2.09.8-4.26,1.36-6.48,1.68-3.31.3-6.59.53-9.86.88-1.16.12-2.54.63-2.76,1.95-.13.81.26,1.55.65,2.23Z"/><path class="j" d="m58.39,81.32c4.31-.64,8.62-1.27,12.93-1.91,1.02-.15,2.05-.29,3.07-.45.81-.13,1.65-.29,2.39-.65.74-.36,1.27-.92,1.55-1.7.33-.95.52-1.96.76-2.94.58-2.4,1.15-4.81,1.69-7.22.13-.59,1.02-.32.89.27-.5,2.21-1.01,4.42-1.54,6.62-.25,1.06-.48,2.13-.79,3.17-.25.85-.66,1.62-1.37,2.16-1.42,1.09-3.36,1.2-5.07,1.46-2.23.33-4.46.66-6.69.99-2.54.37-5.07.75-7.61,1.12-.59.09-.8-.82-.21-.91Z"/><path class="j" d="m76.18,54.77c.94,8.59,8.6,14.8,17.12,13.87,6.01-.66,10.84-4.69,12.83-10.02,1.78.12,3.62-.88,4.38-2.54,1.74-.77,3.61-1.85,4.1-3.76.33-1.28-.09-2.58-.88-3.61-.76-1.01-1.85-1.69-2.94-2.31.57-1.15.54-2.57-.05-3.71-1.34-2.62-4.54-2.25-6.99-2.53-2.05-.23-3.65-1.42-5.56-2.02-2.55-.8-5.66-.9-8.31-.61-8.52.93-14.67,8.65-13.73,17.24Z"/><path class="h" d="m82.21,55.11c.25,1.53.6,3.05,1.01,4.54.82,2.99,2.01,5.91,3.88,8.41,1.61,2.15,3.78,3.9,6.26,4.91,2.66,1.08,5.63,1.12,8.28-.02,2.69-1.16,4.7-3.5,6.01-6.09,2.43-4.81,2.6-10.94-.45-15.5-.09-.54-.29-1.04-.6-1.49-.71-1.03-1.8-1.67-2.92-2.15-1.32-.57-2.74-.92-4.13-1.27-1.59-.4-3.22-.71-4.86-.75-1.66-.04-3.27.24-4.83.79-1.45.51-2.88,1.14-4.25,1.84-1.18.6-2.38,1.4-3.02,2.62-.67,1.29-.61,2.78-.38,4.18Z"/><path class="m" d="m82.21,55.11c.25,1.53.6,3.05,1.01,4.54.82,2.99,2.01,5.91,3.88,8.41,1.61,2.15,3.78,3.9,6.26,4.91,2.66,1.08,5.63,1.12,8.28-.02,2.69-1.16,4.7-3.5,6.01-6.09,2.43-4.81,2.6-10.94-.45-15.5-.09-.54-.29-1.04-.6-1.49-.71-1.03-1.8-1.67-2.92-2.15-1.32-.57-2.74-.92-4.13-1.27-1.59-.4-3.22-.71-4.86-.75-1.66-.04-3.27.24-4.83.79-1.45.51-2.88,1.14-4.25,1.84-1.18.6-2.38,1.4-3.02,2.62-.67,1.29-.61,2.78-.38,4.18Z"/><path class="j" d="m76.5,54.12c.04.2.24.36.44.36,1.25,0,2.47.39,3.5,1.08-.23.38-.41.84-.56,1.37-2.3,8.02-.09,21.32,9.19,23.9,3.23.9,6.92,1.23,10.26,1.2,2.55-.02,5.59-.59,6.94-3.14.78-1.46.82-3.19.84-4.83.04-2.99,1.11-6.6-1.71-8.49-2.68-1.79-5.87-2.82-9.04-2.49-2.78.3-5.43,1.67-7.21,3.93-.06.08-3.21-3.76-3.44-4.22-1.03-2.08-.24-4.05-.69-6.21-.13-.63-.37-1.23-.6-1.83-.44-1.14-.88-2.28-1.32-3.42,1.53-.03,2.95-.2,4.16-1.25,1.01-.88,1.6-2.13,1.72-3.44,1.23.81,2.56,1.43,3.93,1.97,5,2,11.6,4.43,16.3.45.34-.29.07-.74-.28-.79-.4-2.75-4.06-3.56-6.25-4.26-5.64-1.79-11.77-3.28-17.6-1.47-2.61.81-5.02,2.25-6.71,4.43-1.56,2-2.42,4.6-1.87,7.14Zm19.25,10.81c.85-.48,1.89-.52,2.86-.41,1.64.19,3.23.77,4.58,1.69.99.67,1.09,1.81.1,2.56-.53.4-1.21.57-1.87.72-1.12.25-2.27.47-3.41.35-.64-.07-1.28-.25-1.84-.56-.43-.24-.81-.57-1.09-.97-.78-1.12-.56-2.68.67-3.38Z"/><path class="j" d="m105.84,71.6c.02.06.05.12.09.17.14.35.74.43.88-.03.39-1.23,1.05-2.36,1.52-3.56.48-1.22.85-2.49,1.12-3.78.1-.49-.6-.88-.84-.38-.7,1.45-1.81,2.63-3.23,3.38-.14.07-.26.24-.25.4.08,1.29.3,2.56.71,3.8Z"/><path class="j" d="m78.42,60.76c-.96-8.85,5.39-16.82,14.16-17.78,8.78-.96,16.7,5.46,17.66,14.31.96,8.85-5.39,16.82-14.16,17.78-8.78.96-16.7-5.46-17.66-14.31Zm.97-.11c.91,8.31,8.34,14.33,16.58,13.43,8.24-.9,14.2-8.39,13.3-16.69-.91-8.31-8.35-14.33-16.58-13.43-8.24.9-14.2,8.39-13.3,16.69Z"/><path class="m" d="m75.46,62.12c.61,1.71,2.37,2.62,4.12,2.48.87-.07,1.64-.42,2.15-1.14.48-.67.67-1.51.77-2.31.12-.95.01-1.93-.57-2.71-.2-.27-.43-.49-.69-.69-1.3-1.35-3.57-2.32-5.03-.67-.59.67-.84,1.55-.96,2.42-.12.88-.09,1.8.21,2.64Z"/><path class="j" d="m75.47,57.61c.36-.73.91-1.42,1.6-1.84.74-.45,1.63-.49,2.46-.28,1.75.45,3.59,2.02,3.79,3.91.06.59-.84.81-.9.21-.15-1.39-1.33-2.49-2.56-3.02-.61-.26-1.33-.41-1.97-.17-.63.22-1.1.79-1.43,1.34-1.3,2.17-.67,5.53,1.85,6.51,1.28.5,2.83.05,3.46-1.22.27-.54,1.06-.05.79.49-.7,1.41-2.36,2.09-3.87,1.81-1.58-.29-2.89-1.57-3.46-3.05-.58-1.51-.48-3.23.24-4.67Z"/><path class="j" d="m78.41,59.03c1.11.48,2.22.96,3.32,1.45.54.24.29,1.13-.26.9-1.11-.48-2.22-.96-3.32-1.45-.54-.24-.29-1.13.26-.9Z"/><path class="j" d="m100.84,59.38c.11-.59,1.15-.58,1.04.02-.22,1.17.19,2.3,1.15,3.09.49.4-.28,1.05-.77.65-1.13-.94-1.68-2.37-1.42-3.76Z"/><path class="j" d="m98.93,65.91c.44.64,1.27.83,1.98.98.59.12.32,1.02-.26.9-1-.21-1.93-.57-2.54-1.44-.34-.49.48-.92.82-.44Z"/><path class="j" d="m104.58,56.19c.33-.22.77,0,.95.3.17.3.22.61.16.91.02.05.04.11.05.16.1.43-.04.79-.31,1.12-.09.1-.21.15-.33.17-.07.03-.14.04-.21.05-.16.02-.29-.02-.42-.1-.09-.04-.18-.09-.26-.18-.12-.13-.21-.28-.26-.44-.1-.24-.15-.51-.12-.75.05-.53.32-.96.76-1.25Z"/><path class="j" d="m94.64,55.72c.35.12.63.39.7.77.05.25,0,.52-.13.74-.04.17-.08.3-.12.43-.16.55-.82.63-1.2.27-.42-.24-.67-.7-.67-1.15,0-.18.06-.35.14-.51.02-.1.04-.19.07-.28.18-.51.81-.67,1.2-.27Z"/><path class="j" d="m105.48,54.02c.55.59,1.97.42,2.6,1.13.25.29.55.1.59-.18.2-.02.37-.1.5-.28.47-.67-.18-1.82-.78-2.32-.9-.76-2.77-.6-3.06.59-.13.52-.05.85.16,1.08Z"/><path class="j" d="m92.02,54.48c.81-.01,1.63-1.19,2.57-1.18.38,0,.44-.34.26-.56.12-.16.18-.34.13-.56-.19-.8-1.47-1.08-2.25-.97-1.17.16-2.3,1.66-1.61,2.67.3.45.6.61.9.6Z"/><path class="m" d="m149.05,83.81c.02-1.42.04-2.85.06-4.28,0-.24.19-.38.39-.41l.37-8.87c.01-.26.18-.39.37-.41-.01-.4-.03-.79-.06-1.19-.56-.92-.69-2.08-.32-3.13-1.37-6.27.27-12.92,1.13-19.28,1.95-3.18,3.9-6.36,5.85-9.54.16,1.02.31,2.03.47,3.05.32,2.11.65,4.21.97,6.32.42,1.06,1.62,1.44,2.53,1.03l1.04-1.18c.11-.13.29-.14.44-.09.17-.8.31-1.59.57-2.26.44-1.14,1.16-2.12,2.27-2.68,1.21-.61,2.62-.73,3.94-.43,1.27.29,1.34.04,2.37.82-.19-.65-.29-.78-.58-1.39-1.29-2.53-2.8-4.05-5.25-5.51-.06-.04-.11-.19-.14-.24-1.16-.65-2.38-1.15-3.66-1.56-1.36-.43-2.43-1.34-2.41-2.98.02-1.73,1.97-2.48,3.31-2.33,1.67.19,2.8.64,4.35,1.29,3.04,1.28,6.05,3.41,7.94,6.12,2.21,3.16,3.88,5.5,3.71,9.35-.01.3-.85,2.46-1.08,2.43.11.29.19.58.24.87.04.06.07.14.07.23,0,.11,0,.22,0,.32.17.73.16,1.5-.05,2.22-.16.54-.42,1.14-.86,1.52-.1.25-.21.5-.33.74-.76,1.63-1.64,3.22-2.48,4.81-1.73,3.23-3.52,6.43-5.38,9.59-.73,1.24-1.47,2.47-2.22,3.69l-.16.44c.32,2.99.63,5.98.95,8.97.25,2.39.5,4.78.76,7.16.12,1.16.25,2.32.37,3.48.1.98.24,1.88-.11,2.83-.55,1.51-1.81,2.66-3.25,3.32-1.65.76-3.43.84-5.2.49-2.07-.41-3.99-1.37-5.86-2.32-1.59-.81-3.26-1.67-4.37-3.12-1.83-2.39-1.13-5.15-.69-7.9Z"/><path class="m" d="m151,46.24c1.95-3.18,3.9-6.36,5.85-9.54,0-.02,0-.03,0-.05-.13-.86-.3-1.73-.74-2.49-.22-.39-.53-.74-.9-1.01-.77-.57-1.76-.79-2.66-.27-1.09.64-1.47,2.08-1.4,3.26.02.35.08.7.16,1.04.06.54.1,1.08.13,1.62.09,1.9-.02,3.81-.23,5.7-.06.57-.13,1.15-.21,1.73Z"/><path class="j" d="m150.72,45.08c.23-2.24.25-4.49-.06-6.72-.26-1.85-.51-3.85.7-5.44.93-1.23,2.55-1.68,3.91-.85,1.33.81,2.05,2.39,2.45,3.84.65,2.36.74,4.71.61,7.14-.05.95-.11,2.24.69,2.93.53.46,1.57.71,1.99-.01.28-.47,1.01-.04.73.43-.69,1.17-2.28,1.03-3.23.26-1.43-1.16-1.02-3.32-.96-4.92.08-2.11-.17-4.31-.87-6.31-.45-1.29-1.48-3.08-3.08-2.94-2.05.18-2.41,2.74-2.28,4.33.09,1.09.3,2.17.38,3.27.08,1.09.07,2.18.01,3.27-.23,4.27-1.29,8.42-1.87,12.65-.6,4.39-.69,9.08,1.28,13.15.24.49-.5.92-.73.43-3.78-7.81-.48-16.43.34-24.5Z"/><path class="j" d="m148.88,76.97c.25-2.94.52-5.87.81-8.8.05-.54.9-.54.85,0-1.03,10.4-1.79,20.83-2.26,31.27-.13,2.94-.24,5.89-.33,8.83-.02.55-.87.55-.85,0,.31-10.45.91-20.89,1.78-31.3Z"/><path class="e" d="m169.09,90.84s-4.05,2.19-10.32,1.38c-6.27-.81-10.68-4.67-10.68-4.67l-.43,7.25-11.32-8.66-21.36,9.79,4.83,17.01s17.88,12.48,25.12,15.13c7.25,2.64,19.64,3.17,23.96-4.55,3.75-6.69.2-32.67.2-32.67Z"/><path class="e" d="m122.65,135.97c4.8-6.25,1.55-29.05-.42-34.34-1.97-5.29-.24-3.77-.24-3.77l18.12-8.21s-4.99-5.26-11.11-7.96c-.3-.13-.61-.26-.92-.38-1.35-.52-2.7-.96-4.01-1.33-6.37-1.77-11.87-1.85-11.87-1.85,0,0,.68,10.28-17.02,10.86-17.7.58-23.31-9.98-23.31-9.98,0,0-20.3-.55-26.87,10-1.5,2.41-3.55,6.34-5.81,11.04-7.67,15.93-18.29,37.76-17.45,46.06.83,8.28,10.21,14.9,22.57,12.05,12.36-2.85,16.95-21,16.95-21l2.67-5.88.96-2.13c0,.07-.16,1.11-.31,2.54,1.42.89,2.88,1.73,4.37,2.5.25.13.51.26.76.39,8.33,4.19,17.74,6.54,27.69,6.54,5.34,0,10.53-.68,15.48-1.96"/><path class="e" d="m124.05,79.97c1.31.37,2.67.8,4.01,1.33.31.12.62.25.92.38,6.36-10.14,12.69-20.31,18.97-30.51.77-1.24,1.53-2.49,2.29-3.73-.71-1.18-1.47-2.34-2.26-3.46-1.82,2.74-3.64,5.47-5.46,8.21-4.21,6.33-8.42,12.66-12.63,18.99-1.95,2.93-3.9,5.86-5.85,8.79Z"/><path class="g" d="m151.44,38.81c-1.15,1.72-2.29,3.45-3.44,5.17.79,1.13,1.54,2.28,2.26,3.46.25-.4.49-.8.74-1.21,1.95-3.18,3.9-6.36,5.85-9.54.96-1.57,1.91-3.14,2.87-4.7-1-1.02-1.32-2.54-.39-3.75.85-1.11,2.18-1.44,3.49-1.35,1.85-3.04,3.69-6.08,5.52-9.12.82.62,1.64,1.23,2.46,1.85.22.16.43.06.54-.12.07-.05.13-.13.15-.24.88-3.91,1.49-7.88,1.84-11.87.01-.14-.04-.24-.11-.31.16-.36-.2-.84-.57-.56-1.62,1.25-2.98,2.77-4.38,4.26-1.52,1.62-3.04,3.24-4.56,4.86-.28.3,0,.72.3.73.69.18,1.35.36,2.02.53-3.6,5.4-7.19,10.81-10.78,16.21,0,.01-.02.03-.03.04-1.25,1.89-2.51,3.77-3.76,5.66Z"/><path class="h" d="m147.79,87.96c.04-.54.89-.55.85,0l-1.15,17.15c-.04.54-.89.55-.85,0l1.15-17.15Z"/><path class="j" d="m160.6,56.58c.45-.31.88.43.43.73-3.2,2.2-4.93,6.29-4.27,10.13.09.54-.73.76-.82.23-.74-4.23,1.11-8.65,4.66-11.09Z"/><path class="m" d="m85.23,28.48s.09.02.13.03c-.01.04-.02.09-.03.14-.06,1.34-.13,2.67-.19,4.01-.01.32.36.65.68.52,1.83-.77,3.66-1.54,5.49-2.3.42-.18.54-.71.13-.98-1.8-1.2-3.81-2.03-5.93-2.45-.68-.13-.96.9-.29,1.04Zm1.18.28c1.26.35,2.47.86,3.6,1.51-1.25.52-2.5,1.05-3.75,1.57.05-1.03.1-2.06.14-3.08Z"/><path class="g" d="m155.21,18.69c.04,1.29,1,2.4,2.33,2.42,1.21.02,2.41-.85,2.63-2.06.04-.21-.01-.38-.11-.52.1-.13.14-.31.08-.52-.35-1.23-1.6-2.01-2.86-1.86-1.28.15-2.12,1.29-2.07,2.55Zm3.68-.34c.02.07.05.13.09.19-.02.05-.04.1-.06.17-.26,1.36-2.32,1.53-2.42,0-.1-1.52,2.01-1.7,2.39-.34Z"/><rect class="j" x="95.9" y="13.61" width="57.27" height="22.4" rx="11.2" ry="11.2" transform="translate(249.08 49.62) rotate(-180)"/><path class="j" d="m135.26,41.36c4.14-1.78,7.09-4.87,8.05-8.33.21-.04.41-.22.28-.41-.04-.06-.09-.13-.13-.19.02-.09.04-.17.05-.26.04-.24-.28-.31-.51-.23-1.78-1.58-5.44-1.81-7.46-.35-.14.03-.25.12-.26.23-.05.1,0,.2.08.27,1.02,2.96.79,6.09-.63,8.95-.12.23.28.42.55.31Z"/><path class="e" d="m141.78,24.26c-.19,1.31-1.69,2.35-2.98,1.79-.99-.43-1.41-1.61-1.16-2.61.1-.22.2-.44.3-.66.22-.5-.42-.89-.73-.43-.19.27-.32.57-.39.88-.61,1.29-1.42,2.59-2.87,2.95-.97.24-1.64-.19-2.39-.75-.53-.4-1.09-.7-1.76-.82-.16-.03-.33-.05-.49-.06-.17-.68-.59-1.27-1.31-1.55-1.75-.67-3.11,1.23-3.83,2.53-.41.73-.89,1.6-1.67,2-.74.38-1.5.04-1.83-.7-.36-.82-.21-1.53.19-2.14.96-.72,1.92-1.43,2.88-2.15.43-.32.07-.99-.43-.73-1.11.56-2.42,1.26-3.14,2.34-.12.09-.23.17-.35.26-.58.43-1.16.87-1.74,1.3-.55.41-1.1.89-1.69,1.24-.24.14-.64.35-.77-.01-.07-.19.02-.47.08-.65.21-.62.59-1.21.9-1.79.7-1.34,1.4-2.67,2.1-4.01.22-.43-.31-.85-.67-.52-1.44,1.35-2.88,2.7-4.32,4.05-.72.68-1.44,1.35-2.16,2.03-.68.64-1.33,1.34-2.06,1.92-.36.28-1.53,1.02-1.72.19-.09-.41.23-.88.43-1.21.22-.37.45-.73.69-1.09.97-1.45,2.12-2.77,3.39-3.97.32-.3-.02-.8-.41-.71-2.68.62-4.85,2.79-5.46,5.47-.12.53.7.76.82.23.4-1.76,1.53-3.25,3.04-4.14-.62.69-1.21,1.41-1.75,2.17-.45.64-.91,1.3-1.27,2-.29.57-.5,1.28-.14,1.88.68,1.11,2.15.46,2.92-.16.67-.53,1.26-1.16,1.88-1.75.69-.65,1.39-1.3,2.08-1.95.93-.87,1.86-1.74,2.78-2.61-.45.87-.91,1.74-1.36,2.61-.43.82-1.27,2.45,0,2.99.67.28,1.31-.14,1.83-.53.72-.53,1.44-1.07,2.16-1.61l.23-.17c-.11,1.17.41,2.5,1.6,2.87,1.63.49,2.83-1.07,3.53-2.3.45-.78.87-1.6,1.64-2.12.79-.53,1.66-.29,1.99.55-1.97.29-3.73,1.88-3.89,3.93-.01.18.14.37.31.41,1.59.36,3.24-.44,4.07-1.82.29-.48.46-1.08.48-1.68.58.07,1.14.29,1.66.68.65.48,1.25.93,2.08.99.7.05,1.42-.15,2.02-.5.72-.41,1.26-1,1.7-1.68.25.83.82,1.57,1.64,1.92,1.71.72,3.84-.53,4.11-2.34.08-.54-.74-.77-.82-.23Zm-16.35,3.9c.23-1.09,1.07-1.97,2.09-2.43.34-.16.69-.25,1.04-.3-.03,1.53-1.6,2.83-3.13,2.73Z"/><path class="e" d="m116.58,44.85c1.28-1.46,2.55-2.92,3.83-4.38.36-.41,1.03.11.67.52-1.28,1.46-2.55,2.92-3.83,4.38-.36.41-1.03-.11-.67-.52Z"/><path class="e" d="m118.83,48.77c2.49-.24,4.97-.48,7.46-.71.54-.05.65.79.11.84-2.49.24-4.97.48-7.46.71-.54.05-.65-.79-.11-.84Z"/><path class="e" d="m118.67,53.51c1.64.77,3.28,1.53,4.92,2.3.49.23.16,1.01-.33.78-1.64-.77-3.28-1.53-4.92-2.3-.49-.23-.16-1.01.33-.78Z"/><path class="j" d="m158.66,53.55c.46-1.01,1.27-1.87,2.02-2.67.7-.76,1.48-1.49,2.4-1.98,1.93-1.04,4.22-.84,6.18,0,2.36,1.03,4.14,2.97,5.84,4.84.37.41-.23,1.01-.6.6-2.41-2.64-5.55-5.98-9.53-5.22-1.91.36-3.25,1.82-4.45,3.23-.62.73-1.31,1.57-1.32,2.58-.02.89.56,1.54,1.44,1.65,2.04.26,3.5-1.73,5.18-2.53.49-.24.93.5.43.74-1.82.87-3.21,2.74-5.4,2.66-.81-.03-1.62-.35-2.09-1.04-.58-.85-.5-1.96-.09-2.86Z"/><path class="j" d="m165.39,54.43c.17-.17.43-.15.6,0,.38.32.76.65,1.13.97.18.15.15.45,0,.6-.17.17-.43.15-.6,0-.38-.32-.76-.65-1.13-.97-.18-.15-.15-.45,0-.6Z"/><path class="j" d="m166.57,70.21c1.71-2.55,3.32-5.17,4.83-7.85.74-1.33,1.46-2.67,2.16-4.02.56-1.1,1.84-2.95.74-4.1-.38-.4.22-1,.6-.6,1.02,1.06.68,2.51.11,3.71-.73,1.55-1.55,3.06-2.38,4.56-1.65,2.99-3.42,5.9-5.32,8.74-.3.46-1.05.03-.74-.43Z"/><path class="j" d="m160.62,46.51c1.07-1.55,2.87-2.33,4.71-2.44,2.07-.13,4.07.62,5.82,1.66,1.67.99,4.15,2.23,5.22,3.89,1.03,1.6.93,3.82-.56,5.24-.76.72-1.42-.08-1-.43,1.21-1.01,1.48-2.7.75-3.97-.84-1.46-2.82-2.69-4.21-3.59-2.67-1.73-6.76-3.11-9.43-.57-1.19,1.14-1.75,3.02-.99,4.55.25.49-.49.92-.74.43-.76-1.53-.53-3.37.43-4.76Z"/><path class="j" d="m161.78,45.22c.05.54.91.55.86,0-.16-1.64.81-3.16,2.24-3.92,2.05-1.09,4.28-.57,6.22.5.19.1.38.21.56.33.79.49,1.52,1.05,2.16,1.62,1.18,1.04,3.11,2.18,3.75,3.65.55,1.27.5,2.87-.57,3.84-.41.37-.24,1.3.2.97,1.89-1.42,1.83-3.68,1.1-5.28-.07-.16-.15-.31-.24-.46-.15-.25-.33-.49-.53-.72-1.02-1.19-2.57-2.2-3.66-3.1-.65-.54-1.33-1.04-2.06-1.46-.37-.22-.75-.42-1.15-.59-.58-.25-1.19-.45-1.82-.57-1.76-.34-3.67-.11-5.12,1.02-1.26.99-2.09,2.55-1.92,4.17Z"/><path class="j" d="m159.65,31.94c.08.08.16.16.25.24,1.37,1.17,3.27,1.38,4.84,2.18,2.62,1.33,4.73,3.57,5.9,6.25.17.39.32.79.45,1.2.19.1.38.21.56.33.2-.06.36-.24.28-.5-.05-.15-.09-.29-.15-.43-1.06-3-3.18-5.58-5.92-7.19-.62-.37-1.28-.68-1.95-.94-.85-.33-1.75-.54-2.57-.95-.46-.23-.89-.56-1.21-.95-.68-.82-.89-1.9.1-2.79.59-.53,1.3-.73,2.04-.73.99,0,2.03.33,2.92.65,1.44.53,2.81,1.24,4.09,2.09,2.53,1.69,5.35,3.96,6.89,6.59,1.45,2.48,3,6.08,1.35,8.8-.04.07-.08.14-.13.2-.29.42.33.82.66.52.03-.02.05-.05.07-.09,2.2-3.25.19-7.7-1.68-10.61-1.79-2.77-4.9-5.12-7.75-6.78-1.48-.86-3.1-1.61-4.77-2.01-.37-.09-.76-.15-1.15-.18-1.32-.09-2.65.24-3.51,1.35-.94,1.22-.61,2.75.39,3.78Z"/><path class="j" d="m169.48,90.93c-.18-6.86-.99-13.71-2.44-20.53-.06-.3-.91-.22-.84.08.4,1.9.76,3.8,1.06,5.7,1.09,6.83,1.55,13.69,1.37,20.55,0,.3,1.51.39,1.52.09.05-1.95-.62-3.94-.67-5.88Z"/><path class="h" d="m65.96,123.34c.38.68,1.37,1.8,2.24,1.17.41-.29.42-.86.44-1.31.02-.51-.02-1.02-.1-1.52.05-.06.07-.14.06-.24-.15-1.18-1.44-1.24-2.31-.78-1.1.59-.84,1.76-.33,2.68Z"/><path class="m" d="m199.85,48.43c.14-.51.41-.94.8-1.27-.22-.34-.43-.69-.65-1.03-.26-.42.4-.8.66-.39.25.4.51.8.76,1.2.03.02.05.05.07.08.19-.15.37-.3.56-.44.38-.3.92.23.54.54-.23.18-.46.37-.69.55.27.44.54.87.81,1.31.26.42-.4.8-.66.39-.25-.4-.51-.81-.76-1.21-.27.21-.53.42-.8.64-.28.22-.75.03-.64-.37Z"/><path class="j" d="m104.97,78.27c4.71.53,9.42,1.05,14.13,1.58.59.07.49,1-.1.93-4.71-.53-9.42-1.05-14.13-1.58-.59-.07-.49-1,.1-.93Z"/><path class="m" d="m43.65,137.72l-.85,15.07s-6.63,2.04-8.79-5.71c-2.16-7.74,12.52-8.28,12.52-8.28l-2.88-1.08Z"/><path class="m" d="m40.77,153.75s-.09,0-.13,0c-2.74-.12-5.77-4.11-5.9-4.28l.67-.6s2.91,3.83,5.26,3.93c.58.03,1.09-.19,1.51-.67l.62.66c-.57.64-1.25.96-2.04.96Z"/><circle class="m" cx="358.77" cy="157.18" r="69.83"/><path class="e" d="m413.31,111.22c-.42-1.81-2.51-3.03-4.28-2.4-1.03.36-1.77,1.27-2.04,2.3-.13.1-.22.25-.24.46-.14,1.93,1.54,3.79,3.52,3.66,1.91-.13,3.47-2.12,3.03-4.01Zm-2.99,2.75c-.85.12-1.57-.35-1.98-1.03,0-.03-.02-.06-.03-.09-.42-1.02-.05-2.34,1.02-2.8,1.04-.46,2.37.26,2.71,1.31.37,1.14-.57,2.45-1.73,2.61Z"/><path class="j" d="m394.45,149.23c-1.19-12.08-9.47-22.46-9.38-34.81.02-2.66.5-5.28,1.55-7.7.02-.05.04-.1.06-.15.03-.02.05-.05.08-.07.07-.11.13-.21.19-.32,1.51-2.58,2.04-5.71,1.8-8.72-.35-4.48-2.3-8.66-5.12-12.13-6.48-7.98-17.65-11.1-27.34-7.59-4.75,1.72-9.4,5.26-10.37,10.49-.18.99,1.33,1.41,1.51.42.19-1.04.55-2.01,1.03-2.9.25.11.56.09.85-.15,2.09-1.77,4.53-3.07,7.16-3.84,2.54-.74,5.54-1.14,8.16-.57,1.87.41,1.38,1.99.74,3.3-.59,1.2-1.13,2.38-1.46,3.69-.63,2.52-.6,5.15.06,7.65.1,3.15,1.03,6.13,3.73,8.22-.12.17-.17.39-.11.62.2.77.96,1.28,1.73,1.15.62.11,1.27.02,1.84-.26,1.43.46,2.8.99,3.63,2.4,1.47,2.5.19,5.67-2.54,6.57-.35.11-.55.4-.57.76-.58,9.91-3.32,19.81-2.55,29.77.29,3.84,1.49,7.71,4.89,9.89,3.33,2.13,7.72,2.3,11.55,2.16,2.31-.09,4.73-.48,6.64-1.9,1.69-1.25,2.85-3.15,2.79-5.29-.01-.4-.27-.64-.57-.72Z"/><path class="h" d="m386.52,143.16c-4.27,2.1-8.97,2.82-13.67,3.15-8.41.58-17.38.73-25.27-2.68-6.36-2.74-11.95-8.08-13.46-15.03-.09-.44.13-.82.55-.97,2.93-.99,6.05-1.31,9.11-.92,1.45.19,2.85.55,4.24,1.01,1.36.46,3,1.09,4.33.23,2.09-1.36,1.92-4.83,1.81-6.96-.09-2.02-.41-4-.93-5.95-.28-.86-.57-1.72-.86-2.58-.15-.1-.3-.21-.44-.32-3.15-1.42-5.81-3.97-7.23-7.15-1.61-3.59-1.61-7.74-.15-11.35.77-3.78,3.45-7.04,6.78-8.99,1.01-.59,2.06-1.06,3.14-1.42,1.94-.99,4.02-1.72,6.16-2.14.35-.07.7-.13,1.06-.18.06.22.23.41.54.46,1.02.17,2.04.35,3.05.53-1.76,5.29-3.28,11.05-1.34,16.5.84,2.36,4.9,7.43,4.9,7.43,0,0,5.2-.58,6.46,3.56.71,2.33-1.56,5.04-3.61,5.92-1.86.79-3.37,2-3.7,4.12-.33,2.1.68,4.26,2.26,5.62.23.2.47.37.71.54-.2,2.49.63,4.79,2.46,6.68,3.92,4.03,9.87,5.26,13.36,9.82.25.32.07.9-.28,1.07Z"/><path class="g" d="m339.31,121.62s-6.53,11.73,14.83,18.55c18.75,5.98,27.85-2.18,27.85-2.18,0,0,15.92,4.82,23.06,14.77,7.14,9.95,10.61,16.57,3.27,29.33-7.34,12.76-27.96,26.12-30.93,33.55-2.97,7.44-4.57,8.92-4.57,8.92l-44.24-8.33-40.11-38.26s15.66-42.4,23.9-49.77c12.91-11.55,26.94-6.59,26.94-6.59Z"/><path class="h" d="m325.94,152.56c-6.25.53-12.23,3.52-16.25,8.38-4.14,5-6.06,11.67-5.21,18.11.13.99,1.7,1,1.57,0-.79-6.01.87-12.3,4.75-17,3.74-4.52,9.29-7.42,15.14-7.92,1-.09,1.01-1.66,0-1.57Z"/><path class="e" d="m317.74,84.36c-2.03-3.57-3.45-7.44-4.22-11.46-.57.95-1.14,1.91-1.71,2.87-.23.38-.77.3-1.01.02-3.36-3.8-5.18-8.82-4.99-13.89.16-4.42,1.9-8.73,4.76-12.09.03-.09.08-.18.17-.27l6.91-6.63c.48-.47,1.2.18.99.74-.66,1.75-1.33,3.51-1.99,5.26,5.72-1.33,11.44-2.67,17.17-4,.65-.15.93.76.48,1.13-3.84,3.18-7.68,6.35-11.52,9.53.69.16,1.38.32,2.07.47.54.12.74.75.32,1.13-.43.39-.86.77-1.29,1.16,4.82,1.47,9.64,2.94,14.46,4.41.64.19.44,1.13-.15,1.22-5.26.81-10.53,1.62-15.79,2.44,1.2,1.6,2.39,3.21,3.59,4.81.35.47-.14,1.31-.74.99-1.61-.86-3.3-1.5-5.06-1.91.18,4.66-.22,9.32-1.2,13.88-.14.65-.9.72-1.22.17Z"/><rect class="h" x="192.11" y="41.37" width="118.9" height="181.72"/><path class="j" d="m311.64,223.71h-120.16V40.74h120.16v182.97Zm-118.9-1.25h117.65V41.99h-117.65v180.46Z"/><rect class="j" x="192.46" y="154.8" width="118.18" height="68.02"/><path class="h" d="m399.7,240.33c.04.43-.39.78-.78.78-15.48.12-30.96-1.34-46.16-4.32-5.82-.24-11.72-.84-17.11-3.19-4.47-1.95-8.51-5.19-10.81-9.54-3.02-2.21-6.57-5.22-8.69-8.08-2.15-1.65-4.94-2.43-7.64-2-1.44.23-2.91.89-4.36.37-1-.36-1.78-1.2-1.87-2.25-.29-.59-.42-1.28-.34-1.99.29-2.73,2.83-4.31,5.31-4.79,3.19-.61,6.44-.17,9.4,1.04l-7.74-7.95c-2.33-1.54-4.78-2.93-6.33-5.29-1.19-1.81-1.76-4.13-.91-6.19.43-1.04,1.14-1.92,2.05-2.5-.84-.41-1.61-.96-2.13-1.73-.93-1.36-.77-3.1.34-4.31,1.21-1.32,3.06-1.8,4.78-1.43,1.75.38,3.22,1.49,4.57,2.62.15.12.29.24.43.36,2.43,1.13,4.84,2.33,7.21,3.57-.98-.98-1.95-1.97-2.93-2.96-2.49-2.52-5.17-4.95-7.51-7.61-.81-.92-1.57-2.06-1.38-3.34.15-1.02.86-1.79,1.8-2.18,2.25-.94,5.14.54,7.06,1.68,4.7,2.78,8.29,7.29,11.99,11.21,8.96,9.53,17.92,19.05,26.88,28.58.14.15.2.31.21.47,1.14.9,2.62,1.33,4.06,1.61,2.58.5,5.24.69,7.86.84,4.81.28,9.65.18,14.44-.3,2.03-.2,4.18-.57,6.17.07,1.91.61,3.07,2.1,4.07,3.75,4.58,7.56,7.3,16.18,8.07,24.98Z"/><path class="h" d="m292.98,180.92v-6.65c1.79-.84,2.94-2.64,2.95-4.61v-.15c0-2.83-2.29-5.12-5.12-5.12h-.15c-2.83,0-5.12,2.29-5.12,5.12h0v.15c0,1.98,1.16,3.78,2.95,4.61v6.65c-2.53.39-4.9,1.43-6.89,3.04l-18.23-14.2c.13-.47.2-.95.21-1.44,0-3.19-2.57-5.77-5.76-5.78-3.19,0-5.77,2.57-5.78,5.76,0,3.19,2.57,5.77,5.76,5.78,0,0,0,0,0,0,1,0,1.98-.27,2.84-.77l17.96,13.97c-3.3,4.99-3.21,11.49.22,16.38l-5.46,5.46c-.44-.14-.9-.22-1.36-.22-2.62,0-4.74,2.12-4.73,4.74,0,2.62,2.12,4.74,4.74,4.73,2.61,0,4.73-2.12,4.73-4.73,0-.46-.08-.92-.22-1.36l5.4-5.4c6.38,4.91,15.52,3.72,20.43-2.66,4.91-6.38,3.72-15.52-2.66-20.43-1.96-1.51-4.26-2.49-6.7-2.86m-2.24,21.87c-4.13.11-7.56-3.14-7.68-7.27-.11-4.13,3.14-7.56,7.27-7.68.14,0,.27,0,.41,0,4.13.14,7.35,3.61,7.21,7.73-.14,3.92-3.28,7.07-7.2,7.21"/><path class="j" d="m386.76,106.51c-.05.07-.09.15-.14.22.02-.05.04-.1.06-.15.03-.02.05-.05.08-.07Z"/><path class="j" d="m386.76,106.5c.08-.08.14-.19.19-.32-.06.11-.13.21-.19.32Z"/><path class="j" d="m355.75,113.84c-.81.02-1.61-.05-2.38-.19-.54-.09-1.07-.23-1.58-.39-4.61-1.47-8.17-5.55-9.24-10.39-1.46-6.64,1.41-13.24,6.21-17.8.73-.7,1.84.41,1.11,1.11-4.29,4.08-7.06,9.96-5.87,15.96.9,4.53,4.12,8.39,8.43,9.68.23.07.46.13.7.18.84.19,1.72.28,2.62.27,1.01-.02,1.01,1.55,0,1.57Z"/><path class="j" d="m375.99,110.06c-.31-2.24-1.88-4.17-4.13-4.66-2.28-.49-4.59.36-6,2.2-.61.8.75,1.58,1.36.79.96-1.26,2.7-1.79,4.23-1.47,1.65.34,2.77,1.71,3,3.35.22,1.6-.43,3.23-1.88,4.03-1.47.81-3.42.71-4.73-.36-.77-.64-1.89.47-1.11,1.11,1.83,1.51,4.4,1.77,6.52.67,2.06-1.08,3.06-3.4,2.74-5.65Z"/><path class="j" d="m372.27,110.44c-1.69-.49-3.37-.99-5.06-1.48-.97-.28-1.39,1.23-.42,1.51,1.69.49,3.37.99,5.06,1.48.97.28,1.39-1.23.42-1.51Z"/><path class="j" d="m355,123.59c.03-3.45-1.51-6.54-1.63-9.94-.01-.29-.01-.59,0-.89.02-.34-.08-.6-.24-.76-.24-.05-.47-.11-.7-.18-.32.09-.6.41-.63.94,0,.17-.01.34-.01.51,0,2.74.89,5.22,1.38,7.86.27,1.43.31,2.99-.15,4.4-.54,1.65-1.74,2.45-2.99,3.51-.43.36-1.01.56-1.5.8-.92.39-.51,1.91.42,1.51.89-.38,1.72-.87,2.54-1.38.75-.47,1.5-.86,2.05-1.57,1.04-1.34,1.44-3.14,1.46-4.81Z"/><path class="j" d="m366.56,115.2c.06-1.01-1.51-1.01-1.57,0-.03.51-.07,1.01-.13,1.52.07,2.77.22,5.55-.35,8.25,1.17-3.14,1.85-6.42,2.05-9.77Zm-15.36,26.49c2.55-1.99,5.1-4,7.23-6.46.27-.31.53-.62.78-.93-.29.31-.58.62-.88.92-2.24,2.3-4.72,4.35-7.14,6.46Z"/><path class="j" d="m369.41,100.21c-1.54-3.88-5.33-6.53-9.53-6.5-1.01,0-1.01,1.58,0,1.57,3.45-.02,6.74,2.12,8.02,5.35.37.93,1.89.52,1.51-.42Z"/><path class="j" d="m369.78,103.63c-.43.19-.84.41-1.23.65-3.16-2.26-4.63-6.21-4.74-10-.15-4.94,1.82-9.67,3.64-14.16.38-.94-1.14-1.34-1.51-.42-.15.38-.31.76-.46,1.14-.1.04-.19.12-.27.22-3.03,3.91-4.75,8.73-4.67,13.69.08,4.96,1.94,9.74,5.1,13.54.34.4.99.23,1.23-.16.9-1.43,2.16-2.48,3.71-3.15.92-.4.13-1.76-.79-1.36Zm-3.63,2.81c-3.17-4.21-4.45-9.45-3.84-14.5-.1,1.06-.11,2.12-.03,3.2.31,3.88,1.89,7.7,4.97,10.13-.4.36-.77.75-1.1,1.18Z"/><path class="j" d="m365.13,81.05c-5.4-.73-10.86.36-15.53,3.18-.86.52-.07,1.88.79,1.36,4.28-2.59,9.35-3.7,14.32-3.03.99.13,1.42-1.38.42-1.51Z"/><path class="j" d="m352.14,84.12c-.72-.71-1.83.4-1.11,1.11,2.63,2.6,3.03,7.11.73,10.07-.61.79.49,1.91,1.11,1.11,2.82-3.63,2.57-9.03-.73-12.29Z"/><path class="j" d="m367.96,115.26c.03-.09.06-.19.06-.3,0-.07,0-.14-.02-.22-.02-.09-.03-.15-.04-.2-.17-.6-.66-1.07-1.24-1.21-.64-.28-1.41.02-1.63.72-.05.16-.03.32.03.46-.05.15-.07.31-.06.46.01.42.35.78.78.78.08,0,.16-.02.24-.04.09.07.18.13.28.19.08.05.16.08.24.1.25.28.65.38.99.18.28-.16.43-.51.37-.83,0-.03,0-.07,0-.1Z"/><path class="j" d="m378.82,124.55c-.08-2.84-.79-5.84-3.39-7.38-2.55-1.52-5.89-.83-8.29-2.67-.26-.2-.53-.19-.73-.06-.04-.96-1.55-.95-1.57.05,0,.74,0,1.49.02,2.23.06-.5.1-1.01.13-1.52.06-1.01,1.63-1.01,1.57,0-.19,3.35-.88,6.63-2.05,9.77-.12.58-.28,1.16-.47,1.73-.98,2.86-2.78,5.37-4.81,7.59,1.91-2.37,3.48-4.99,4.68-7.79.22-.51.42-1.02.61-1.53.57-2.7.42-5.48.35-8.25-.72,6.76-3.65,13.25-8.29,18.23-5.29,5.68-13.27,9.24-16.63,16.57-.86,1.88-1.53,4.09-1.19,6.16.41,2.54,1.76,4.88,3.78,6.48,2.71,2.15,6.34,2.89,9.71,2.2,8.12-1.67,11.1-9.99,14.28-16.62.81-1.68,1.61-3.36,2.42-5.03.38-.48.76-.95,1.13-1.41,4.31-5.35,8.76-11.27,8.78-18.47,0-.11-.02-.2-.05-.28Zm-38.61,31.65v-.16c.6-5.29,5.47-9.99,9.47-13.16.5-.4,1.01-.79,1.51-1.19,2.42-2.11,4.9-4.17,7.14-6.46.3-.3.59-.61.88-.92-.26.32-.52.63-.78.93-2.14,2.46-4.68,4.46-7.23,6.46-2.94,2.57-5.78,5.22-7.99,8.49-1.22,1.81-2.2,3.78-2.77,5.86-.07.05-.15.1-.22.16Z"/><path class="j" d="m358.33,135.22c.3-.3.59-.61.88-.92-.26.32-.52.63-.78.93-2.14,2.46-4.68,4.46-7.23,6.46,2.42-2.11,4.9-4.17,7.14-6.46Z"/><path class="j" d="m364.51,124.97c.57-2.7.42-5.48.35-8.25.06-.5.1-1.01.13-1.52.06-1.01,1.63-1.01,1.57,0-.19,3.35-.88,6.63-2.05,9.77Z"/><path class="j" d="m349.27,100.8c-1.18-.42-1.89-1.58-1.85-2.81.04-1.01-1.53-1.01-1.57,0-.08,1.96,1.17,3.68,3,4.32.95.34,1.37-1.18.42-1.51Z"/><path class="j" d="m356.09,211.06c-4.72-5.3-9.45-10.6-14.3-15.78-4.32-4.61-8.74-9.13-13.34-13.45-4.58-4.3-9.31-8.6-14.41-12.28-1.1-.79-2.37-1.6-3.78-1.63-1.14-.02-2.48.51-2.81,1.7-.41,1.49.9,2.93,1.85,3.89,1.15,1.16,2.38,2.26,3.56,3.38,3.29,3.11,6.58,6.22,9.87,9.33,1.71,1.62,3.43,3.24,5.14,4.86.36.34.28.77.02,1.05-2.07-1.67-4.19-3.29-6.35-4.85-2.39-2.23-4.79-4.47-7.16-6.72-2-1.9-3.99-3.8-5.96-5.73-1.77-1.74-3.75-4.55-1.82-6.91,1.72-2.12,4.75-1.81,6.9-.61,1.36.76,2.58,1.8,3.8,2.76,1.31,1.03,2.6,2.09,3.88,3.16,2.64,2.22,5.22,4.51,7.74,6.87,10.03,9.36,19.17,19.61,28.29,29.84.67.75-.44,1.87-1.11,1.11Z"/><path class="j" d="m330.11,193.96c-.74-.62-1.48-1.22-2.22-1.83-2.07-1.67-4.19-3.29-6.35-4.85-1.25-.9-2.52-1.79-3.8-2.65-1.84-1.25-3.72-2.45-5.62-3.62-1.9-1.16-3.88-2.59-5.99-3.34-1.79-.64-4.62-.33-4.46,2.18.13,2.19,2.21,3.45,3.88,4.47,7.49,4.58,14.43,9.99,20.64,16.21.72.72-.39,1.83-1.11,1.11-4.03-4.04-8.37-7.77-12.99-11.11-2.01-1.45-4.06-2.83-6.16-4.14-1.78-1.11-3.8-2.13-4.98-3.94-1.01-1.56-1.24-3.79.04-5.27,1.29-1.48,3.46-1.67,5.24-1.13,2.27.69,4.38,2.2,6.38,3.42.59.36,1.18.72,1.76,1.09,1.6,1.01,3.19,2.05,4.76,3.11,1.21.83,2.41,1.67,3.6,2.54,2.91,2.11,5.74,4.32,8.49,6.63.78.65-.34,1.75-1.11,1.11Z"/><path class="j" d="m324.02,211.89c-1.59-1.85-3.6-3.26-5.81-4.21-.99-.86-1.97-1.72-2.96-2.58-2.59-2.26-5.18-4.51-7.78-6.77-2.11-1.84-4.92-3.68-6.15-6.27-.96-2.01-2.03-6.41,1.48-8.24.9-.47,1.73.99.79,1.35-3.21,1.24-.73,6.83.65,8.2,2,2,4.27,3.78,6.4,5.63,2.8,2.44,5.61,4.88,8.41,7.32,1.69,1.47,3.38,2.94,5.07,4.41.43.37.27.88-.09,1.15Z"/><path class="j" d="m351.87,237.8c-6.96.09-13.91-1.93-19.71-5.77-5.4-3.57-9.18-8.83-13.92-13.14-2.28-2.07-5.15-4.38-8.44-4.11-2.74.23-5.91,1.98-8.09-.65-1.68-2.04-1.17-4.9.54-6.74,1.99-2.15,5.11-2.68,7.9-2.76,1.71-.05,3.43.11,5.11.47,1.3.28,2.58.69,3.8,1.23,2.32,1.02,4.41,2.5,6.09,4.45.66.76-.45,1.88-1.11,1.11-1.59-1.85-3.6-3.26-5.81-4.21-3.17-1.37-6.77-1.81-10.18-1.31-2.49.37-5.86,1.81-5.81,4.82.02,1.28.79,2.49,2.09,2.77,1.47.32,3.02-.37,4.46-.62,5.62-1,10.21,3.85,13.73,7.55,4.01,4.21,7.81,8.49,12.99,11.31,5.02,2.72,10.68,4.1,16.38,4.03,1.01-.01,1.01,1.56,0,1.57Z"/><path class="j" d="m389.59,210.71c-10.9.63-21.84.43-32.72-.59-1.01-.09-1,1.48,0,1.57,10.87,1.02,21.81,1.22,32.72.59,1-.06,1.01-1.63,0-1.57Z"/><path class="j" d="m414.08,240.92c-16.16.19-32.33-.68-48.37-2.63-4.6-.56-9.18-1.21-13.75-1.95-.99-.16-1.41,1.35-.42,1.51,16.09,2.59,32.34,4.12,48.63,4.54,4.63.12,9.27.15,13.9.09,1.01-.01,1.01-1.58,0-1.57Z"/><path class="j" d="m352.74,113.46c-.07-.26-.28-.48-.55-.55-1.44-.37-2.77-1-3.95-1.9-.03-.7-1.06-1.15-1.44-.39-1.54,3.08-3.55,5.82-5.78,8.4-2.82,2.24-6.08,4.08-8.78,6.23-5.32,4.26-9.88,9.63-12.09,16.16-.63,1.87-1.01,3.81-1.21,5.77-.18,1.8-.43,3.87-.01,5.65,1.04,4.4,6.44,4.1,9.78,2.74,5.17-2.1,7.07-7.16,8.87-12.01,1.08-1.7,2.27-3.34,3.57-4.88,2.11-2.49,4.5-4.67,7.07-6.69,2.56-2.01,4.89-4.19,5.62-7.49.82-3.68-.13-7.5-1.1-11.05Zm-20.28,14.45c-4.47,4.52-8.71,9.19-11.17,15.16,1.02-3.56,2.84-6.92,5.12-9.82,2.05-2.61,4.48-4.92,7.07-6.98.78-.62,1.58-1.21,2.4-1.78-1.14,1.14-2.29,2.28-3.42,3.42Z"/><path class="g" d="m386.42,210.87s3.88,8.05,3.32,16.28c-.55,8.23-3.32,14.63-3.32,14.63,0,0,27.85,1.96,40.67,1.57,21.81-.66,24.86-21.39,20.22-36.43-4.64-15.04-36.71-53.43-43.05-57.99-6.34-4.56-21.27-10.94-21.27-10.94l2.14,53.76s20.54,16.45,20.18,16.7c-.37.25-18.88,2.41-18.88,2.41Z"/><path class="h" d="m417.55,207.51c-10.32.67-20.61,1.72-30.86,3.14-1,.14-.57,1.65.42,1.51,10.11-1.4,20.26-2.43,30.44-3.09,1-.07,1.01-1.64,0-1.57Z"/><path class="h" d="m406.07,208.05c-6.89-5.69-13.78-11.38-20.67-17.07-.77-.64-1.89.47-1.11,1.11,6.89,5.69,13.78,11.38,20.67,17.07.77.64,1.89-.47,1.11-1.11Z"/><rect class="j" x="192.18" y="41.37" width="118.9" height="5.75"/><path class="m" d="m291.75,45.34c-.69.84-1.9.8-2.69.13-.81-.69-.95-1.95-.18-2.73.64-.65,1.74-.84,2.53-.34,1,.62,1.06,2.08.35,2.95Z"/><path class="e" d="m302.05,44.31c-.07,1-.91,1.71-1.89,1.73-.99.02-1.81-.7-1.91-1.68-.1-1,.62-1.92,1.61-2.09,1.2-.21,2.27.84,2.19,2.04Z"/><path class="g" d="m308.74,45.36c-.65.82-1.8.86-2.59.23-1.45-1.14-.52-3.5,1.33-3.36,1.54.12,2.19,1.96,1.26,3.12Z"/><path class="g" d="m292,114.17c-.81,0-.81,1.25,0,1.25s.81-1.25,0-1.25Z"/><path class="m" d="m195.31,130.9c-2.46-.71-4.92-1.42-7.38-2.13-.77-.22-1.1.97-.35,1.2.82,2.31,1.64,4.62,2.46,6.92.18.51.85.62,1.15.15,1.21-1.92,2.69-3.62,4.41-5.09.37-.32.15-.93-.28-1.05Zm-4.5,4.44c-.59-1.65-1.17-3.3-1.76-4.95,1.61.47,3.22.93,4.83,1.4-1.14,1.08-2.17,2.27-3.08,3.55Z"/><path class="m" d="m227.1,51.89c-1.13-.42-2.43-.01-3.07,1.01-.06.1-.09.21-.09.3-.07.07-.12.17-.14.29-.25,1.31.56,2.64,1.88,2.98,1.25.32,2.41-.53,2.77-1.7.36-1.17-.17-2.44-1.34-2.87Zm.17,2.4c-.11.52-.54,1.02-1.1,1-.69-.03-1.29-.78-1.17-1.46.01-.06.01-.11,0-.17.04-.04.07-.08.1-.13.64-1.03,2.43-.54,2.16.75Z"/><path class="e" d="m277.32,164.7c-1.14-.54-2.5-.19-3.23.83-.06.08-.09.17-.11.24-.04.05-.08.11-.1.18-.45,1.25.28,2.68,1.49,3.17,1.22.5,2.51-.21,3.01-1.37.5-1.15.1-2.51-1.07-3.06Zm-.09,2.57c-.66,1.51-2.64.41-2.14-.98.04-.07.06-.09.08-.13.77-1.08,2.63-.2,2.06,1.11Z"/><path class="g" d="m297,221.3c-.64.45-1.29.89-1.93,1.34-.33-.47-.65-.93-.98-1.4-.46-.66-1.55-.03-1.08.63.29.42.59.85.88,1.27-.92.47-1.7,1.14-2.33,2-.37.5.36,1.21.86.86.77-.54,1.55-1.07,2.32-1.61l1.68,2.38c.46.65,1.55.03,1.08-.63-.57-.82-1.15-1.64-1.72-2.47.62-.43,1.23-.85,1.85-1.28.66-.46.03-1.55-.63-1.08Z"/><path class="m" d="m306.27,125.17h-25.82c-.13,0-.16-.7-.12-1.23-.05-.16-.08-.45-.08-.83v-8.01c0-.45.05-.69.1-.76.03-.23.08-.39.14-.39h25.89c.1,0,.14.39.14.8,0,.07,0,.14,0,.22v9.4c0,.65-.1.87-.18.75-.02.03-.04.05-.06.05Z"/><path class="j" d="m274.8,72.72v55.08c0,1.33,2.08,1.6,2.08.24v-55.08c0-1.33-2.08-1.6-2.08-.24Z"/><path class="j" d="m267.62,73.22h-68.06c-1.33,0-1.6,2.08-.24,2.08h68.06c1.33,0,1.6-2.08.24-2.08Z"/><path class="j" d="m226.83,80.1h-27.01c-1.33,0-1.6,2.08-.24,2.08h27.01c1.33,0,1.6-2.08.24-2.08Z"/><path class="j" d="m267.62,80.45h-33.9c-1.33,0-1.6,2.08-.24,2.08h33.9c1.33,0,1.6-2.08.24-2.08Z"/><path class="j" d="m267.88,86.72h-67.53c-1.33,0-1.6,2.08-.24,2.08h67.53c1.33,0,1.6-2.08.24-2.08Z"/><path class="j" d="m216.51,94.14h-16.15c-1.33,0-1.6,2.08-.24,2.08h16.15c1.33,0,1.6-2.08.24-2.08Z"/><path class="j" d="m268.41,94.14h-46.08c-1.33,0-1.6,2.08-.24,2.08h46.08c1.33,0,1.6-2.08.24-2.08Z"/><path class="j" d="m274.8,110.47v55.08c0,1.33,2.08,1.6,2.08.24v-55.08c0-1.33-2.08-1.6-2.08-.24Z"/><path class="j" d="m267.62,110.97h-68.06c-1.33,0-1.6,2.08-.24,2.08h68.06c1.33,0,1.6-2.08.24-2.08Z"/><path class="j" d="m226.83,117.85h-27.01c-1.33,0-1.6,2.08-.24,2.08h27.01c1.33,0,1.6-2.08.24-2.08Z"/><path class="j" d="m267.62,118.2h-33.9c-1.33,0-1.6,2.08-.24,2.08h33.9c1.33,0,1.6-2.08.24-2.08Z"/><path class="j" d="m267.88,124.47h-67.53c-1.33,0-1.6,2.08-.24,2.08h67.53c1.33,0,1.6-2.08.24-2.08Z"/><path class="j" d="m216.51,131.89h-16.15c-1.33,0-1.6,2.08-.24,2.08h16.15c1.33,0,1.6-2.08.24-2.08Z"/><path class="j" d="m268.41,131.89h-46.08c-1.33,0-1.6,2.08-.24,2.08h46.08c1.33,0,1.6-2.08.24-2.08Z"/><path class="j" d="m264.26,62.27c-2.51-1.47-5.26-.81-7.85.09-1.51.53-3.47,1.4-5.08.84-.99-.34-2.26-1.85-1.32-2.82.99-1.03-.3-2.86-1.57-2.03-2.65,1.73-5.3,3.46-7.96,5.19-1.03.67-2.71,2.16-3.6.54-.75-1.35.27-3.08.89-4.26.65-1.25-1-2.7-2.03-1.57-3.57,3.92-7.42,7.56-11.54,10.89.41-2.3,1.44-4.42,3.09-6.19,1.09-1.24-.69-3.06-1.83-1.83-1.77,2.01-3.68,3.89-5.76,5.57-1.22.99-5.34,4.53-5.66,1.1-.2-2.18,1.36-3.71,2.64-5.24,1.35-1.63,2.43-3.26,2.54-5.42.06-1.12-1.46-1.7-2.21-.92-2.18,2.27-4.36,4.55-6.54,6.82-1.16,1.21-2.32,2.42-3.49,3.64-.94.98-1.84,2.17-3,2.9-1.61,1.01-2.03-.24-1.68-1.61.36-1.4,1.07-2.76,1.75-4.03,1.34-2.53,3.01-4.84,4.95-6.93.59-.63.46-2.02-.57-2.16-5.05-.69-9.8,2.02-11.75,6.74-.63,1.54,1.87,2.21,2.5.69,1.03-2.5,3.42-4.33,6.06-4.85-1.75,2.21-3.25,4.62-4.4,7.21-1.03,2.3-2.5,6.21.58,7.69,3.2,1.55,6.2-2.56,8.05-4.5.76-.79,1.52-1.58,2.28-2.37-.51,1.73-.49,3.77.7,5.17,1.98,2.34,4.97,1.01,7.01-.48.77-.56,1.52-1.15,2.25-1.76-.23,1.16-.33,2.35-.28,3.57.04.87,1.11,1.75,1.95,1.12,3.78-2.88,7.36-5.99,10.72-9.34.03.19.06.39.11.58.41,1.56,1.63,2.93,3.28,3.13,2.08.26,3.97-1.43,5.58-2.48,1.4-.91,2.8-1.83,4.2-2.74.38,1.47,1.52,2.82,3,3.38,2.05.77,4.28.17,6.25-.51,2.03-.7,4.37-1.76,6.42-.56,1.44.84,2.75-1.39,1.31-2.24Z"/><path class="j" d="m281.29,146.63c-.19.46-.95.36-1.31.25-.57-.17-1.05-.6-1.55-.9-.94-.57-1.95-.81-2.99-.36-.94.41-1.61,1.21-2.48,1.73-1.1.67-1.93.09-2.76-.71-.81-.79-1.61-1.58-2.75-1.83-1.23-.27-2.5.07-3.63.57-2.42,1.07-5.2,3.88-7.9,2.02-1.03-.71-1.92-1.66-3.25-1.66-1.03,0-2.14.54-2.3,1.65-.11.79,1.09,1.13,1.21.33.19-1.3,1.94-.57,2.57-.12,1.04.75,1.94,1.55,3.28,1.67,2.91.25,5.03-2.17,7.61-3.03,1.39-.46,2.6-.31,3.69.7.75.7,1.45,1.56,2.46,1.87.97.3,1.92-.03,2.72-.59.76-.53,1.56-1.52,2.54-1.61,1.27-.11,2.25,1.29,3.48,1.53,1.09.21,2.14-.11,2.58-1.18.3-.74-.91-1.07-1.21-.33Z"/><path class="g" d="m305.59,84.5h-26.07c-.21,0-.25,1.83-.04,1.83h26.07c.21,0,.25-1.83.04-1.83Z"/><path class="m" d="m305.37,101.27h-25.82c-.13,0-.16-.7-.12-1.23-.05-.16-.08-.45-.08-.83v-8.01c0-.45.05-.69.1-.76.03-.23.08-.39.14-.39h25.89c.1,0,.14.39.14.8,0,.07,0,.14,0,.22v9.4c0,.65-.1.87-.18.75-.02.03-.04.05-.06.05Z"/><path class="g" d="m305.59,108.73h-26.07c-.21,0-.25,1.83-.04,1.83h26.07c.21,0,.25-1.83.04-1.83Z"/><rect class="i" x="289.22" y="62.03" width="6.5" height="26.27" transform="translate(367.64 -217.31) rotate(90)"/><path class="g" d="m232.04,99.3c-1.01.85-3.15,2.38-4.06.55-.31-.62-.44-1.24-1.02-1.68-.47-.37-1.08-.54-1.67-.55-.32,0-.62.03-.89.1.04-.4-.02-.79-.23-1.13-.94-1.53-2.68.17-3.48.89-.47.42-.92.85-1.36,1.29.12-.47.12-.97-.01-1.46-.12-.42-.63-.53-.94-.25-.87.79-1.43,1.79-1.69,2.88-.56.06-1.13-.17-1.55-.6-.25-.26-.42-.54-.51-.83.87-.97,1.74-1.95,2.61-2.92.31-.35.11-.97-.4-.96-1.44.02-2.6.91-3.11,2.05-.59-1.02-1.88-1.26-3.01-.75-.54.24-1.04.57-1.52.96.03-.14.06-.29.08-.43.08-.5-.54-1.02-.94-.55-1.29,1.49-2.57,2.98-3.86,4.47-.61.71-1.21,1.44-1.84,2.13-.2.22-.61.74-.95.7-.41-.06-.4-.77-.4-1.06-.01-.54.05-1.08.17-1.6.17.04.35,0,.49-.16,1.4-1.66,2.81-3.31,4.21-4.97.33-.39.03-1.14-.55-.94-.74.25-1.45.63-2.1,1.12.02-.27.03-.53.03-.8,0-.38-.36-.62-.71-.54-1.31.29-2.3,1.23-2.74,2.48-.24.69.85.98,1.09.3.22-.63.65-1.11,1.2-1.42-.03.39-.09.77-.17,1.15-1.51,1.66-2.4,3.9-1.99,6.11.14.75.62,1.47,1.47,1.47,1.01,0,1.71-.98,2.3-1.66,1.17-1.35,2.34-2.71,3.51-4.06-.17.2-.33.41-.49.61-1.04,1.35-1.81,2.88-2.3,4.51-.16.52.57.99.94.55,1.31-1.56,2.32-3.33,2.97-5.23.35-.39.73-.75,1.13-1.1.7-.6,2.51-2.01,3.09-.53.26.66.02,1.29-.37,1.84-.34.39-.69.77-1.03,1.16-.48.54.28,1.31.8.8.34-.34.68-.7.98-1.1.2-.22.4-.45.6-.67.17.3.39.58.68.84.58.52,1.31.8,2.05.8-.02.37,0,.74.05,1.12.06.41.69.56.94.25.87-1.07,1.8-2.09,2.78-3.06.48-.47.97-.92,1.47-1.36.27-.24,1.44-1.41,1.49-.55.02.33-.11.67-.26.99-1.26,1.08-1.94,2.98-3.11,4.21-.26.24-.54.47-.82.7-.5.39.15,1.24.68.89.29-.2.55-.42.78-.65,1.03-.92,1.92-1.97,2.65-3.14.21-.34.48-.76.71-1.22.69-.52,1.5-.77,2.29-.24.61.41.65,1.28,1.06,1.84.38.52.96.83,1.59.94,1.57.27,2.86-.72,3.99-1.68.55-.47-.25-1.26-.8-.8Z"/><path class="g" d="m234.07,99.64h0c.03-.21.22-.36.43-.33l2.54.32c.21.03.36.22.33.43h0c-.03.21-.22.36-.43.33l-2.54-.32c-.21-.03-.36-.22-.33-.43Z"/><path class="h" d="m285.47,134.67c-.5.77-1.22,1.39-1.96,1.92-.37.27-.75.52-1.13.77-.39.25-.78.5-1.22.66-.42.15-.88.22-1.32.14-.44-.08-.83-.28-1.21-.5-.48-.28-.99-.69-1.56-.85.19.23.41.44.64.63.21.17.14.47-.12.54-.65.17-1.25-.24-1.76-.57-.59-.39-1.18-.78-1.77-1.17-2.07-1.38-4.12-2.78-6.17-4.18-.47-.32-.96-.63-1.49-.85-.5-.21-1.03-.3-1.57-.37-.76-.09-1.54-.16-2.22-.47-.06.02-.13.03-.21,0-1.01-.33-1.95-.84-2.79-1.49-1.55-1.19-2.74-2.76-3.66-4.46-.94-1.73-1.6-3.58-2.26-5.43-.11.03-.22.07-.33.09-.83.21-1.72.23-2.56.06-.9-.18-1.72-.57-2.47-1.1-1.41-1-2.67-2.31-3.55-3.8-.88-1.49-1.35-3.26-1.14-4.99.22-1.82,1.26-3.4,2.4-4.79.81-.99,1.84-1.97,3.12-2.27.87-.44,1.75-.87,2.63-1.3,1.69-.82,3.4-1.6,5.15-2.27.88-.34,1.77-.64,2.67-.92.45-.14.9-.26,1.36-.38.23-.06.46-.11.68-.17.09-.02.17-.04.26-.06-.05-.04-.09-.07-.14-.11-.16-.12-.31-.24-.48-.36-.32-.23-.66-.44-1-.64-.34-.19-.68-.37-1.04-.52-.37-.16-.76-.31-1.18-.33-.65-.03-1.29.22-1.87.47-.57.25-1.12.55-1.6.94-.24.19-.47.4-.67.64-.19.22-.35.46-.52.69-.38.52-.83.96-1.49,1.07-.33.05-.66.04-.99.07-.37.03-.75.08-1.12.06-.67-.03-1.28-.33-1.7-.85-.42-.52-.6-1.19-.57-1.86,0-.06,0-.12.01-.18-.13-.04-.24-.17-.21-.31.07-.34.15-.67.26-1-.02-.05-.02-.12.01-.18.3-.72.69-1.4,1.16-2.03,1.46-1.95,3.65-3.35,6.05-3.84.78-.36,1.61-.61,2.45-.75,1.75-.3,3.58-.14,5.26.43,1.41.48,2.71,1.25,3.78,2.27.54.35,1.04.77,1.49,1.22,1.21,1.22,2.07,2.71,2.78,4.27.06.02.12.07.15.15.9,1.92,1.73,3.87,2.49,5.84,1.35,3.51,2.48,7.1,3.38,10.75.39,1.59.71,3.2,1.24,4.74.31.73.66,1.44,1.06,2.13.05.02.09.05.13.08.17.17.35.34.53.5,1.47,1.32,3.91,6.47,5.71,7.29.74.34,1.31.13,1.29.67-.05,1.09-.13,2.17-.24,3.26-.11,1.04-.26,2.08-.85,2.98Z"/><path class="g" d="m312.37,128.21s-7.15,5.39-16.18,5.49c-4.19-2.29-9.63-6.06-17.29-13.81l-3.06,17.67s14.14,9.4,17.54,11.18c5.17,2.7,25.54,4.1,25.54,4.1l-6.55-24.63Z"/><path class="j" d="m261.61,101.67c-.21-.13-.45-.08-.61.11-.32.39-.51.86-.59,1.35-.04.22.18.46.4.47.25.01.43-.16.47-.39.02-.14.08-.33.16-.5.05-.11.17-.3.28-.44.14-.18.07-.48-.11-.6Z"/><path class="j" d="m238.69,103.04l-2.88-2.55c-.43-.38-.34-1.04.17-1.3l3.43-1.77c.28-.14.6-.2.91-.15l38.88,5.88c.78.12,1.32.8,1.23,1.55l-.17,1.35c-.09.74-.79,1.27-1.58,1.2l-39.14-3.84c-.32-.03-.61-.16-.85-.37Z"/><path class="h" d="m270.17,120.87c-.34.85-.87,1.62-1.61,2.18-.71.54-1.54.88-2.4,1.09-.97.23-1.97.27-2.97.24-.49-.01-1.03,0-1.43-.33-.37-.31-.64-.75-.92-1.14-.56-.76-1.21-1.5-1.72-2.28-.61-.93-1.1-1.96-1.65-2.92-.92-1.44-1.7-3-2.54-4.49-.82-1.44-1.6-2.8-2.23-4.34-.36-.87-.7-1.77-.81-2.71-.25-2.12.4-3.16,2.7-3.24,1.17-.04,2.13.04,3.08.72.87.62,1.92,1.16,2.51,2.06.57.86,1.63,1.47,2.31,2.26,1.21,1.4,2.62,2.6,4.06,3.76.7.57,1.43,1.11,2.11,1.7.66.57,1.29,1.22,1.67,2.01.41.84.48,1.79.41,2.71-.06.92-.23,1.87-.58,2.73Z"/><path class="j" d="m278.61,105.16h0c.08-.64.67-1.1,1.32-1.01l.79.1c.65.08,1.11.67,1.02,1.31h0c-.08.64-.67,1.1-1.32,1.01l-.79-.1c-.65-.08-1.11-.67-1.02-1.31Z"/><path class="h" d="m252.9,98.39c-.23.15-.48.27-.75.35-.53.18-1.11.29-1.67.36-.58.06-1.14-.02-1.65-.31-.46-.26-.84-.69-1.05-1.17,0-.02-.02-.04-.02-.07-.31-.42-.53-.92-.61-1.45-.05-.3-.06-.6-.02-.9.04-.34.14-.69.47-.86.48-.24,1.09.05,1.56.21.55.19,1.1.39,1.62.65.54.27,1.05.6,1.49,1.02.22.21.42.44.61.69.1.13.19.25.28.38.09.12.22.26.25.41.07.32-.29.55-.52.7Z"/><path class="j" d="m251.95,105.79c-.56-1.41-.53-3.03.04-4.44.16-.4.37-.78.62-1.14.22-.31-.27-.65-.49-.34-.96,1.38-1.35,3.13-1.09,4.78.07.47.2.93.38,1.38.06.15.26.21.4.14.15-.07.21-.24.15-.39Z"/><path class="j" d="m264.64,106.78c-.34-.99-.92-1.9-1.66-2.64-.42-.42-.9-.79-1.42-1.09-.14-.08-.32-.06-.42.08-.09.12-.06.33.08.41.83.48,1.53,1.13,2.08,1.91.52.74.93,1.65,1.02,2.56.05.47-.02,1.01-.41,1.32-.3.24.09.69.39.45.91-.73.67-2.06.34-3.01Z"/><path class="j" d="m284.84,124.95c-.4-.37-.8-.74-1.2-1.11-.71-.66-1.43-1.32-2.13-1.99l-.45-.43c-.36-.35-.64-.79-.95-1.26-.13-.2-.26-.4-.4-.6-.39-.56-.63-1.25-.83-1.85-.36-1.12-.71-2.25-1.05-3.38l-2.55-8.29c-.78-2.56-1.58-5.22-2.66-7.73-1.37-3.21-3.02-5.69-5.04-7.58-.22-.21-.46-.41-.7-.61l-.18-.15-.29.34h0s.21-.4.21-.4c-.12-.1-.24-.19-.37-.29-.07-.05-.15-.1-.22-.15l-.45-.31c-.24-.16-.48-.3-.72-.45l-.23-.14c-.32-.18-.65-.35-.99-.5l-.26-.11c-.26-.11-.52-.21-.78-.3-.1-.03-.2-.06-.37-.12-.24-.07-.48-.14-.72-.19-.13-.03-.26-.06-.4-.08-.25-.05-.51-.08-.77-.11h-.11c-.08-.02-.17-.03-.25-.04-.42-.03-.79-.04-1.14-.03-1.43.06-3,.37-4.8.95-1.65.53-3.05,1.24-4.18,2.12-1.3,1.01-2.29,2.27-2.85,3.65-.36.88-.84,2.6-.08,4.18.34.71.9,1.25,1.63,1.57.66.29,1.48.41,2.44.39.27,0,.52-.03.75-.07-.94.42-1.9.87-2.81,1.4-.49.28-.97.6-1.42.93-.19-.03-.38.07-.52.22-.19.21-.37.43-.54.66-.32.29-.62.6-.91.92-1.11,1.25-1.89,2.56-2.33,3.9-.44,1.37-.48,2.87-.11,4.33.34,1.34.99,2.63,1.94,3.81.87,1.09,1.97,2.08,3.17,2.86,1.47.96,2.98,1.36,4.35,1.18.18-.03.37-.06.55-.11.49,1.23.93,2.25,1.35,3.2.45,1,1.08,2.31,1.94,3.49,1.48,2.03,3.65,3.58,6.1,4.36.59.19,1.24.34,1.91.44.62.1,1.23.21,1.77.54.41.25.79.53,1.18.8.18.13.37.26.55.39.58.4,1.17.81,1.76,1.2,2.35,1.6,4.76,3.17,7.16,4.68l.54.34c1.26.79,1.85.96,2.15.96.15,0,.22-.04.27-.07l.26-.17v-.26c.02-.19.03-.53-1.47-1.47l-.59-.37c-2.19-1.37-4.39-2.8-6.54-4.24-1.16-.78-2.32-1.58-3.47-2.38l-.22-.15c-.51-.36-1.04-.73-1.66-.96-.47-.17-.96-.25-1.43-.32-.21-.03-.42-.06-.63-.11-2.26-.45-4.34-1.66-5.88-3.41-.71-.8-1.33-1.78-1.96-3.08-.61-1.27-1.17-2.63-1.62-3.73l-.14-.35c.63-.46,1.09-1.08,1.32-1.79.06-.19.11-.38.13-.58.04,0,.08-.01.12-.02l.1.17c.12.22.24.43.37.64.87,1.47,1.76,2.9,2.63,4.25l.08.12c.42.65.84,1.3,1.28,1.93.42.6.94,1.26,1.67,1.65.4.22.81.33,1.22.35.31,0,.52-.12.66-.35.14-.23.16-.54.03-.77-.12-.22-.35-.36-.62-.37-.44-.01-.85-.27-1.3-.79-.39-.45-.72-.97-1.05-1.47l-.23-.35c-.84-1.27-1.66-2.58-2.53-4.02-.79-1.31-1.59-2.67-2.44-4.18l-.2-.35c-.69-1.21-1.4-2.47-2.05-3.72-.6-1.16-1.16-2.41-1.17-3.66,0-.73.14-1.31.42-1.7.28-.38.74-.53,1.07-.59.47-.08,1-.06,1.58.06.7.15,1.35.38,1.95.7.62.33,1.18.74,1.65,1.22.36.36.7.75,1.03,1.14.17.2.34.4.51.59,1.03,1.15,2.15,2.27,3.34,3.33.57.51,1.16,1.01,1.76,1.48l.16.13c.56.44,1.13.9,1.75,1.29.45.28.88.44,1.3.48.26.03.52-.08.67-.29.16-.22.19-.52.08-.77-.11-.24-.33-.4-.6-.43-.27-.03-.52-.17-.82-.38-.31-.22-.62-.45-.94-.69-.62-.47-1.24-.97-1.82-1.47-1.16-1-2.29-2.08-3.34-3.23-.25-.27-.5-.56-.74-.84-.8-.92-1.63-1.88-2.73-2.57-.69-.43-1.45-.76-2.25-.99-.79-.22-1.49-.33-2.12-.3-.8.03-1.49.24-2.04.61-.64.44-1.07,1.15-1.26,2.11-.26,1.28-.03,2.71.72,4.4.3.67.65,1.32,1.01,1.98.4.73.8,1.45,1.2,2.17.38.68.78,1.36,1.17,2.04l.03.05c-.9.06-1.95-.15-3.15-.62-1.14-.44-2.19-1.08-3.03-1.85-.91-.83-1.6-1.81-2.02-2.84-.42-1.04-.57-2.2-.45-3.34.11-1.03.46-1.99,1-2.79.49-.44,1.01-.84,1.55-1.19,1.19-.76,2.56-1.36,3.77-1.89,2.58-1.13,5.25-2.09,7.94-2.84.18-.05.36-.1.55-.15.65.99,1.07,2.12,1.41,3.1.48,1.4.8,2.89.95,4.4.07.71.1,1.45.09,2.2,0,.27.13.52.37.66.24.14.54.15.78.02.22-.12.35-.35.36-.62.05-3.13-.6-6.26-1.87-9.05-.64-1.4-1.34-2.42-2.24-3.17l.02-.02-.45-.31s-.06-.04-.1-.06c-.14-.09-.29-.18-.44-.26-.03-.02-.06-.03-.08-.04l-.09-.03c-.26-.12-.5-.21-.81-.29-.24-.06-.49-.1-.78-.13h-.1c-.25-.03-.51-.02-.78,0l-.16.02c-.3.04-.56.09-.8.16-.7.2-1.35.53-1.95.97-.59.44-1.03.97-1.47,1.53-.43.54-.8.98-1.32,1.19-.62.25-1.41.19-1.95.11-.71-.09-1.21-.34-1.52-.74-.33-.43-.42-.99-.43-1.39-.05-1.12.42-2.36,1.31-3.51,1.48-1.9,3.93-3.18,7.49-3.9,1.78-.36,3.32-.35,4.7.03.34.1.68.21,1.01.34.06.02.12.05.18.08l.23.1c.19.08.38.16.57.26.08.04.15.08.23.13l.29.16c.14.08.28.15.42.24.08.05.17.11.25.17l.28.19c.13.09.26.18.39.27,2.04,1.53,3.78,3.75,5.18,6.6,1.29,2.63,2.17,5.48,3.02,8.25l3.3,10.68c.08.24.15.49.22.74.36,1.25.74,2.54,1.58,3.59.18.23.34.47.49.7.25.38.5.77.87,1.12.18.17.36.35.54.52l3.17,2.96c.32.3.8.27,1.1-.05.28-.3.26-.73-.03-1.01Zm-26.76-29.05c.13,0,.27,0,.43.03h.11c.2.05.39.1.57.17l.12.05c.14.06.27.12.39.19.22.12.42.27.62.44-2.38.67-4.73,1.48-6.99,2.43.47-.36.83-.81,1.17-1.25l.27-.34c.82-1,1.92-1.61,3.08-1.71.07,0,.14,0,.21,0Zm-13.56,13.04c.11-.5.29-1,.54-1.51-.03.96.11,1.93.41,2.85.81,2.51,2.87,4.64,5.65,5.85.73.32,1.5.56,2.31.73.33.07.66.12.97.14-.14.49-.49.93-.98,1.24-.13.03-.26.09-.36.18-.06.02-.12.05-.18.06-1.31.42-2.64-.16-3.32-.54-1.04-.58-2.06-1.42-2.95-2.42-.86-.97-1.49-2.02-1.86-3.11-.39-1.17-.47-2.4-.23-3.49Zm13.88-14.07h0s0,0,0,0Z"/><path class="j" d="m208.59,150.84h.62c-.11.65-.36,1.28-.74,1.83-.15.21.1.45.31.41,1.16-.23,2.11-1.13,2.48-2.24h5.72c1.25,0,2.38-.51,3.2-1.33.82-.82,1.33-1.95,1.33-3.2,0-2.5-2.03-4.53-4.53-4.53h-8.39c-1.25,0-2.38.51-3.2,1.33s-1.33,1.95-1.33,3.2c0,2.5,2.03,4.53,4.53,4.53Z"/><path class="g" d="m285.44,64.49c-3.37,1.4-7.36,0-9.45-2.86-.17,1.16-.33,2.32-.5,3.48-.08.54-.88.7-1.22.32-.94-1.03-1.88-2.06-2.82-3.09-.47-.51-.94-1.03-1.41-1.54-.23-.26-.47-.52-.7-.77-.08-.09-.54-.66-.68-.67-.76-.04.38,2.72.53,3.07.24.56.52,1.1.83,1.62.34.51.69,1.03,1.03,1.54.53.79-.71,1.47-1.26.74-.34-.45-.65-.93-.94-1.41-.6-.89-1.2-1.79-1.8-2.68-.46-.68-.9-1.37-1.37-2.04-.28-.39-.84-1.3-1.45-.98-.39.2-.49.86-.47,1.23.02.64.41,1.16.81,1.63.73.86,1.66,1.68,1.99,2.81.25.85.16,1.88-.56,2.48-.97.82-2.23.24-3.11-.4-2.13-1.54-3.71-3.64-4.71-6.06-.36-.86,1.05-1.24,1.4-.39.54,1.3,1.31,2.52,2.26,3.57.43.47,2.55,2.8,3.27,2.12.85-.8-1.14-2.6-1.57-3.1-.68-.81-1.25-1.67-1.24-2.76.02-1.94,1.87-3.49,3.6-2.1.39.31.72.69,1.02,1.11.05-.48.25-.92.68-1.24,1.38-1,2.65.77,3.45,1.65,1.07,1.17,2.14,2.35,3.22,3.52.2-1.4.4-2.8.61-4.21.11-.76,1.21-.63,1.4,0,1.11,3.54,5.36,5.4,8.75,4,.87-.36,1.24,1.05.39,1.4Z"/><path class="j" d="m351.21,89.67c-.1-.38-.57-.52-.9-.42-.33.1-.57.31-.73.57-.05.02-.1.05-.15.09-.36.25-.51.61-.52,1.03,0,.13.05.25.13.35.03.07.07.13.12.18.11.12.23.18.37.21.09.04.2.05.31.04.18-.01.35-.07.5-.15.24-.11.45-.27.6-.47.33-.42.42-.92.28-1.43Z"/><path class="j" d="m358.84,96.05c-.34-.15-.72-.14-1.04.09-.2.15-.35.39-.41.64-.08.16-.14.27-.2.39-.25.51.18,1.02.7,1.01.47.11.97-.06,1.27-.39.12-.13.2-.3.24-.47.05-.08.1-.17.14-.26.21-.5-.14-1.04-.7-1.01Z"/><polygon class="h" points="186.64 129.31 186.64 157.86 101.28 157.86 101.28 242.92 42.64 242.92 42.64 129.31 186.64 129.31"/><path class="j" d="m186.02,136.79H42.85c-.74,0-.88,1.15-.14,1.15h143.17c.74,0,.88-1.15.14-1.15Z"/><path class="j" d="m101.89,243.54h-59.86v-114.84h145.22v29.78h-85.36v85.06Zm-58.64-1.23h57.41v-85.06h85.36v-27.32H43.26v112.38Z"/><rect class="j" x="39.02" y="126.18" width="8" height="8"/><rect class="j" x="38.65" y="239.41" width="8" height="8"/><path class="j" d="m162.36,132.37c-.06-.08-.12-.14-.18-.19-.18-.16-.4-.29-.65-.37-.83-.25-1.85.03-2.27.84-.42.83-.02,2.14.84,2.54.52.25,1.07.09,1.51-.23.45-.12.85-.43,1.03-.96.2-.58.07-1.19-.28-1.63Z"/><path class="j" d="m181.54,134.76c0,.24-.26.5-.5.51-1.02.03-2.04.04-3.06,0-.24-.01-.5-.26-.51-.5-.03-.83-.02-1.65-.02-2.48,0-.18.06-.3.16-.38.03-.16.14-.3.34-.38.96-.38,2.06-.22,3.07-.17.24.01.5.26.51.5.03.97.04,1.94,0,2.91Z"/><path class="j" d="m178.74,131.91c-.01-.07-.05-.14-.1-.2-.05-.07-.11-.12-.18-.15-.06-.04-.14-.07-.21-.07-.05,0-.1,0-.15,0-.1.01-.19.05-.27.11-.04.04-.07.07-.11.11-.06.08-.1.18-.11.28v.15c-.01.08,0,.15.02.22.01.07.05.14.1.2.05.07.11.12.18.15.06.04.14.07.21.07.05,0,.1,0,.15,0,.1-.01.19-.05.27-.11.04-.04.07-.07.11-.11.06-.08.1-.18.11-.28v-.15c.01-.08,0-.15-.02-.22Z"/><path class="j" d="m173.06,133.69c-.54.47-.94,1.07-1.51,1.51-.25.2-.62.14-.81-.11-.44-.54-.87-1.1-1.4-1.55-.22-.19-.33-.57-.11-.81.47-.52,1.03-.93,1.52-1.42.05-.05.11-.08.17-.1.04-.03.08-.05.11-.08.2-.15.51-.17.71,0,.59.5.94,1.17,1.44,1.75.21.25.12.62-.11.81Z"/><path class="g" d="m50.42,193.18v36.63c0,.29,2.57.35,2.57.05v-36.63c0-.29-2.57-.35-2.57-.05Z"/><path class="i" d="m76.67,193.5v36.28c0,.18-.98.23-1.73.17-.23.07-.63.12-1.17.12h-11.25c-.63,0-.97-.06-1.07-.15-.32-.04-.55-.11-.55-.19v-36.37c0-.13.54-.2,1.13-.19.1,0,.2,0,.31,0h13.21c.91,0,1.22.14,1.06.26.05.02.08.05.08.08Z"/><path class="j" d="m181.07,142.6h-26.72c-.74,0-.88,1.15-.14,1.15h26.72c.74,0,.88-1.15.14-1.15Z"/><path class="j" d="m162.72,146.98c.74,0,.88-1.15.14-1.15h-8.22c-.74,0-.88,1.15-.14,1.15h8.22Z"/><path class="j" d="m180.77,145.83h-14.1c-.74,0-.88,1.15-.14,1.15h14.1c.74,0,.88-1.15.14-1.15Z"/><path class="j" d="m180.48,149.35h-25.55c-.74,0-.88,1.15-.14,1.15h25.55c.74,0,.88-1.15.14-1.15Z"/><rect class="e" x="84.12" y="193.16" width="9.13" height="36.9"/><path class="j" d="m93.8,142.44v13.27c-2.15,1.02-4.21,2.25-6.25,3.44-1.72,1-3.49,1.92-5.2,2.95-1.6.96-3.11,2.07-4.71,3.03-1.55.94-3.22,1.74-5.03,1.99-2.06.29-4.19-.2-6.23-.47-2.13-.28-4.3-.47-6.43-.06-1.98.38-3.82,1.24-5.43,2.45-1.82,1.37-3.25,3.1-4.64,4.86v-31.45h43.91Z"/><path class="m" d="m93.8,155.71v30.64h-43.91v-12.46c1.39-1.77,2.82-3.49,4.64-4.86,1.6-1.21,3.45-2.07,5.43-2.45,2.13-.41,4.3-.23,6.43.06,2.04.27,4.17.76,6.23.47,1.81-.25,3.48-1.05,5.03-1.99,1.6-.97,3.11-2.07,4.71-3.03,1.71-1.02,3.48-1.94,5.2-2.95,2.04-1.19,4.1-2.42,6.25-3.44Z"/><circle class="h" cx="66.26" cy="154.85" r="6.98"/><path class="j" d="m199.98,154.03s-.08,0-.12-.02l-6.49-1.74c-.16-.04-.28-.16-.32-.32-.04-.16,0-.33.11-.44l4.53-4.69c.11-.12.28-.17.44-.13.16.04.29.16.33.31l1.95,6.43c.05.16,0,.33-.11.45-.09.09-.21.14-.33.14Zm-5.61-2.44l4.93,1.32-1.48-4.89-3.45,3.57Z"/><path class="m" d="m35.2,148.46c.3.23.73-.16.63-.47.09.02.18.04.28.04.63.05,1.01-.37,1.5-.67.6-.37,1.33-.46,2.02-.53.9-.09,1.92-.17,2.73-.62.13.04.27.01.37-.12.02-.03.04-.06.07-.09.05-.07.1-.14.14-.21.01-.02.02-.04.04-.06.04-.04.08-.08.12-.13.59-.7.76-1.67.31-2.45.14-.15.18-.38-.03-.55-.45-.37-.94-.67-1.48-.9,0-.2.7-.29.77-.3.33-.03.66-.02.99.01.76.07,1.51.25,2.26.39,1.18.22,2.45.34,3.59-.12.92-.37,1.69-1.19,1.9-2.17.1-.45.07-.92-.11-1.35-.12-.29-.31-.53-.5-.78.14.02.27.04.41.05.05.09.13.16.24.19,1.49.47,3.09.11,4.26-.92.17-.15.14-.42,0-.58.06-.09.12-.2.17-.3.6-1.24-.03-2.52-1-3.33.55-.38.92-.99,1.06-1.66.23-1.16-.3-2.31-.92-3.25-2.26-3.4-5.98-6.08-10.05-6.74-1.07-.17-2.18-.18-3.19.27-.85.37-1.54,1.05-2.03,1.83-.8,1.29-1,2.76-.94,4.23-.22.91-.3,1.84-.24,2.76-.68-.02-1.25.5-1.64,1-.46.6-.73,1.33-.79,2.08-.06.82.37,1.57.35,2.37-.02.77-.79,1.3-1.16,1.92-.38.62-.59,1.32-.67,2.04-.11,1.01.09,2.02.56,2.9-.69.47-1.23,1.16-1.48,1.98-.49,1.57.16,3.27,1.44,4.24Zm8.45-19.4l.6-1.4c.17-.4.23-.78.73-.56.28.12.55.25.82.39,1.08.57,2.06,1.27,2.94,2.1-1.68-.34-3.38-.52-5.09-.54Z"/><path class="j" d="m35.71,150.59c.38.39.98-.21.6-.6-1.32-1.35-2.52-3.16-2.12-5.15.26-1.11.97-1.93,2.03-2.38,1.08-.45,2.26-.43,3.41-.46,1.04-.03,2.18-.04,3.09.55.71.46,1.14,1.29.76,2.11-.37.8-1.19,1.23-2,1.45-1.66.45-3.41.34-4.81,1.47-.43.34.18.94.6.6,1.9-1.52,4.86-.5,6.54-2.48,1.09-1.29.68-2.89-.53-3.77.46.02.92.06,1.37.12,1.5.19,3,.63,4.51.35,1.15-.21,2.31-.92,2.68-2.08.24-.77.13-1.6-.33-2.22,1.65.31,3.37.21,4.44-1.29.66-.91.62-2.08.13-3.07-.15-.3-.34-.57-.55-.82,1.97-1.63.92-4.37-.29-6.1-1.23-1.74-2.8-3.22-4.6-4.36-1.8-1.14-3.96-2.07-6.11-2.16-2.15-.09-3.97,1-5.06,2.83-1.14,1.93-1.27,4.21-1.33,6.4,0-.07-.88.46-.95.53-.37.38-.69.82-.94,1.29-.5.94-.74,2.03-.59,3.09.02.13.42,1.51.47,1.47-2,1.43-2.66,4.33-1.4,6.46-.86.72-1.4,1.76-1.47,3-.12,2.04,1.07,3.83,2.43,5.23Zm19.23-18.25c-.51-.42-1.09-.76-1.66-1.05-1.15-.59-2.35-1.07-3.58-1.44-.02-.07-.06-.15-.14-.21-1.36-1.09-2.81-2.06-4.34-2.9-.06-.06-.14-.1-.23-.12-.68-.36-1.37-.7-2.08-1.01-.5-.22-.93.52-.43.73.64.28,1.27.58,1.89.9-.2.4-.39.79-.59,1.19-.09.19-.04.36.06.48-1.61-.04-3.23.1-4.82.41.06-2.11.21-4.31,1.43-6.11,2.46-3.63,7.3-1.71,10.22.26,1.54,1.05,2.9,2.39,3.96,3.92.96,1.4,1.93,3.61.31,4.94Zm-10.43-3.48c.2-.4.4-.81.6-1.21.93.52,1.84,1.1,2.7,1.72-1.11-.23-2.23-.37-3.36-.43.02-.02.03-.05.05-.08Zm-7.78,7.66c.12-.08.18-.19.19-.3.14-.12.22-.32.09-.52-1-1.69-.54-4.05,1.06-5.2.05-.03.08-.07.11-.11.12-.03.25-.06.37-.09.08,0,.17-.02.25-.06,2.35-.51,4.77-.62,7.16-.33,2.45.3,4.86,1.04,7.04,2.19,1.03.54,2.14,1.26,2.5,2.44.35,1.1-.2,2.09-1.21,2.57-1.08.51-2.29.33-3.39,0-1.24-.37-2.45-.84-3.71-1.15-2.53-.62-5.16-.86-7.76-.7-.54.03-.55.88,0,.85,3.41-.21,6.75.29,9.98,1.4.31.11.63.21.96.31q.23.27.41.53c.61.88.42,1.87-.27,2.51-.88.81-2.17.86-3.29.73-1.35-.15-2.66-.45-4.02-.52-1.12-.06-2.24,0-3.36.01-1.13.02-2.27.07-3.37.36-.37.1-.72.24-1.03.41-.99-1.78-.44-4.22,1.28-5.35Z"/><path class="g" d="m128.99,81.68l-23.59,37.46-19.05-4.76-36.53,54.47v-16.78l33.89-47.74,19.05,6.35,21.3-30.7s1.01.77,4.93,1.71Z"/><circle class="h" cx="125.01" cy="172.69" r="20.62"/><path class="f" d="m125.01,194.2c-11.86,0-21.51-9.65-21.51-21.51s9.65-21.51,21.51-21.51,21.51,9.65,21.51,21.51-9.65,21.51-21.51,21.51Zm0-41.24c-10.88,0-19.74,8.85-19.74,19.74s8.85,19.74,19.74,19.74,19.74-8.85,19.74-19.74-8.85-19.74-19.74-19.74Z"/><path class="f" d="m127.63,174.08c-.36-.27-.87-.2-1.14.16l-1.17,1.53-.38.05-2.83-2.1-.06-.38,1.1-1.49c.28-.38.2-.93-.17-1.21l-.13-.1c-.13-.1-.3-.14-.46-.12h0c-.16.02-.31.11-.4.24l-1.42,1.89h-.03s-.9-.66-.9-.66c-.38-.29-.93-.21-1.21.18l-2.05,2.75c-1.63,2.19-1.47,5.24.37,7.25l.09.1-1.52,2.05c-.2.27-.03.92.24,1.13h0c.44.23.99.13,1.31-.26.61-.72,1.5-1.79,1.5-1.79l.12.06c1.14.55,2.4.7,3.66.44,1.36-.29,2.61-1.12,3.51-2.34l1.92-2.59c.28-.38.2-.93-.18-1.21l-.71-.53-.05-.38,1.14-1.54c.26-.35.19-.86-.16-1.12h0Zm-2.01,4.45c.01.09,0,.18-.06.25l-1.36,1.83c-.63.85-1.59,1.43-2.65,1.59s-2.13-.11-2.99-.75c-1.55-1.15-2.06-3.21-1.23-5,.11-.24.26-.45.39-.63l1.37-1.84c.06-.07.14-.12.22-.13s.18,0,.25.06l5.93,4.4c.07.05.12.13.13.22Z"/><path class="f" d="m134.41,160.1h0c-.42-.31-1.01-.22-1.32.19l-1.45,1.94-.11-.05c-.61-.3-1.27-.5-1.95-.55-2.06-.16-3.94.71-5.12,2.3l-2.22,2.99c-.18.24-.13.59.11.77l8.26,6.14c.12.09.27.12.41.1s.27-.09.36-.22l2.24-3c1.63-2.19,1.47-5.24-.37-7.25l-.09-.1,1.44-1.95c.31-.42.22-1.01-.2-1.32Zm-1.37,6.63c.16,1.06-.11,2.13-.75,2.99l-1.42,1.92c-.07.1-.23.12-.33.05l-6.1-4.53c-.1-.08-.13-.22-.05-.33l1.36-1.83c.54-.73,1.23-1.25,1.99-1.5.24-.08.48-.14.73-.17,1.06-.16,2.12.1,2.99.75.87.64,1.43,1.58,1.59,2.65Z"/><path class="j" d="m246.88,2.25v28.94h-3.82v-12.64h-14.2v12.64h-3.82V2.25h3.82v12.81h14.2V2.25h3.82m0-.9h-3.82c-.5,0-.9.41-.9.9v11.91h-12.39V2.25c0-.5-.41-.9-.9-.9h-3.82c-.5,0-.9.41-.9.9v28.94c0,.5.41.9.9.9h3.82c.5,0,.9-.41.9-.9v-11.74h12.39v11.74c0,.5.41.9.9.9h3.82c.5,0,.9-.41.9-.9V2.25c0-.5-.41-.9-.9-.9h0Z"/><path class="j" d="m270.91,11.57v19.61h-3.65v-3.07c-1.18,2.48-4.33,3.57-6.51,3.57-4.91,0-7.94-3.28-7.9-8.78v-11.34h3.65v11.26c0,3.32,1.97,5.42,4.7,5.42s6.01-1.64,6.05-5.88v-10.79h3.65m0-.9h-3.65c-.5,0-.9.41-.9.9v10.79c-.02,2.29-1.38,4.98-5.14,4.98-2.31,0-3.8-1.77-3.8-4.51v-11.26c0-.5-.41-.9-.9-.9h-3.65c-.5,0-.9.41-.9.9v11.34c-.02,3.07.86,5.6,2.56,7.31,1.54,1.55,3.7,2.37,6.24,2.37,1.8,0,3.99-.62,5.61-1.93v.52c0,.5.41.9.9.9h3.65c.5,0,.9-.41.9-.9V11.57c0-.5-.41-.9-.9-.9h0Z"/><path class="j" d="m279.92.9v13.73c1.3-2.31,4.07-3.57,7.01-3.57,5.38,0,9.79,4.07,9.79,10.29s-4.45,10.33-9.83,10.33c-2.81,0-5.67-1.34-6.97-3.57v3.07h-3.65V.9h3.65m6.64,27.34c3.61,0,6.47-3.02,6.47-6.93s-2.86-6.8-6.47-6.8c-3.19,0-6.64,2.56-6.64,6.8s3.15,6.93,6.64,6.93m-6.64-28.25h-3.65c-.5,0-.9.41-.9.9v30.28c0,.5.41.9.9.9h3.65c.5,0,.9-.41.9-.9v-.68c1.6,1.3,3.81,2.09,6.07,2.09,6.12,0,10.73-4.83,10.73-11.24s-4.5-11.2-10.69-11.2c-2.37,0-4.54.75-6.11,2.03V.9c0-.5-.41-.9-.9-.9h0Zm6.64,27.34c-2.78,0-5.73-2.11-5.73-6.03,0-3.64,2.97-5.9,5.73-5.9,3.17,0,5.56,2.54,5.56,5.9s-2.44,6.03-5.56,6.03h0Z"/><path class="j" d="m309.6,1.74c5.08,0,9.16,3.23,9.16,8.4h-3.78c0-2.9-2.39-4.87-5.5-4.87-2.9,0-5.59,1.93-5.59,4.79,0,1.01.34,3.02,4.2,4.03l3.78,1.01c4.91,1.3,7.85,3.82,7.85,7.94,0,4.49-3.65,8.65-9.66,8.65s-10.16-4.2-10.21-8.69h3.78c.13,2.56,2.56,5.17,6.43,5.17s5.84-2.44,5.84-5c0-2.81-2.56-4.07-5-4.7l-3.74-.92c-6.13-1.47-7.1-5.08-7.1-7.43,0-5,4.49-8.36,9.53-8.36m0-.9c-5.85,0-10.44,4.07-10.44,9.26,0,2.94,1.35,6.77,7.79,8.31l3.73.92c4.31,1.11,4.31,3.16,4.31,3.83,0,2.03-1.69,4.09-4.93,4.09s-5.42-2.19-5.52-4.31c-.02-.48-.42-.86-.9-.86h-3.78c-.24,0-.47.1-.64.27-.17.17-.26.4-.26.65.04,4.71,4.21,9.59,11.11,9.59s10.57-4.92,10.57-9.56c0-4.35-2.87-7.31-8.53-8.81l-3.78-1.01c-3.53-.92-3.53-2.6-3.53-3.16,0-2.43,2.38-3.88,4.68-3.88,2.71,0,4.6,1.63,4.6,3.97,0,.5.41.9.9.9h3.78c.5,0,.9-.41.9-.9,0-5.39-4.23-9.31-10.06-9.31h0Z"/><path class="j" d="m334.8,11.07c5.38,0,9.83,4.16,9.83,10.33s-4.41,10.29-9.79,10.29c-2.94,0-5.71-1.26-7.01-3.57v12.6h-3.65V11.57h3.65v3.07c1.3-2.23,4.16-3.57,6.97-3.57m-.34,17.18c3.61,0,6.47-2.86,6.47-6.8s-2.86-6.93-6.47-6.93-6.64,2.73-6.64,6.93,3.44,6.8,6.64,6.8m.34-18.08c-2.26,0-4.47.79-6.07,2.09v-.68c0-.5-.41-.9-.9-.9h-3.65c-.5,0-.9.41-.9.9v29.15c0,.5.41.9.9.9h3.65c.5,0,.9-.41.9-.9v-10.16c1.57,1.29,3.74,2.04,6.11,2.04,6.19,0,10.69-4.71,10.69-11.2s-4.61-11.24-10.73-11.24h0Zm-.34,17.18c-2.76,0-5.73-2.26-5.73-5.9,0-3.91,2.95-6.03,5.73-6.03,3.12,0,5.56,2.65,5.56,6.03s-2.39,5.9-5.56,5.9h0Z"/><path class="j" d="m357.84,11.07c5.59,0,10.29,4.07,10.29,10.29s-4.7,10.33-10.29,10.33-10.25-4.12-10.25-10.33,4.66-10.29,10.25-10.29m0,17.18c3.61,0,6.64-2.81,6.64-6.89s-3.02-6.85-6.64-6.85-6.55,2.81-6.55,6.85,2.98,6.89,6.55,6.89m0-18.08c-6.36,0-11.15,4.81-11.15,11.2s4.79,11.24,11.15,11.24,11.2-4.83,11.2-11.24-4.81-11.2-11.2-11.2h0Zm0,17.18c-3.22,0-5.65-2.57-5.65-5.98s2.43-5.94,5.65-5.94,5.73,2.55,5.73,5.94-2.46,5.98-5.73,5.98h0Z"/><path class="j" d="m376.98,4.18v7.39h4.24v3.15h-4.24v16.46h-3.65V14.72h-3.53v-3.15h3.53v-7.39h3.65m0-.9h-3.65c-.5,0-.9.41-.9.9v6.49h-2.62c-.5,0-.9.41-.9.9v3.15c0,.5.41.9.9.9h2.62v15.56c0,.5.41.9.9.9h3.65c.5,0,.9-.41.9-.9v-15.56h3.34c.5,0,.9-.41.9-.9v-3.15c0-.5-.41-.9-.9-.9h-3.34v-6.49c0-.5-.41-.9-.9-.9h0Z"/><path class="j" d="m12.45,89.27c6.15,0,8.64,4.55,8.64,9.06s-2.49,9.06-8.64,9.06h-7.71v10.92H.9v-29.04h11.55m-7.71,14.54h7.46c3.62,0,5.06-2.7,5.06-5.48s-1.39-5.52-4.85-5.52h-7.67v11m7.71-15.45H.9c-.5,0-.9.41-.9.9v29.04c0,.5.41.9.9.9h3.84c.5,0,.9-.41.9-.9v-10.01h6.81c7.05,0,9.54-5.37,9.54-9.97,0-7.36-5.14-9.97-9.54-9.97h0Zm-6.81,5.35h6.77c3.75,0,3.94,3.85,3.94,4.62,0,1.07-.3,4.57-4.15,4.57h-6.55v-9.19h0Z"/><path class="j" d="m28.23,87.92v30.39h-3.67v-30.39h3.67m0-.9h-3.67c-.5,0-.9.41-.9.9v30.39c0,.5.41.9.9.9h3.67c.5,0,.9-.41.9-.9v-30.39c0-.5-.41-.9-.9-.9h0Z"/><path class="j" d="m42.15,98.12c2.95,0,5.73,1.26,7.04,3.58v-3.08h3.67v19.68h-3.67v-3.5c-1.31,2.36-4.05,4-7.21,4-5.14,0-9.65-4.34-9.65-10.37s4.26-10.33,9.82-10.33m.38,17.24c3.5,0,6.66-2.91,6.66-6.91s-3.41-6.87-6.7-6.87c-3.58,0-6.45,3.16-6.45,6.87s2.87,6.91,6.49,6.91m-.38-18.14c-6.01,0-10.72,4.93-10.72,11.23s4.64,11.27,10.56,11.27c2.41,0,4.66-.86,6.3-2.34v.93c0,.5.41.9.9.9h3.67c.5,0,.9-.41.9-.9v-19.68c0-.5-.41-.9-.9-.9h-3.67c-.5,0-.9.41-.9.9v.63c-1.58-1.3-3.75-2.05-6.13-2.05h0Zm.38,17.24c-3.08,0-5.59-2.69-5.59-6.01s2.49-5.96,5.54-5.96c2.8,0,5.8,2.4,5.8,5.96,0,3.31-2.58,6.01-5.75,6.01h0Z"/><path class="j" d="m63.31,91.21v7.42h4.26v3.16h-4.26v16.52h-3.67v-16.52h-3.54v-3.16h3.54v-7.42h3.67m0-.9h-3.67c-.5,0-.9.41-.9.9v6.51h-2.64c-.5,0-.9.41-.9.9v3.16c0,.5.41.9.9.9h2.64v15.62c0,.5.41.9.9.9h3.67c.5,0,.9-.41.9-.9v-15.62h3.35c.5,0,.9-.41.9-.9v-3.16c0-.5-.41-.9-.9-.9h-3.35v-6.51c0-.5-.41-.9-.9-.9h0Z"/><path class="j" d="m83,87.92v3.46h-1.48c-3.5,0-4.43,2.15-4.38,4.72v2.53h4.59v3.16h-4.59v16.52h-3.67v-16.52h-3.79v-3.16h3.79v-2.02c0-5.14,2.15-8.68,7.42-8.68h2.11m0-.9h-2.11c-5.37,0-8.32,3.4-8.32,9.59v1.12h-2.89c-.5,0-.9.41-.9.9v3.16c0,.5.41.9.9.9h2.89v15.62c0,.5.41.9.9.9h3.67c.5,0,.9-.41.9-.9v-15.62h3.69c.5,0,.9-.41.9-.9v-3.16c0-.5-.41-.9-.9-.9h-3.69v-1.62c-.02-1.38.26-2.38.85-2.97.55-.56,1.43-.84,2.63-.84h1.48c.5,0,.9-.41.9-.9v-3.46c0-.5-.41-.9-.9-.9h0Z"/><path class="j" d="m93.48,98.12c5.61,0,10.33,4.09,10.33,10.33s-4.72,10.37-10.33,10.37-10.28-4.13-10.28-10.37,4.68-10.33,10.28-10.33m0,17.24c3.62,0,6.66-2.82,6.66-6.91s-3.03-6.87-6.66-6.87-6.57,2.82-6.57,6.87,2.99,6.91,6.57,6.91m0-18.14c-6.38,0-11.19,4.83-11.19,11.23s4.81,11.27,11.19,11.27,11.23-4.85,11.23-11.27-4.83-11.23-11.23-11.23h0Zm0,17.24c-3.23,0-5.67-2.58-5.67-6.01s2.44-5.96,5.67-5.96,5.75,2.56,5.75,5.96-2.47,6.01-5.75,6.01h0Z"/><path class="j" d="m117.24,98.12c1.39,0,2.82.38,3.41.76l-.59,3.46c-1.05-.51-2.11-.67-2.87-.67-3.92,0-5.48,4.26-5.48,9.44v7.21h-3.71v-19.68h3.71v4.47c1.01-3.46,2.91-4.97,5.52-4.97m0-.9c-1.91,0-3.45.7-4.62,2.08v-.67c0-.5-.41-.9-.9-.9h-3.71c-.5,0-.9.41-.9.9v19.68c0,.5.41.9.9.9h3.71c.5,0,.9-.41.9-.9v-7.21c0-2.57.45-8.54,4.57-8.54.38,0,1.37.06,2.47.59.12.06.26.09.39.09.14,0,.29-.03.42-.1.25-.13.43-.37.48-.65l.59-3.46c.06-.36-.1-.72-.4-.91-.81-.52-2.45-.9-3.9-.9h0Z"/><path class="j" d="m146.91,98.12c4.93,0,7.63,3.29,7.63,8.81v11.38h-3.67v-11.17c0-3.29-1.81-5.48-4.68-5.48-.03,0-.06,0-.09,0-3.44,0-5.22,2.44-5.22,6.79v9.86h-3.67v-11.17c0-3.33-1.81-5.48-4.43-5.48-2.78,0-5.56,1.81-5.56,5.98v10.66h-3.67v-19.68h3.67v3.03c.97-2.15,3.54-3.54,6.32-3.54s5.35,1.52,6.49,4.21c1.81-3.54,4.89-4.21,6.87-4.21m0-.9c-1.72,0-4.7.47-6.82,3.32-1.44-2.11-3.79-3.32-6.54-3.32-2.07,0-4.01.7-5.42,1.86v-.44c0-.5-.41-.9-.9-.9h-3.67c-.5,0-.9.41-.9.9v19.68c0,.5.41.9.9.9h3.67c.5,0,.9-.41.9-.9v-10.66c0-3.75,2.51-5.08,4.66-5.08s3.52,1.8,3.52,4.57v11.17c0,.5.41.9.9.9h3.67c.5,0,.9-.41.9-.9v-9.86c0-1.98.38-3.48,1.14-4.48.72-.95,1.76-1.41,3.18-1.41h.08c2.34,0,3.78,1.75,3.78,4.57v11.17c0,.5.41.9.9.9h3.67c.5,0,.9-.41.9-.9v-11.38c0-6.08-3.19-9.71-8.53-9.71h0Z"/><path class="e" d="m269.88,225.54c0,7.82-1.39,15.32-3.92,22.26-.15.41-.31.83-.47,1.24-.16.41-.32.81-.49,1.22-3.52,8.52-8.79,16.12-15.38,22.36-1.17,1.11-2.39,2.18-3.64,3.2-11.16,9.1-25.41,14.55-40.93,14.55-13.11,0-25.31-3.89-35.51-10.58-6.87-4.5-12.83-10.27-17.55-16.98-7.42-10.54-11.78-23.4-11.78-37.27,0-2.61.16-5.19.46-7.72,3.82-32.17,31.18-57.11,64.38-57.11,35.81,0,64.83,29.03,64.83,64.83Z"/><rect class="h" x="141.67" y="158.82" width="83.2" height="108.41" transform="translate(-83.36 301.76) rotate(-67.7)"/><path class="j" d="m217.98,272.88l-101.44-41.6.23-.57,31.8-77.55,101.44,41.6-.23.57-31.8,77.55Zm-99.84-42.27l99.17,40.67,31.1-75.85-99.17-40.67-31.1,75.85Z"/><path class="h" d="m229.49,229.46c-.02-.24-.26-.48-.51-.5-.43-.03-.85.01-1.26.08-1.68-.51-3.44-.6-5.2-.6-1.74,0-3.53.1-5.24-.29-1.66-.38-2.98-1.4-3.79-2.91-.2-.38-.38-.78-.54-1.18-.21-1.84-.74-3.64-1.2-5.42-.68-2.64-1.27-5.3-1.92-7.94.08-.21.16-.43.26-.64,1-2.16,2.67-4.11,2.62-6.62-.04-2.22-1.6-3.98-2.95-5.59-1.29-1.54-2.47-3.16-3.78-4.68-1.51-1.74-3.25-3.65-5.44-4.51-1.19-.47-2.39-.39-3.6-.02-.97.3-1.9.77-2.88,1.05-.08-.06-.18-.1-.31-.1-1.11-.01-2.07.58-2.87,1.3-.87.78-1.63,1.72-2.25,2.72-.43.71-.74,1.46-.98,2.24-.18.04-.35.15-.42.34-.72,1.77-1.04,3.73-1.04,5.64-.2.71-.37,1.43-.45,2.15-.29,2.57.07,5.34,1.42,7.59,2.19,3.64,6.61,4.33,10.44,5.03.11.02.23.04.36.06-.05,1.13.86,2.51.97,3.62.11,1.01.15,1.2.34,2.2,0,.35-.72,1.28-.72,1.63-.21.21-.47.36-.8.46-.89.25-1.88.14-2.78,0-.85-.13-1.68-.35-2.5-.58-.6-.17-1.36-.46-1.98-.2-.78.32-.65,1.24-.46,1.89.33,1.1.88,2.15,1.5,3.1,2.44,3.78,6.74,6.14,10.97,7.37,5.32,1.54,10.85,1.26,16.32,1.04,2.67-.11,5.49-.19,7.61-2.02,1.57-1.36,3.22-3.49,3.04-5.7Z"/><path class="j" d="m188.64,201.6c-1.08.78-2.34,1.29-3.69,1.2-.74-.04-.89,1.11-.14,1.15,1.66.1,3.2-.48,4.53-1.44.61-.44-.1-1.36-.71-.92Z"/><path class="j" d="m210.98,202.58c-.46-1.77-1.65-3.21-3.36-3.88-1.39-.55-3.03-.59-4.42-.01-1.67.69-2.69,2.24-2.75,4.04-.02.74,1.13.89,1.15.14.04-1.21.55-2.3,1.63-2.91.99-.56,2.23-.65,3.33-.38,1.18.29,2.24,1.04,2.82,2.12.48.9.72,1.9.52,2.91-.19.99-.78,1.87-1.47,2.59-.71.74-1.62,1.39-2.69,1.32-1.08-.07-2.05-.72-2.9-1.34-.6-.44-1.3.49-.7.93.94.69,1.98,1.34,3.15,1.53,1.06.17,2.09-.14,2.95-.75,1.98-1.38,3.35-3.88,2.72-6.31Z"/><path class="j" d="m205.82,202.33c-.56.48-1.37.66-2.03.93-.76.31-1.55.69-2.04,1.38-.43.61.49,1.31.93.7.87-1.23,2.76-1.15,3.86-2.09.57-.49-.14-1.41-.71-.92Z"/><path class="j" d="m211.73,215.63s-.18.1-.38.22c.2.62.49,1.21.69,1.83.11.35-.06.75-.46.8-1.24.16-2.48.35-3.72.5-.6.07-3.21.61-3.33-.05-.19-1.06-.31-2.13-.38-3.2-.14-2.15-.1-4.31-.01-6.46,0-.25.26-.48.5-.51.9-.1,1.86-.13,2.72-.43.84-.29,1.47-.86,2.01-1.54,1.25-1.55,1.65-3.82.31-5.47-.74-.92-1.95-1.44-3.06-1.74-2-.54-5.24-.39-5.15,2.37.01.4-.35.82-.79.62-1.31-.6-2.49-1.4-3.51-2.43-2.98-3-4.06-7.31-4.3-11.46.37-.24.74-.46,1.12-.67,2.38-1.3,5.11-2.04,8.01-2.04,9.25,0,16.75,7.5,16.75,16.75,0,7.97-5.02,11.57-7.02,12.9Z"/><circle class="j" cx="222.17" cy="189.45" r="11.71" transform="translate(-68.89 212.59) rotate(-45)"/><path class="j" d="m265.49,249.04c-.16.41-.32.81-.49,1.22-.5-.6-1.02-1.18-1.55-1.76-1.15-1.27-2.36-2.48-3.46-3.79-2.27-2.69-4.68-5.26-7.17-7.74-2.11-2.11-4.26-4.18-6.91-5.59-5.66-3.01-12.13-2.43-18.32-2.38-2.02.02-4.04.05-6.05-.04-2.03-.08-4.28-.18-6.17-1.02-1.98-.88-2.6-3.09-3.04-5.03-.27-1.23-.46-2.47-.7-3.71-.21-1.06-.45-2.14-.96-3.11-.35-.66.73-1.11,1.07-.45.24.46.42.95.57,1.45.7,2.36.8,4.87,1.59,7.21.29.85.7,1.83,1.43,2.31.71.47,1.61.66,2.44.81,2.17.4,4.41.43,6.62.43,2.56,0,5.11-.05,7.67-.08,3.23-.04,6.52-.01,9.67.77,2.74.68,5.3,1.92,7.56,3.62,1.23.93,2.35,2,3.45,3.08,1.23,1.22,2.45,2.45,3.65,3.7,1.93,2.03,3.7,4.2,5.6,6.25,1.18,1.27,2.39,2.53,3.52,3.85Z"/><path class="j" d="m199.58,222.23c.07-1.14-.19-2.43-.34-3.24-.15-.78-.57-1.53-.6-2.32-.01-.33-.34-.51-.66-.49-2.72.17-5.54-.78-7.7-2.43-1.78-1.36-2.98-3.29-3.62-5.43-.65-2.15-.72-4.47-.48-6.69.29-2.59,1.02-5.21,2.57-7.35.74-1.02,1.63-2.01,2.56-2.86.85-.78,1.95-1.65,3.18-1.56.74.06.88-1.1.14-1.15-2.53-.2-4.47,2.13-5.97,3.85-1.94,2.24-3.01,4.94-3.48,7.85-.78,4.82-.04,10.31,3.76,13.73,2.31,2.08,5.52,3.25,8.63,3.21-.11,0,.35,1.27.36,1.31.17.58.25,1.17.31,1.77.08.79.4,2.14-.21,2.78-.26.27-.64.4-1.01.44-1.02.09-2.11-.11-3.14-.17-1.05-.06-2-.45-2.99-.79-.39-.13-.77-.25-1.17-.34-.31-.07-.78-.13-1.02-.38-.51-.54-1.44.17-.92.71.69.73,1.77.78,2.68,1.09,1.96.68,3.91.99,5.98.99.82,0,1.8-.09,2.43-.67.46-.42.65-1.11.7-1.86Z"/><path class="h" d="m159.68,188.96c-.32-1.18-.77-2.31-1.17-3.45-.37-1.06-.62-2.12-.83-3.22-.35-1.82-.87-3.93-2.65-4.87-1.26-.67-2.75-.17-3.18,1.24-.29.96-.14,2.03.07,3,.26,1.21.71,2.38,1.17,3.53.41,1.01.64,2.01.71,3.1.05.83.12,2.12-.51,2.78-.47.49-1.25.41-1.86.32-.56-.08-1.11-.23-1.66-.37-.37-.58-.63-1.21-.95-1.83-1.04-2.07-2.55-3.84-4.03-5.61-.64-1.96-1.81-3.8-2.91-5.52-.2-.72-.4-1.45-.76-2.11-.62-1.13-1.67-1.79-2.99-1.54-1.21.23-2.33,1.06-2.75,2.24-.39,1.09-.31,2.38.09,3.48-1.12.24-2.27.25-3.04,1.3-.8,1.1-.89,2.63-.48,3.92-2.86.9-3.33,4.74-2.82,7.42-.77.42-1.42,1.01-1.76,1.84-.35.86-.3,1.83-.07,2.71.56,2.14,1.92,4.04,3.27,5.76.32.41.66.82,1,1.22.52,1.18.06,2.52-.42,3.65-.53,1.25-1.21,2.45-1.82,3.66-.65,1.27-1.68,2.9-1.36,4.4.14.66.59,1.13,1.07,1.58.59.56,1.2,1.09,1.91,1.51,1.61.95,3.46,1.02,5.29,1.11,2.03.09,4.07.07,6.1.2,1.7.11,3.4.55,5.11.53,1.63-.02,2.97-.79,3.81-2.2.46-.79.68-1.63.98-2.48.32-.92.76-1.8,1.19-2.67.86-1.72,1.79-3.48,2-5.42,0-.05,0-.09,0-.14.93-1.66,1.88-3.31,2.62-5.05.91-2.16,1.51-4.52,1.88-6.83.37-2.38.4-4.84-.24-7.17Z"/><path class="j" d="m159.65,186.24c-.45-1.09-.98-2.16-1.35-3.28-.32-.96-.5-1.96-.8-2.92-.52-1.63-1.61-3.35-3.48-3.49-1.9-.15-2.96,1.51-3.01,3.24-.07,2.29,1.12,4.41,1.63,6.6.21.91.39,1.86.39,2.8,0,.4-.03.83-.16,1.21-.16.45-.48.59-.95.67-.07.01-.13.03-.18.06-.09-.04-.19-.06-.3-.06,0,0-.17-.04-.3-.11-.15-.08-.34-.25-.49-.39-.41-.38-.76-.84-1.09-1.29-.7-.95-1.32-1.97-1.93-2.98-.81-1.34-1.66-2.66-2.45-4.02-.88-1.51-1.8-3.04-2.48-4.66-.45-1.08-.85-2.24-1.61-3.15-.81-.98-1.98-1.43-3.24-1.22-2.76.48-3.42,3.53-2.79,5.88-1.02.14-2.07.42-2.83,1.14-.75.71-1.07,1.7-1.09,2.72-.01.7.07,1.4.23,2.09-1.69.85-2.7,2.43-2.78,4.36-.04,1,.11,2,.39,2.97-1.63.26-2.38,1.9-2.5,3.54-.06.87,0,1.77.2,2.61.3,1.22.96,2.3,1.73,3.28.88,1.11,1.89,2.12,2.68,3.3-1.16,5.34-4.13,10.05-6.01,15.13-.26.7.82,1.13,1.08.43,1.74-4.7,4.37-9.05,5.71-13.9.14-.52.4-1.16.41-1.71.01-.49-.51-1.01-.79-1.38-.66-.85-1.4-1.63-2.07-2.47-1.09-1.36-1.79-2.8-1.81-4.56-.02-1.2.24-3.13,1.75-3.16.23.57.49,1.13.78,1.67.49.9,1.05,1.76,1.73,2.52.5.55,1.42-.15.92-.71-2.27-2.52-5.04-8.6-1.12-10.78.4,1.22.97,2.39,1.54,3.48.53,1.01,1.11,1.99,1.74,2.95.41.63,1.33-.09.92-.71-1.07-1.63-2.03-3.36-2.75-5.18-.6-1.52-1.42-3.9-.39-5.33.58-.82,1.67-1.05,2.67-1.1.44,1.34.99,2.65,1.54,3.94.75,1.75,1.59,3.48,2.64,5.08.41.63,1.33-.09.92-.71-1.75-2.69-2.97-5.75-4.01-8.77-.39-1.14-.69-2.3-.42-3.5.24-1.08.99-1.85,2.1-1.99,2.38-.28,2.97,2.85,3.77,4.46,1.46,2.91,3.22,5.65,4.9,8.44.66,1.1,1.34,2.2,2.14,3.21.62.78,1.48,1.8,2.58,1.73.06,0,.12-.02.16-.03.09.04.19.05.32.03.88-.15,1.58-.57,1.88-1.44.26-.74.25-1.55.19-2.33-.13-1.59-.55-3.18-1.06-4.69-.37-1.09-.8-2.17-.91-3.32-.07-.81,0-1.88.68-2.44.49-.4,1.16-.37,1.71-.13.76.34,1.24,1.05,1.56,1.8.38.9.58,1.85.82,2.79.27,1.02.66,1.97,1.08,2.94.46,1.07.93,2.14,1.25,3.26.33,1.19.47,2.44.51,3.67.12,4.8-1.66,9.32-3.63,13.61-1.11,2.41-2.31,4.77-3.19,7.28-.46,1.29-.92,2.58-1.37,3.87-.41,1.2-.78,2.43-1.39,3.56-.36.66.73,1.08,1.08.43.56-1.03.91-2.14,1.29-3.24.4-1.17.83-2.33,1.24-3.5.82-2.36,1.86-4.6,2.92-6.86,2.07-4.42,4.05-9.03,4.21-13.98.08-2.52-.33-4.92-1.28-7.25Z"/><path class="m" d="m265.95,247.8c-3.48,9.51-9.12,17.99-16.34,24.82l-3.69-3.1.05,6.29c-11.16,9.1-25.41,14.55-40.93,14.55-13.11,0-25.31-3.89-35.51-10.58l-2.56-23.65s-2.17,1.32-14.99,6.67c-1.63.68-3.43,1.43-5.43,2.24-16.01,6.55-25.85.51-29.68-8.52-3.83-9.03-.57-16.03,2.91-24.54,3.72-9.08,7.18-16.17,7.18-16.17l13.7,1.99,11.4,1.66-5.51,12.89s15.81-12.15,23.57-14.22c7.76-2.07,20.77,4.54,20.77,4.54,0,0,.27,6.51,17.1,9.31,16.82,2.81,21.73-3.98,21.73-3.98,0,0,17.6-1.93,24.85,5.21,7.24,7.14,10.87,14.11,10.87,14.11l.5.47Z"/><path class="h" d="m145.98,231.48c-1.89,1.45-3.91,2.73-6,3.88-2.05,1.13-4.19,2.15-6.43,2.87-.71.23-.26,1.3.45,1.07,2.29-.74,4.47-1.79,6.57-2.95,2.12-1.18,4.19-2.48,6.12-3.95.6-.45-.11-1.38-.71-.92Z"/><path class="j" d="m194.62,194.5c-.41.48-1.31.6-1.89.67-.62.07-1.47.13-2.04-.17-.65-.34-1.32.61-.66.96.88.46,1.93.47,2.9.36.96-.11,2.01-.39,2.66-1.15.48-.57-.48-1.23-.96-.66Z"/><path class="j" d="m244.17,199.21l-96.9-39.05c-.69-.28-1.25.74-.56,1.02l96.9,39.05c.69.28,1.25-.74.56-1.02Z"/><path class="j" d="m173.19,177.47l-23.85-9.58c-.14-.06-.6,1-.46,1.06l23.85,9.58c.14.06.6-1,.46-1.06Z"/><path class="j" d="m172.39,180.35l-10.19-4.09c-.06-.02-.5,1.04-.44,1.07l10.19,4.09c.06.02.5-1.04.44-1.07Z"/><path class="j" d="m159.52,175.4l-11.17-4.48c-.07-.03-.44.86-.37.88l11.17,4.49c.07.03.44-.86.37-.88Z"/><path class="j" d="m232.9,187.38c-.4-.63-1.32.08-.92.71,2.73,4.27-.04,9.65-3.62,12.43-1.3,1.01-2.77,1.51-4.39,1.72-1.68.22-3.47.17-5.09-.37-1.64-.54-3.04-1.63-3.26-3.43-.09-.74-1.24-.58-1.15.16.51,4.18,5.45,5.13,8.91,4.87,1.76-.13,3.58-.56,5.06-1.56,2.16-1.47,3.93-3.62,4.96-6.03,1.19-2.8,1.17-5.91-.49-8.51Z"/><path class="j" d="m258.13,231.96v3.58h-13.46v9.54h11.76v3.62h-11.76v9.03h13.89v3.58h-17.72v-29.35h17.3m0-.9h-17.3c-.5,0-.9.41-.9.9v29.35c0,.5.41.9.9.9h17.72c.5,0,.9-.41.9-.9v-3.58c0-.5-.41-.9-.9-.9h-12.98v-7.22h10.85c.5,0,.9-.41.9-.9v-3.62c0-.5-.41-.9-.9-.9h-10.85v-7.73h12.56c.5,0,.9-.41.9-.9v-3.58c0-.5-.41-.9-.9-.9h0Z"/><path class="j" d="m273.03,240.9c4.94,0,8.05,3.32,8.01,8.9v11.5h-3.71v-11.29c0-3.32-2.05-5.45-4.81-5.45s-6.09,1.66-6.09,5.96v10.78h-3.71v-19.9h3.71v3.02c1.19-2.43,4.43-3.54,6.6-3.54m0-.9c-1.56,0-3.94.55-5.7,1.95v-.53c0-.5-.41-.9-.9-.9h-3.71c-.5,0-.9.41-.9.9v19.9c0,.5.41.9.9.9h3.71c.5,0,.9-.41.9-.9v-10.78c0-2.33,1.36-5.06,5.19-5.06,2.34,0,3.91,1.83,3.91,4.55v11.29c0,.5.41.9.9.9h3.71c.5,0,.9-.41.9-.9v-11.5c.02-3.1-.88-5.66-2.6-7.4-1.56-1.58-3.75-2.41-6.31-2.41h0Z"/><path class="j" d="m294.86,240.9c2.98,0,5.79,1.32,7.11,3.62v-3.11h3.71v17.13c0,9.42-4.26,12.95-10.82,12.95-3.62,0-6.99-1.83-8.95-5.33l3.15-1.66c1.24,2.26,3.58,3.49,5.79,3.49,4.39,0,7.11-2.47,7.11-9.2v-.6c-1.32,2.26-4.22,3.62-7.07,3.62-5.45,0-9.97-4.22-9.97-10.48s4.47-10.44,9.93-10.44m.34,17.43c3.58,0,6.77-2.77,6.77-7.03s-3.49-6.9-6.77-6.9c-3.62,0-6.52,2.9-6.52,6.9s2.9,7.03,6.52,7.03m-.34-18.33c-6.28,0-10.83,4.77-10.83,11.34s4.67,11.39,10.87,11.39c2.26,0,4.47-.78,6.09-2.07-.4,4.44-2.33,6.44-6.13,6.44-2.03,0-4-1.19-5-3.02-.16-.3-.47-.47-.79-.47-.14,0-.29.03-.42.1l-3.15,1.66c-.22.11-.38.31-.45.54-.07.23-.04.49.08.7,2.06,3.68,5.61,5.79,9.74,5.79,7.78,0,11.73-4.66,11.73-13.86v-17.13c0-.5-.41-.9-.9-.9h-3.71c-.5,0-.9.41-.9.9v.67c-1.6-1.32-3.81-2.09-6.21-2.09h0Zm.34,17.43c-3.15,0-5.61-2.69-5.61-6.12s2.41-6,5.61-6c2.89,0,5.87,2.24,5.87,6,0,3.98-3.02,6.12-5.87,6.12h0Z"/><path class="j" d="m312.99,231.62c1.45,0,2.64,1.07,2.64,2.47s-1.19,2.47-2.64,2.47-2.6-1.07-2.6-2.47,1.19-2.47,2.6-2.47m1.87,9.8v19.9h-3.71v-19.9h3.71m-1.87-10.7c-1.93,0-3.5,1.51-3.5,3.38s1.57,3.38,3.5,3.38,3.55-1.48,3.55-3.38-1.56-3.38-3.55-3.38h0Zm1.87,9.8h-3.71c-.5,0-.9.41-.9.9v19.9c0,.5.41.9.9.9h3.71c.5,0,.9-.41.9-.9v-19.9c0-.5-.41-.9-.9-.9h0Z"/><path class="j" d="m330.58,240.9c4.94,0,8.05,3.32,8.01,8.9v11.5h-3.71v-11.29c0-3.32-2.05-5.45-4.81-5.45s-6.09,1.66-6.09,5.96v10.78h-3.71v-19.9h3.71v3.02c1.19-2.43,4.43-3.54,6.6-3.54m0-.9c-1.56,0-3.94.55-5.7,1.95v-.53c0-.5-.41-.9-.9-.9h-3.71c-.5,0-.9.41-.9.9v19.9c0,.5.41.9.9.9h3.71c.5,0,.9-.41.9-.9v-10.78c0-2.33,1.36-5.06,5.19-5.06,2.34,0,3.91,1.83,3.91,4.55v11.29c0,.5.41.9.9.9h3.71c.5,0,.9-.41.9-.9v-11.5c.02-3.1-.88-5.66-2.6-7.4-1.56-1.58-3.75-2.41-6.31-2.41h0Z"/><path class="j" d="m352.72,240.9c5.67,0,9.88,4.09,9.88,10.4,0,.55-.04,1.11-.09,1.66h-16.19c.55,3.54,3.11,5.37,6.52,5.37,2.43,0,4.64-1.11,5.79-3.11l3.2,1.28c-1.7,3.45-5.28,5.33-9.12,5.33-5.67,0-10.22-4.22-10.22-10.52s4.56-10.4,10.22-10.4m-6.35,8.86h12.53c-.47-3.41-2.9-5.37-6.18-5.37s-5.75,1.79-6.35,5.37m6.35-9.77c-6.45,0-11.13,4.75-11.13,11.3s4.68,11.43,11.13,11.43c4.35,0,8.15-2.23,9.93-5.83.11-.23.12-.49.03-.72-.09-.24-.27-.42-.51-.52l-3.2-1.28c-.11-.04-.22-.06-.34-.06-.32,0-.62.17-.79.45-.96,1.66-2.83,2.66-5.01,2.66-2.72,0-4.63-1.28-5.38-3.56h15.05c.47,0,.87-.36.9-.84.04-.57.09-1.15.09-1.73,0-6.65-4.44-11.3-10.79-11.3h0Zm-5.21,8.86c.74-2.33,2.52-3.56,5.21-3.56,2.55,0,4.37,1.31,5.06,3.56h-10.26Z"/><path class="j" d="m375.81,240.9c5.67,0,9.88,4.09,9.88,10.4,0,.55-.04,1.11-.09,1.66h-16.19c.55,3.54,3.11,5.37,6.52,5.37,2.43,0,4.64-1.11,5.79-3.11l3.2,1.28c-1.7,3.45-5.28,5.33-9.12,5.33-5.67,0-10.23-4.22-10.23-10.52s4.56-10.4,10.23-10.4m-6.35,8.86h12.53c-.47-3.41-2.9-5.37-6.18-5.37s-5.75,1.79-6.35,5.37m6.35-9.77c-6.45,0-11.13,4.75-11.13,11.3s4.68,11.43,11.13,11.43c4.35,0,8.15-2.23,9.93-5.83.11-.23.12-.49.03-.72-.09-.24-.27-.42-.51-.52l-3.2-1.28c-.11-.04-.22-.06-.34-.06-.32,0-.62.17-.79.45-.96,1.66-2.83,2.66-5.01,2.66-2.72,0-4.63-1.28-5.38-3.56h15.05c.47,0,.87-.36.9-.84.04-.57.09-1.14.09-1.73,0-6.65-4.44-11.3-10.79-11.3h0Zm-5.21,8.86c.74-2.33,2.52-3.56,5.21-3.56,2.55,0,4.37,1.31,5.06,3.56h-10.26Z"/><path class="j" d="m399.24,240.9c1.41,0,2.85.38,3.45.77l-.6,3.49c-1.07-.51-2.13-.68-2.9-.68-3.96,0-5.54,4.3-5.54,9.54v7.29h-3.75v-19.9h3.75v4.52c1.02-3.49,2.94-5.03,5.58-5.03m0-.9c-1.94,0-3.5.71-4.68,2.12v-.7c0-.5-.41-.9-.9-.9h-3.75c-.5,0-.9.41-.9.9v19.9c0,.5.41.9.9.9h3.75c.5,0,.9-.41.9-.9v-7.29c0-2.6.45-8.64,4.63-8.64.38,0,1.39.06,2.51.59.12.06.26.09.39.09.14,0,.29-.03.42-.1.25-.13.43-.37.48-.65l.6-3.49c.06-.36-.1-.72-.4-.91-.82-.53-2.48-.91-3.94-.91h0Z"/><path class="j" d="m411.69,240.9c3.37,0,6.86,1.79,6.86,5.79h-3.58c-.04-1.53-1.62-2.56-3.2-2.56-1.92,0-3.2,1.24-3.2,2.77,0,1.36,1.28,2.09,2.56,2.39l2.94.72c4.13,1.02,5.2,3.49,5.2,5.75,0,3.71-3.58,6.05-7.71,6.05-3.58,0-7.24-2.26-7.41-6.35h3.45c.04,1.7,1.53,3.11,3.96,3.11s4-1.24,4-2.85c0-1.49-1.15-2.26-2.73-2.6l-2.73-.64c-3.32-.89-5.24-2.51-5.24-5.71s2.81-5.88,6.82-5.88m0-.9c-4.4,0-7.72,2.92-7.72,6.78,0,4.47,3.37,5.9,5.91,6.58l2.76.65c2.03.44,2.03,1.37,2.03,1.72,0,1.17-1.25,1.95-3.1,1.95s-3.02-.92-3.06-2.23c-.01-.49-.41-.88-.9-.88h-3.45c-.25,0-.48.1-.65.28s-.26.42-.25.66c.2,4.69,4.43,7.22,8.32,7.22,4.91,0,8.62-2.99,8.62-6.95,0-2.36-1.02-5.43-5.89-6.63l-2.94-.72c-.57-.13-1.87-.54-1.87-1.51,0-1.1.94-1.86,2.29-1.86,1.08,0,2.26.67,2.29,1.68.01.49.41.88.9.88h3.58c.5,0,.9-.41.9-.9,0-4.6-4.02-6.7-7.76-6.7h0Z"/><path class="e" d="m187.11,78.75c-.41-1.23-1.56-2.19-2.8-2.52-1.32-.35-2.53.1-3.3,1.09-.19.05-.36.18-.47.4-.71,1.52-.47,3.38.71,4.6,1.17,1.2,2.91,1.44,4.31.48,1.31-.9,2.06-2.52,1.55-4.07Zm-1.31,1.33c-.22,1.22-1.65,2.28-2.85,1.72-1.11-.52-1.49-1.76-1.26-2.88.08-.07.16-.16.21-.28.47-1.03,1.47-1.31,2.47-.84.84.39,1.61,1.3,1.43,2.28Z"/><path class="k" d="m186.35,94.76l-4.53-3.26,11.41-15.83,4.53,3.26-11.41,15.83Zm-2.73-3.56l2.43,1.75,9.9-13.74-2.43-1.75-9.9,13.74Z"/><rect class="g" x="163.94" y="91.39" width="32.75" height="28.33" rx="14.17" ry="14.17"/><path class="h" d="m176.47,111.19c-1.54-1.21-3.01-2.55-4.26-4.06-.22-.26-.49-.44-.26-.83.09-.15.3-.25.44-.35.41-.29.83-.58,1.25-.86.91-.63,1.82-1.26,2.73-1.89.6-.42.03-1.4-.58-.99-1.14.79-2.27,1.57-3.41,2.36-.73.5-1.81,1.06-1.69,2.1.06.5.4.88.71,1.25.44.52.91,1.02,1.39,1.51.9.91,1.87,1.76,2.88,2.55.57.45,1.39-.35.81-.81Z"/><path class="h" d="m190.41,106.43c-1.56-1.62-3.24-3.12-5.01-4.51-.57-.45-1.39.36-.81.81,1.63,1.27,3.18,2.65,4.63,4.12-1.39,1.52-2.78,3.04-4.16,4.56-.49.54.31,1.35.81.81,1.52-1.66,3.03-3.32,4.55-4.98.21-.23.22-.58,0-.81Z"/><path class="j" d="m331.37,92.1h-1.14c.2,1.19.66,2.35,1.37,3.36.28.39-.18.82-.57.75-2.14-.42-3.88-2.08-4.55-4.11h-10.51c-2.3,0-4.38-.93-5.88-2.44-1.51-1.51-2.44-3.59-2.44-5.88,0-4.6,3.72-8.32,8.32-8.32h15.41c2.3,0,4.38.93,5.88,2.44s2.44,3.59,2.44,5.88c0,4.6-3.73,8.32-8.32,8.32Z"/><path class="d" d="m334.16,82.03c-2.35-.97-5.14.01-6.58,2-.12-.81-.24-1.62-.35-2.43-.06-.38-.61-.48-.85-.22-.65.72-1.31,1.44-1.96,2.16-.33.36-.65.72-.98,1.08-.16.18-.33.36-.49.54-.06.06-.37.46-.47.47-.53.03.26-1.9.37-2.14.17-.39.36-.77.58-1.13.24-.36.48-.72.72-1.08.37-.55-.5-1.02-.88-.51-.24.32-.45.65-.66.98-.42.62-.83,1.25-1.25,1.87-.32.48-.63.96-.95,1.43-.19.27-.58.91-1.01.69-.27-.14-.34-.6-.33-.86.02-.45.29-.81.56-1.14.51-.6,1.16-1.17,1.38-1.96.17-.6.11-1.31-.39-1.73-.68-.57-1.55-.17-2.17.28-1.48,1.08-2.58,2.54-3.28,4.23-.25.6.73.87.98.27.38-.91.91-1.76,1.57-2.49.3-.33,1.78-1.96,2.28-1.48.59.56-.79,1.81-1.09,2.16-.47.57-.87,1.17-.86,1.93.01,1.35,1.31,2.43,2.51,1.46.27-.22.5-.49.71-.78.04.34.17.64.47.86.96.7,1.84-.54,2.4-1.16.75-.82,1.49-1.64,2.24-2.46.14.98.28,1.96.43,2.93.08.53.84.43.98,0,.77-2.47,3.73-3.77,6.09-2.8.6.25.87-.73.27-.98Z"/><path class="f" d="m304.52,58.82c-.23-.31-4.92-7.5-12.52-7.02-7.6.48-9.16,8.54-7.28,12,1.37,2.52,4.04,4.19,7.29,4.39.66.04,1.33,0,1.99-.09,2.51-.38,4.98-1.77,7.24-4.1,2.11-2.18,3.29-4.38,3.34-4.47l.19-.37-.24-.34Zm-12.44,8.03c-2.77-.17-5.08-1.54-6.18-3.67-.97-1.88-.97-9.2,6.21-10.05,5.1-.6,9.94,4.74,11.06,6.14-.96,1.61-5.14,7.94-11.09,7.58Z"/><path class="f" d="m285.64,64.46l-.98-.99c.3-.3.61-.62.94-.96,2.67-2.78,6.32-6.59,13.18-5.41l-.24,1.37c-6.13-1.06-9.35,2.3-11.94,5-.33.35-.65.68-.96.99Z"/><path class="f" d="m284.68,63.45l.93,1.03c4.24-3.84,9.02-1.08,9.22-.96l.35-.6.36-.6c-.06-.04-5.86-3.42-10.86,1.12Z"/><path class="m" d="m52.19,40.94c1.9,1.3,4.69.42,5.68-1.59.15-.31.08-.6-.09-.81.27-1.09.09-2.29-.67-3.19-1.4-1.67-4.26-1.68-5.69-.04-1.43,1.64-1.01,4.43.77,5.64Zm.27-4.55c.81-1.07,2.69-1.11,3.53-.06.87,1.1.32,2.77-.86,3.37-.15.08-.25.18-.31.3-.56.14-1.16.09-1.69-.22-1.08-.65-1.45-2.37-.68-3.39Z"/><path class="g" d="m35.71,69.25c.08.32.36.58.76.47,1.68-.48,3.36-.95,5.04-1.43.71-.2.5-1.21-.12-1.24-1.38-1.15-2.75-2.3-4.13-3.45-.02-.02-.04-.04-.1-.08-.55-.46-1.32.19-1.05.71-.15,1.58-.3,3.15-.45,4.73-.01.12,0,.21.04.29Zm1.57-3.99c.87.72,1.74,1.45,2.6,2.17-.96.27-1.93.55-2.89.82.09-1,.19-1.99.28-2.99Z"/><path class="g" d="m72.74,71.04c.09.93.79,1.69,1.52,1.57.15-.02.29-.08.42-.17.01,0,.03-.02.06-.04.41-.29.61-.78.64-1.3.04-.33.01-.67-.1-1-.01-.03-.02-.06-.06-.14-.02-.04-.04-.07-.06-.12-.04-.07-.09-.14-.16-.2-.25-.35-.62-.56-1.08-.47-.7.14-1.27.93-1.18,1.87Zm1.62-.46s.02.03.03.07c-.03.14-.24.03-.24.08,0-.06.08-.11.11-.12.04-.03.08-.03.1-.02Z"/><path class="g" d="m67.47,70.93c.02-.24.15-.53.36-.55.07-.28.3-.48.52-.39.13,0,.24,0,.34.02.28-.14.59.18.59.52.22.46.17,1.11-.2,1.53-.67.75-1.7-.03-1.62-1.14Z"/></g></svg>